# MagicaVoxel @ Ephtracy

# group
o 

# material
mtllib Gallina.mtl
usemtl palette

# normals
vn -1 0 0
vn 1 0 0
vn 0 0 1
vn 0 0 -1
vn 0 -1 0
vn 0 1 0

# texcoords
vt 0.365234 0.5
vt 0.513672 0.5
vt 0.787109 0.5
vt 0.841797 0.5
vt 0.845703 0.5
vt 0.955078 0.5
vt 0.958984 0.5

# verts
v -3.9 2.7 2.7
v -3.9 2.7 0.4
v -3.9 3.9 2.7
v -3.9 3.9 0.4
v -3.3 0 3
v -3.3 0 1.9
v -3.3 0.2 3
v -3.3 0.2 1.9
v -3.3 2.1 2.9
v -3.3 2.1 0.4
v -3.3 2.2 3
v -3.3 2.2 2.9
v -3.3 2.2 0.4
v -3.3 2.2 0.3
v -3.3 2.3 3.1
v -3.3 2.3 3
v -3.3 2.3 0.3
v -3.3 2.3 0.2
v -3.3 2.7 2.7
v -3.3 2.7 0.4
v -3.3 3.9 2.7
v -3.3 3.9 0.4
v -3.3 5.5 2.9
v -3.3 5.5 2.6
v -3.3 5.8 2.9
v -3.3 5.8 2.6
v -3.3 6.5 3.1
v -3.3 6.5 0.2
v -3.2 2.1 3
v -3.2 2.1 2.9
v -3.2 2.2 3.1
v -3.2 2.2 3
v -3.2 2.2 2.9
v -3.2 2.3 3.1
v -3.2 2.3 3
v -3.1 0.2 2.3
v -3.1 0.2 2
v -3.1 2.1 3.1
v -3.1 2.1 3
v -3.1 2.1 2.3
v -3.1 2.1 2
v -3.1 2.2 3.1
v -3.1 2.2 3
v -3 0 3
v -3 0 2.4
v -3 0.2 3
v -3 0.2 2.4
v -3 2.3 0.2
v -3 2.3 -0.6
v -3 3.7 0.2
v -3 3.7 -0.6
v -2.7 0 3
v -2.7 0 2.4
v -2.7 0.2 3
v -2.7 0.2 2.4
v -2.2 4.1 3.6
v -2.2 4.1 3.1
v -2.2 4.9 4
v -2.2 4.9 3.6
v -2.2 4.9 3.1
v -2.2 5.1 3.2
v -2.2 5.1 3.1
v -2.2 5.8 4
v -2.2 5.8 3.2
v -2.2 5.8 3.1
v -2.2 6.5 2.9
v -2.2 6.5 1.4
v -2.2 6.9 2.9
v -2.2 6.9 1.4
v -1.1 0 3
v -1.1 0 1.9
v -1.1 0.2 3
v -1.1 0.2 1.9
v -0.9 0.2 2.3
v -0.9 0.2 2
v -0.9 2.1 2.3
v -0.9 2.1 2
v -0.8 0 3
v -0.8 0 2.4
v -0.8 0.2 3
v -0.8 0.2 2.4
v -0.5 0 3
v -0.5 0 2.4
v -0.5 0.2 3
v -0.5 0.2 2.4
v -0.4 3.5 1.2
v -0.4 3.5 1.1
v -0.4 3.6 1.2
v -0.4 3.6 1.1
v 0.2 2.8 2.5
v 0.2 2.8 0.6
v 0.2 3.4 2.5
v 0.2 3.4 0.6
v -3.2 3.5 1.2
v -3.2 3.5 1.1
v -3.2 3.6 1.2
v -3.2 3.6 1.1
v -3.1 0 3
v -3.1 0 2.4
v -3.1 0.2 3
v -3.1 0.2 2.4
v -2.8 0 3
v -2.8 0 2.4
v -2.8 0.2 3
v -2.8 0.2 2.4
v -2.7 0.2 2.3
v -2.7 0.2 2
v -2.7 2.1 2.3
v -2.7 2.1 2
v -2.5 0 3
v -2.5 0 1.9
v -2.5 0.2 3
v -2.5 0.2 1.9
v -1.4 6.5 2.9
v -1.4 6.5 1.4
v -1.4 6.9 2.9
v -1.4 6.9 1.4
v -1.3 4.1 3.6
v -1.3 4.1 3.1
v -1.3 4.9 4
v -1.3 4.9 3.6
v -1.3 4.9 3.1
v -1.3 5.1 3.2
v -1.3 5.1 3.1
v -1.3 5.8 4
v -1.3 5.8 3.2
v -1.3 5.8 3.1
v -0.9 0 3
v -0.9 0 2.4
v -0.9 0.2 3
v -0.9 0.2 2.4
v -0.6 0 3
v -0.6 0 2.4
v -0.6 0.2 3
v -0.6 0.2 2.4
v -0.6 2.3 0.2
v -0.6 2.3 -0.6
v -0.6 3.7 0.2
v -0.6 3.7 -0.6
v -0.5 0.2 2.3
v -0.5 0.2 2
v -0.5 2.1 3.1
v -0.5 2.1 3
v -0.5 2.1 2.3
v -0.5 2.1 2
v -0.5 2.2 3.1
v -0.5 2.2 3
v -0.4 2.1 3
v -0.4 2.1 2.9
v -0.4 2.2 3.1
v -0.4 2.2 3
v -0.4 2.2 2.9
v -0.4 2.3 3.1
v -0.4 2.3 3
v -0.3 0 3
v -0.3 0 1.9
v -0.3 0.2 3
v -0.3 0.2 1.9
v -0.3 2.1 2.9
v -0.3 2.1 0.4
v -0.3 2.2 3
v -0.3 2.2 2.9
v -0.3 2.2 0.4
v -0.3 2.2 0.3
v -0.3 2.3 3.1
v -0.3 2.3 3
v -0.3 2.3 0.3
v -0.3 2.3 0.2
v -0.3 2.7 2.7
v -0.3 2.7 0.4
v -0.3 3.9 2.7
v -0.3 3.9 0.4
v -0.3 5.5 2.9
v -0.3 5.5 2.6
v -0.3 5.8 2.9
v -0.3 5.8 2.6
v -0.3 6.5 3.1
v -0.3 6.5 0.2
v -0.2 2.8 2.5
v -0.2 2.8 0.6
v -0.2 3.4 2.5
v -0.2 3.4 0.6
v 0.3 2.7 2.7
v 0.3 2.7 0.4
v 0.3 3.9 2.7
v 0.3 3.9 0.4
v -2.2 4.9 4
v -2.2 5.8 4
v -1.3 4.9 4
v -1.3 5.8 4
v -2.2 4.1 3.6
v -2.2 4.9 3.6
v -1.3 4.1 3.6
v -1.3 4.9 3.6
v -3.3 2.3 3.1
v -3.3 6.5 3.1
v -3.2 2.2 3.1
v -3.2 2.3 3.1
v -3.1 2.1 3.1
v -3.1 2.2 3.1
v -2.2 4.1 3.1
v -2.2 4.9 3.1
v -2.2 5.1 3.1
v -2.2 5.8 3.1
v -1.3 4.1 3.1
v -1.3 4.9 3.1
v -1.3 5.1 3.1
v -1.3 5.8 3.1
v -0.5 2.1 3.1
v -0.5 2.2 3.1
v -0.4 2.2 3.1
v -0.4 2.3 3.1
v -0.3 2.3 3.1
v -0.3 6.5 3.1
v -3.3 0 3
v -3.3 0.2 3
v -3.3 2.2 3
v -3.3 2.3 3
v -3.2 2.1 3
v -3.2 2.2 3
v -3.2 2.3 3
v -3.1 0 3
v -3.1 0.2 3
v -3.1 2.1 3
v -3.1 2.2 3
v -3 0 3
v -3 0.2 3
v -2.8 0 3
v -2.8 0.2 3
v -2.7 0 3
v -2.7 0.2 3
v -2.5 0 3
v -2.5 0.2 3
v -1.1 0 3
v -1.1 0.2 3
v -0.9 0 3
v -0.9 0.2 3
v -0.8 0 3
v -0.8 0.2 3
v -0.6 0 3
v -0.6 0.2 3
v -0.5 0 3
v -0.5 0.2 3
v -0.5 2.1 3
v -0.5 2.2 3
v -0.4 2.1 3
v -0.4 2.2 3
v -0.4 2.3 3
v -0.3 0 3
v -0.3 0.2 3
v -0.3 2.2 3
v -0.3 2.3 3
v -3.3 2.1 2.9
v -3.3 2.2 2.9
v -3.2 2.1 2.9
v -3.2 2.2 2.9
v -2.2 6.5 2.9
v -2.2 6.9 2.9
v -1.4 6.5 2.9
v -1.4 6.9 2.9
v -0.4 2.1 2.9
v -0.4 2.2 2.9
v -0.3 2.1 2.9
v -0.3 2.2 2.9
v -3.9 2.7 2.7
v -3.9 3.9 2.7
v -3.3 2.7 2.7
v -3.3 3.9 2.7
v -0.3 2.7 2.7
v -0.3 3.9 2.7
v 0.3 2.7 2.7
v 0.3 3.9 2.7
v -3.1 0 2.4
v -3.1 0.2 2.4
v -3 0 2.4
v -3 0.2 2.4
v -2.8 0 2.4
v -2.8 0.2 2.4
v -2.7 0 2.4
v -2.7 0.2 2.4
v -0.9 0 2.4
v -0.9 0.2 2.4
v -0.8 0 2.4
v -0.8 0.2 2.4
v -0.6 0 2.4
v -0.6 0.2 2.4
v -0.5 0 2.4
v -0.5 0.2 2.4
v -3.1 0.2 2.3
v -3.1 2.1 2.3
v -2.7 0.2 2.3
v -2.7 2.1 2.3
v -0.9 0.2 2.3
v -0.9 2.1 2.3
v -0.5 0.2 2.3
v -0.5 2.1 2.3
v -3.2 3.5 1.1
v -3.2 3.6 1.1
v -0.4 3.5 1.1
v -0.4 3.6 1.1
v -0.2 2.8 0.6
v -0.2 3.4 0.6
v 0.2 2.8 0.6
v 0.2 3.4 0.6
v -0.2 2.8 2.5
v -0.2 3.4 2.5
v 0.2 2.8 2.5
v 0.2 3.4 2.5
v -3.1 0.2 2
v -3.1 2.1 2
v -2.7 0.2 2
v -2.7 2.1 2
v -0.9 0.2 2
v -0.9 2.1 2
v -0.5 0.2 2
v -0.5 2.1 2
v -3.3 0 1.9
v -3.3 0.2 1.9
v -2.5 0 1.9
v -2.5 0.2 1.9
v -1.1 0 1.9
v -1.1 0.2 1.9
v -0.3 0 1.9
v -0.3 0.2 1.9
v -2.2 6.5 1.4
v -2.2 6.9 1.4
v -1.4 6.5 1.4
v -1.4 6.9 1.4
v -3.2 3.5 1.2
v -3.2 3.6 1.2
v -0.4 3.5 1.2
v -0.4 3.6 1.2
v -3.9 2.7 0.4
v -3.9 3.9 0.4
v -3.3 2.1 0.4
v -3.3 2.2 0.4
v -3.3 2.7 0.4
v -3.3 3.9 0.4
v -0.3 2.1 0.4
v -0.3 2.2 0.4
v -0.3 2.7 0.4
v -0.3 3.9 0.4
v 0.3 2.7 0.4
v 0.3 3.9 0.4
v -3.3 2.2 0.3
v -3.3 2.3 0.3
v -0.3 2.2 0.3
v -0.3 2.3 0.3
v -3.3 2.3 0.2
v -3.3 6.5 0.2
v -3 2.3 0.2
v -3 3.7 0.2
v -0.6 2.3 0.2
v -0.6 3.7 0.2
v -0.3 2.3 0.2
v -0.3 6.5 0.2
v -3 2.3 -0.6
v -3 3.7 -0.6
v -0.6 2.3 -0.6
v -0.6 3.7 -0.6
v -3.3 0 3
v -3.1 0 3
v -3 0 3
v -2.8 0 3
v -2.7 0 3
v -2.5 0 3
v -1.1 0 3
v -0.9 0 3
v -0.8 0 3
v -0.6 0 3
v -0.5 0 3
v -0.3 0 3
v -3.1 0 2.4
v -3 0 2.4
v -2.8 0 2.4
v -2.7 0 2.4
v -0.9 0 2.4
v -0.8 0 2.4
v -0.6 0 2.4
v -0.5 0 2.4
v -3.3 0 1.9
v -2.5 0 1.9
v -1.1 0 1.9
v -0.3 0 1.9
v -3.1 2.1 3.1
v -0.5 2.1 3.1
v -3.2 2.1 3
v -3.1 2.1 3
v -0.5 2.1 3
v -0.4 2.1 3
v -3.3 2.1 2.9
v -3.2 2.1 2.9
v -0.4 2.1 2.9
v -0.3 2.1 2.9
v -3.1 2.1 2.3
v -2.7 2.1 2.3
v -0.9 2.1 2.3
v -0.5 2.1 2.3
v -3.1 2.1 2
v -2.7 2.1 2
v -0.9 2.1 2
v -0.5 2.1 2
v -3.3 2.1 0.4
v -0.3 2.1 0.4
v -3.2 2.2 3.1
v -3.1 2.2 3.1
v -0.5 2.2 3.1
v -0.4 2.2 3.1
v -3.3 2.2 3
v -3.2 2.2 3
v -3.1 2.2 3
v -0.5 2.2 3
v -0.4 2.2 3
v -0.3 2.2 3
v -3.3 2.2 2.9
v -3.2 2.2 2.9
v -0.4 2.2 2.9
v -0.3 2.2 2.9
v -3.3 2.2 0.4
v -0.3 2.2 0.4
v -3.3 2.2 0.3
v -0.3 2.2 0.3
v -3.3 2.3 3.1
v -3.2 2.3 3.1
v -0.4 2.3 3.1
v -0.3 2.3 3.1
v -3.3 2.3 3
v -3.2 2.3 3
v -0.4 2.3 3
v -0.3 2.3 3
v -3.3 2.3 0.3
v -0.3 2.3 0.3
v -3.3 2.3 0.2
v -3 2.3 0.2
v -0.6 2.3 0.2
v -0.3 2.3 0.2
v -3 2.3 -0.6
v -0.6 2.3 -0.6
v -3.9 2.7 2.7
v -3.3 2.7 2.7
v -0.3 2.7 2.7
v 0.3 2.7 2.7
v -3.9 2.7 0.4
v -3.3 2.7 0.4
v -0.3 2.7 0.4
v 0.3 2.7 0.4
v -0.2 3.4 2.5
v 0.2 3.4 2.5
v -0.2 3.4 0.6
v 0.2 3.4 0.6
v -3.2 3.6 1.2
v -0.4 3.6 1.2
v -3.2 3.6 1.1
v -0.4 3.6 1.1
v -2.2 4.1 3.6
v -1.3 4.1 3.6
v -2.2 4.1 3.1
v -1.3 4.1 3.1
v -2.2 4.9 4
v -1.3 4.9 4
v -2.2 4.9 3.6
v -1.3 4.9 3.6
v -3.3 0.2 3
v -3.1 0.2 3
v -3 0.2 3
v -2.8 0.2 3
v -2.7 0.2 3
v -2.5 0.2 3
v -1.1 0.2 3
v -0.9 0.2 3
v -0.8 0.2 3
v -0.6 0.2 3
v -0.5 0.2 3
v -0.3 0.2 3
v -3.1 0.2 2.4
v -3 0.2 2.4
v -2.8 0.2 2.4
v -2.7 0.2 2.4
v -0.9 0.2 2.4
v -0.8 0.2 2.4
v -0.6 0.2 2.4
v -0.5 0.2 2.4
v -3.1 0.2 2.3
v -2.7 0.2 2.3
v -0.9 0.2 2.3
v -0.5 0.2 2.3
v -3.1 0.2 2
v -2.7 0.2 2
v -0.9 0.2 2
v -0.5 0.2 2
v -3.3 0.2 1.9
v -2.5 0.2 1.9
v -1.1 0.2 1.9
v -0.3 0.2 1.9
v -0.2 2.8 2.5
v 0.2 2.8 2.5
v -0.2 2.8 0.6
v 0.2 2.8 0.6
v -3.2 3.5 1.2
v -0.4 3.5 1.2
v -3.2 3.5 1.1
v -0.4 3.5 1.1
v -3 3.7 0.2
v -0.6 3.7 0.2
v -3 3.7 -0.6
v -0.6 3.7 -0.6
v -3.9 3.9 2.7
v -3.3 3.9 2.7
v -0.3 3.9 2.7
v 0.3 3.9 2.7
v -3.9 3.9 0.4
v -3.3 3.9 0.4
v -0.3 3.9 0.4
v 0.3 3.9 0.4
v -2.2 5.8 4
v -1.3 5.8 4
v -2.2 5.8 3.2
v -1.3 5.8 3.2
v -2.2 5.8 3.1
v -1.3 5.8 3.1
v -3.3 6.5 3.1
v -0.3 6.5 3.1
v -2.2 6.5 2.9
v -1.4 6.5 2.9
v -2.2 6.5 1.4
v -1.4 6.5 1.4
v -3.3 6.5 0.2
v -0.3 6.5 0.2
v -2.2 6.9 2.9
v -1.4 6.9 2.9
v -2.2 6.9 1.4
v -1.4 6.9 1.4

# faces
f 3/7/1 2/7/1 1/7/1
f 4/7/1 2/7/1 3/7/1
f 7/2/1 6/2/1 5/2/1
f 8/2/1 6/2/1 7/2/1
f 12/7/1 10/7/1 9/7/1
f 13/7/1 10/7/1 12/7/1
f 16/7/1 12/7/1 11/7/1
f 16/7/1 14/7/1 13/7/1
f 16/7/1 13/7/1 12/7/1
f 17/7/1 14/7/1 16/7/1
f 19/7/1 16/7/1 15/7/1
f 19/7/1 18/7/1 17/7/1
f 19/7/1 17/7/1 16/7/1
f 20/7/1 18/7/1 19/7/1
f 21/7/1 19/7/1 15/7/1
f 22/7/1 18/7/1 20/7/1
f 23/7/1 21/7/1 15/7/1
f 23/7/1 22/7/1 21/7/1
f 24/7/1 22/7/1 23/7/1
f 25/7/1 23/7/1 15/7/1
f 25/6/1 24/6/1 23/6/1
f 26/7/1 22/7/1 24/7/1
f 26/6/1 24/6/1 25/6/1
f 27/7/1 25/7/1 15/7/1
f 27/7/1 26/7/1 25/7/1
f 28/7/1 18/7/1 22/7/1
f 28/7/1 26/7/1 27/7/1
f 28/7/1 22/7/1 26/7/1
f 32/7/1 30/7/1 29/7/1
f 33/7/1 30/7/1 32/7/1
f 34/7/1 32/7/1 31/7/1
f 35/7/1 32/7/1 34/7/1
f 40/2/1 37/2/1 36/2/1
f 41/2/1 37/2/1 40/2/1
f 42/7/1 39/7/1 38/7/1
f 43/7/1 39/7/1 42/7/1
f 46/2/1 45/2/1 44/2/1
f 47/2/1 45/2/1 46/2/1
f 50/7/1 49/7/1 48/7/1
f 51/7/1 49/7/1 50/7/1
f 54/2/1 53/2/1 52/2/1
f 55/2/1 53/2/1 54/2/1
f 59/1/1 57/1/1 56/1/1
f 60/1/1 57/1/1 59/1/1
f 61/4/1 59/4/1 58/4/1
f 61/4/1 60/4/1 59/4/1
f 62/4/1 60/4/1 61/4/1
f 63/4/1 61/4/1 58/4/1
f 64/5/1 62/5/1 61/5/1
f 64/4/1 61/4/1 63/4/1
f 65/5/1 62/5/1 64/5/1
f 68/1/1 67/1/1 66/1/1
f 69/1/1 67/1/1 68/1/1
f 72/2/1 71/2/1 70/2/1
f 73/2/1 71/2/1 72/2/1
f 76/2/1 75/2/1 74/2/1
f 77/2/1 75/2/1 76/2/1
f 80/2/1 79/2/1 78/2/1
f 81/2/1 79/2/1 80/2/1
f 84/2/1 83/2/1 82/2/1
f 85/2/1 83/2/1 84/2/1
f 88/7/1 87/7/1 86/7/1
f 89/7/1 87/7/1 88/7/1
f 92/7/1 91/7/1 90/7/1
f 93/7/1 91/7/1 92/7/1
f 94/7/2 95/7/2 96/7/2
f 96/7/2 95/7/2 97/7/2
f 98/2/2 99/2/2 100/2/2
f 100/2/2 99/2/2 101/2/2
f 102/2/2 103/2/2 104/2/2
f 104/2/2 103/2/2 105/2/2
f 106/2/2 107/2/2 108/2/2
f 108/2/2 107/2/2 109/2/2
f 110/2/2 111/2/2 112/2/2
f 112/2/2 111/2/2 113/2/2
f 114/1/2 115/1/2 116/1/2
f 116/1/2 115/1/2 117/1/2
f 118/1/2 119/1/2 121/1/2
f 121/1/2 119/1/2 122/1/2
f 120/4/2 121/4/2 123/4/2
f 121/4/2 122/4/2 123/4/2
f 123/4/2 122/4/2 124/4/2
f 120/4/2 123/4/2 125/4/2
f 123/5/2 124/5/2 126/5/2
f 125/4/2 123/4/2 126/4/2
f 126/5/2 124/5/2 127/5/2
f 128/2/2 129/2/2 130/2/2
f 130/2/2 129/2/2 131/2/2
f 132/2/2 133/2/2 134/2/2
f 134/2/2 133/2/2 135/2/2
f 136/7/2 137/7/2 138/7/2
f 138/7/2 137/7/2 139/7/2
f 140/2/2 141/2/2 144/2/2
f 144/2/2 141/2/2 145/2/2
f 142/7/2 143/7/2 146/7/2
f 146/7/2 143/7/2 147/7/2
f 148/7/2 149/7/2 151/7/2
f 151/7/2 149/7/2 152/7/2
f 150/7/2 151/7/2 153/7/2
f 153/7/2 151/7/2 154/7/2
f 155/2/2 156/2/2 157/2/2
f 157/2/2 156/2/2 158/2/2
f 159/7/2 160/7/2 162/7/2
f 162/7/2 160/7/2 163/7/2
f 161/7/2 162/7/2 166/7/2
f 163/7/2 164/7/2 166/7/2
f 162/7/2 163/7/2 166/7/2
f 166/7/2 164/7/2 167/7/2
f 165/7/2 166/7/2 169/7/2
f 167/7/2 168/7/2 169/7/2
f 166/7/2 167/7/2 169/7/2
f 169/7/2 168/7/2 170/7/2
f 165/7/2 169/7/2 171/7/2
f 170/7/2 168/7/2 172/7/2
f 165/7/2 171/7/2 173/7/2
f 171/7/2 172/7/2 173/7/2
f 173/7/2 172/7/2 174/7/2
f 165/7/2 173/7/2 175/7/2
f 173/6/2 174/6/2 175/6/2
f 174/7/2 172/7/2 176/7/2
f 175/6/2 174/6/2 176/6/2
f 165/7/2 175/7/2 177/7/2
f 175/7/2 176/7/2 177/7/2
f 172/7/2 168/7/2 178/7/2
f 177/7/2 176/7/2 178/7/2
f 176/7/2 172/7/2 178/7/2
f 179/7/2 180/7/2 181/7/2
f 181/7/2 180/7/2 182/7/2
f 183/7/2 184/7/2 185/7/2
f 185/7/2 184/7/2 186/7/2
f 189/4/3 188/4/3 187/4/3
f 190/4/3 188/4/3 189/4/3
f 193/1/3 192/1/3 191/1/3
f 194/1/3 192/1/3 193/1/3
f 198/7/3 196/7/3 195/7/3
f 200/7/3 198/7/3 197/7/3
f 201/7/3 196/7/3 198/7/3
f 201/7/3 200/7/3 199/7/3
f 201/7/3 198/7/3 200/7/3
f 202/7/3 196/7/3 201/7/3
f 203/7/3 196/7/3 202/7/3
f 204/7/3 196/7/3 203/7/3
f 205/7/3 201/7/3 199/7/3
f 208/7/3 196/7/3 204/7/3
f 209/7/3 207/7/3 206/7/3
f 209/7/3 208/7/3 207/7/3
f 209/7/3 205/7/3 199/7/3
f 209/7/3 206/7/3 205/7/3
f 210/7/3 208/7/3 209/7/3
f 211/7/3 208/7/3 210/7/3
f 212/7/3 208/7/3 211/7/3
f 213/7/3 208/7/3 212/7/3
f 214/7/3 196/7/3 208/7/3
f 214/7/3 208/7/3 213/7/3
f 220/7/3 218/7/3 217/7/3
f 221/7/3 218/7/3 220/7/3
f 222/2/3 216/2/3 215/2/3
f 223/2/3 216/2/3 222/2/3
f 224/7/3 220/7/3 219/7/3
f 225/7/3 220/7/3 224/7/3
f 228/2/3 227/2/3 226/2/3
f 229/2/3 227/2/3 228/2/3
f 232/2/3 231/2/3 230/2/3
f 233/2/3 231/2/3 232/2/3
f 236/2/3 235/2/3 234/2/3
f 237/2/3 235/2/3 236/2/3
f 240/2/3 239/2/3 238/2/3
f 241/2/3 239/2/3 240/2/3
f 246/7/3 245/7/3 244/7/3
f 247/7/3 245/7/3 246/7/3
f 249/2/3 243/2/3 242/2/3
f 250/2/3 243/2/3 249/2/3
f 251/7/3 248/7/3 247/7/3
f 252/7/3 248/7/3 251/7/3
f 255/7/3 254/7/3 253/7/3
f 256/7/3 254/7/3 255/7/3
f 259/1/3 258/1/3 257/1/3
f 260/1/3 258/1/3 259/1/3
f 263/7/3 262/7/3 261/7/3
f 264/7/3 262/7/3 263/7/3
f 267/7/3 266/7/3 265/7/3
f 268/7/3 266/7/3 267/7/3
f 271/7/3 270/7/3 269/7/3
f 272/7/3 270/7/3 271/7/3
f 275/2/3 274/2/3 273/2/3
f 276/2/3 274/2/3 275/2/3
f 279/2/3 278/2/3 277/2/3
f 280/2/3 278/2/3 279/2/3
f 283/2/3 282/2/3 281/2/3
f 284/2/3 282/2/3 283/2/3
f 287/2/3 286/2/3 285/2/3
f 288/2/3 286/2/3 287/2/3
f 291/2/3 290/2/3 289/2/3
f 292/2/3 290/2/3 291/2/3
f 295/2/3 294/2/3 293/2/3
f 296/2/3 294/2/3 295/2/3
f 299/7/3 298/7/3 297/7/3
f 300/7/3 298/7/3 299/7/3
f 303/7/3 302/7/3 301/7/3
f 304/7/3 302/7/3 303/7/3
f 305/7/4 306/7/4 307/7/4
f 307/7/4 306/7/4 308/7/4
f 309/2/4 310/2/4 311/2/4
f 311/2/4 310/2/4 312/2/4
f 313/2/4 314/2/4 315/2/4
f 315/2/4 314/2/4 316/2/4
f 317/2/4 318/2/4 319/2/4
f 319/2/4 318/2/4 320/2/4
f 321/2/4 322/2/4 323/2/4
f 323/2/4 322/2/4 324/2/4
f 325/1/4 326/1/4 327/1/4
f 327/1/4 326/1/4 328/1/4
f 329/7/4 330/7/4 331/7/4
f 331/7/4 330/7/4 332/7/4
f 333/7/4 334/7/4 337/7/4
f 337/7/4 334/7/4 338/7/4
f 335/7/4 336/7/4 339/7/4
f 339/7/4 336/7/4 340/7/4
f 341/7/4 342/7/4 343/7/4
f 343/7/4 342/7/4 344/7/4
f 345/7/4 346/7/4 347/7/4
f 347/7/4 346/7/4 348/7/4
f 349/7/4 350/7/4 351/7/4
f 351/7/4 350/7/4 352/7/4
f 352/7/4 350/7/4 354/7/4
f 353/7/4 354/7/4 355/7/4
f 354/7/4 350/7/4 356/7/4
f 355/7/4 354/7/4 356/7/4
f 357/7/4 358/7/4 359/7/4
f 359/7/4 358/7/4 360/7/4
f 373/2/5 362/2/5 361/2/5
f 374/2/5 364/2/5 363/2/5
f 375/2/5 364/2/5 374/2/5
f 376/2/5 366/2/5 365/2/5
f 377/2/5 368/2/5 367/2/5
f 378/2/5 370/2/5 369/2/5
f 379/2/5 370/2/5 378/2/5
f 380/2/5 372/2/5 371/2/5
f 381/2/5 373/2/5 361/2/5
f 381/2/5 375/2/5 374/2/5
f 381/2/5 376/2/5 375/2/5
f 381/2/5 374/2/5 373/2/5
f 382/2/5 366/2/5 376/2/5
f 382/2/5 376/2/5 381/2/5
f 383/2/5 379/2/5 378/2/5
f 383/2/5 380/2/5 379/2/5
f 383/2/5 377/2/5 367/2/5
f 383/2/5 378/2/5 377/2/5
f 384/2/5 372/2/5 380/2/5
f 384/2/5 380/2/5 383/2/5
f 388/7/5 386/7/5 385/7/5
f 389/7/5 386/7/5 388/7/5
f 392/7/5 388/7/5 387/7/5
f 392/7/5 390/7/5 389/7/5
f 392/7/5 389/7/5 388/7/5
f 393/7/5 390/7/5 392/7/5
f 395/7/5 392/7/5 391/7/5
f 395/7/5 394/7/5 393/7/5
f 395/7/5 393/7/5 392/7/5
f 396/7/5 394/7/5 395/7/5
f 397/7/5 394/7/5 396/7/5
f 398/7/5 394/7/5 397/7/5
f 399/7/5 395/7/5 391/7/5
f 400/7/5 397/7/5 396/7/5
f 401/7/5 397/7/5 400/7/5
f 402/7/5 394/7/5 398/7/5
f 403/7/5 401/7/5 400/7/5
f 403/7/5 402/7/5 401/7/5
f 403/7/5 399/7/5 391/7/5
f 403/7/5 400/7/5 399/7/5
f 404/7/5 394/7/5 402/7/5
f 404/7/5 402/7/5 403/7/5
f 410/7/5 406/7/5 405/7/5
f 411/7/5 406/7/5 410/7/5
f 412/7/5 408/7/5 407/7/5
f 413/7/5 408/7/5 412/7/5
f 415/7/5 410/7/5 409/7/5
f 416/7/5 410/7/5 415/7/5
f 417/7/5 414/7/5 413/7/5
f 418/7/5 414/7/5 417/7/5
f 421/7/5 420/7/5 419/7/5
f 422/7/5 420/7/5 421/7/5
f 427/7/5 424/7/5 423/7/5
f 428/7/5 424/7/5 427/7/5
f 429/7/5 426/7/5 425/7/5
f 430/7/5 426/7/5 429/7/5
f 433/7/5 432/7/5 431/7/5
f 434/7/5 432/7/5 433/7/5
f 435/7/5 432/7/5 434/7/5
f 436/7/5 432/7/5 435/7/5
f 437/7/5 435/7/5 434/7/5
f 438/7/5 435/7/5 437/7/5
f 443/7/5 440/7/5 439/7/5
f 444/7/5 440/7/5 443/7/5
f 445/7/5 442/7/5 441/7/5
f 446/7/5 442/7/5 445/7/5
f 449/7/5 448/7/5 447/7/5
f 450/7/5 448/7/5 449/7/5
f 453/7/5 452/7/5 451/7/5
f 454/7/5 452/7/5 453/7/5
f 457/1/5 456/1/5 455/1/5
f 458/1/5 456/1/5 457/1/5
f 461/4/5 460/4/5 459/4/5
f 462/4/5 460/4/5 461/4/5
f 463/2/6 464/2/6 475/2/6
f 465/2/6 466/2/6 476/2/6
f 476/2/6 466/2/6 477/2/6
f 467/2/6 468/2/6 478/2/6
f 469/2/6 470/2/6 479/2/6
f 471/2/6 472/2/6 480/2/6
f 480/2/6 472/2/6 481/2/6
f 473/2/6 474/2/6 482/2/6
f 463/2/6 475/2/6 483/2/6
f 476/2/6 477/2/6 483/2/6
f 477/2/6 478/2/6 483/2/6
f 475/2/6 476/2/6 483/2/6
f 478/2/6 468/2/6 484/2/6
f 483/2/6 478/2/6 484/2/6
f 480/2/6 481/2/6 485/2/6
f 481/2/6 482/2/6 485/2/6
f 469/2/6 479/2/6 485/2/6
f 479/2/6 480/2/6 485/2/6
f 482/2/6 474/2/6 486/2/6
f 485/2/6 482/2/6 486/2/6
f 463/2/6 483/2/6 487/2/6
f 484/2/6 468/2/6 488/2/6
f 469/2/6 485/2/6 489/2/6
f 486/2/6 474/2/6 490/2/6
f 463/2/6 487/2/6 491/2/6
f 487/2/6 488/2/6 491/2/6
f 488/2/6 468/2/6 492/2/6
f 491/2/6 488/2/6 492/2/6
f 489/2/6 490/2/6 493/2/6
f 469/2/6 489/2/6 493/2/6
f 490/2/6 474/2/6 494/2/6
f 493/2/6 490/2/6 494/2/6
f 495/7/6 496/7/6 497/7/6
f 497/7/6 496/7/6 498/7/6
f 499/7/6 500/7/6 501/7/6
f 501/7/6 500/7/6 502/7/6
f 503/7/6 504/7/6 505/7/6
f 505/7/6 504/7/6 506/7/6
f 507/7/6 508/7/6 511/7/6
f 511/7/6 508/7/6 512/7/6
f 509/7/6 510/7/6 513/7/6
f 513/7/6 510/7/6 514/7/6
f 515/4/6 516/4/6 517/4/6
f 517/4/6 516/4/6 518/4/6
f 517/5/6 518/5/6 519/5/6
f 519/5/6 518/5/6 520/5/6
f 521/7/6 522/7/6 523/7/6
f 523/7/6 522/7/6 524/7/6
f 521/7/6 523/7/6 525/7/6
f 524/7/6 522/7/6 526/7/6
f 521/7/6 525/7/6 527/7/6
f 525/7/6 526/7/6 527/7/6
f 526/7/6 522/7/6 528/7/6
f 527/7/6 526/7/6 528/7/6
f 529/1/6 530/1/6 531/1/6
f 531/1/6 530/1/6 532/1/6
