# MagicaVoxel @ Ephtracy

# group
o 

# material
mtllib Lentes.mtl
usemtl palette

# normals
vn -1 0 0
vn 1 0 0
vn 0 0 1
vn 0 0 -1
vn 0 -1 0
vn 0 1 0

# texcoords
vt 0.564453 0.5
vt 0.857422 0.5

# verts
v -1.5 0 1.5
v -1.5 0 1.4
v -1.5 0.1 1.5
v -1.5 0.1 1.4
v -1.4 0 -1.5
v -1.4 0 -1.6
v -1.4 0.1 1.5
v -1.4 0.1 1.4
v -1.4 0.1 -1.5
v -1.4 0.1 -1.6
v -1.4 0.2 1.5
v -1.4 0.2 1.4
v -1.3 0.1 -1.5
v -1.3 0.1 -1.6
v -1.3 0.2 -1.5
v -1.3 0.2 -1.6
v -1.2 0.2 1.5
v -1.2 0.2 1.4
v -1.2 0.2 -1.5
v -1.2 0.2 -1.6
v -1.2 0.3 1.5
v -1.2 0.3 1.4
v -1.2 0.3 -1.5
v -1.2 0.3 -1.6
v -1.1 0.3 1.5
v -1.1 0.3 1.4
v -1.1 0.4 1.5
v -1.1 0.4 1.4
v -1 0.3 -1.5
v -1 0.3 -1.6
v -1 0.4 1.5
v -1 0.4 1.4
v -1 0.4 -1.5
v -1 0.4 -1.6
v -1 0.5 1.5
v -1 0.5 1.4
v -0.9 0.4 -1.5
v -0.9 0.4 -1.6
v -0.9 0.5 -1.5
v -0.9 0.5 -1.6
v -0.8 0.5 1.5
v -0.8 0.5 1.4
v -0.8 0.5 -1.5
v -0.8 0.5 -1.6
v -0.8 0.6 1.5
v -0.8 0.6 1.4
v -0.8 0.6 -1.5
v -0.8 0.6 -1.6
v -0.7 0.6 1.5
v -0.7 0.6 1.4
v -0.7 0.6 -1.5
v -0.7 0.6 -1.6
v -0.7 0.7 1.5
v -0.7 0.7 1.4
v -0.7 0.7 -1.5
v -0.7 0.7 -1.6
v -0.6 0.7 1.5
v -0.6 0.7 1.4
v -0.6 0.8 1.5
v -0.6 0.8 1.4
v -0.5 0.7 -1.5
v -0.5 0.7 -1.6
v -0.5 0.8 -1.5
v -0.5 0.8 -1.6
v -0.4 0.8 1.5
v -0.4 0.8 1.4
v -0.4 0.8 -1.5
v -0.4 0.8 -1.6
v -0.4 0.9 1.5
v -0.4 0.9 1.4
v -0.4 0.9 -1.5
v -0.4 0.9 -1.6
v 0.9 0 1.4
v 0.9 0 0.3
v 0.9 0 -0.3
v 0.9 0 -1.5
v 0.9 0.1 1.5
v 0.9 0.1 1.4
v 0.9 0.1 1.3
v 0.9 0.1 0.4
v 0.9 0.1 -0.4
v 0.9 0.1 -1.4
v 0.9 0.1 -1.5
v 0.9 0.1 -1.6
v 0.9 0.3 0.3
v 0.9 0.3 0.2
v 0.9 0.3 -0.2
v 0.9 0.3 -0.3
v 0.9 0.4 0.4
v 0.9 0.4 0.3
v 0.9 0.4 0.2
v 0.9 0.4 0.1
v 0.9 0.4 -0.1
v 0.9 0.4 -0.2
v 0.9 0.4 -0.3
v 0.9 0.4 -0.4
v 0.9 0.5 0.3
v 0.9 0.5 0.2
v 0.9 0.5 -0.2
v 0.9 0.5 -0.3
v 0.9 0.6 0.1
v 0.9 0.6 -0.1
v 0.9 0.8 1.5
v 0.9 0.8 1.4
v 0.9 0.8 0.3
v 0.9 0.8 0.2
v 0.9 0.8 0.1
v 0.9 0.8 -0.1
v 0.9 0.8 -0.2
v 0.9 0.8 -0.3
v 0.9 0.8 -1.5
v 0.9 0.8 -1.6
v 0.9 0.9 1.4
v 0.9 0.9 1.3
v 0.9 0.9 0.3
v 0.9 0.9 0.2
v 0.9 0.9 0.1
v 0.9 0.9 -0.1
v 0.9 0.9 -0.2
v 0.9 0.9 -0.3
v 0.9 0.9 -1.4
v 0.9 0.9 -1.5
v 0.9 1 1.4
v 0.9 1 0.2
v 0.9 1 -0.2
v 0.9 1 -1.5
v -1.3 0 1.5
v -1.3 0 1.4
v -1.3 0.1 1.5
v -1.3 0.1 1.4
v -1.2 0 -1.5
v -1.2 0 -1.6
v -1.2 0.1 -1.5
v -1.2 0.1 -1.6
v -1.1 0.1 1.5
v -1.1 0.1 1.4
v -1.1 0.1 -1.5
v -1.1 0.1 -1.6
v -1.1 0.2 1.5
v -1.1 0.2 1.4
v -1.1 0.2 -1.5
v -1.1 0.2 -1.6
v -1 0.2 1.5
v -1 0.2 1.4
v -1 0.3 1.5
v -1 0.3 1.4
v -0.9 0.2 -1.5
v -0.9 0.2 -1.6
v -0.9 0.3 1.5
v -0.9 0.3 1.4
v -0.9 0.3 -1.5
v -0.9 0.3 -1.6
v -0.9 0.4 1.5
v -0.9 0.4 1.4
v -0.8 0.3 -1.5
v -0.8 0.3 -1.6
v -0.8 0.4 -1.5
v -0.8 0.4 -1.6
v -0.7 0.4 1.5
v -0.7 0.4 1.4
v -0.7 0.4 -1.5
v -0.7 0.4 -1.6
v -0.7 0.5 1.5
v -0.7 0.5 1.4
v -0.7 0.5 -1.5
v -0.7 0.5 -1.6
v -0.6 0.5 1.5
v -0.6 0.5 1.4
v -0.6 0.5 -1.5
v -0.6 0.5 -1.6
v -0.6 0.6 1.5
v -0.6 0.6 1.4
v -0.6 0.6 -1.5
v -0.6 0.6 -1.6
v -0.5 0.6 1.5
v -0.5 0.6 1.4
v -0.5 0.7 1.5
v -0.5 0.7 1.4
v -0.4 0.6 -1.5
v -0.4 0.6 -1.6
v -0.4 0.7 -1.5
v -0.4 0.7 -1.6
v -0.3 0.7 1.5
v -0.3 0.7 1.4
v -0.3 0.7 -1.5
v -0.3 0.7 -1.6
v -0.3 0.8 1.5
v -0.3 0.8 1.4
v -0.3 0.8 -1.5
v -0.3 0.8 -1.6
v 1 0 1.4
v 1 0 0.3
v 1 0 -0.3
v 1 0 -1.5
v 1 0.1 1.5
v 1 0.1 1.4
v 1 0.1 1.3
v 1 0.1 0.4
v 1 0.1 -0.4
v 1 0.1 -1.4
v 1 0.1 -1.5
v 1 0.1 -1.6
v 1 0.3 0.3
v 1 0.3 0.2
v 1 0.3 -0.2
v 1 0.3 -0.3
v 1 0.4 0.4
v 1 0.4 0.3
v 1 0.4 0.2
v 1 0.4 0.1
v 1 0.4 -0.1
v 1 0.4 -0.2
v 1 0.4 -0.3
v 1 0.4 -0.4
v 1 0.5 0.3
v 1 0.5 0.2
v 1 0.5 -0.2
v 1 0.5 -0.3
v 1 0.6 0.1
v 1 0.6 -0.1
v 1 0.8 0.3
v 1 0.8 0.2
v 1 0.8 0.1
v 1 0.8 -0.1
v 1 0.8 -0.2
v 1 0.8 -0.3
v 1 0.9 1.5
v 1 0.9 1.4
v 1 0.9 1.3
v 1 0.9 0.3
v 1 0.9 0.2
v 1 0.9 0.1
v 1 0.9 -0.1
v 1 0.9 -0.2
v 1 0.9 -0.3
v 1 0.9 -1.4
v 1 0.9 -1.5
v 1 0.9 -1.6
v 1 1 1.4
v 1 1 0.2
v 1 1 -0.2
v 1 1 -1.5
v -1.5 0 1.5
v -1.5 0.1 1.5
v -1.4 0.1 1.5
v -1.4 0.2 1.5
v -1.3 0 1.5
v -1.3 0.1 1.5
v -1.2 0.2 1.5
v -1.2 0.3 1.5
v -1.1 0.1 1.5
v -1.1 0.2 1.5
v -1.1 0.3 1.5
v -1.1 0.4 1.5
v -1 0.2 1.5
v -1 0.3 1.5
v -1 0.4 1.5
v -1 0.5 1.5
v -0.9 0.3 1.5
v -0.9 0.4 1.5
v -0.8 0.5 1.5
v -0.8 0.6 1.5
v -0.7 0.4 1.5
v -0.7 0.5 1.5
v -0.7 0.6 1.5
v -0.7 0.7 1.5
v -0.6 0.5 1.5
v -0.6 0.6 1.5
v -0.6 0.7 1.5
v -0.6 0.8 1.5
v -0.5 0.6 1.5
v -0.5 0.7 1.5
v -0.4 0.8 1.5
v -0.4 0.9 1.5
v -0.3 0.7 1.5
v -0.3 0.8 1.5
v 0.9 0.1 1.5
v 0.9 0.8 1.5
v 1 0.1 1.5
v 1 0.9 1.5
v 0.9 0 1.4
v 0.9 0.1 1.4
v 0.9 0.9 1.4
v 0.9 1 1.4
v 1 0 1.4
v 1 0.1 1.4
v 1 0.9 1.4
v 1 1 1.4
v 0.9 0.4 -0.1
v 0.9 0.6 -0.1
v 0.9 0.8 -0.1
v 0.9 0.9 -0.1
v 1 0.4 -0.1
v 1 0.6 -0.1
v 1 0.8 -0.1
v 1 0.9 -0.1
v 0.9 0.3 -0.2
v 0.9 0.4 -0.2
v 0.9 0.9 -0.2
v 0.9 1 -0.2
v 1 0.3 -0.2
v 1 0.4 -0.2
v 1 0.9 -0.2
v 1 1 -0.2
v 0.9 0 -0.3
v 0.9 0.3 -0.3
v 1 0 -0.3
v 1 0.3 -0.3
v -1.4 0 -1.5
v -1.4 0.1 -1.5
v -1.3 0.1 -1.5
v -1.3 0.2 -1.5
v -1.2 0 -1.5
v -1.2 0.1 -1.5
v -1.2 0.2 -1.5
v -1.2 0.3 -1.5
v -1.1 0.1 -1.5
v -1.1 0.2 -1.5
v -1 0.3 -1.5
v -1 0.4 -1.5
v -0.9 0.2 -1.5
v -0.9 0.3 -1.5
v -0.9 0.4 -1.5
v -0.9 0.5 -1.5
v -0.8 0.3 -1.5
v -0.8 0.4 -1.5
v -0.8 0.5 -1.5
v -0.8 0.6 -1.5
v -0.7 0.4 -1.5
v -0.7 0.5 -1.5
v -0.7 0.6 -1.5
v -0.7 0.7 -1.5
v -0.6 0.5 -1.5
v -0.6 0.6 -1.5
v -0.5 0.7 -1.5
v -0.5 0.8 -1.5
v -0.4 0.6 -1.5
v -0.4 0.7 -1.5
v -0.4 0.8 -1.5
v -0.4 0.9 -1.5
v -0.3 0.7 -1.5
v -0.3 0.8 -1.5
v 0.9 0.8 -1.5
v 0.9 0.9 -1.5
v -1.5 0 1.4
v -1.5 0.1 1.4
v -1.4 0.1 1.4
v -1.4 0.2 1.4
v -1.3 0 1.4
v -1.3 0.1 1.4
v -1.2 0.2 1.4
v -1.2 0.3 1.4
v -1.1 0.1 1.4
v -1.1 0.2 1.4
v -1.1 0.3 1.4
v -1.1 0.4 1.4
v -1 0.2 1.4
v -1 0.3 1.4
v -1 0.4 1.4
v -1 0.5 1.4
v -0.9 0.3 1.4
v -0.9 0.4 1.4
v -0.8 0.5 1.4
v -0.8 0.6 1.4
v -0.7 0.4 1.4
v -0.7 0.5 1.4
v -0.7 0.6 1.4
v -0.7 0.7 1.4
v -0.6 0.5 1.4
v -0.6 0.6 1.4
v -0.6 0.7 1.4
v -0.6 0.8 1.4
v -0.5 0.6 1.4
v -0.5 0.7 1.4
v -0.4 0.8 1.4
v -0.4 0.9 1.4
v -0.3 0.7 1.4
v -0.3 0.8 1.4
v 0.9 0.8 1.4
v 0.9 0.9 1.4
v 0.9 0 0.3
v 0.9 0.3 0.3
v 1 0 0.3
v 1 0.3 0.3
v 0.9 0.3 0.2
v 0.9 0.4 0.2
v 0.9 0.9 0.2
v 0.9 1 0.2
v 1 0.3 0.2
v 1 0.4 0.2
v 1 0.9 0.2
v 1 1 0.2
v 0.9 0.4 0.1
v 0.9 0.6 0.1
v 0.9 0.8 0.1
v 0.9 0.9 0.1
v 1 0.4 0.1
v 1 0.6 0.1
v 1 0.8 0.1
v 1 0.9 0.1
v 0.9 0 -1.5
v 0.9 0.1 -1.5
v 0.9 0.9 -1.5
v 0.9 1 -1.5
v 1 0 -1.5
v 1 0.1 -1.5
v 1 0.9 -1.5
v 1 1 -1.5
v -1.4 0 -1.6
v -1.4 0.1 -1.6
v -1.3 0.1 -1.6
v -1.3 0.2 -1.6
v -1.2 0 -1.6
v -1.2 0.1 -1.6
v -1.2 0.2 -1.6
v -1.2 0.3 -1.6
v -1.1 0.1 -1.6
v -1.1 0.2 -1.6
v -1 0.3 -1.6
v -1 0.4 -1.6
v -0.9 0.2 -1.6
v -0.9 0.3 -1.6
v -0.9 0.4 -1.6
v -0.9 0.5 -1.6
v -0.8 0.3 -1.6
v -0.8 0.4 -1.6
v -0.8 0.5 -1.6
v -0.8 0.6 -1.6
v -0.7 0.4 -1.6
v -0.7 0.5 -1.6
v -0.7 0.6 -1.6
v -0.7 0.7 -1.6
v -0.6 0.5 -1.6
v -0.6 0.6 -1.6
v -0.5 0.7 -1.6
v -0.5 0.8 -1.6
v -0.4 0.6 -1.6
v -0.4 0.7 -1.6
v -0.4 0.8 -1.6
v -0.4 0.9 -1.6
v -0.3 0.7 -1.6
v -0.3 0.8 -1.6
v 0.9 0.1 -1.6
v 0.9 0.8 -1.6
v 1 0.1 -1.6
v 1 0.9 -1.6
v -1.5 0 1.5
v -1.3 0 1.5
v -1.5 0 1.4
v -1.3 0 1.4
v 0.9 0 1.4
v 1 0 1.4
v 0.9 0 0.3
v 1 0 0.3
v 0.9 0 -0.3
v 1 0 -0.3
v -1.4 0 -1.5
v -1.2 0 -1.5
v 0.9 0 -1.5
v 1 0 -1.5
v -1.4 0 -1.6
v -1.2 0 -1.6
v -1.3 0.1 1.5
v -1.1 0.1 1.5
v 0.9 0.1 1.5
v 1 0.1 1.5
v -1.3 0.1 1.4
v -1.1 0.1 1.4
v 0.9 0.1 1.4
v 1 0.1 1.4
v -1.2 0.1 -1.5
v -1.1 0.1 -1.5
v 0.9 0.1 -1.5
v 1 0.1 -1.5
v -1.2 0.1 -1.6
v -1.1 0.1 -1.6
v 0.9 0.1 -1.6
v 1 0.1 -1.6
v -1.1 0.2 1.5
v -1 0.2 1.5
v -1.1 0.2 1.4
v -1 0.2 1.4
v -1.1 0.2 -1.5
v -0.9 0.2 -1.5
v -1.1 0.2 -1.6
v -0.9 0.2 -1.6
v -1 0.3 1.5
v -0.9 0.3 1.5
v -1 0.3 1.4
v -0.9 0.3 1.4
v 0.9 0.3 0.3
v 1 0.3 0.3
v 0.9 0.3 0.2
v 1 0.3 0.2
v 0.9 0.3 -0.2
v 1 0.3 -0.2
v 0.9 0.3 -0.3
v 1 0.3 -0.3
v -0.9 0.3 -1.5
v -0.8 0.3 -1.5
v -0.9 0.3 -1.6
v -0.8 0.3 -1.6
v -0.9 0.4 1.5
v -0.7 0.4 1.5
v -0.9 0.4 1.4
v -0.7 0.4 1.4
v 0.9 0.4 0.2
v 1 0.4 0.2
v 0.9 0.4 0.1
v 1 0.4 0.1
v 0.9 0.4 -0.1
v 1 0.4 -0.1
v 0.9 0.4 -0.2
v 1 0.4 -0.2
v -0.8 0.4 -1.5
v -0.7 0.4 -1.5
v -0.8 0.4 -1.6
v -0.7 0.4 -1.6
v -0.7 0.5 1.5
v -0.6 0.5 1.5
v -0.7 0.5 1.4
v -0.6 0.5 1.4
v -0.7 0.5 -1.5
v -0.6 0.5 -1.5
v -0.7 0.5 -1.6
v -0.6 0.5 -1.6
v -0.6 0.6 1.5
v -0.5 0.6 1.5
v -0.6 0.6 1.4
v -0.5 0.6 1.4
v 0.9 0.6 0.1
v 1 0.6 0.1
v 0.9 0.6 -0.1
v 1 0.6 -0.1
v -0.6 0.6 -1.5
v -0.4 0.6 -1.5
v -0.6 0.6 -1.6
v -0.4 0.6 -1.6
v -0.5 0.7 1.5
v -0.3 0.7 1.5
v -0.5 0.7 1.4
v -0.3 0.7 1.4
v -0.4 0.7 -1.5
v -0.3 0.7 -1.5
v -0.4 0.7 -1.6
v -0.3 0.7 -1.6
v -0.3 0.8 1.5
v 0.9 0.8 1.5
v -0.3 0.8 1.4
v 0.9 0.8 1.4
v -0.3 0.8 -1.5
v 0.9 0.8 -1.5
v -0.3 0.8 -1.6
v 0.9 0.8 -1.6
v -1.5 0.1 1.5
v -1.4 0.1 1.5
v -1.5 0.1 1.4
v -1.4 0.1 1.4
v -1.4 0.1 -1.5
v -1.3 0.1 -1.5
v -1.4 0.1 -1.6
v -1.3 0.1 -1.6
v -1.4 0.2 1.5
v -1.2 0.2 1.5
v -1.4 0.2 1.4
v -1.2 0.2 1.4
v -1.3 0.2 -1.5
v -1.2 0.2 -1.5
v -1.3 0.2 -1.6
v -1.2 0.2 -1.6
v -1.2 0.3 1.5
v -1.1 0.3 1.5
v -1.2 0.3 1.4
v -1.1 0.3 1.4
v -1.2 0.3 -1.5
v -1 0.3 -1.5
v -1.2 0.3 -1.6
v -1 0.3 -1.6
v -1.1 0.4 1.5
v -1 0.4 1.5
v -1.1 0.4 1.4
v -1 0.4 1.4
v -1 0.4 -1.5
v -0.9 0.4 -1.5
v -1 0.4 -1.6
v -0.9 0.4 -1.6
v -1 0.5 1.5
v -0.8 0.5 1.5
v -1 0.5 1.4
v -0.8 0.5 1.4
v -0.9 0.5 -1.5
v -0.8 0.5 -1.5
v -0.9 0.5 -1.6
v -0.8 0.5 -1.6
v -0.8 0.6 1.5
v -0.7 0.6 1.5
v -0.8 0.6 1.4
v -0.7 0.6 1.4
v -0.8 0.6 -1.5
v -0.7 0.6 -1.5
v -0.8 0.6 -1.6
v -0.7 0.6 -1.6
v -0.7 0.7 1.5
v -0.6 0.7 1.5
v -0.7 0.7 1.4
v -0.6 0.7 1.4
v -0.7 0.7 -1.5
v -0.5 0.7 -1.5
v -0.7 0.7 -1.6
v -0.5 0.7 -1.6
v -0.6 0.8 1.5
v -0.4 0.8 1.5
v -0.6 0.8 1.4
v -0.4 0.8 1.4
v 0.9 0.8 0.1
v 1 0.8 0.1
v 0.9 0.8 -0.1
v 1 0.8 -0.1
v -0.5 0.8 -1.5
v -0.4 0.8 -1.5
v -0.5 0.8 -1.6
v -0.4 0.8 -1.6
v -0.4 0.9 1.5
v 1 0.9 1.5
v -0.4 0.9 1.4
v 0.9 0.9 1.4
v 1 0.9 1.4
v 0.9 0.9 0.2
v 1 0.9 0.2
v 0.9 0.9 0.1
v 1 0.9 0.1
v 0.9 0.9 -0.1
v 1 0.9 -0.1
v 0.9 0.9 -0.2
v 1 0.9 -0.2
v -0.4 0.9 -1.5
v 0.9 0.9 -1.5
v 1 0.9 -1.5
v -0.4 0.9 -1.6
v 1 0.9 -1.6
v 0.9 1 1.4
v 1 1 1.4
v 0.9 1 0.2
v 1 1 0.2
v 0.9 1 -0.2
v 1 1 -0.2
v 0.9 1 -1.5
v 1 1 -1.5

# faces
f 3/2/1 2/2/1 1/2/1
f 4/2/1 2/2/1 3/2/1
f 9/2/1 6/2/1 5/2/1
f 10/2/1 6/2/1 9/2/1
f 11/2/1 8/2/1 7/2/1
f 12/2/1 8/2/1 11/2/1
f 15/2/1 14/2/1 13/2/1
f 16/2/1 14/2/1 15/2/1
f 21/2/1 18/2/1 17/2/1
f 22/2/1 18/2/1 21/2/1
f 23/2/1 20/2/1 19/2/1
f 24/2/1 20/2/1 23/2/1
f 27/2/1 26/2/1 25/2/1
f 28/2/1 26/2/1 27/2/1
f 33/2/1 30/2/1 29/2/1
f 34/2/1 30/2/1 33/2/1
f 35/2/1 32/2/1 31/2/1
f 36/2/1 32/2/1 35/2/1
f 39/2/1 38/2/1 37/2/1
f 40/2/1 38/2/1 39/2/1
f 45/2/1 42/2/1 41/2/1
f 46/2/1 42/2/1 45/2/1
f 47/2/1 44/2/1 43/2/1
f 48/2/1 44/2/1 47/2/1
f 53/2/1 50/2/1 49/2/1
f 54/2/1 50/2/1 53/2/1
f 55/2/1 52/2/1 51/2/1
f 56/2/1 52/2/1 55/2/1
f 59/2/1 58/2/1 57/2/1
f 60/2/1 58/2/1 59/2/1
f 63/2/1 62/2/1 61/2/1
f 64/2/1 62/2/1 63/2/1
f 69/2/1 66/2/1 65/2/1
f 70/2/1 66/2/1 69/2/1
f 71/2/1 68/2/1 67/2/1
f 72/2/1 68/2/1 71/2/1
f 78/2/1 74/2/1 73/2/1
f 79/2/1 74/2/1 78/2/1
f 80/2/1 74/2/1 79/2/1
f 81/2/1 76/2/1 75/2/1
f 82/2/1 76/2/1 81/2/1
f 83/2/1 76/2/1 82/2/1
f 85/2/1 74/2/1 80/2/1
f 88/2/1 81/2/1 75/2/1
f 89/1/1 80/1/1 79/1/1
f 89/2/1 86/2/1 85/2/1
f 89/2/1 85/2/1 80/2/1
f 90/2/1 86/2/1 89/2/1
f 91/2/1 86/2/1 90/2/1
f 94/2/1 88/2/1 87/2/1
f 95/2/1 81/2/1 88/2/1
f 95/2/1 88/2/1 94/2/1
f 96/1/1 82/1/1 81/1/1
f 96/2/1 81/2/1 95/2/1
f 97/2/1 92/2/1 91/2/1
f 97/1/1 90/1/1 89/1/1
f 97/2/1 91/2/1 90/2/1
f 98/2/1 92/2/1 97/2/1
f 99/2/1 94/2/1 93/2/1
f 99/2/1 95/2/1 94/2/1
f 100/1/1 96/1/1 95/1/1
f 100/2/1 95/2/1 99/2/1
f 101/2/1 92/2/1 98/2/1
f 102/2/1 99/2/1 93/2/1
f 103/2/1 78/2/1 77/2/1
f 103/2/1 79/2/1 78/2/1
f 104/2/1 79/2/1 103/2/1
f 105/1/1 98/1/1 97/1/1
f 105/1/1 97/1/1 89/1/1
f 106/2/1 102/2/1 101/2/1
f 106/1/1 98/1/1 105/1/1
f 106/2/1 101/2/1 98/2/1
f 107/2/1 102/2/1 106/2/1
f 108/2/1 99/2/1 102/2/1
f 108/2/1 102/2/1 107/2/1
f 109/1/1 100/1/1 99/1/1
f 109/2/1 99/2/1 108/2/1
f 110/1/1 96/1/1 100/1/1
f 110/1/1 100/1/1 109/1/1
f 111/2/1 84/2/1 83/2/1
f 111/2/1 83/2/1 82/2/1
f 112/2/1 84/2/1 111/2/1
f 113/2/1 79/2/1 104/2/1
f 114/1/1 105/1/1 89/1/1
f 114/2/1 79/2/1 113/2/1
f 114/1/1 89/1/1 79/1/1
f 115/2/1 107/2/1 106/2/1
f 115/1/1 105/1/1 114/1/1
f 115/2/1 106/2/1 105/2/1
f 116/2/1 107/2/1 115/2/1
f 117/2/1 107/2/1 116/2/1
f 118/2/1 109/2/1 108/2/1
f 118/2/1 110/2/1 109/2/1
f 119/2/1 110/2/1 118/2/1
f 120/1/1 96/1/1 110/1/1
f 120/2/1 110/2/1 119/2/1
f 121/1/1 82/1/1 96/1/1
f 121/1/1 96/1/1 120/1/1
f 121/2/1 111/2/1 82/2/1
f 122/2/1 111/2/1 121/2/1
f 123/2/1 114/2/1 113/2/1
f 123/2/1 116/2/1 115/2/1
f 123/2/1 115/2/1 114/2/1
f 124/2/1 116/2/1 123/2/1
f 125/2/1 122/2/1 121/2/1
f 125/2/1 120/2/1 119/2/1
f 125/2/1 121/2/1 120/2/1
f 126/2/1 122/2/1 125/2/1
f 127/2/2 128/2/2 129/2/2
f 129/2/2 128/2/2 130/2/2
f 131/2/2 132/2/2 133/2/2
f 133/2/2 132/2/2 134/2/2
f 135/2/2 136/2/2 139/2/2
f 139/2/2 136/2/2 140/2/2
f 137/2/2 138/2/2 141/2/2
f 141/2/2 138/2/2 142/2/2
f 143/2/2 144/2/2 145/2/2
f 145/2/2 144/2/2 146/2/2
f 147/2/2 148/2/2 151/2/2
f 151/2/2 148/2/2 152/2/2
f 149/2/2 150/2/2 153/2/2
f 153/2/2 150/2/2 154/2/2
f 155/2/2 156/2/2 157/2/2
f 157/2/2 156/2/2 158/2/2
f 159/2/2 160/2/2 163/2/2
f 163/2/2 160/2/2 164/2/2
f 161/2/2 162/2/2 165/2/2
f 165/2/2 162/2/2 166/2/2
f 167/2/2 168/2/2 171/2/2
f 171/2/2 168/2/2 172/2/2
f 169/2/2 170/2/2 173/2/2
f 173/2/2 170/2/2 174/2/2
f 175/2/2 176/2/2 177/2/2
f 177/2/2 176/2/2 178/2/2
f 179/2/2 180/2/2 181/2/2
f 181/2/2 180/2/2 182/2/2
f 183/2/2 184/2/2 187/2/2
f 187/2/2 184/2/2 188/2/2
f 185/2/2 186/2/2 189/2/2
f 189/2/2 186/2/2 190/2/2
f 191/2/2 192/2/2 196/2/2
f 196/2/2 192/2/2 197/2/2
f 197/2/2 192/2/2 198/2/2
f 193/2/2 194/2/2 199/2/2
f 199/2/2 194/2/2 200/2/2
f 200/2/2 194/2/2 201/2/2
f 198/2/2 192/2/2 203/2/2
f 193/2/2 199/2/2 206/2/2
f 197/1/2 198/1/2 207/1/2
f 203/2/2 204/2/2 207/2/2
f 198/2/2 203/2/2 207/2/2
f 207/2/2 204/2/2 208/2/2
f 208/2/2 204/2/2 209/2/2
f 205/2/2 206/2/2 212/2/2
f 206/2/2 199/2/2 213/2/2
f 212/2/2 206/2/2 213/2/2
f 199/1/2 200/1/2 214/1/2
f 213/2/2 199/2/2 214/2/2
f 209/2/2 210/2/2 215/2/2
f 207/1/2 208/1/2 215/1/2
f 208/2/2 209/2/2 215/2/2
f 215/2/2 210/2/2 216/2/2
f 211/2/2 212/2/2 217/2/2
f 212/2/2 213/2/2 217/2/2
f 213/1/2 214/1/2 218/1/2
f 217/2/2 213/2/2 218/2/2
f 216/2/2 210/2/2 219/2/2
f 211/2/2 217/2/2 220/2/2
f 215/1/2 216/1/2 221/1/2
f 207/1/2 215/1/2 221/1/2
f 219/2/2 220/2/2 222/2/2
f 221/1/2 216/1/2 222/1/2
f 216/2/2 219/2/2 222/2/2
f 222/2/2 220/2/2 223/2/2
f 220/2/2 217/2/2 224/2/2
f 223/2/2 220/2/2 224/2/2
f 217/1/2 218/1/2 225/1/2
f 224/2/2 217/2/2 225/2/2
f 218/1/2 214/1/2 226/1/2
f 225/1/2 218/1/2 226/1/2
f 195/2/2 196/2/2 227/2/2
f 196/2/2 197/2/2 227/2/2
f 227/2/2 197/2/2 228/2/2
f 207/1/2 221/1/2 229/1/2
f 228/2/2 197/2/2 229/2/2
f 197/1/2 207/1/2 229/1/2
f 222/2/2 223/2/2 230/2/2
f 229/1/2 221/1/2 230/1/2
f 221/2/2 222/2/2 230/2/2
f 230/2/2 223/2/2 231/2/2
f 231/2/2 223/2/2 232/2/2
f 225/2/2 226/2/2 233/2/2
f 224/2/2 225/2/2 233/2/2
f 233/2/2 226/2/2 234/2/2
f 226/1/2 214/1/2 235/1/2
f 234/2/2 226/2/2 235/2/2
f 201/2/2 202/2/2 236/2/2
f 235/1/2 214/1/2 236/1/2
f 214/1/2 200/1/2 236/1/2
f 200/2/2 201/2/2 236/2/2
f 236/2/2 202/2/2 237/2/2
f 237/2/2 202/2/2 238/2/2
f 230/2/2 231/2/2 239/2/2
f 228/2/2 229/2/2 239/2/2
f 229/2/2 230/2/2 239/2/2
f 239/2/2 231/2/2 240/2/2
f 234/2/2 235/2/2 241/2/2
f 236/2/2 237/2/2 241/2/2
f 235/2/2 236/2/2 241/2/2
f 241/2/2 237/2/2 242/2/2
f 245/2/3 244/2/3 243/2/3
f 247/2/3 245/2/3 243/2/3
f 247/2/3 246/2/3 245/2/3
f 248/2/3 246/2/3 247/2/3
f 249/2/3 246/2/3 248/2/3
f 251/2/3 249/2/3 248/2/3
f 251/2/3 250/2/3 249/2/3
f 252/2/3 250/2/3 251/2/3
f 253/2/3 250/2/3 252/2/3
f 255/2/3 254/2/3 253/2/3
f 255/2/3 253/2/3 252/2/3
f 256/2/3 254/2/3 255/2/3
f 257/2/3 254/2/3 256/2/3
f 259/2/3 258/2/3 257/2/3
f 259/2/3 257/2/3 256/2/3
f 260/2/3 258/2/3 259/2/3
f 261/2/3 258/2/3 260/2/3
f 263/2/3 261/2/3 260/2/3
f 263/2/3 262/2/3 261/2/3
f 264/2/3 262/2/3 263/2/3
f 265/2/3 262/2/3 264/2/3
f 267/2/3 266/2/3 265/2/3
f 267/2/3 265/2/3 264/2/3
f 268/2/3 266/2/3 267/2/3
f 269/2/3 266/2/3 268/2/3
f 271/2/3 270/2/3 269/2/3
f 271/2/3 269/2/3 268/2/3
f 272/2/3 270/2/3 271/2/3
f 273/2/3 270/2/3 272/2/3
f 275/2/3 273/2/3 272/2/3
f 275/2/3 274/2/3 273/2/3
f 276/2/3 274/2/3 275/2/3
f 278/2/3 274/2/3 276/2/3
f 279/2/3 278/2/3 277/2/3
f 280/2/3 274/2/3 278/2/3
f 280/2/3 278/2/3 279/2/3
f 285/2/3 282/2/3 281/2/3
f 286/2/3 282/2/3 285/2/3
f 287/2/3 284/2/3 283/2/3
f 288/2/3 284/2/3 287/2/3
f 293/2/3 290/2/3 289/2/3
f 294/2/3 290/2/3 293/2/3
f 295/2/3 292/2/3 291/2/3
f 296/2/3 292/2/3 295/2/3
f 301/2/3 298/2/3 297/2/3
f 302/2/3 298/2/3 301/2/3
f 303/2/3 300/2/3 299/2/3
f 304/2/3 300/2/3 303/2/3
f 307/2/3 306/2/3 305/2/3
f 308/2/3 306/2/3 307/2/3
f 311/2/3 310/2/3 309/2/3
f 313/2/3 311/2/3 309/2/3
f 313/2/3 312/2/3 311/2/3
f 314/2/3 312/2/3 313/2/3
f 315/2/3 312/2/3 314/2/3
f 317/2/3 316/2/3 315/2/3
f 317/2/3 315/2/3 314/2/3
f 318/2/3 316/2/3 317/2/3
f 319/2/3 316/2/3 318/2/3
f 321/2/3 319/2/3 318/2/3
f 321/2/3 320/2/3 319/2/3
f 322/2/3 320/2/3 321/2/3
f 323/2/3 320/2/3 322/2/3
f 325/2/3 324/2/3 323/2/3
f 325/2/3 323/2/3 322/2/3
f 326/2/3 324/2/3 325/2/3
f 327/2/3 324/2/3 326/2/3
f 329/2/3 328/2/3 327/2/3
f 329/2/3 327/2/3 326/2/3
f 330/2/3 328/2/3 329/2/3
f 331/2/3 328/2/3 330/2/3
f 333/2/3 332/2/3 331/2/3
f 333/2/3 331/2/3 330/2/3
f 334/2/3 332/2/3 333/2/3
f 335/2/3 332/2/3 334/2/3
f 337/2/3 335/2/3 334/2/3
f 337/2/3 336/2/3 335/2/3
f 338/2/3 336/2/3 337/2/3
f 339/2/3 336/2/3 338/2/3
f 341/2/3 340/2/3 339/2/3
f 341/2/3 339/2/3 338/2/3
f 342/2/3 340/2/3 341/2/3
f 343/2/3 340/2/3 342/2/3
f 344/2/3 340/2/3 343/2/3
f 345/2/4 346/2/4 347/2/4
f 345/2/4 347/2/4 349/2/4
f 347/2/4 348/2/4 349/2/4
f 349/2/4 348/2/4 350/2/4
f 350/2/4 348/2/4 351/2/4
f 350/2/4 351/2/4 353/2/4
f 351/2/4 352/2/4 353/2/4
f 353/2/4 352/2/4 354/2/4
f 354/2/4 352/2/4 355/2/4
f 355/2/4 356/2/4 357/2/4
f 354/2/4 355/2/4 357/2/4
f 357/2/4 356/2/4 358/2/4
f 358/2/4 356/2/4 359/2/4
f 359/2/4 360/2/4 361/2/4
f 358/2/4 359/2/4 361/2/4
f 361/2/4 360/2/4 362/2/4
f 362/2/4 360/2/4 363/2/4
f 362/2/4 363/2/4 365/2/4
f 363/2/4 364/2/4 365/2/4
f 365/2/4 364/2/4 366/2/4
f 366/2/4 364/2/4 367/2/4
f 367/2/4 368/2/4 369/2/4
f 366/2/4 367/2/4 369/2/4
f 369/2/4 368/2/4 370/2/4
f 370/2/4 368/2/4 371/2/4
f 371/2/4 372/2/4 373/2/4
f 370/2/4 371/2/4 373/2/4
f 373/2/4 372/2/4 374/2/4
f 374/2/4 372/2/4 375/2/4
f 374/2/4 375/2/4 377/2/4
f 375/2/4 376/2/4 377/2/4
f 377/2/4 376/2/4 378/2/4
f 378/2/4 376/2/4 379/2/4
f 379/2/4 376/2/4 380/2/4
f 381/2/4 382/2/4 383/2/4
f 383/2/4 382/2/4 384/2/4
f 385/2/4 386/2/4 389/2/4
f 389/2/4 386/2/4 390/2/4
f 387/2/4 388/2/4 391/2/4
f 391/2/4 388/2/4 392/2/4
f 393/2/4 394/2/4 397/2/4
f 397/2/4 394/2/4 398/2/4
f 395/2/4 396/2/4 399/2/4
f 399/2/4 396/2/4 400/2/4
f 401/2/4 402/2/4 405/2/4
f 405/2/4 402/2/4 406/2/4
f 403/2/4 404/2/4 407/2/4
f 407/2/4 404/2/4 408/2/4
f 409/2/4 410/2/4 411/2/4
f 409/2/4 411/2/4 413/2/4
f 411/2/4 412/2/4 413/2/4
f 413/2/4 412/2/4 414/2/4
f 414/2/4 412/2/4 415/2/4
f 415/2/4 416/2/4 417/2/4
f 414/2/4 415/2/4 417/2/4
f 417/2/4 416/2/4 418/2/4
f 418/2/4 416/2/4 419/2/4
f 418/2/4 419/2/4 421/2/4
f 419/2/4 420/2/4 421/2/4
f 421/2/4 420/2/4 422/2/4
f 422/2/4 420/2/4 423/2/4
f 423/2/4 424/2/4 425/2/4
f 422/2/4 423/2/4 425/2/4
f 425/2/4 424/2/4 426/2/4
f 426/2/4 424/2/4 427/2/4
f 427/2/4 428/2/4 429/2/4
f 426/2/4 427/2/4 429/2/4
f 429/2/4 428/2/4 430/2/4
f 430/2/4 428/2/4 431/2/4
f 431/2/4 432/2/4 433/2/4
f 430/2/4 431/2/4 433/2/4
f 433/2/4 432/2/4 434/2/4
f 434/2/4 432/2/4 435/2/4
f 434/2/4 435/2/4 437/2/4
f 435/2/4 436/2/4 437/2/4
f 437/2/4 436/2/4 438/2/4
f 438/2/4 436/2/4 439/2/4
f 439/2/4 440/2/4 441/2/4
f 438/2/4 439/2/4 441/2/4
f 441/2/4 440/2/4 442/2/4
f 442/2/4 440/2/4 444/2/4
f 443/2/4 444/2/4 445/2/4
f 444/2/4 440/2/4 446/2/4
f 445/2/4 444/2/4 446/2/4
f 449/2/5 448/2/5 447/2/5
f 450/2/5 448/2/5 449/2/5
f 453/2/5 452/2/5 451/2/5
f 454/2/5 452/2/5 453/2/5
f 459/2/5 456/2/5 455/2/5
f 460/2/5 456/2/5 459/2/5
f 461/2/5 458/2/5 457/2/5
f 462/2/5 458/2/5 461/2/5
f 467/2/5 464/2/5 463/2/5
f 468/2/5 464/2/5 467/2/5
f 469/2/5 466/2/5 465/2/5
f 470/2/5 466/2/5 469/2/5
f 475/2/5 472/2/5 471/2/5
f 476/2/5 472/2/5 475/2/5
f 477/2/5 474/2/5 473/2/5
f 478/2/5 474/2/5 477/2/5
f 481/2/5 480/2/5 479/2/5
f 482/2/5 480/2/5 481/2/5
f 485/2/5 484/2/5 483/2/5
f 486/2/5 484/2/5 485/2/5
f 489/2/5 488/2/5 487/2/5
f 490/2/5 488/2/5 489/2/5
f 493/2/5 492/2/5 491/2/5
f 494/2/5 492/2/5 493/2/5
f 497/2/5 496/2/5 495/2/5
f 498/2/5 496/2/5 497/2/5
f 501/2/5 500/2/5 499/2/5
f 502/2/5 500/2/5 501/2/5
f 505/2/5 504/2/5 503/2/5
f 506/2/5 504/2/5 505/2/5
f 509/2/5 508/2/5 507/2/5
f 510/2/5 508/2/5 509/2/5
f 513/2/5 512/2/5 511/2/5
f 514/2/5 512/2/5 513/2/5
f 517/2/5 516/2/5 515/2/5
f 518/2/5 516/2/5 517/2/5
f 521/2/5 520/2/5 519/2/5
f 522/2/5 520/2/5 521/2/5
f 525/2/5 524/2/5 523/2/5
f 526/2/5 524/2/5 525/2/5
f 529/2/5 528/2/5 527/2/5
f 530/2/5 528/2/5 529/2/5
f 533/2/5 532/2/5 531/2/5
f 534/2/5 532/2/5 533/2/5
f 537/2/5 536/2/5 535/2/5
f 538/2/5 536/2/5 537/2/5
f 541/2/5 540/2/5 539/2/5
f 542/2/5 540/2/5 541/2/5
f 545/2/5 544/2/5 543/2/5
f 546/2/5 544/2/5 545/2/5
f 549/2/5 548/2/5 547/2/5
f 550/2/5 548/2/5 549/2/5
f 553/2/5 552/2/5 551/2/5
f 554/2/5 552/2/5 553/2/5
f 555/2/6 556/2/6 557/2/6
f 557/2/6 556/2/6 558/2/6
f 559/2/6 560/2/6 561/2/6
f 561/2/6 560/2/6 562/2/6
f 563/2/6 564/2/6 565/2/6
f 565/2/6 564/2/6 566/2/6
f 567/2/6 568/2/6 569/2/6
f 569/2/6 568/2/6 570/2/6
f 571/2/6 572/2/6 573/2/6
f 573/2/6 572/2/6 574/2/6
f 575/2/6 576/2/6 577/2/6
f 577/2/6 576/2/6 578/2/6
f 579/2/6 580/2/6 581/2/6
f 581/2/6 580/2/6 582/2/6
f 583/2/6 584/2/6 585/2/6
f 585/2/6 584/2/6 586/2/6
f 587/2/6 588/2/6 589/2/6
f 589/2/6 588/2/6 590/2/6
f 591/2/6 592/2/6 593/2/6
f 593/2/6 592/2/6 594/2/6
f 595/2/6 596/2/6 597/2/6
f 597/2/6 596/2/6 598/2/6
f 599/2/6 600/2/6 601/2/6
f 601/2/6 600/2/6 602/2/6
f 603/2/6 604/2/6 605/2/6
f 605/2/6 604/2/6 606/2/6
f 607/2/6 608/2/6 609/2/6
f 609/2/6 608/2/6 610/2/6
f 611/2/6 612/2/6 613/2/6
f 613/2/6 612/2/6 614/2/6
f 615/2/6 616/2/6 617/2/6
f 617/2/6 616/2/6 618/2/6
f 619/2/6 620/2/6 621/2/6
f 621/2/6 620/2/6 622/2/6
f 623/2/6 624/2/6 625/2/6
f 625/2/6 624/2/6 626/2/6
f 626/2/6 624/2/6 627/2/6
f 628/2/6 629/2/6 630/2/6
f 630/2/6 629/2/6 631/2/6
f 632/2/6 633/2/6 634/2/6
f 634/2/6 633/2/6 635/2/6
f 636/2/6 637/2/6 639/2/6
f 637/2/6 638/2/6 639/2/6
f 639/2/6 638/2/6 640/2/6
f 641/2/6 642/2/6 643/2/6
f 643/2/6 642/2/6 644/2/6
f 645/2/6 646/2/6 647/2/6
f 647/2/6 646/2/6 648/2/6
