# MagicaVoxel @ Ephtracy

# group
o 

# material
mtllib perro.mtl
usemtl palette

# normals
vn -1 0 0
vn 1 0 0
vn 0 0 1
vn 0 0 -1
vn 0 -1 0
vn 0 1 0

# texcoords
vt 0.943359 0.5
vt 0.947266 0.5
vt 0.970703 0.5
vt 0.978516 0.5

# verts
v -0.6 1.3 0.2
v -0.6 1.3 -0.1
v -0.6 1.9 0.2
v -0.6 1.9 -0.1
v -0.4 0 0.4
v -0.4 0 0.2
v -0.4 0 -0.3
v -0.4 0 -0.5
v -0.4 0.2 0.4
v -0.4 0.2 0.2
v -0.4 0.2 -0.3
v -0.4 0.2 -0.5
v -0.4 0.3 0.4
v -0.4 0.3 0.3
v -0.4 0.3 -0.4
v -0.4 0.3 -0.5
v -0.4 0.4 0.4
v -0.4 0.4 0.3
v -0.4 0.4 -0.4
v -0.4 0.4 -0.5
v -0.4 0.5 0.2
v -0.4 0.5 -0.3
v -0.4 0.6 -0.4
v -0.4 0.6 -0.5
v -0.4 0.7 0.4
v -0.4 0.7 0.2
v -0.4 0.7 -0.4
v -0.4 0.7 -0.5
v -0.4 0.8 0.4
v -0.4 0.8 0.2
v -0.4 1 0.4
v -0.4 1 0.3
v -0.4 1 -0.2
v -0.4 1 -0.4
v -0.4 1.1 0.4
v -0.4 1.1 0.3
v -0.4 1.2 0.5
v -0.4 1.2 0.4
v -0.4 1.2 -0.1
v -0.4 1.2 -0.2
v -0.4 1.2 -0.4
v -0.4 1.2 -0.5
v -0.4 1.3 0.2
v -0.4 1.3 -0.1
v -0.4 1.6 0.5
v -0.4 1.6 0.4
v -0.4 1.8 0.5
v -0.4 1.8 0.4
v -0.4 1.9 0.3
v -0.4 1.9 0.2
v -0.4 1.9 -0.1
v -0.4 2 0.4
v -0.4 2 0.3
v -0.4 2 0.2
v -0.4 2 -0.1
v -0.2 1.2 0.6
v -0.2 1.2 0.5
v -0.2 1.5 0.6
v -0.2 1.5 0.5
v -0.2 1.8 0.5
v -0.2 1.8 0.4
v -0.2 2 0.5
v -0.2 2 0.4
v -0.1 0.9 -0.5
v -0.1 0.9 -0.6
v -0.1 0.9 -0.8
v -0.1 1 -0.6
v -0.1 1 -0.7
v -0.1 1.2 -0.5
v -0.1 1.3 0.7
v -0.1 1.3 0.6
v -0.1 1.3 -0.7
v -0.1 1.3 -0.8
v -0.1 1.3 -0.9
v -0.1 1.4 -0.5
v -0.1 1.4 -0.6
v -0.1 1.5 0.7
v -0.1 1.5 0.6
v -0.1 1.8 -0.4
v -0.1 1.8 -0.6
v -0.1 1.9 -0.7
v -0.1 1.9 -0.8
v -0.1 1.9 -0.9
v -0.1 2 -0.4
v -0.1 2 -0.7
v -0.1 2.1 -0.4
v -0.1 2.1 -0.8
v 0.1 0 0.4
v 0.1 0 0.2
v 0.1 0 -0.3
v 0.1 0 -0.5
v 0.1 0.2 0.4
v 0.1 0.2 0.2
v 0.1 0.2 -0.3
v 0.1 0.2 -0.5
v 0.1 0.3 -0.3
v 0.1 0.3 -0.4
v 0.1 0.4 -0.3
v 0.1 0.4 -0.4
v 0.1 0.5 0.4
v 0.1 0.5 0.3
v 0.1 0.5 0.2
v 0.1 0.5 -0.3
v 0.1 0.5 -0.5
v 0.1 1.8 0.5
v 0.1 1.8 0.4
v 0.1 2 0.5
v 0.1 2 0.4
v -0.1 0 0.4
v -0.1 0 0.2
v -0.1 0 -0.3
v -0.1 0 -0.5
v -0.1 0.2 0.4
v -0.1 0.2 0.2
v -0.1 0.2 -0.3
v -0.1 0.2 -0.5
v -0.1 0.3 -0.3
v -0.1 0.3 -0.4
v -0.1 0.4 -0.3
v -0.1 0.4 -0.4
v -0.1 0.5 0.4
v -0.1 0.5 0.3
v -0.1 0.5 0.2
v -0.1 0.5 -0.3
v -0.1 0.5 -0.5
v -0.1 1.8 0.5
v -0.1 1.8 0.4
v -0.1 2 0.5
v -0.1 2 0.4
v 0.1 0.9 -0.5
v 0.1 0.9 -0.6
v 0.1 0.9 -0.8
v 0.1 1 -0.6
v 0.1 1 -0.7
v 0.1 1.2 -0.5
v 0.1 1.3 0.7
v 0.1 1.3 0.6
v 0.1 1.3 -0.7
v 0.1 1.3 -0.8
v 0.1 1.3 -0.9
v 0.1 1.4 -0.5
v 0.1 1.4 -0.6
v 0.1 1.5 0.7
v 0.1 1.5 0.6
v 0.1 1.8 -0.4
v 0.1 1.8 -0.6
v 0.1 1.9 -0.7
v 0.1 1.9 -0.8
v 0.1 1.9 -0.9
v 0.1 2 -0.4
v 0.1 2 -0.7
v 0.1 2.1 -0.4
v 0.1 2.1 -0.8
v 0.2 1.2 0.6
v 0.2 1.2 0.5
v 0.2 1.5 0.6
v 0.2 1.5 0.5
v 0.2 1.8 0.5
v 0.2 1.8 0.4
v 0.2 2 0.5
v 0.2 2 0.4
v 0.4 0 0.4
v 0.4 0 0.2
v 0.4 0 -0.3
v 0.4 0 -0.5
v 0.4 0.2 0.4
v 0.4 0.2 0.2
v 0.4 0.2 -0.3
v 0.4 0.2 -0.5
v 0.4 0.3 0.4
v 0.4 0.3 0.3
v 0.4 0.3 -0.4
v 0.4 0.3 -0.5
v 0.4 0.4 0.4
v 0.4 0.4 0.3
v 0.4 0.4 -0.4
v 0.4 0.4 -0.5
v 0.4 0.5 0.2
v 0.4 0.5 -0.3
v 0.4 0.6 -0.4
v 0.4 0.6 -0.5
v 0.4 0.7 0.4
v 0.4 0.7 0.2
v 0.4 0.7 -0.4
v 0.4 0.7 -0.5
v 0.4 0.8 0.4
v 0.4 0.8 0.2
v 0.4 1 0.4
v 0.4 1 0.3
v 0.4 1 -0.2
v 0.4 1 -0.4
v 0.4 1.1 0.4
v 0.4 1.1 0.3
v 0.4 1.2 0.5
v 0.4 1.2 0.4
v 0.4 1.2 -0.1
v 0.4 1.2 -0.2
v 0.4 1.2 -0.4
v 0.4 1.2 -0.5
v 0.4 1.3 0.2
v 0.4 1.3 -0.1
v 0.4 1.6 0.5
v 0.4 1.6 0.4
v 0.4 1.8 0.5
v 0.4 1.8 0.4
v 0.4 1.9 0.3
v 0.4 1.9 0.2
v 0.4 1.9 -0.1
v 0.4 2 0.4
v 0.4 2 0.3
v 0.4 2 0.2
v 0.4 2 -0.1
v 0.6 1.3 0.2
v 0.6 1.3 -0.1
v 0.6 1.9 0.2
v 0.6 1.9 -0.1
v -0.1 1.3 0.7
v -0.1 1.5 0.7
v 0.1 1.3 0.7
v 0.1 1.5 0.7
v -0.2 1.2 0.6
v -0.2 1.5 0.6
v -0.1 1.3 0.6
v -0.1 1.5 0.6
v 0.1 1.3 0.6
v 0.1 1.5 0.6
v 0.2 1.2 0.6
v 0.2 1.5 0.6
v -0.4 1.2 0.5
v -0.4 1.6 0.5
v -0.4 1.8 0.5
v -0.2 1.2 0.5
v -0.2 1.5 0.5
v -0.2 1.6 0.5
v -0.2 1.8 0.5
v -0.2 2 0.5
v -0.1 1.5 0.5
v -0.1 1.8 0.5
v -0.1 2 0.5
v 0.1 1.5 0.5
v 0.1 1.8 0.5
v 0.1 2 0.5
v 0.2 1.2 0.5
v 0.2 1.5 0.5
v 0.2 1.6 0.5
v 0.2 1.8 0.5
v 0.2 2 0.5
v 0.4 1.2 0.5
v 0.4 1.6 0.5
v 0.4 1.8 0.5
v -0.4 0 0.4
v -0.4 0.2 0.4
v -0.4 0.3 0.4
v -0.4 0.4 0.4
v -0.4 0.7 0.4
v -0.4 0.8 0.4
v -0.4 1 0.4
v -0.4 1.1 0.4
v -0.4 1.2 0.4
v -0.4 1.8 0.4
v -0.4 2 0.4
v -0.3 0.3 0.4
v -0.3 0.4 0.4
v -0.3 0.6 0.4
v -0.3 0.7 0.4
v -0.3 0.8 0.4
v -0.3 1 0.4
v -0.3 1.1 0.4
v -0.3 1.2 0.4
v -0.2 1.8 0.4
v -0.2 2 0.4
v -0.1 0 0.4
v -0.1 0.2 0.4
v -0.1 0.5 0.4
v -0.1 0.6 0.4
v -0.1 1.8 0.4
v -0.1 2 0.4
v 0.1 0 0.4
v 0.1 0.2 0.4
v 0.1 0.5 0.4
v 0.1 0.6 0.4
v 0.1 1.8 0.4
v 0.1 2 0.4
v 0.2 1.8 0.4
v 0.2 2 0.4
v 0.3 0.3 0.4
v 0.3 0.4 0.4
v 0.3 0.6 0.4
v 0.3 0.7 0.4
v 0.3 0.8 0.4
v 0.3 1 0.4
v 0.3 1.1 0.4
v 0.3 1.2 0.4
v 0.4 0 0.4
v 0.4 0.2 0.4
v 0.4 0.3 0.4
v 0.4 0.4 0.4
v 0.4 0.7 0.4
v 0.4 0.8 0.4
v 0.4 1 0.4
v 0.4 1.1 0.4
v 0.4 1.2 0.4
v 0.4 1.8 0.4
v 0.4 2 0.4
v -0.6 1.3 0.2
v -0.6 1.9 0.2
v -0.4 1.3 0.2
v -0.4 1.9 0.2
v 0.4 1.3 0.2
v 0.4 1.9 0.2
v 0.6 1.3 0.2
v 0.6 1.9 0.2
v -0.4 0 -0.3
v -0.4 0.2 -0.3
v -0.4 0.5 -0.3
v -0.2 0.3 -0.3
v -0.2 0.4 -0.3
v -0.1 0 -0.3
v -0.1 0.2 -0.3
v -0.1 0.3 -0.3
v -0.1 0.4 -0.3
v -0.1 0.5 -0.3
v 0.1 0 -0.3
v 0.1 0.2 -0.3
v 0.1 0.3 -0.3
v 0.1 0.4 -0.3
v 0.1 0.5 -0.3
v 0.2 0.3 -0.3
v 0.2 0.4 -0.3
v 0.4 0 -0.3
v 0.4 0.2 -0.3
v 0.4 0.5 -0.3
v -0.1 1.8 -0.4
v -0.1 2 -0.4
v -0.1 2.1 -0.4
v 0.1 1.8 -0.4
v 0.1 2 -0.4
v 0.1 2.1 -0.4
v -0.1 1.2 -0.5
v -0.1 1.4 -0.5
v 0.1 1.2 -0.5
v 0.1 1.4 -0.5
v -0.1 1.4 -0.6
v -0.1 1.8 -0.6
v 0.1 1.4 -0.6
v 0.1 1.8 -0.6
v -0.4 0 0.2
v -0.4 0.2 0.2
v -0.4 0.5 0.2
v -0.1 0 0.2
v -0.1 0.2 0.2
v -0.1 0.5 0.2
v 0.1 0 0.2
v 0.1 0.2 0.2
v 0.1 0.5 0.2
v 0.4 0 0.2
v 0.4 0.2 0.2
v 0.4 0.5 0.2
v -0.6 1.3 -0.1
v -0.6 1.9 -0.1
v -0.4 1.2 -0.1
v -0.4 1.3 -0.1
v -0.4 1.9 -0.1
v -0.4 2 -0.1
v -0.2 1.2 -0.1
v 0.2 1.2 -0.1
v 0.4 1.2 -0.1
v 0.4 1.3 -0.1
v 0.4 1.9 -0.1
v 0.4 2 -0.1
v 0.6 1.3 -0.1
v 0.6 1.9 -0.1
v -0.4 0 -0.5
v -0.4 0.2 -0.5
v -0.4 0.3 -0.5
v -0.4 0.4 -0.5
v -0.4 0.6 -0.5
v -0.4 0.7 -0.5
v -0.4 1.2 -0.5
v -0.3 0.3 -0.5
v -0.3 0.4 -0.5
v -0.3 0.6 -0.5
v -0.3 0.7 -0.5
v -0.1 0 -0.5
v -0.1 0.2 -0.5
v -0.1 0.5 -0.5
v -0.1 0.9 -0.5
v -0.1 1.2 -0.5
v 0.1 0 -0.5
v 0.1 0.2 -0.5
v 0.1 0.5 -0.5
v 0.1 0.9 -0.5
v 0.1 1.2 -0.5
v 0.3 0.3 -0.5
v 0.3 0.4 -0.5
v 0.3 0.6 -0.5
v 0.3 0.7 -0.5
v 0.4 0 -0.5
v 0.4 0.2 -0.5
v 0.4 0.3 -0.5
v 0.4 0.4 -0.5
v 0.4 0.6 -0.5
v 0.4 0.7 -0.5
v 0.4 1.2 -0.5
v -0.1 0.9 -0.8
v -0.1 1.3 -0.8
v -0.1 1.9 -0.8
v -0.1 2.1 -0.8
v 0.1 0.9 -0.8
v 0.1 1.3 -0.8
v 0.1 1.9 -0.8
v 0.1 2.1 -0.8
v -0.1 1.3 -0.9
v -0.1 1.9 -0.9
v 0.1 1.3 -0.9
v 0.1 1.9 -0.9
v -0.4 0 0.4
v -0.1 0 0.4
v 0.1 0 0.4
v 0.4 0 0.4
v -0.4 0 0.2
v -0.1 0 0.2
v 0.1 0 0.2
v 0.4 0 0.2
v -0.4 0 -0.3
v -0.1 0 -0.3
v 0.1 0 -0.3
v 0.4 0 -0.3
v -0.4 0 -0.5
v -0.1 0 -0.5
v 0.1 0 -0.5
v 0.4 0 -0.5
v -0.1 0.5 0.4
v 0.1 0.5 0.4
v -0.1 0.5 0.3
v 0.1 0.5 0.3
v -0.4 0.5 0.2
v -0.1 0.5 0.2
v 0.1 0.5 0.2
v 0.4 0.5 0.2
v -0.4 0.5 -0.3
v -0.1 0.5 -0.3
v 0.1 0.5 -0.3
v 0.4 0.5 -0.3
v -0.1 0.5 -0.5
v 0.1 0.5 -0.5
v -0.1 0.9 -0.5
v 0.1 0.9 -0.5
v -0.1 0.9 -0.6
v 0.1 0.9 -0.6
v -0.1 0.9 -0.8
v 0.1 0.9 -0.8
v -0.2 1.2 0.6
v 0.2 1.2 0.6
v -0.4 1.2 0.5
v -0.2 1.2 0.5
v 0.2 1.2 0.5
v 0.4 1.2 0.5
v -0.4 1.2 0.4
v -0.3 1.2 0.4
v 0.3 1.2 0.4
v 0.4 1.2 0.4
v -0.1 1.3 0.7
v 0.1 1.3 0.7
v -0.1 1.3 0.6
v 0.1 1.3 0.6
v -0.6 1.3 0.2
v -0.4 1.3 0.2
v 0.4 1.3 0.2
v 0.6 1.3 0.2
v -0.6 1.3 -0.1
v -0.4 1.3 -0.1
v 0.4 1.3 -0.1
v 0.6 1.3 -0.1
v -0.1 1.3 -0.8
v 0.1 1.3 -0.8
v -0.1 1.3 -0.9
v 0.1 1.3 -0.9
v -0.1 1.8 -0.4
v 0.1 1.8 -0.4
v -0.1 1.8 -0.6
v 0.1 1.8 -0.6
v -0.4 1.2 -0.1
v -0.2 1.2 -0.1
v 0.2 1.2 -0.1
v 0.4 1.2 -0.1
v -0.4 1.2 -0.2
v -0.2 1.2 -0.2
v 0.2 1.2 -0.2
v 0.4 1.2 -0.2
v -0.4 1.2 -0.4
v 0.4 1.2 -0.4
v -0.4 1.2 -0.5
v -0.1 1.2 -0.5
v 0.1 1.2 -0.5
v 0.4 1.2 -0.5
v -0.1 1.4 -0.5
v 0.1 1.4 -0.5
v -0.1 1.4 -0.6
v 0.1 1.4 -0.6
v -0.1 1.5 0.7
v 0.1 1.5 0.7
v -0.2 1.5 0.6
v -0.1 1.5 0.6
v 0.1 1.5 0.6
v 0.2 1.5 0.6
v -0.2 1.5 0.5
v -0.1 1.5 0.5
v 0.1 1.5 0.5
v 0.2 1.5 0.5
v -0.4 1.8 0.5
v -0.2 1.8 0.5
v -0.1 1.8 0.5
v 0.1 1.8 0.5
v 0.2 1.8 0.5
v 0.4 1.8 0.5
v -0.4 1.8 0.4
v -0.2 1.8 0.4
v -0.1 1.8 0.4
v 0.1 1.8 0.4
v 0.2 1.8 0.4
v 0.4 1.8 0.4
v -0.6 1.9 0.2
v -0.4 1.9 0.2
v 0.4 1.9 0.2
v 0.6 1.9 0.2
v -0.6 1.9 -0.1
v -0.4 1.9 -0.1
v 0.4 1.9 -0.1
v 0.6 1.9 -0.1
v -0.1 1.9 -0.8
v 0.1 1.9 -0.8
v -0.1 1.9 -0.9
v 0.1 1.9 -0.9
v -0.2 2 0.5
v -0.1 2 0.5
v 0.1 2 0.5
v 0.2 2 0.5
v -0.4 2 0.4
v -0.2 2 0.4
v -0.1 2 0.4
v 0.1 2 0.4
v 0.2 2 0.4
v 0.4 2 0.4
v -0.4 2 0.3
v -0.2 2 0.3
v -0.1 2 0.3
v 0.1 2 0.3
v 0.2 2 0.3
v 0.4 2 0.3
v -0.4 2 0.2
v -0.2 2 0.2
v -0.1 2 0.2
v 0.1 2 0.2
v 0.2 2 0.2
v 0.4 2 0.2
v -0.2 2 0.1
v 0.2 2 0.1
v -0.2 2 0
v 0.2 2 0
v -0.4 2 -0.1
v 0.4 2 -0.1
v -0.1 2.1 -0.4
v 0.1 2.1 -0.4
v -0.1 2.1 -0.8
v 0.1 2.1 -0.8

# faces
f 3/2/1 2/2/1 1/2/1
f 4/2/1 2/2/1 3/2/1
f 9/4/1 6/4/1 5/4/1
f 10/4/1 6/4/1 9/4/1
f 11/4/1 8/4/1 7/4/1
f 12/4/1 8/4/1 11/4/1
f 13/1/1 10/1/1 9/1/1
f 14/1/1 10/1/1 13/1/1
f 15/1/1 12/1/1 11/1/1
f 16/1/1 12/1/1 15/1/1
f 17/2/1 14/2/1 13/2/1
f 18/1/1 10/1/1 14/1/1
f 18/2/1 14/2/1 17/2/1
f 19/1/1 15/1/1 11/1/1
f 19/2/1 16/2/1 15/2/1
f 20/2/1 16/2/1 19/2/1
f 21/1/1 10/1/1 18/1/1
f 21/1/1 18/1/1 17/1/1
f 22/1/1 20/1/1 19/1/1
f 22/1/1 19/1/1 11/1/1
f 23/1/1 20/1/1 22/1/1
f 23/1/1 22/1/1 21/1/1
f 24/1/1 20/1/1 23/1/1
f 25/1/1 21/1/1 17/1/1
f 25/1/1 23/1/1 21/1/1
f 26/1/1 23/1/1 25/1/1
f 27/2/1 24/2/1 23/2/1
f 27/1/1 23/1/1 26/1/1
f 28/2/1 24/2/1 27/2/1
f 29/2/1 26/2/1 25/2/1
f 30/1/1 27/1/1 26/1/1
f 30/2/1 26/2/1 29/2/1
f 30/1/1 28/1/1 27/1/1
f 31/1/1 30/1/1 29/1/1
f 32/1/1 30/1/1 31/1/1
f 33/1/1 28/1/1 30/1/1
f 33/1/1 30/1/1 32/1/1
f 34/1/1 28/1/1 33/1/1
f 35/2/1 32/2/1 31/2/1
f 36/1/1 33/1/1 32/1/1
f 36/2/1 32/2/1 35/2/1
f 38/1/1 36/1/1 35/1/1
f 39/1/1 33/1/1 36/1/1
f 39/1/1 36/1/1 38/1/1
f 40/2/1 34/2/1 33/2/1
f 40/1/1 33/1/1 39/1/1
f 41/1/1 28/1/1 34/1/1
f 41/2/1 34/2/1 40/2/1
f 42/1/1 28/1/1 41/1/1
f 43/1/1 39/1/1 38/1/1
f 43/1/1 38/1/1 37/1/1
f 44/1/1 39/1/1 43/1/1
f 45/1/1 43/1/1 37/1/1
f 46/1/1 43/1/1 45/1/1
f 47/3/1 46/3/1 45/3/1
f 48/1/1 43/1/1 46/1/1
f 48/3/1 46/3/1 47/3/1
f 49/1/1 43/1/1 48/1/1
f 50/1/1 43/1/1 49/1/1
f 52/1/1 49/1/1 48/1/1
f 53/2/1 50/2/1 49/2/1
f 53/1/1 49/1/1 52/1/1
f 54/1/1 51/1/1 50/1/1
f 54/2/1 50/2/1 53/2/1
f 55/1/1 51/1/1 54/1/1
f 58/4/1 57/4/1 56/4/1
f 59/4/1 57/4/1 58/4/1
f 62/1/1 61/1/1 60/1/1
f 63/1/1 61/1/1 62/1/1
f 67/2/1 65/2/1 64/2/1
f 67/4/1 66/4/1 65/4/1
f 68/4/1 66/4/1 67/4/1
f 69/2/1 67/2/1 64/2/1
f 69/2/1 68/2/1 67/2/1
f 72/4/1 66/4/1 68/4/1
f 72/2/1 68/2/1 69/2/1
f 73/4/1 66/4/1 72/4/1
f 75/2/1 72/2/1 69/2/1
f 75/2/1 73/2/1 72/2/1
f 76/2/1 73/2/1 75/2/1
f 77/3/1 71/3/1 70/3/1
f 78/3/1 71/3/1 77/3/1
f 80/2/1 73/2/1 76/2/1
f 81/2/1 73/2/1 80/2/1
f 81/2/1 80/2/1 79/2/1
f 82/4/1 74/4/1 73/4/1
f 82/2/1 73/2/1 81/2/1
f 83/4/1 74/4/1 82/4/1
f 84/2/1 81/2/1 79/2/1
f 85/4/1 82/4/1 81/4/1
f 85/2/1 81/2/1 84/2/1
f 86/4/1 85/4/1 84/4/1
f 87/4/1 82/4/1 85/4/1
f 87/4/1 85/4/1 86/4/1
f 92/4/1 89/4/1 88/4/1
f 93/4/1 89/4/1 92/4/1
f 94/4/1 91/4/1 90/4/1
f 95/4/1 91/4/1 94/4/1
f 96/1/1 95/1/1 94/1/1
f 97/1/1 95/1/1 96/1/1
f 98/2/1 97/2/1 96/2/1
f 99/1/1 95/1/1 97/1/1
f 99/2/1 97/2/1 98/2/1
f 100/1/1 93/1/1 92/1/1
f 101/1/1 93/1/1 100/1/1
f 102/1/1 93/1/1 101/1/1
f 103/1/1 99/1/1 98/1/1
f 104/1/1 95/1/1 99/1/1
f 104/1/1 99/1/1 103/1/1
f 107/1/1 106/1/1 105/1/1
f 108/1/1 106/1/1 107/1/1
f 109/4/2 110/4/2 113/4/2
f 113/4/2 110/4/2 114/4/2
f 111/4/2 112/4/2 115/4/2
f 115/4/2 112/4/2 116/4/2
f 115/1/2 116/1/2 117/1/2
f 117/1/2 116/1/2 118/1/2
f 117/2/2 118/2/2 119/2/2
f 118/1/2 116/1/2 120/1/2
f 119/2/2 118/2/2 120/2/2
f 113/1/2 114/1/2 121/1/2
f 121/1/2 114/1/2 122/1/2
f 122/1/2 114/1/2 123/1/2
f 119/1/2 120/1/2 124/1/2
f 120/1/2 116/1/2 125/1/2
f 124/1/2 120/1/2 125/1/2
f 126/1/2 127/1/2 128/1/2
f 128/1/2 127/1/2 129/1/2
f 130/2/2 131/2/2 133/2/2
f 131/4/2 132/4/2 133/4/2
f 133/4/2 132/4/2 134/4/2
f 130/2/2 133/2/2 135/2/2
f 133/2/2 134/2/2 135/2/2
f 134/4/2 132/4/2 138/4/2
f 135/2/2 134/2/2 138/2/2
f 138/4/2 132/4/2 139/4/2
f 135/2/2 138/2/2 141/2/2
f 138/2/2 139/2/2 141/2/2
f 141/2/2 139/2/2 142/2/2
f 136/3/2 137/3/2 143/3/2
f 143/3/2 137/3/2 144/3/2
f 142/2/2 139/2/2 146/2/2
f 146/2/2 139/2/2 147/2/2
f 145/2/2 146/2/2 147/2/2
f 139/4/2 140/4/2 148/4/2
f 147/2/2 139/2/2 148/2/2
f 148/4/2 140/4/2 149/4/2
f 145/2/2 147/2/2 150/2/2
f 147/4/2 148/4/2 151/4/2
f 150/2/2 147/2/2 151/2/2
f 150/4/2 151/4/2 152/4/2
f 151/4/2 148/4/2 153/4/2
f 152/4/2 151/4/2 153/4/2
f 154/4/2 155/4/2 156/4/2
f 156/4/2 155/4/2 157/4/2
f 158/1/2 159/1/2 160/1/2
f 160/1/2 159/1/2 161/1/2
f 162/4/2 163/4/2 166/4/2
f 166/4/2 163/4/2 167/4/2
f 164/4/2 165/4/2 168/4/2
f 168/4/2 165/4/2 169/4/2
f 166/1/2 167/1/2 170/1/2
f 170/1/2 167/1/2 171/1/2
f 168/1/2 169/1/2 172/1/2
f 172/1/2 169/1/2 173/1/2
f 170/2/2 171/2/2 174/2/2
f 171/1/2 167/1/2 175/1/2
f 174/2/2 171/2/2 175/2/2
f 168/1/2 172/1/2 176/1/2
f 172/2/2 173/2/2 176/2/2
f 176/2/2 173/2/2 177/2/2
f 175/1/2 167/1/2 178/1/2
f 174/1/2 175/1/2 178/1/2
f 176/1/2 177/1/2 179/1/2
f 168/1/2 176/1/2 179/1/2
f 179/1/2 177/1/2 180/1/2
f 178/1/2 179/1/2 180/1/2
f 180/1/2 177/1/2 181/1/2
f 174/1/2 178/1/2 182/1/2
f 178/1/2 180/1/2 182/1/2
f 182/1/2 180/1/2 183/1/2
f 180/2/2 181/2/2 184/2/2
f 183/1/2 180/1/2 184/1/2
f 184/2/2 181/2/2 185/2/2
f 182/2/2 183/2/2 186/2/2
f 183/1/2 184/1/2 187/1/2
f 186/2/2 183/2/2 187/2/2
f 184/1/2 185/1/2 187/1/2
f 186/1/2 187/1/2 188/1/2
f 188/1/2 187/1/2 189/1/2
f 187/1/2 185/1/2 190/1/2
f 189/1/2 187/1/2 190/1/2
f 190/1/2 185/1/2 191/1/2
f 188/2/2 189/2/2 192/2/2
f 189/1/2 190/1/2 193/1/2
f 192/2/2 189/2/2 193/2/2
f 192/1/2 193/1/2 195/1/2
f 193/1/2 190/1/2 196/1/2
f 195/1/2 193/1/2 196/1/2
f 190/2/2 191/2/2 197/2/2
f 196/1/2 190/1/2 197/1/2
f 191/1/2 185/1/2 198/1/2
f 197/2/2 191/2/2 198/2/2
f 198/1/2 185/1/2 199/1/2
f 195/1/2 196/1/2 200/1/2
f 194/1/2 195/1/2 200/1/2
f 200/1/2 196/1/2 201/1/2
f 194/1/2 200/1/2 202/1/2
f 202/1/2 200/1/2 203/1/2
f 202/3/2 203/3/2 204/3/2
f 203/1/2 200/1/2 205/1/2
f 204/3/2 203/3/2 205/3/2
f 205/1/2 200/1/2 206/1/2
f 206/1/2 200/1/2 207/1/2
f 205/1/2 206/1/2 209/1/2
f 206/2/2 207/2/2 210/2/2
f 209/1/2 206/1/2 210/1/2
f 207/1/2 208/1/2 211/1/2
f 210/2/2 207/2/2 211/2/2
f 211/1/2 208/1/2 212/1/2
f 213/2/2 214/2/2 215/2/2
f 215/2/2 214/2/2 216/2/2
f 219/3/3 218/3/3 217/3/3
f 220/3/3 218/3/3 219/3/3
f 223/4/3 222/4/3 221/4/3
f 224/4/3 222/4/3 223/4/3
f 225/4/3 223/4/3 221/4/3
f 227/4/3 225/4/3 221/4/3
f 227/4/3 226/4/3 225/4/3
f 228/4/3 226/4/3 227/4/3
f 232/1/3 230/1/3 229/1/3
f 233/1/3 230/1/3 232/1/3
f 234/3/3 231/3/3 230/3/3
f 234/1/3 230/1/3 233/1/3
f 235/3/3 231/3/3 234/3/3
f 237/1/3 236/1/3 235/1/3
f 237/1/3 235/1/3 234/1/3
f 237/1/3 234/1/3 233/1/3
f 238/1/3 236/1/3 237/1/3
f 239/1/3 236/1/3 238/1/3
f 240/4/3 238/4/3 237/4/3
f 241/4/3 238/4/3 240/4/3
f 244/1/3 241/1/3 240/1/3
f 244/1/3 242/1/3 241/1/3
f 245/1/3 242/1/3 244/1/3
f 246/1/3 242/1/3 245/1/3
f 247/1/3 242/1/3 246/1/3
f 248/1/3 244/1/3 243/1/3
f 248/1/3 245/1/3 244/1/3
f 249/3/3 246/3/3 245/3/3
f 249/1/3 245/1/3 248/1/3
f 250/3/3 246/3/3 249/3/3
f 262/1/3 253/1/3 252/1/3
f 262/2/3 254/2/3 253/2/3
f 263/1/3 255/1/3 254/1/3
f 263/2/3 254/2/3 262/2/3
f 264/1/3 255/1/3 263/1/3
f 265/2/3 256/2/3 255/2/3
f 265/1/3 255/1/3 264/1/3
f 266/1/3 257/1/3 256/1/3
f 266/2/3 256/2/3 265/2/3
f 267/2/3 258/2/3 257/2/3
f 267/1/3 257/1/3 266/1/3
f 268/1/3 259/1/3 258/1/3
f 268/2/3 258/2/3 267/2/3
f 269/1/3 259/1/3 268/1/3
f 270/1/3 261/1/3 260/1/3
f 271/1/3 261/1/3 270/1/3
f 272/4/3 252/4/3 251/4/3
f 273/1/3 262/1/3 252/1/3
f 273/4/3 252/4/3 272/4/3
f 273/1/3 264/1/3 263/1/3
f 273/1/3 263/1/3 262/1/3
f 274/1/3 264/1/3 273/1/3
f 275/4/3 269/4/3 268/4/3
f 275/1/3 264/1/3 274/1/3
f 275/4/3 267/4/3 266/4/3
f 275/4/3 265/4/3 264/4/3
f 275/4/3 268/4/3 267/4/3
f 275/4/3 266/4/3 265/4/3
f 280/4/3 275/4/3 274/4/3
f 281/4/3 269/4/3 275/4/3
f 281/4/3 275/4/3 280/4/3
f 282/1/3 277/1/3 276/1/3
f 283/1/3 277/1/3 282/1/3
f 286/1/3 280/1/3 279/1/3
f 286/1/3 281/1/3 280/1/3
f 287/1/3 281/1/3 286/1/3
f 288/4/3 269/4/3 281/4/3
f 288/1/3 281/1/3 287/1/3
f 289/4/3 269/4/3 288/4/3
f 290/4/3 269/4/3 289/4/3
f 291/4/3 269/4/3 290/4/3
f 292/4/3 269/4/3 291/4/3
f 293/4/3 269/4/3 292/4/3
f 294/4/3 279/4/3 278/4/3
f 295/1/3 286/1/3 279/1/3
f 295/4/3 279/4/3 294/4/3
f 296/2/3 287/2/3 286/2/3
f 296/1/3 286/1/3 295/1/3
f 297/1/3 288/1/3 287/1/3
f 297/2/3 287/2/3 296/2/3
f 297/1/3 289/1/3 288/1/3
f 298/2/3 290/2/3 289/2/3
f 298/1/3 289/1/3 297/1/3
f 299/1/3 291/1/3 290/1/3
f 299/2/3 290/2/3 298/2/3
f 300/2/3 292/2/3 291/2/3
f 300/1/3 291/1/3 299/1/3
f 301/1/3 293/1/3 292/1/3
f 301/2/3 292/2/3 300/2/3
f 302/1/3 293/1/3 301/1/3
f 303/1/3 285/1/3 284/1/3
f 304/1/3 285/1/3 303/1/3
f 307/2/3 306/2/3 305/2/3
f 308/2/3 306/2/3 307/2/3
f 311/2/3 310/2/3 309/2/3
f 312/2/3 310/2/3 311/2/3
f 316/1/3 315/1/3 314/1/3
f 317/1/3 315/1/3 316/1/3
f 318/4/3 314/4/3 313/4/3
f 319/1/3 316/1/3 314/1/3
f 319/4/3 314/4/3 318/4/3
f 320/2/3 317/2/3 316/2/3
f 320/1/3 316/1/3 319/1/3
f 321/1/3 315/1/3 317/1/3
f 321/2/3 317/2/3 320/2/3
f 322/1/3 315/1/3 321/1/3
f 328/1/3 325/1/3 324/1/3
f 328/2/3 326/2/3 325/2/3
f 329/1/3 327/1/3 326/1/3
f 329/2/3 326/2/3 328/2/3
f 330/4/3 324/4/3 323/4/3
f 331/1/3 328/1/3 324/1/3
f 331/4/3 324/4/3 330/4/3
f 331/1/3 329/1/3 328/1/3
f 332/1/3 327/1/3 329/1/3
f 332/1/3 329/1/3 331/1/3
f 336/2/3 334/2/3 333/2/3
f 337/4/3 335/4/3 334/4/3
f 337/2/3 334/2/3 336/2/3
f 338/4/3 335/4/3 337/4/3
f 341/2/3 340/2/3 339/2/3
f 342/2/3 340/2/3 341/2/3
f 345/2/3 344/2/3 343/2/3
f 346/2/3 344/2/3 345/2/3
f 347/4/4 348/4/4 350/4/4
f 348/1/4 349/1/4 351/1/4
f 350/4/4 348/4/4 351/4/4
f 351/1/4 349/1/4 352/1/4
f 353/4/4 354/4/4 356/4/4
f 354/1/4 355/1/4 357/1/4
f 356/4/4 354/4/4 357/4/4
f 357/1/4 355/1/4 358/1/4
f 359/2/4 360/2/4 362/2/4
f 362/2/4 360/2/4 363/2/4
f 361/1/4 362/1/4 365/1/4
f 363/1/4 364/1/4 365/1/4
f 362/1/4 363/1/4 365/1/4
f 365/1/4 364/1/4 366/1/4
f 366/1/4 364/1/4 367/1/4
f 367/1/4 364/1/4 368/1/4
f 368/1/4 364/1/4 369/1/4
f 369/1/4 364/1/4 370/1/4
f 368/2/4 369/2/4 371/2/4
f 371/2/4 369/2/4 372/2/4
f 374/1/4 375/1/4 380/1/4
f 375/2/4 376/2/4 380/2/4
f 376/1/4 377/1/4 381/1/4
f 380/2/4 376/2/4 381/2/4
f 377/2/4 378/2/4 382/2/4
f 381/1/4 377/1/4 382/1/4
f 378/1/4 379/1/4 383/1/4
f 382/2/4 378/2/4 383/2/4
f 373/4/4 374/4/4 384/4/4
f 381/1/4 382/1/4 385/1/4
f 384/4/4 374/4/4 385/4/4
f 380/1/4 381/1/4 385/1/4
f 382/1/4 383/1/4 385/1/4
f 374/1/4 380/1/4 385/1/4
f 385/1/4 383/1/4 386/1/4
f 383/1/4 379/1/4 387/1/4
f 386/1/4 383/1/4 387/1/4
f 387/1/4 379/1/4 388/1/4
f 386/1/4 387/1/4 391/1/4
f 391/1/4 387/1/4 392/1/4
f 390/1/4 391/1/4 394/1/4
f 392/1/4 393/1/4 394/1/4
f 391/1/4 392/1/4 394/1/4
f 394/1/4 393/1/4 395/1/4
f 395/1/4 393/1/4 396/1/4
f 396/1/4 393/1/4 397/1/4
f 389/4/4 390/4/4 398/4/4
f 390/1/4 394/1/4 399/1/4
f 398/4/4 390/4/4 399/4/4
f 394/2/4 395/2/4 400/2/4
f 399/1/4 394/1/4 400/1/4
f 395/1/4 396/1/4 401/1/4
f 400/2/4 395/2/4 401/2/4
f 396/2/4 397/2/4 402/2/4
f 401/1/4 396/1/4 402/1/4
f 397/1/4 393/1/4 403/1/4
f 402/2/4 397/2/4 403/2/4
f 403/1/4 393/1/4 404/1/4
f 405/4/4 406/4/4 409/4/4
f 409/4/4 406/4/4 410/4/4
f 407/4/4 408/4/4 411/4/4
f 411/4/4 408/4/4 412/4/4
f 413/4/4 414/4/4 415/4/4
f 415/4/4 414/4/4 416/4/4
f 421/4/5 418/4/5 417/4/5
f 422/4/5 418/4/5 421/4/5
f 423/4/5 420/4/5 419/4/5
f 424/4/5 420/4/5 423/4/5
f 429/4/5 426/4/5 425/4/5
f 430/4/5 426/4/5 429/4/5
f 431/4/5 428/4/5 427/4/5
f 432/4/5 428/4/5 431/4/5
f 435/4/5 434/4/5 433/4/5
f 436/4/5 434/4/5 435/4/5
f 438/1/5 436/1/5 435/1/5
f 439/1/5 436/1/5 438/1/5
f 441/1/5 439/1/5 438/1/5
f 441/1/5 440/1/5 439/1/5
f 441/1/5 438/1/5 437/1/5
f 442/1/5 440/1/5 441/1/5
f 443/1/5 440/1/5 442/1/5
f 444/1/5 440/1/5 443/1/5
f 445/1/5 443/1/5 442/1/5
f 446/1/5 443/1/5 445/1/5
f 449/2/5 448/2/5 447/2/5
f 450/2/5 448/2/5 449/2/5
f 451/4/5 450/4/5 449/4/5
f 452/4/5 450/4/5 451/4/5
f 456/4/5 454/4/5 453/4/5
f 457/4/5 454/4/5 456/4/5
f 459/1/5 456/1/5 455/1/5
f 459/1/5 458/1/5 457/1/5
f 459/1/5 457/1/5 456/1/5
f 460/1/5 458/1/5 459/1/5
f 461/1/5 458/1/5 460/1/5
f 462/1/5 458/1/5 461/1/5
f 465/3/5 464/3/5 463/3/5
f 466/3/5 464/3/5 465/3/5
f 471/2/5 468/2/5 467/2/5
f 472/2/5 468/2/5 471/2/5
f 473/2/5 470/2/5 469/2/5
f 474/2/5 470/2/5 473/2/5
f 477/4/5 476/4/5 475/4/5
f 478/4/5 476/4/5 477/4/5
f 481/2/5 480/2/5 479/2/5
f 482/2/5 480/2/5 481/2/5
f 483/1/6 484/1/6 487/1/6
f 484/2/6 485/2/6 488/2/6
f 487/1/6 484/1/6 488/1/6
f 485/1/6 486/1/6 489/1/6
f 488/2/6 485/2/6 489/2/6
f 489/1/6 486/1/6 490/1/6
f 487/2/6 488/2/6 491/2/6
f 488/2/6 489/2/6 491/2/6
f 489/2/6 490/2/6 491/2/6
f 491/2/6 490/2/6 492/2/6
f 491/1/6 492/1/6 493/1/6
f 493/1/6 492/1/6 494/1/6
f 494/1/6 492/1/6 495/1/6
f 495/1/6 492/1/6 496/1/6
f 497/2/6 498/2/6 499/2/6
f 499/2/6 498/2/6 500/2/6
f 501/3/6 502/3/6 504/3/6
f 504/3/6 502/3/6 505/3/6
f 503/4/6 504/4/6 507/4/6
f 505/4/6 506/4/6 507/4/6
f 504/4/6 505/4/6 507/4/6
f 507/4/6 506/4/6 508/4/6
f 508/4/6 506/4/6 509/4/6
f 509/4/6 506/4/6 510/4/6
f 511/3/6 512/3/6 517/3/6
f 517/3/6 512/3/6 518/3/6
f 513/4/6 514/4/6 519/4/6
f 519/4/6 514/4/6 520/4/6
f 515/3/6 516/3/6 521/3/6
f 521/3/6 516/3/6 522/3/6
f 523/2/6 524/2/6 527/2/6
f 527/2/6 524/2/6 528/2/6
f 525/2/6 526/2/6 529/2/6
f 529/2/6 526/2/6 530/2/6
f 531/4/6 532/4/6 533/4/6
f 533/4/6 532/4/6 534/4/6
f 535/1/6 536/1/6 540/1/6
f 540/1/6 536/1/6 541/1/6
f 537/1/6 538/1/6 542/1/6
f 542/1/6 538/1/6 543/1/6
f 540/1/6 541/1/6 545/1/6
f 543/1/6 544/1/6 545/1/6
f 542/1/6 543/1/6 545/1/6
f 541/1/6 542/1/6 545/1/6
f 539/1/6 540/1/6 545/1/6
f 545/1/6 544/1/6 546/1/6
f 546/1/6 544/1/6 547/1/6
f 547/1/6 544/1/6 548/1/6
f 548/1/6 544/1/6 549/1/6
f 549/1/6 544/1/6 550/1/6
f 545/2/6 546/2/6 551/2/6
f 546/1/6 547/1/6 552/1/6
f 551/2/6 546/2/6 552/2/6
f 547/2/6 548/2/6 553/2/6
f 552/1/6 547/1/6 553/1/6
f 548/1/6 549/1/6 554/1/6
f 553/2/6 548/2/6 554/2/6
f 549/2/6 550/2/6 555/2/6
f 554/1/6 549/1/6 555/1/6
f 555/2/6 550/2/6 556/2/6
f 551/1/6 552/1/6 557/1/6
f 552/1/6 553/1/6 557/1/6
f 555/1/6 556/1/6 557/1/6
f 554/1/6 555/1/6 557/1/6
f 553/1/6 554/1/6 557/1/6
f 557/1/6 556/1/6 558/1/6
f 551/1/6 557/1/6 559/1/6
f 557/2/6 558/2/6 559/2/6
f 558/1/6 556/1/6 560/1/6
f 559/2/6 558/2/6 560/2/6
f 551/1/6 559/1/6 561/1/6
f 559/1/6 560/1/6 561/1/6
f 560/1/6 556/1/6 562/1/6
f 561/1/6 560/1/6 562/1/6
f 563/4/6 564/4/6 565/4/6
f 565/4/6 564/4/6 566/4/6
