# MagicaVoxel @ Ephtracy

# group
o 

# material
mtllib pollo.mtl
usemtl palette

# normals
vn -1 0 0
vn 1 0 0
vn 0 0 1
vn 0 0 -1
vn 0 -1 0
vn 0 1 0

# texcoords
vt 0.947266 0.5
vt 0.951172 0.5
vt 0.970703 0.5
vt 0.974609 0.5
vt 0.978516 0.5

# verts
v -0.5 0.3 0.2
v -0.5 0.3 -0.3
v -0.5 0.4 -0.3
v -0.5 0.4 -0.4
v -0.5 0.5 -0.4
v -0.5 0.5 -0.5
v -0.5 0.6 0.2
v -0.5 0.6 -0.5
v -0.4 0.2 0.5
v -0.4 0.2 -0.3
v -0.4 0.3 0.2
v -0.4 0.3 -0.3
v -0.4 0.5 0.5
v -0.4 0.5 0.4
v -0.4 0.6 0.4
v -0.4 0.6 0.2
v -0.4 0.6 -0.3
v -0.4 0.7 0.4
v -0.4 0.7 0.3
v -0.4 0.8 0.4
v -0.4 0.8 0.3
v -0.4 0.9 0.5
v -0.4 0.9 0.2
v -0.4 1 0.5
v -0.4 1 -0.3
v -0.3 0 0.2
v -0.3 0 0
v -0.3 0.2 0.2
v -0.3 0.2 0
v -0.2 0.9 0.6
v -0.2 0.9 0.5
v -0.2 1 0.5
v -0.2 1 0.3
v -0.2 1.1 0.6
v -0.2 1.1 0.3
v -0.1 0.5 0.7
v -0.1 0.5 0.5
v -0.1 0.7 0.7
v -0.1 0.7 0.5
v -0.1 1.1 0.6
v -0.1 1.1 0.3
v -0.1 1.2 0.6
v -0.1 1.2 0.3
v 0.1 0 0.2
v 0.1 0 0
v 0.1 0.2 0.2
v 0.1 0.2 0
v 0.4 0.4 -0.3
v 0.4 0.4 -0.4
v 0.4 0.5 -0.4
v 0.4 0.5 -0.5
v 0.4 0.6 -0.3
v 0.4 0.6 -0.5
v -0.4 0.4 -0.3
v -0.4 0.4 -0.4
v -0.4 0.5 -0.4
v -0.4 0.5 -0.5
v -0.4 0.6 -0.3
v -0.4 0.6 -0.5
v -0.1 0 0.2
v -0.1 0 0
v -0.1 0.2 0.2
v -0.1 0.2 0
v 0.1 0.5 0.7
v 0.1 0.5 0.5
v 0.1 0.7 0.7
v 0.1 0.7 0.5
v 0.1 1.1 0.6
v 0.1 1.1 0.3
v 0.1 1.2 0.6
v 0.1 1.2 0.3
v 0.2 0.9 0.6
v 0.2 0.9 0.5
v 0.2 1 0.5
v 0.2 1 0.3
v 0.2 1.1 0.6
v 0.2 1.1 0.3
v 0.3 0 0.2
v 0.3 0 0
v 0.3 0.2 0.2
v 0.3 0.2 0
v 0.4 0.2 0.5
v 0.4 0.2 -0.3
v 0.4 0.3 0.2
v 0.4 0.3 -0.3
v 0.4 0.5 0.5
v 0.4 0.5 0.4
v 0.4 0.6 0.4
v 0.4 0.6 0.2
v 0.4 0.6 -0.3
v 0.4 0.7 0.4
v 0.4 0.7 0.3
v 0.4 0.8 0.4
v 0.4 0.8 0.3
v 0.4 0.9 0.5
v 0.4 0.9 0.2
v 0.4 1 0.5
v 0.4 1 -0.3
v 0.5 0.3 0.2
v 0.5 0.3 -0.3
v 0.5 0.4 -0.3
v 0.5 0.4 -0.4
v 0.5 0.5 -0.4
v 0.5 0.5 -0.5
v 0.5 0.6 0.2
v 0.5 0.6 -0.5
v -0.1 0.5 0.7
v -0.1 0.7 0.7
v 0.1 0.5 0.7
v 0.1 0.7 0.7
v -0.2 0.9 0.6
v -0.2 1.1 0.6
v -0.1 1.1 0.6
v -0.1 1.2 0.6
v 0.1 1.1 0.6
v 0.1 1.2 0.6
v 0.2 0.9 0.6
v 0.2 1.1 0.6
v -0.4 0.2 0.5
v -0.4 0.5 0.5
v -0.4 0.9 0.5
v -0.4 1 0.5
v -0.2 0.4 0.5
v -0.2 0.5 0.5
v -0.2 0.9 0.5
v -0.2 1 0.5
v -0.1 0.5 0.5
v -0.1 0.7 0.5
v 0.1 0.5 0.5
v 0.1 0.7 0.5
v 0.2 0.4 0.5
v 0.2 0.5 0.5
v 0.2 0.9 0.5
v 0.2 1 0.5
v 0.4 0.2 0.5
v 0.4 0.5 0.5
v 0.4 0.9 0.5
v 0.4 1 0.5
v -0.5 0.3 0.2
v -0.5 0.6 0.2
v -0.4 0.3 0.2
v -0.4 0.6 0.2
v -0.3 0 0.2
v -0.3 0.2 0.2
v -0.1 0 0.2
v -0.1 0.2 0.2
v 0.1 0 0.2
v 0.1 0.2 0.2
v 0.3 0 0.2
v 0.3 0.2 0.2
v 0.4 0.3 0.2
v 0.4 0.6 0.2
v 0.5 0.3 0.2
v 0.5 0.6 0.2
v -0.2 1 0.3
v -0.2 1.1 0.3
v -0.1 1.1 0.3
v -0.1 1.2 0.3
v 0.1 1.1 0.3
v 0.1 1.2 0.3
v 0.2 1 0.3
v 0.2 1.1 0.3
v -0.3 0 0
v -0.3 0.2 0
v -0.1 0 0
v -0.1 0.2 0
v 0.1 0 0
v 0.1 0.2 0
v 0.3 0 0
v 0.3 0.2 0
v -0.5 0.3 -0.3
v -0.5 0.4 -0.3
v -0.4 0.2 -0.3
v -0.4 0.3 -0.3
v -0.4 0.4 -0.3
v -0.4 0.6 -0.3
v -0.4 1 -0.3
v 0.4 0.2 -0.3
v 0.4 0.3 -0.3
v 0.4 0.4 -0.3
v 0.4 0.6 -0.3
v 0.4 1 -0.3
v 0.5 0.3 -0.3
v 0.5 0.4 -0.3
v -0.5 0.4 -0.4
v -0.5 0.5 -0.4
v -0.4 0.4 -0.4
v -0.4 0.5 -0.4
v 0.4 0.4 -0.4
v 0.4 0.5 -0.4
v 0.5 0.4 -0.4
v 0.5 0.5 -0.4
v -0.5 0.5 -0.5
v -0.5 0.6 -0.5
v -0.4 0.5 -0.5
v -0.4 0.6 -0.5
v 0.4 0.5 -0.5
v 0.4 0.6 -0.5
v 0.5 0.5 -0.5
v 0.5 0.6 -0.5
v -0.3 0 0.2
v -0.1 0 0.2
v 0.1 0 0.2
v 0.3 0 0.2
v -0.3 0 0
v -0.1 0 0
v 0.1 0 0
v 0.3 0 0
v -0.4 0.2 0.5
v 0.4 0.2 0.5
v -0.3 0.2 0.2
v -0.1 0.2 0.2
v 0.1 0.2 0.2
v 0.3 0.2 0.2
v -0.3 0.2 0
v -0.1 0.2 0
v 0.1 0.2 0
v 0.3 0.2 0
v -0.4 0.2 -0.3
v 0.4 0.2 -0.3
v -0.5 0.3 0.2
v -0.4 0.3 0.2
v 0.4 0.3 0.2
v 0.5 0.3 0.2
v -0.5 0.3 -0.3
v -0.4 0.3 -0.3
v 0.4 0.3 -0.3
v 0.5 0.3 -0.3
v -0.5 0.4 -0.3
v -0.4 0.4 -0.3
v 0.4 0.4 -0.3
v 0.5 0.4 -0.3
v -0.5 0.4 -0.4
v -0.4 0.4 -0.4
v 0.4 0.4 -0.4
v 0.5 0.4 -0.4
v -0.1 0.5 0.7
v 0.1 0.5 0.7
v -0.1 0.5 0.5
v 0.1 0.5 0.5
v -0.5 0.5 -0.4
v -0.4 0.5 -0.4
v 0.4 0.5 -0.4
v 0.5 0.5 -0.4
v -0.5 0.5 -0.5
v -0.4 0.5 -0.5
v 0.4 0.5 -0.5
v 0.5 0.5 -0.5
v -0.2 0.9 0.6
v 0.2 0.9 0.6
v -0.2 0.9 0.5
v 0.2 0.9 0.5
v -0.5 0.6 0.2
v -0.4 0.6 0.2
v 0.4 0.6 0.2
v 0.5 0.6 0.2
v -0.4 0.6 -0.3
v 0.4 0.6 -0.3
v -0.5 0.6 -0.5
v -0.4 0.6 -0.5
v 0.4 0.6 -0.5
v 0.5 0.6 -0.5
v -0.1 0.7 0.7
v 0.1 0.7 0.7
v -0.1 0.7 0.5
v 0.1 0.7 0.5
v -0.4 1 0.5
v -0.2 1 0.5
v 0.2 1 0.5
v 0.4 1 0.5
v -0.2 1 0.3
v 0.2 1 0.3
v -0.4 1 -0.3
v 0.4 1 -0.3
v -0.2 1.1 0.6
v -0.1 1.1 0.6
v 0.1 1.1 0.6
v 0.2 1.1 0.6
v -0.2 1.1 0.3
v -0.1 1.1 0.3
v 0.1 1.1 0.3
v 0.2 1.1 0.3
v -0.1 1.2 0.6
v 0.1 1.2 0.6
v -0.1 1.2 0.3
v 0.1 1.2 0.3

# faces
f 3/1/1 2/1/1 1/1/1
f 5/1/1 4/1/1 3/1/1
f 7/1/1 3/1/1 1/1/1
f 7/1/1 6/1/1 5/1/1
f 7/1/1 5/1/1 3/1/1
f 8/1/1 6/1/1 7/1/1
f 11/4/1 10/4/1 9/4/1
f 12/4/1 10/4/1 11/4/1
f 13/4/1 11/4/1 9/4/1
f 14/4/1 11/4/1 13/4/1
f 15/2/1 14/2/1 13/2/1
f 15/4/1 11/4/1 14/4/1
f 16/4/1 11/4/1 15/4/1
f 18/2/1 15/2/1 13/2/1
f 18/2/1 16/2/1 15/2/1
f 19/2/1 16/2/1 18/2/1
f 20/2/1 18/2/1 13/2/1
f 20/5/1 19/5/1 18/5/1
f 21/2/1 16/2/1 19/2/1
f 21/5/1 19/5/1 20/5/1
f 22/2/1 20/2/1 13/2/1
f 22/2/1 21/2/1 20/2/1
f 23/4/1 17/4/1 16/4/1
f 23/2/1 21/2/1 22/2/1
f 23/2/1 16/2/1 21/2/1
f 24/4/1 23/4/1 22/4/1
f 25/4/1 17/4/1 23/4/1
f 25/4/1 23/4/1 24/4/1
f 28/1/1 27/1/1 26/1/1
f 29/1/1 27/1/1 28/1/1
f 32/1/1 31/1/1 30/1/1
f 34/1/1 32/1/1 30/1/1
f 34/1/1 33/1/1 32/1/1
f 35/1/1 33/1/1 34/1/1
f 38/1/1 37/1/1 36/1/1
f 39/1/1 37/1/1 38/1/1
f 42/1/1 41/1/1 40/1/1
f 43/1/1 41/1/1 42/1/1
f 46/1/1 45/1/1 44/1/1
f 47/1/1 45/1/1 46/1/1
f 50/1/1 49/1/1 48/1/1
f 52/1/1 50/1/1 48/1/1
f 52/1/1 51/1/1 50/1/1
f 53/1/1 51/1/1 52/1/1
f 54/1/2 55/1/2 56/1/2
f 54/1/2 56/1/2 58/1/2
f 56/1/2 57/1/2 58/1/2
f 58/1/2 57/1/2 59/1/2
f 60/1/2 61/1/2 62/1/2
f 62/1/2 61/1/2 63/1/2
f 64/1/2 65/1/2 66/1/2
f 66/1/2 65/1/2 67/1/2
f 68/1/2 69/1/2 70/1/2
f 70/1/2 69/1/2 71/1/2
f 72/1/2 73/1/2 74/1/2
f 72/1/2 74/1/2 76/1/2
f 74/1/2 75/1/2 76/1/2
f 76/1/2 75/1/2 77/1/2
f 78/1/2 79/1/2 80/1/2
f 80/1/2 79/1/2 81/1/2
f 82/4/2 83/4/2 84/4/2
f 84/4/2 83/4/2 85/4/2
f 82/4/2 84/4/2 86/4/2
f 86/4/2 84/4/2 87/4/2
f 86/2/2 87/2/2 88/2/2
f 87/4/2 84/4/2 88/4/2
f 88/4/2 84/4/2 89/4/2
f 86/2/2 88/2/2 91/2/2
f 88/2/2 89/2/2 91/2/2
f 91/2/2 89/2/2 92/2/2
f 86/2/2 91/2/2 93/2/2
f 91/5/2 92/5/2 93/5/2
f 92/2/2 89/2/2 94/2/2
f 93/5/2 92/5/2 94/5/2
f 86/2/2 93/2/2 95/2/2
f 93/2/2 94/2/2 95/2/2
f 89/4/2 90/4/2 96/4/2
f 95/2/2 94/2/2 96/2/2
f 94/2/2 89/2/2 96/2/2
f 95/4/2 96/4/2 97/4/2
f 96/4/2 90/4/2 98/4/2
f 97/4/2 96/4/2 98/4/2
f 99/1/2 100/1/2 101/1/2
f 101/1/2 102/1/2 103/1/2
f 99/1/2 101/1/2 105/1/2
f 103/1/2 104/1/2 105/1/2
f 101/1/2 103/1/2 105/1/2
f 105/1/2 104/1/2 106/1/2
f 109/1/3 108/1/3 107/1/3
f 110/1/3 108/1/3 109/1/3
f 113/1/3 112/1/3 111/1/3
f 115/1/3 113/1/3 111/1/3
f 115/1/3 114/1/3 113/1/3
f 116/1/3 114/1/3 115/1/3
f 117/1/3 115/1/3 111/1/3
f 118/1/3 115/1/3 117/1/3
f 123/4/3 120/4/3 119/4/3
f 124/2/3 121/2/3 120/2/3
f 124/4/3 120/4/3 123/4/3
f 125/4/3 122/4/3 121/4/3
f 125/2/3 121/2/3 124/2/3
f 126/4/3 122/4/3 125/4/3
f 127/2/3 124/2/3 123/2/3
f 127/2/3 125/2/3 124/2/3
f 128/2/3 125/2/3 127/2/3
f 129/2/3 127/2/3 123/2/3
f 130/2/3 125/2/3 128/2/3
f 131/4/3 123/4/3 119/4/3
f 131/2/3 130/2/3 129/2/3
f 131/2/3 129/2/3 123/2/3
f 132/2/3 130/2/3 131/2/3
f 133/2/3 125/2/3 130/2/3
f 133/2/3 130/2/3 132/2/3
f 135/4/3 132/4/3 131/4/3
f 135/4/3 131/4/3 119/4/3
f 136/2/3 133/2/3 132/2/3
f 136/4/3 132/4/3 135/4/3
f 137/4/3 134/4/3 133/4/3
f 137/2/3 133/2/3 136/2/3
f 138/4/3 134/4/3 137/4/3
f 141/1/3 140/1/3 139/1/3
f 142/1/3 140/1/3 141/1/3
f 145/1/3 144/1/3 143/1/3
f 146/1/3 144/1/3 145/1/3
f 149/1/3 148/1/3 147/1/3
f 150/1/3 148/1/3 149/1/3
f 153/1/3 152/1/3 151/1/3
f 154/1/3 152/1/3 153/1/3
f 155/1/4 156/1/4 157/1/4
f 155/1/4 157/1/4 159/1/4
f 157/1/4 158/1/4 159/1/4
f 159/1/4 158/1/4 160/1/4
f 155/1/4 159/1/4 161/1/4
f 161/1/4 159/1/4 162/1/4
f 163/1/4 164/1/4 165/1/4
f 165/1/4 164/1/4 166/1/4
f 167/1/4 168/1/4 169/1/4
f 169/1/4 168/1/4 170/1/4
f 171/1/4 172/1/4 174/1/4
f 174/1/4 172/1/4 175/1/4
f 173/4/4 174/4/4 178/4/4
f 176/4/4 177/4/4 178/4/4
f 175/4/4 176/4/4 178/4/4
f 174/4/4 175/4/4 178/4/4
f 178/4/4 177/4/4 179/4/4
f 179/4/4 177/4/4 180/4/4
f 180/4/4 177/4/4 181/4/4
f 181/4/4 177/4/4 182/4/4
f 179/1/4 180/1/4 183/1/4
f 183/1/4 180/1/4 184/1/4
f 185/1/4 186/1/4 187/1/4
f 187/1/4 186/1/4 188/1/4
f 189/1/4 190/1/4 191/1/4
f 191/1/4 190/1/4 192/1/4
f 193/1/4 194/1/4 195/1/4
f 195/1/4 194/1/4 196/1/4
f 197/1/4 198/1/4 199/1/4
f 199/1/4 198/1/4 200/1/4
f 205/1/5 202/1/5 201/1/5
f 206/1/5 202/1/5 205/1/5
f 207/1/5 204/1/5 203/1/5
f 208/1/5 204/1/5 207/1/5
f 211/4/5 210/4/5 209/4/5
f 212/4/5 210/4/5 211/4/5
f 213/4/5 210/4/5 212/4/5
f 214/4/5 210/4/5 213/4/5
f 215/4/5 211/4/5 209/4/5
f 216/4/5 213/4/5 212/4/5
f 217/4/5 213/4/5 216/4/5
f 218/4/5 210/4/5 214/4/5
f 219/4/5 217/4/5 216/4/5
f 219/4/5 218/4/5 217/4/5
f 219/4/5 215/4/5 209/4/5
f 219/4/5 216/4/5 215/4/5
f 220/4/5 210/4/5 218/4/5
f 220/4/5 218/4/5 219/4/5
f 225/1/5 222/1/5 221/1/5
f 226/1/5 222/1/5 225/1/5
f 227/1/5 224/1/5 223/1/5
f 228/1/5 224/1/5 227/1/5
f 233/1/5 230/1/5 229/1/5
f 234/1/5 230/1/5 233/1/5
f 235/1/5 232/1/5 231/1/5
f 236/1/5 232/1/5 235/1/5
f 239/1/5 238/1/5 237/1/5
f 240/1/5 238/1/5 239/1/5
f 245/1/5 242/1/5 241/1/5
f 246/1/5 242/1/5 245/1/5
f 247/1/5 244/1/5 243/1/5
f 248/1/5 244/1/5 247/1/5
f 251/1/5 250/1/5 249/1/5
f 252/1/5 250/1/5 251/1/5
f 253/1/6 254/1/6 257/1/6
f 255/1/6 256/1/6 258/1/6
f 253/1/6 257/1/6 259/1/6
f 259/1/6 257/1/6 260/1/6
f 258/1/6 256/1/6 261/1/6
f 261/1/6 256/1/6 262/1/6
f 263/1/6 264/1/6 265/1/6
f 265/1/6 264/1/6 266/1/6
f 267/4/6 268/4/6 271/4/6
f 269/4/6 270/4/6 272/4/6
f 267/4/6 271/4/6 273/4/6
f 271/4/6 272/4/6 273/4/6
f 272/4/6 270/4/6 274/4/6
f 273/4/6 272/4/6 274/4/6
f 275/1/6 276/1/6 279/1/6
f 279/1/6 276/1/6 280/1/6
f 277/1/6 278/1/6 281/1/6
f 281/1/6 278/1/6 282/1/6
f 283/1/6 284/1/6 285/1/6
f 285/1/6 284/1/6 286/1/6
