# MagicaVoxel @ Ephtracy

# group
o 

# material
mtllib tele.mtl
usemtl palette

# normals
vn -1 0 0
vn 1 0 0
vn 0 0 1
vn 0 0 -1
vn 0 -1 0
vn 0 1 0

# texcoords
vt 0.939453 0.5
vt 0.943359 0.5
vt 0.970703 0.5
vt 0.978516 0.5
vt 0.982422 0.5
vt 0.986328 0.5
vt 0.990234 0.5
vt 0.994141 0.5

# verts
v -1.1 0 -1.6
v -1.1 0 -2
v -1.1 2.4 -1.6
v -1.1 2.4 -2
v -0.8 3.3 -1.9
v -0.8 3.3 -2
v -0.8 3.4 -1.9
v -0.8 3.4 -2
v -0.7 3.2 -1.9
v -0.7 3.2 -2
v -0.7 3.3 -1.9
v -0.7 3.3 -2
v -0.6 3.1 -1.9
v -0.6 3.1 -2
v -0.6 3.2 -1.9
v -0.6 3.2 -2
v -0.5 3 -1.9
v -0.5 3 -2
v -0.5 3.1 -1.9
v -0.5 3.1 -2
v -0.4 2.9 -1.9
v -0.4 2.9 -2
v -0.4 3 -1.9
v -0.4 3 -2
v -0.3 2.8 -1.9
v -0.3 2.8 -2
v -0.3 2.9 -1.9
v -0.3 2.9 -2
v -0.2 2.7 -1.9
v -0.2 2.7 -2
v -0.2 2.8 -1.9
v -0.2 2.8 -2
v -0.1 2.6 -1.9
v -0.1 2.6 -2
v -0.1 2.7 -1.9
v -0.1 2.7 -2
v 0 2.5 -1.9
v 0 2.5 -2
v 0 2.6 -1.9
v 0 2.6 -2
v 0.1 2.4 -1.9
v 0.1 2.4 -2
v 0.1 2.5 -1.9
v 0.1 2.5 -2
v 0.3 2.5 -1.9
v 0.3 2.5 -2
v 0.3 2.6 -1.9
v 0.3 2.6 -2
v 0.4 2.6 -1.9
v 0.4 2.6 -2
v 0.4 2.7 -1.9
v 0.4 2.7 -2
v 0.5 2.7 -1.9
v 0.5 2.7 -2
v 0.5 2.8 -1.9
v 0.5 2.8 -2
v 0.6 2.8 -1.9
v 0.6 2.8 -2
v 0.6 2.9 -1.9
v 0.6 2.9 -2
v 0.7 2.9 -1.9
v 0.7 2.9 -2
v 0.7 3 -1.9
v 0.7 3 -2
v 0.8 3 -1.9
v 0.8 3 -2
v 0.8 3.1 -1.9
v 0.8 3.1 -2
v 0.9 3.1 -1.9
v 0.9 3.1 -2
v 0.9 3.2 -1.9
v 0.9 3.2 -2
v 1 3.2 -1.9
v 1 3.2 -2
v 1 3.3 -1.9
v 1 3.3 -2
v 1.1 3.3 -1.9
v 1.1 3.3 -2
v 1.1 3.4 -1.9
v 1.1 3.4 -2
v 1.7 0.2 -1.6
v 1.7 0.2 -1.7
v 1.7 2.2 -1.6
v 1.7 2.2 -1.7
v -0.9 0.2 -1.6
v -0.9 0.2 -1.7
v -0.9 0.4 -1.7
v -0.9 2.2 -1.6
v -0.9 2.2 -1.7
v -0.7 3.3 -1.9
v -0.7 3.3 -2
v -0.7 3.4 -1.9
v -0.7 3.4 -2
v -0.6 3.2 -1.9
v -0.6 3.2 -2
v -0.6 3.3 -1.9
v -0.6 3.3 -2
v -0.5 3.1 -1.9
v -0.5 3.1 -2
v -0.5 3.2 -1.9
v -0.5 3.2 -2
v -0.4 3 -1.9
v -0.4 3 -2
v -0.4 3.1 -1.9
v -0.4 3.1 -2
v -0.3 2.9 -1.9
v -0.3 2.9 -2
v -0.3 3 -1.9
v -0.3 3 -2
v -0.2 2.8 -1.9
v -0.2 2.8 -2
v -0.2 2.9 -1.9
v -0.2 2.9 -2
v -0.1 2.7 -1.9
v -0.1 2.7 -2
v -0.1 2.8 -1.9
v -0.1 2.8 -2
v 0 2.6 -1.9
v 0 2.6 -2
v 0 2.7 -1.9
v 0 2.7 -2
v 0.1 2.5 -1.9
v 0.1 2.5 -2
v 0.1 2.6 -1.9
v 0.1 2.6 -2
v 0.3 2.4 -1.9
v 0.3 2.4 -2
v 0.3 2.5 -1.9
v 0.3 2.5 -2
v 0.4 2.5 -1.9
v 0.4 2.5 -2
v 0.4 2.6 -1.9
v 0.4 2.6 -2
v 0.5 2.6 -1.9
v 0.5 2.6 -2
v 0.5 2.7 -1.9
v 0.5 2.7 -2
v 0.6 2.7 -1.9
v 0.6 2.7 -2
v 0.6 2.8 -1.9
v 0.6 2.8 -2
v 0.7 2.8 -1.9
v 0.7 2.8 -2
v 0.7 2.9 -1.9
v 0.7 2.9 -2
v 0.8 2.9 -1.9
v 0.8 2.9 -2
v 0.8 3 -1.9
v 0.8 3 -2
v 0.9 3 -1.9
v 0.9 3 -2
v 0.9 3.1 -1.9
v 0.9 3.1 -2
v 1 3.1 -1.9
v 1 3.1 -2
v 1 3.2 -1.9
v 1 3.2 -2
v 1.1 3.2 -1.9
v 1.1 3.2 -2
v 1.1 3.3 -1.9
v 1.1 3.3 -2
v 1.2 3.3 -1.9
v 1.2 3.3 -2
v 1.2 3.4 -1.9
v 1.2 3.4 -2
v 1.8 0 -1.6
v 1.8 0 -2
v 1.8 2.4 -1.6
v 1.8 2.4 -2
v -1.1 0 -1.6
v -1.1 2.4 -1.6
v -0.9 0.2 -1.6
v -0.9 2.2 -1.6
v 1.7 0.2 -1.6
v 1.7 2.2 -1.6
v 1.8 0 -1.6
v 1.8 2.4 -1.6
v -0.9 0.2 -1.7
v -0.9 0.4 -1.7
v -0.9 2.2 -1.7
v -0.6 0.2 -1.7
v -0.6 0.4 -1.7
v -0.6 2.2 -1.7
v -0.3 0.2 -1.7
v -0.3 0.4 -1.7
v -0.3 2.2 -1.7
v 0 0.2 -1.7
v 0 0.4 -1.7
v 0 2.2 -1.7
v 0.4 0.2 -1.7
v 0.4 0.4 -1.7
v 0.4 2.2 -1.7
v 0.8 0.2 -1.7
v 0.8 0.4 -1.7
v 0.8 2.2 -1.7
v 1.2 0.2 -1.7
v 1.2 0.4 -1.7
v 1.2 2.2 -1.7
v 1.6 0.2 -1.7
v 1.6 0.4 -1.7
v 1.6 2.2 -1.7
v 1.7 0.2 -1.7
v 1.7 2.2 -1.7
v -0.8 3.3 -1.9
v -0.8 3.4 -1.9
v -0.7 3.2 -1.9
v -0.7 3.3 -1.9
v -0.7 3.4 -1.9
v -0.6 3.1 -1.9
v -0.6 3.2 -1.9
v -0.6 3.3 -1.9
v -0.5 3 -1.9
v -0.5 3.1 -1.9
v -0.5 3.2 -1.9
v -0.4 2.9 -1.9
v -0.4 3 -1.9
v -0.4 3.1 -1.9
v -0.3 2.8 -1.9
v -0.3 2.9 -1.9
v -0.3 3 -1.9
v -0.2 2.7 -1.9
v -0.2 2.8 -1.9
v -0.2 2.9 -1.9
v -0.1 2.6 -1.9
v -0.1 2.7 -1.9
v -0.1 2.8 -1.9
v 0 2.5 -1.9
v 0 2.6 -1.9
v 0 2.7 -1.9
v 0.1 2.4 -1.9
v 0.1 2.5 -1.9
v 0.1 2.6 -1.9
v 0.3 2.4 -1.9
v 0.3 2.5 -1.9
v 0.3 2.6 -1.9
v 0.4 2.5 -1.9
v 0.4 2.6 -1.9
v 0.4 2.7 -1.9
v 0.5 2.6 -1.9
v 0.5 2.7 -1.9
v 0.5 2.8 -1.9
v 0.6 2.7 -1.9
v 0.6 2.8 -1.9
v 0.6 2.9 -1.9
v 0.7 2.8 -1.9
v 0.7 2.9 -1.9
v 0.7 3 -1.9
v 0.8 2.9 -1.9
v 0.8 3 -1.9
v 0.8 3.1 -1.9
v 0.9 3 -1.9
v 0.9 3.1 -1.9
v 0.9 3.2 -1.9
v 1 3.1 -1.9
v 1 3.2 -1.9
v 1 3.3 -1.9
v 1.1 3.2 -1.9
v 1.1 3.3 -1.9
v 1.1 3.4 -1.9
v 1.2 3.3 -1.9
v 1.2 3.4 -1.9
v -1.1 0 -2
v -1.1 2.4 -2
v -0.8 3.3 -2
v -0.8 3.4 -2
v -0.7 3.2 -2
v -0.7 3.3 -2
v -0.7 3.4 -2
v -0.6 3.1 -2
v -0.6 3.2 -2
v -0.6 3.3 -2
v -0.5 3 -2
v -0.5 3.1 -2
v -0.5 3.2 -2
v -0.4 2.9 -2
v -0.4 3 -2
v -0.4 3.1 -2
v -0.3 2.8 -2
v -0.3 2.9 -2
v -0.3 3 -2
v -0.2 2.7 -2
v -0.2 2.8 -2
v -0.2 2.9 -2
v -0.1 2.6 -2
v -0.1 2.7 -2
v -0.1 2.8 -2
v 0 2.5 -2
v 0 2.6 -2
v 0 2.7 -2
v 0.1 2.4 -2
v 0.1 2.5 -2
v 0.1 2.6 -2
v 0.3 2.4 -2
v 0.3 2.5 -2
v 0.3 2.6 -2
v 0.4 2.5 -2
v 0.4 2.6 -2
v 0.4 2.7 -2
v 0.5 2.6 -2
v 0.5 2.7 -2
v 0.5 2.8 -2
v 0.6 2.7 -2
v 0.6 2.8 -2
v 0.6 2.9 -2
v 0.7 2.8 -2
v 0.7 2.9 -2
v 0.7 3 -2
v 0.8 2.9 -2
v 0.8 3 -2
v 0.8 3.1 -2
v 0.9 3 -2
v 0.9 3.1 -2
v 0.9 3.2 -2
v 1 3.1 -2
v 1 3.2 -2
v 1 3.3 -2
v 1.1 3.2 -2
v 1.1 3.3 -2
v 1.1 3.4 -2
v 1.2 3.3 -2
v 1.2 3.4 -2
v 1.8 0 -2
v 1.8 2.4 -2
v -1.1 0 -1.6
v 1.8 0 -1.6
v -1.1 0 -2
v 1.8 0 -2
v -0.9 2.2 -1.6
v 1.7 2.2 -1.6
v -0.9 2.2 -1.7
v -0.6 2.2 -1.7
v -0.3 2.2 -1.7
v 0 2.2 -1.7
v 0.4 2.2 -1.7
v 0.8 2.2 -1.7
v 1.2 2.2 -1.7
v 1.6 2.2 -1.7
v 1.7 2.2 -1.7
v 0 2.5 -1.9
v 0.1 2.5 -1.9
v 0.3 2.5 -1.9
v 0.4 2.5 -1.9
v 0 2.5 -2
v 0.1 2.5 -2
v 0.3 2.5 -2
v 0.4 2.5 -2
v -0.1 2.6 -1.9
v 0 2.6 -1.9
v 0.4 2.6 -1.9
v 0.5 2.6 -1.9
v -0.1 2.6 -2
v 0 2.6 -2
v 0.4 2.6 -2
v 0.5 2.6 -2
v -0.2 2.7 -1.9
v -0.1 2.7 -1.9
v 0.5 2.7 -1.9
v 0.6 2.7 -1.9
v -0.2 2.7 -2
v -0.1 2.7 -2
v 0.5 2.7 -2
v 0.6 2.7 -2
v -0.3 2.8 -1.9
v -0.2 2.8 -1.9
v 0.6 2.8 -1.9
v 0.7 2.8 -1.9
v -0.3 2.8 -2
v -0.2 2.8 -2
v 0.6 2.8 -2
v 0.7 2.8 -2
v -0.4 2.9 -1.9
v -0.3 2.9 -1.9
v 0.7 2.9 -1.9
v 0.8 2.9 -1.9
v -0.4 2.9 -2
v -0.3 2.9 -2
v 0.7 2.9 -2
v 0.8 2.9 -2
v -0.5 3 -1.9
v -0.4 3 -1.9
v 0.8 3 -1.9
v 0.9 3 -1.9
v -0.5 3 -2
v -0.4 3 -2
v 0.8 3 -2
v 0.9 3 -2
v -0.6 3.1 -1.9
v -0.5 3.1 -1.9
v 0.9 3.1 -1.9
v 1 3.1 -1.9
v -0.6 3.1 -2
v -0.5 3.1 -2
v 0.9 3.1 -2
v 1 3.1 -2
v -0.7 3.2 -1.9
v -0.6 3.2 -1.9
v 1 3.2 -1.9
v 1.1 3.2 -1.9
v -0.7 3.2 -2
v -0.6 3.2 -2
v 1 3.2 -2
v 1.1 3.2 -2
v -0.8 3.3 -1.9
v -0.7 3.3 -1.9
v 1.1 3.3 -1.9
v 1.2 3.3 -1.9
v -0.8 3.3 -2
v -0.7 3.3 -2
v 1.1 3.3 -2
v 1.2 3.3 -2
v -0.9 0.2 -1.6
v 1.7 0.2 -1.6
v -0.9 0.2 -1.7
v -0.6 0.2 -1.7
v -0.3 0.2 -1.7
v 0 0.2 -1.7
v 0.4 0.2 -1.7
v 0.8 0.2 -1.7
v 1.2 0.2 -1.7
v 1.6 0.2 -1.7
v 1.7 0.2 -1.7
v -1.1 2.4 -1.6
v 1.8 2.4 -1.6
v 0.1 2.4 -1.9
v 0.3 2.4 -1.9
v -1.1 2.4 -2
v 0.1 2.4 -2
v 0.3 2.4 -2
v 1.8 2.4 -2
v 0.1 2.5 -1.9
v 0.3 2.5 -1.9
v 0.1 2.5 -2
v 0.3 2.5 -2
v 0 2.6 -1.9
v 0.1 2.6 -1.9
v 0.3 2.6 -1.9
v 0.4 2.6 -1.9
v 0 2.6 -2
v 0.1 2.6 -2
v 0.3 2.6 -2
v 0.4 2.6 -2
v -0.1 2.7 -1.9
v 0 2.7 -1.9
v 0.4 2.7 -1.9
v 0.5 2.7 -1.9
v -0.1 2.7 -2
v 0 2.7 -2
v 0.4 2.7 -2
v 0.5 2.7 -2
v -0.2 2.8 -1.9
v -0.1 2.8 -1.9
v 0.5 2.8 -1.9
v 0.6 2.8 -1.9
v -0.2 2.8 -2
v -0.1 2.8 -2
v 0.5 2.8 -2
v 0.6 2.8 -2
v -0.3 2.9 -1.9
v -0.2 2.9 -1.9
v 0.6 2.9 -1.9
v 0.7 2.9 -1.9
v -0.3 2.9 -2
v -0.2 2.9 -2
v 0.6 2.9 -2
v 0.7 2.9 -2
v -0.4 3 -1.9
v -0.3 3 -1.9
v 0.7 3 -1.9
v 0.8 3 -1.9
v -0.4 3 -2
v -0.3 3 -2
v 0.7 3 -2
v 0.8 3 -2
v -0.5 3.1 -1.9
v -0.4 3.1 -1.9
v 0.8 3.1 -1.9
v 0.9 3.1 -1.9
v -0.5 3.1 -2
v -0.4 3.1 -2
v 0.8 3.1 -2
v 0.9 3.1 -2
v -0.6 3.2 -1.9
v -0.5 3.2 -1.9
v 0.9 3.2 -1.9
v 1 3.2 -1.9
v -0.6 3.2 -2
v -0.5 3.2 -2
v 0.9 3.2 -2
v 1 3.2 -2
v -0.7 3.3 -1.9
v -0.6 3.3 -1.9
v 1 3.3 -1.9
v 1.1 3.3 -1.9
v -0.7 3.3 -2
v -0.6 3.3 -2
v 1 3.3 -2
v 1.1 3.3 -2
v -0.8 3.4 -1.9
v -0.7 3.4 -1.9
v 1.1 3.4 -1.9
v 1.2 3.4 -1.9
v -0.8 3.4 -2
v -0.7 3.4 -2
v 1.1 3.4 -2
v 1.2 3.4 -2

# faces
f 3/3/1 2/3/1 1/3/1
f 4/3/1 2/3/1 3/3/1
f 7/3/1 6/3/1 5/3/1
f 8/3/1 6/3/1 7/3/1
f 11/3/1 10/3/1 9/3/1
f 12/3/1 10/3/1 11/3/1
f 15/3/1 14/3/1 13/3/1
f 16/3/1 14/3/1 15/3/1
f 19/3/1 18/3/1 17/3/1
f 20/3/1 18/3/1 19/3/1
f 23/3/1 22/3/1 21/3/1
f 24/3/1 22/3/1 23/3/1
f 27/3/1 26/3/1 25/3/1
f 28/3/1 26/3/1 27/3/1
f 31/3/1 30/3/1 29/3/1
f 32/3/1 30/3/1 31/3/1
f 35/3/1 34/3/1 33/3/1
f 36/3/1 34/3/1 35/3/1
f 39/3/1 38/3/1 37/3/1
f 40/3/1 38/3/1 39/3/1
f 43/3/1 42/3/1 41/3/1
f 44/3/1 42/3/1 43/3/1
f 47/3/1 46/3/1 45/3/1
f 48/3/1 46/3/1 47/3/1
f 51/3/1 50/3/1 49/3/1
f 52/3/1 50/3/1 51/3/1
f 55/3/1 54/3/1 53/3/1
f 56/3/1 54/3/1 55/3/1
f 59/3/1 58/3/1 57/3/1
f 60/3/1 58/3/1 59/3/1
f 63/3/1 62/3/1 61/3/1
f 64/3/1 62/3/1 63/3/1
f 67/3/1 66/3/1 65/3/1
f 68/3/1 66/3/1 67/3/1
f 71/3/1 70/3/1 69/3/1
f 72/3/1 70/3/1 71/3/1
f 75/3/1 74/3/1 73/3/1
f 76/3/1 74/3/1 75/3/1
f 79/3/1 78/3/1 77/3/1
f 80/3/1 78/3/1 79/3/1
f 83/3/1 82/3/1 81/3/1
f 84/3/1 82/3/1 83/3/1
f 85/3/2 86/3/2 87/3/2
f 85/3/2 87/3/2 88/3/2
f 88/3/2 87/3/2 89/3/2
f 90/3/2 91/3/2 92/3/2
f 92/3/2 91/3/2 93/3/2
f 94/3/2 95/3/2 96/3/2
f 96/3/2 95/3/2 97/3/2
f 98/3/2 99/3/2 100/3/2
f 100/3/2 99/3/2 101/3/2
f 102/3/2 103/3/2 104/3/2
f 104/3/2 103/3/2 105/3/2
f 106/3/2 107/3/2 108/3/2
f 108/3/2 107/3/2 109/3/2
f 110/3/2 111/3/2 112/3/2
f 112/3/2 111/3/2 113/3/2
f 114/3/2 115/3/2 116/3/2
f 116/3/2 115/3/2 117/3/2
f 118/3/2 119/3/2 120/3/2
f 120/3/2 119/3/2 121/3/2
f 122/3/2 123/3/2 124/3/2
f 124/3/2 123/3/2 125/3/2
f 126/3/2 127/3/2 128/3/2
f 128/3/2 127/3/2 129/3/2
f 130/3/2 131/3/2 132/3/2
f 132/3/2 131/3/2 133/3/2
f 134/3/2 135/3/2 136/3/2
f 136/3/2 135/3/2 137/3/2
f 138/3/2 139/3/2 140/3/2
f 140/3/2 139/3/2 141/3/2
f 142/3/2 143/3/2 144/3/2
f 144/3/2 143/3/2 145/3/2
f 146/3/2 147/3/2 148/3/2
f 148/3/2 147/3/2 149/3/2
f 150/3/2 151/3/2 152/3/2
f 152/3/2 151/3/2 153/3/2
f 154/3/2 155/3/2 156/3/2
f 156/3/2 155/3/2 157/3/2
f 158/3/2 159/3/2 160/3/2
f 160/3/2 159/3/2 161/3/2
f 162/3/2 163/3/2 164/3/2
f 164/3/2 163/3/2 165/3/2
f 166/3/2 167/3/2 168/3/2
f 168/3/2 167/3/2 169/3/2
f 172/3/3 171/3/3 170/3/3
f 173/3/3 171/3/3 172/3/3
f 174/3/3 172/3/3 170/3/3
f 175/3/3 171/3/3 173/3/3
f 176/3/3 174/3/3 170/3/3
f 176/3/3 175/3/3 174/3/3
f 177/3/3 171/3/3 175/3/3
f 177/3/3 175/3/3 176/3/3
f 181/2/3 179/2/3 178/2/3
f 182/4/3 180/4/3 179/4/3
f 182/2/3 179/2/3 181/2/3
f 183/4/3 180/4/3 182/4/3
f 184/3/3 182/3/3 181/3/3
f 185/5/3 183/5/3 182/5/3
f 185/3/3 182/3/3 184/3/3
f 186/5/3 183/5/3 185/5/3
f 187/8/3 185/8/3 184/8/3
f 188/6/3 186/6/3 185/6/3
f 188/8/3 185/8/3 187/8/3
f 189/6/3 186/6/3 188/6/3
f 190/3/3 188/3/3 187/3/3
f 191/7/3 189/7/3 188/7/3
f 191/3/3 188/3/3 190/3/3
f 192/7/3 189/7/3 191/7/3
f 193/6/3 191/6/3 190/6/3
f 194/8/3 192/8/3 191/8/3
f 194/6/3 191/6/3 193/6/3
f 195/8/3 192/8/3 194/8/3
f 196/3/3 194/3/3 193/3/3
f 197/1/3 195/1/3 194/1/3
f 197/3/3 194/3/3 196/3/3
f 198/1/3 195/1/3 197/1/3
f 199/4/3 197/4/3 196/4/3
f 200/2/3 198/2/3 197/2/3
f 200/4/3 197/4/3 199/4/3
f 201/2/3 198/2/3 200/2/3
f 202/3/3 200/3/3 199/3/3
f 202/3/3 201/3/3 200/3/3
f 203/3/3 201/3/3 202/3/3
f 207/3/3 205/3/3 204/3/3
f 208/3/3 205/3/3 207/3/3
f 210/3/3 207/3/3 206/3/3
f 211/3/3 207/3/3 210/3/3
f 213/3/3 210/3/3 209/3/3
f 214/3/3 210/3/3 213/3/3
f 216/3/3 213/3/3 212/3/3
f 217/3/3 213/3/3 216/3/3
f 219/3/3 216/3/3 215/3/3
f 220/3/3 216/3/3 219/3/3
f 222/3/3 219/3/3 218/3/3
f 223/3/3 219/3/3 222/3/3
f 225/3/3 222/3/3 221/3/3
f 226/3/3 222/3/3 225/3/3
f 228/3/3 225/3/3 224/3/3
f 229/3/3 225/3/3 228/3/3
f 231/3/3 228/3/3 227/3/3
f 232/3/3 228/3/3 231/3/3
f 233/3/3 231/3/3 230/3/3
f 234/3/3 231/3/3 233/3/3
f 236/3/3 235/3/3 234/3/3
f 237/3/3 235/3/3 236/3/3
f 239/3/3 238/3/3 237/3/3
f 240/3/3 238/3/3 239/3/3
f 242/3/3 241/3/3 240/3/3
f 243/3/3 241/3/3 242/3/3
f 245/3/3 244/3/3 243/3/3
f 246/3/3 244/3/3 245/3/3
f 248/3/3 247/3/3 246/3/3
f 249/3/3 247/3/3 248/3/3
f 251/3/3 250/3/3 249/3/3
f 252/3/3 250/3/3 251/3/3
f 254/3/3 253/3/3 252/3/3
f 255/3/3 253/3/3 254/3/3
f 257/3/3 256/3/3 255/3/3
f 258/3/3 256/3/3 257/3/3
f 260/3/3 259/3/3 258/3/3
f 261/3/3 259/3/3 260/3/3
f 264/3/4 265/3/4 267/3/4
f 267/3/4 265/3/4 268/3/4
f 266/3/4 267/3/4 270/3/4
f 270/3/4 267/3/4 271/3/4
f 269/3/4 270/3/4 273/3/4
f 273/3/4 270/3/4 274/3/4
f 272/3/4 273/3/4 276/3/4
f 276/3/4 273/3/4 277/3/4
f 275/3/4 276/3/4 279/3/4
f 279/3/4 276/3/4 280/3/4
f 278/3/4 279/3/4 282/3/4
f 282/3/4 279/3/4 283/3/4
f 281/3/4 282/3/4 285/3/4
f 285/3/4 282/3/4 286/3/4
f 284/3/4 285/3/4 288/3/4
f 288/3/4 285/3/4 289/3/4
f 262/3/4 263/3/4 290/3/4
f 287/3/4 288/3/4 291/3/4
f 291/3/4 288/3/4 292/3/4
f 262/3/4 290/3/4 293/3/4
f 290/3/4 291/3/4 293/3/4
f 293/3/4 291/3/4 294/3/4
f 294/3/4 295/3/4 296/3/4
f 296/3/4 295/3/4 297/3/4
f 297/3/4 298/3/4 299/3/4
f 299/3/4 298/3/4 300/3/4
f 300/3/4 301/3/4 302/3/4
f 302/3/4 301/3/4 303/3/4
f 303/3/4 304/3/4 305/3/4
f 305/3/4 304/3/4 306/3/4
f 306/3/4 307/3/4 308/3/4
f 308/3/4 307/3/4 309/3/4
f 309/3/4 310/3/4 311/3/4
f 311/3/4 310/3/4 312/3/4
f 312/3/4 313/3/4 314/3/4
f 314/3/4 313/3/4 315/3/4
f 315/3/4 316/3/4 317/3/4
f 317/3/4 316/3/4 318/3/4
f 318/3/4 319/3/4 320/3/4
f 320/3/4 319/3/4 321/3/4
f 262/3/4 293/3/4 322/3/4
f 322/3/4 293/3/4 323/3/4
f 326/3/5 325/3/5 324/3/5
f 327/3/5 325/3/5 326/3/5
f 330/3/5 329/3/5 328/3/5
f 331/3/5 329/3/5 330/3/5
f 332/3/5 329/3/5 331/3/5
f 333/3/5 329/3/5 332/3/5
f 334/3/5 329/3/5 333/3/5
f 335/3/5 329/3/5 334/3/5
f 336/3/5 329/3/5 335/3/5
f 337/3/5 329/3/5 336/3/5
f 338/3/5 329/3/5 337/3/5
f 343/3/5 340/3/5 339/3/5
f 344/3/5 340/3/5 343/3/5
f 345/3/5 342/3/5 341/3/5
f 346/3/5 342/3/5 345/3/5
f 351/3/5 348/3/5 347/3/5
f 352/3/5 348/3/5 351/3/5
f 353/3/5 350/3/5 349/3/5
f 354/3/5 350/3/5 353/3/5
f 359/3/5 356/3/5 355/3/5
f 360/3/5 356/3/5 359/3/5
f 361/3/5 358/3/5 357/3/5
f 362/3/5 358/3/5 361/3/5
f 367/3/5 364/3/5 363/3/5
f 368/3/5 364/3/5 367/3/5
f 369/3/5 366/3/5 365/3/5
f 370/3/5 366/3/5 369/3/5
f 375/3/5 372/3/5 371/3/5
f 376/3/5 372/3/5 375/3/5
f 377/3/5 374/3/5 373/3/5
f 378/3/5 374/3/5 377/3/5
f 383/3/5 380/3/5 379/3/5
f 384/3/5 380/3/5 383/3/5
f 385/3/5 382/3/5 381/3/5
f 386/3/5 382/3/5 385/3/5
f 391/3/5 388/3/5 387/3/5
f 392/3/5 388/3/5 391/3/5
f 393/3/5 390/3/5 389/3/5
f 394/3/5 390/3/5 393/3/5
f 399/3/5 396/3/5 395/3/5
f 400/3/5 396/3/5 399/3/5
f 401/3/5 398/3/5 397/3/5
f 402/3/5 398/3/5 401/3/5
f 407/3/5 404/3/5 403/3/5
f 408/3/5 404/3/5 407/3/5
f 409/3/5 406/3/5 405/3/5
f 410/3/5 406/3/5 409/3/5
f 411/3/6 412/3/6 413/3/6
f 413/3/6 412/3/6 414/3/6
f 414/3/6 412/3/6 415/3/6
f 415/3/6 412/3/6 416/3/6
f 416/3/6 412/3/6 417/3/6
f 417/3/6 412/3/6 418/3/6
f 418/3/6 412/3/6 419/3/6
f 419/3/6 412/3/6 420/3/6
f 420/3/6 412/3/6 421/3/6
f 422/3/6 423/3/6 424/3/6
f 424/3/6 423/3/6 425/3/6
f 422/3/6 424/3/6 426/3/6
f 426/3/6 424/3/6 427/3/6
f 425/3/6 423/3/6 428/3/6
f 428/3/6 423/3/6 429/3/6
f 430/3/6 431/3/6 432/3/6
f 432/3/6 431/3/6 433/3/6
f 434/3/6 435/3/6 438/3/6
f 438/3/6 435/3/6 439/3/6
f 436/3/6 437/3/6 440/3/6
f 440/3/6 437/3/6 441/3/6
f 442/3/6 443/3/6 446/3/6
f 446/3/6 443/3/6 447/3/6
f 444/3/6 445/3/6 448/3/6
f 448/3/6 445/3/6 449/3/6
f 450/3/6 451/3/6 454/3/6
f 454/3/6 451/3/6 455/3/6
f 452/3/6 453/3/6 456/3/6
f 456/3/6 453/3/6 457/3/6
f 458/3/6 459/3/6 462/3/6
f 462/3/6 459/3/6 463/3/6
f 460/3/6 461/3/6 464/3/6
f 464/3/6 461/3/6 465/3/6
f 466/3/6 467/3/6 470/3/6
f 470/3/6 467/3/6 471/3/6
f 468/3/6 469/3/6 472/3/6
f 472/3/6 469/3/6 473/3/6
f 474/3/6 475/3/6 478/3/6
f 478/3/6 475/3/6 479/3/6
f 476/3/6 477/3/6 480/3/6
f 480/3/6 477/3/6 481/3/6
f 482/3/6 483/3/6 486/3/6
f 486/3/6 483/3/6 487/3/6
f 484/3/6 485/3/6 488/3/6
f 488/3/6 485/3/6 489/3/6
f 490/3/6 491/3/6 494/3/6
f 494/3/6 491/3/6 495/3/6
f 492/3/6 493/3/6 496/3/6
f 496/3/6 493/3/6 497/3/6
f 498/3/6 499/3/6 502/3/6
f 502/3/6 499/3/6 503/3/6
f 500/3/6 501/3/6 504/3/6
f 504/3/6 501/3/6 505/3/6
