# MagicaVoxel @ Ephtracy

# group
o 

# material
mtllib ventana.mtl
usemtl palette

# normals
vn -1 0 0
vn 1 0 0
vn 0 0 1
vn 0 0 -1
vn 0 -1 0
vn 0 1 0

# texcoords
vt 0.255859 0.5
vt 0.728516 0.5
vt 0.865234 0.5
vt 0.994141 0.5

# verts
v -0.1 0 1.5
v -0.1 0 -1.5
v -0.1 0.2 1.3
v -0.1 0.2 0.1
v -0.1 0.2 -0.1
v -0.1 0.2 -1.3
v -0.1 1.4 1.3
v -0.1 1.4 0.1
v -0.1 1.4 -0.1
v -0.1 1.4 -1.3
v -0.1 1.6 1.3
v -0.1 1.6 0.1
v -0.1 1.6 -0.1
v -0.1 1.6 -1.3
v -0.1 2.8 1.5
v -0.1 2.8 1.3
v -0.1 2.8 0.1
v -0.1 2.8 -0.1
v -0.1 2.8 -1.3
v -0.1 2.8 -1.5
v -0.1 3 1.5
v -0.1 3 -1.5
v 0.1 0 1.5
v 0.1 0 -1.5
v 0.1 0.2 1.3
v 0.1 0.2 0.2
v 0.1 0.2 -0.2
v 0.1 0.2 -1.3
v 0.1 1.3 1.3
v 0.1 1.3 0.2
v 0.1 1.3 -0.2
v 0.1 1.3 -1.3
v 0.1 1.4 0.2
v 0.1 1.4 0.1
v 0.1 1.4 -0.1
v 0.1 1.4 -0.2
v 0.1 1.6 0.2
v 0.1 1.6 0.1
v 0.1 1.6 -0.1
v 0.1 1.6 -0.2
v 0.1 1.7 1.3
v 0.1 1.7 0.2
v 0.1 1.7 -0.2
v 0.1 1.7 -1.3
v 0.1 2.8 1.3
v 0.1 2.8 0.2
v 0.1 2.8 -0.2
v 0.1 2.8 -1.3
v 0.1 3 1.5
v 0.1 3 -1.5
v 0.2 1.4 0.2
v 0.2 1.4 0.1
v 0.2 1.4 -0.1
v 0.2 1.4 -0.2
v 0.2 1.6 0.2
v 0.2 1.6 0.1
v 0.2 1.6 -0.1
v 0.2 1.6 -0.2
v -0.1 0 1.5
v -0.1 2.8 1.5
v -0.1 3 1.5
v 0 0 1.5
v 0 2.8 1.5
v 0.1 0 1.5
v 0.1 3 1.5
v 0.1 1.4 0.2
v 0.1 1.6 0.2
v 0.2 1.4 0.2
v 0.2 1.6 0.2
v 0.1 1.4 -0.1
v 0.1 1.6 -0.1
v 0.2 1.4 -0.1
v 0.2 1.6 -0.1
v 0.1 1.4 0.1
v 0.1 1.6 0.1
v 0.2 1.4 0.1
v 0.2 1.6 0.1
v 0.1 1.4 -0.2
v 0.1 1.6 -0.2
v 0.2 1.4 -0.2
v 0.2 1.6 -0.2
v -0.1 0 -1.5
v -0.1 2.8 -1.5
v -0.1 3 -1.5
v 0 0 -1.5
v 0 2.8 -1.5
v 0.1 0 -1.5
v 0.1 3 -1.5
v -0.1 0 1.5
v 0 0 1.5
v 0.1 0 1.5
v -0.1 0 -1.5
v 0 0 -1.5
v 0.1 0 -1.5
v 0.1 1.4 0.2
v 0.2 1.4 0.2
v 0.1 1.4 0.1
v 0.2 1.4 0.1
v 0.1 1.4 -0.1
v 0.2 1.4 -0.1
v 0.1 1.4 -0.2
v 0.2 1.4 -0.2
v 0.1 1.6 0.2
v 0.2 1.6 0.2
v 0.1 1.6 0.1
v 0.2 1.6 0.1
v 0.1 1.6 -0.1
v 0.2 1.6 -0.1
v 0.1 1.6 -0.2
v 0.2 1.6 -0.2
v -0.1 3 1.5
v 0.1 3 1.5
v -0.1 3 -1.5
v 0.1 3 -1.5

# faces
f 3/3/1 2/3/1 1/3/1
f 4/3/1 2/3/1 3/3/1
f 5/3/1 2/3/1 4/3/1
f 6/3/1 2/3/1 5/3/1
f 7/3/1 3/3/1 1/3/1
f 7/2/1 4/2/1 3/2/1
f 8/3/1 5/3/1 4/3/1
f 8/2/1 4/2/1 7/2/1
f 9/2/1 6/2/1 5/2/1
f 9/3/1 5/3/1 8/3/1
f 10/3/1 2/3/1 6/3/1
f 10/2/1 6/2/1 9/2/1
f 11/3/1 9/3/1 8/3/1
f 11/3/1 8/3/1 7/3/1
f 11/3/1 10/3/1 9/3/1
f 11/3/1 7/3/1 1/3/1
f 12/3/1 10/3/1 11/3/1
f 13/3/1 10/3/1 12/3/1
f 14/3/1 2/3/1 10/3/1
f 14/3/1 10/3/1 13/3/1
f 15/3/1 11/3/1 1/3/1
f 16/2/1 12/2/1 11/2/1
f 16/3/1 11/3/1 15/3/1
f 17/3/1 13/3/1 12/3/1
f 17/2/1 12/2/1 16/2/1
f 18/2/1 14/2/1 13/2/1
f 18/3/1 13/3/1 17/3/1
f 19/3/1 2/3/1 14/3/1
f 19/2/1 14/2/1 18/2/1
f 20/3/1 2/3/1 19/3/1
f 21/1/1 16/1/1 15/1/1
f 21/1/1 18/1/1 17/1/1
f 21/1/1 20/1/1 19/1/1
f 21/1/1 19/1/1 18/1/1
f 21/1/1 17/1/1 16/1/1
f 22/1/1 20/1/1 21/1/1
f 23/1/2 24/1/2 25/1/2
f 25/1/2 24/1/2 26/1/2
f 26/1/2 24/1/2 27/1/2
f 27/1/2 24/1/2 28/1/2
f 23/1/2 25/1/2 29/1/2
f 25/2/2 26/2/2 29/2/2
f 26/1/2 27/1/2 30/1/2
f 29/2/2 26/2/2 30/2/2
f 27/2/2 28/2/2 31/2/2
f 30/1/2 27/1/2 31/1/2
f 28/1/2 24/1/2 32/1/2
f 31/2/2 28/2/2 32/2/2
f 30/1/2 31/1/2 33/1/2
f 29/1/2 30/1/2 33/1/2
f 31/1/2 32/1/2 33/1/2
f 33/1/2 32/1/2 34/1/2
f 34/1/2 32/1/2 35/1/2
f 35/1/2 32/1/2 36/1/2
f 29/1/2 33/1/2 37/1/2
f 34/1/2 35/1/2 38/1/2
f 38/1/2 35/1/2 39/1/2
f 36/1/2 32/1/2 40/1/2
f 23/1/2 29/1/2 41/1/2
f 39/1/2 40/1/2 41/1/2
f 38/1/2 39/1/2 41/1/2
f 29/1/2 37/1/2 41/1/2
f 37/1/2 38/1/2 41/1/2
f 41/1/2 40/1/2 42/1/2
f 40/1/2 32/1/2 43/1/2
f 42/1/2 40/1/2 43/1/2
f 32/1/2 24/1/2 44/1/2
f 43/1/2 32/1/2 44/1/2
f 41/2/2 42/2/2 45/2/2
f 23/1/2 41/1/2 45/1/2
f 42/1/2 43/1/2 46/1/2
f 45/2/2 42/2/2 46/2/2
f 43/2/2 44/2/2 47/2/2
f 46/1/2 43/1/2 47/1/2
f 44/1/2 24/1/2 48/1/2
f 47/2/2 44/2/2 48/2/2
f 23/1/2 45/1/2 49/1/2
f 46/1/2 47/1/2 49/1/2
f 47/1/2 48/1/2 49/1/2
f 45/1/2 46/1/2 49/1/2
f 48/1/2 24/1/2 50/1/2
f 49/1/2 48/1/2 50/1/2
f 51/4/2 52/4/2 55/4/2
f 55/4/2 52/4/2 56/4/2
f 53/4/2 54/4/2 57/4/2
f 57/4/2 54/4/2 58/4/2
f 62/3/3 60/3/3 59/3/3
f 63/1/3 61/1/3 60/1/3
f 63/3/3 60/3/3 62/3/3
f 64/1/3 63/1/3 62/1/3
f 65/1/3 61/1/3 63/1/3
f 65/1/3 63/1/3 64/1/3
f 68/4/3 67/4/3 66/4/3
f 69/4/3 67/4/3 68/4/3
f 72/4/3 71/4/3 70/4/3
f 73/4/3 71/4/3 72/4/3
f 74/4/4 75/4/4 76/4/4
f 76/4/4 75/4/4 77/4/4
f 78/4/4 79/4/4 80/4/4
f 80/4/4 79/4/4 81/4/4
f 82/3/4 83/3/4 85/3/4
f 83/1/4 84/1/4 86/1/4
f 85/3/4 83/3/4 86/3/4
f 85/1/4 86/1/4 87/1/4
f 86/1/4 84/1/4 88/1/4
f 87/1/4 86/1/4 88/1/4
f 92/3/5 90/3/5 89/3/5
f 93/1/5 91/1/5 90/1/5
f 93/3/5 90/3/5 92/3/5
f 94/1/5 91/1/5 93/1/5
f 97/4/5 96/4/5 95/4/5
f 98/4/5 96/4/5 97/4/5
f 101/4/5 100/4/5 99/4/5
f 102/4/5 100/4/5 101/4/5
f 103/4/6 104/4/6 105/4/6
f 105/4/6 104/4/6 106/4/6
f 107/4/6 108/4/6 109/4/6
f 109/4/6 108/4/6 110/4/6
f 111/1/6 112/1/6 113/1/6
f 113/1/6 112/1/6 114/1/6
