# MagicaVoxel @ Ephtracy

# group
o 

# material
mtllib Cuchillo.mtl
usemtl palette

# normals
vn -1 0 0
vn 1 0 0
vn 0 0 1
vn 0 0 -1
vn 0 -1 0
vn 0 1 0

# texcoords
vt 0.251953 0.5
vt 0.345703 0.5
vt 0.595703 0.5
vt 0.876953 0.5

# verts
v -2 0.3 -0.3
v -2 0.3 -0.4
v -2 0.3 -0.5
v -2 0.4 -0.3
v -2 0.4 -0.4
v -2 0.4 -0.5
v -1.9 0.2 -0.3
v -1.9 0.2 -0.5
v -1.9 0.3 -0.2
v -1.9 0.3 -0.3
v -1.9 0.3 -0.4
v -1.9 0.3 -0.5
v -1.9 0.4 -0.2
v -1.9 0.4 -0.3
v -1.9 0.4 -0.4
v -1.9 0.4 -0.5
v -1.9 0.5 -0.3
v -1.9 0.5 -0.5
v -1.8 0.2 -0.2
v -1.8 0.2 -0.3
v -1.8 0.3 -0.1
v -1.8 0.3 -0.2
v -1.8 0.3 -0.3
v -1.8 0.4 -0.1
v -1.8 0.4 -0.2
v -1.8 0.4 -0.3
v -1.8 0.5 -0.2
v -1.8 0.5 -0.3
v -1.7 0.2 -0.1
v -1.7 0.2 -0.2
v -1.7 0.3 0
v -1.7 0.3 -0.1
v -1.7 0.3 -0.2
v -1.7 0.4 0
v -1.7 0.4 -0.1
v -1.7 0.4 -0.2
v -1.7 0.5 -0.1
v -1.7 0.5 -0.2
v -1.6 0.2 0
v -1.6 0.2 -0.1
v -1.6 0.3 0.1
v -1.6 0.3 0
v -1.6 0.3 -0.1
v -1.6 0.4 0.1
v -1.6 0.4 0
v -1.6 0.4 -0.1
v -1.6 0.5 0
v -1.6 0.5 -0.1
v -1.5 0.2 0.1
v -1.5 0.2 0
v -1.5 0.3 0.2
v -1.5 0.3 0.1
v -1.5 0.3 0
v -1.5 0.4 0.2
v -1.5 0.4 0.1
v -1.5 0.4 0
v -1.5 0.5 0.1
v -1.5 0.5 0
v -1.4 0.2 0.2
v -1.4 0.2 0.1
v -1.4 0.3 0.3
v -1.4 0.3 0.2
v -1.4 0.3 0.1
v -1.4 0.4 0.3
v -1.4 0.4 0.2
v -1.4 0.4 0.1
v -1.4 0.5 0.2
v -1.4 0.5 0.1
v -1.3 0.2 0.3
v -1.3 0.2 0.2
v -1.3 0.3 0.4
v -1.3 0.3 0.3
v -1.3 0.3 0.2
v -1.3 0.4 0.4
v -1.3 0.4 0.3
v -1.3 0.4 0.2
v -1.3 0.5 0.3
v -1.3 0.5 0.2
v -1.2 0.2 0.4
v -1.2 0.2 0.3
v -1.2 0.3 0.5
v -1.2 0.3 0.4
v -1.2 0.3 0.3
v -1.2 0.4 0.5
v -1.2 0.4 0.4
v -1.2 0.4 0.3
v -1.2 0.5 0.4
v -1.2 0.5 0.3
v 0.4 0.1 0.4
v 0.4 0.1 -0.5
v 0.4 0.2 0.5
v 0.4 0.2 0.4
v 0.4 0.2 -0.5
v 0.4 0.2 -0.6
v 0.4 0.3 0.5
v 0.4 0.3 0.4
v 0.4 0.4 0.5
v 0.4 0.4 0.4
v 0.4 0.5 0.5
v 0.4 0.5 0.4
v 0.4 0.5 -0.5
v 0.4 0.5 -0.6
v 0.4 0.6 0.4
v 0.4 0.6 -0.5
v 1.7 0 0.2
v 1.7 0 -0.4
v 1.7 0.1 0.3
v 1.7 0.1 0.2
v 1.7 0.1 0.1
v 1.7 0.1 -0.3
v 1.7 0.1 -0.4
v 1.7 0.1 -0.5
v 1.7 0.6 0.3
v 1.7 0.6 0.2
v 1.7 0.6 0.1
v 1.7 0.6 -0.3
v 1.7 0.6 -0.4
v 1.7 0.6 -0.5
v 1.7 0.7 0.2
v 1.7 0.7 -0.4
v 1.8 0 0.3
v 1.8 0 0.2
v 1.8 0 -0.4
v 1.8 0 -0.5
v 1.8 0.1 0.3
v 1.8 0.1 0.2
v 1.8 0.1 -0.4
v 1.8 0.1 -0.5
v 1.8 0.6 0.3
v 1.8 0.6 0.2
v 1.8 0.6 -0.4
v 1.8 0.6 -0.5
v 1.8 0.7 0.3
v 1.8 0.7 0.2
v 1.8 0.7 -0.4
v 1.8 0.7 -0.5
v 0.6 0.1 0.4
v 0.6 0.1 0.1
v 0.6 0.1 -0.3
v 0.6 0.1 -0.5
v 0.6 0.2 0.5
v 0.6 0.2 0.4
v 0.6 0.2 -0.5
v 0.6 0.2 -0.6
v 0.6 0.5 0.5
v 0.6 0.5 0.4
v 0.6 0.5 -0.5
v 0.6 0.5 -0.6
v 0.6 0.6 0.4
v 0.6 0.6 0.1
v 0.6 0.6 -0.3
v 0.6 0.6 -0.5
v 1.9 0 0.3
v 1.9 0 0.2
v 1.9 0 -0.4
v 1.9 0 -0.5
v 1.9 0.1 0.3
v 1.9 0.1 0.2
v 1.9 0.1 -0.4
v 1.9 0.1 -0.5
v 1.9 0.6 0.3
v 1.9 0.6 0.2
v 1.9 0.6 -0.4
v 1.9 0.6 -0.5
v 1.9 0.7 0.3
v 1.9 0.7 0.2
v 1.9 0.7 -0.4
v 1.9 0.7 -0.5
v 2 0 0.2
v 2 0 -0.4
v 2 0.1 0.3
v 2 0.1 0.2
v 2 0.1 -0.4
v 2 0.1 -0.5
v 2 0.6 0.3
v 2 0.6 0.2
v 2 0.6 -0.4
v 2 0.6 -0.5
v 2 0.7 0.2
v 2 0.7 -0.4
v -1.2 0.3 0.5
v -1.2 0.4 0.5
v 0.4 0.2 0.5
v 0.4 0.3 0.5
v 0.4 0.4 0.5
v 0.4 0.5 0.5
v 0.6 0.2 0.5
v 0.6 0.5 0.5
v -1.3 0.3 0.4
v -1.3 0.4 0.4
v -1.2 0.2 0.4
v -1.2 0.3 0.4
v -1.2 0.4 0.4
v -1.2 0.5 0.4
v 0.4 0.1 0.4
v 0.4 0.2 0.4
v 0.4 0.3 0.4
v 0.4 0.4 0.4
v 0.4 0.5 0.4
v 0.4 0.6 0.4
v 0.5 0.1 0.4
v 0.5 0.2 0.4
v 0.6 0.1 0.4
v 0.6 0.2 0.4
v 0.6 0.5 0.4
v 0.6 0.6 0.4
v -1.4 0.3 0.3
v -1.4 0.4 0.3
v -1.3 0.2 0.3
v -1.3 0.3 0.3
v -1.3 0.4 0.3
v -1.3 0.5 0.3
v -1.2 0.2 0.3
v -1.2 0.3 0.3
v -1.2 0.4 0.3
v -1.2 0.5 0.3
v 1.7 0.1 0.3
v 1.7 0.6 0.3
v 1.8 0 0.3
v 1.8 0.1 0.3
v 1.8 0.6 0.3
v 1.8 0.7 0.3
v 1.9 0 0.3
v 1.9 0.1 0.3
v 1.9 0.6 0.3
v 1.9 0.7 0.3
v 2 0.1 0.3
v 2 0.6 0.3
v -1.5 0.3 0.2
v -1.5 0.4 0.2
v -1.4 0.2 0.2
v -1.4 0.3 0.2
v -1.4 0.4 0.2
v -1.4 0.5 0.2
v -1.3 0.2 0.2
v -1.3 0.3 0.2
v -1.3 0.4 0.2
v -1.3 0.5 0.2
v 1.7 0 0.2
v 1.7 0.1 0.2
v 1.7 0.6 0.2
v 1.7 0.7 0.2
v 1.8 0 0.2
v 1.8 0.1 0.2
v 1.8 0.6 0.2
v 1.8 0.7 0.2
v 1.9 0 0.2
v 1.9 0.1 0.2
v 1.9 0.6 0.2
v 1.9 0.7 0.2
v 2 0 0.2
v 2 0.1 0.2
v 2 0.6 0.2
v 2 0.7 0.2
v -1.6 0.3 0.1
v -1.6 0.4 0.1
v -1.5 0.2 0.1
v -1.5 0.3 0.1
v -1.5 0.4 0.1
v -1.5 0.5 0.1
v -1.4 0.2 0.1
v -1.4 0.3 0.1
v -1.4 0.4 0.1
v -1.4 0.5 0.1
v 0.6 0.1 0.1
v 0.6 0.6 0.1
v 1.7 0.1 0.1
v 1.7 0.6 0.1
v -1.7 0.3 0
v -1.7 0.4 0
v -1.6 0.2 0
v -1.6 0.3 0
v -1.6 0.4 0
v -1.6 0.5 0
v -1.5 0.2 0
v -1.5 0.3 0
v -1.5 0.4 0
v -1.5 0.5 0
v -1.8 0.3 -0.1
v -1.8 0.4 -0.1
v -1.7 0.2 -0.1
v -1.7 0.3 -0.1
v -1.7 0.4 -0.1
v -1.7 0.5 -0.1
v -1.6 0.2 -0.1
v -1.6 0.3 -0.1
v -1.6 0.4 -0.1
v -1.6 0.5 -0.1
v -1.9 0.3 -0.2
v -1.9 0.4 -0.2
v -1.8 0.2 -0.2
v -1.8 0.3 -0.2
v -1.8 0.4 -0.2
v -1.8 0.5 -0.2
v -1.7 0.2 -0.2
v -1.7 0.3 -0.2
v -1.7 0.4 -0.2
v -1.7 0.5 -0.2
v -2 0.3 -0.3
v -2 0.4 -0.3
v -1.9 0.2 -0.3
v -1.9 0.3 -0.3
v -1.9 0.4 -0.3
v -1.9 0.5 -0.3
v -1.8 0.2 -0.3
v -1.8 0.3 -0.3
v -1.8 0.4 -0.3
v -1.8 0.5 -0.3
v 0.6 0.1 -0.3
v 0.6 0.6 -0.3
v 1.7 0.1 -0.3
v 1.7 0.6 -0.3
v 1.7 0 -0.4
v 1.7 0.1 -0.4
v 1.7 0.6 -0.4
v 1.7 0.7 -0.4
v 1.8 0 -0.4
v 1.8 0.1 -0.4
v 1.8 0.6 -0.4
v 1.8 0.7 -0.4
v 1.9 0 -0.4
v 1.9 0.1 -0.4
v 1.9 0.6 -0.4
v 1.9 0.7 -0.4
v 2 0 -0.4
v 2 0.1 -0.4
v 2 0.6 -0.4
v 2 0.7 -0.4
v -2 0.3 -0.5
v -2 0.4 -0.5
v -1.9 0.2 -0.5
v -1.9 0.3 -0.5
v -1.9 0.4 -0.5
v -1.9 0.5 -0.5
v 0.4 0.1 -0.5
v 0.4 0.2 -0.5
v 0.4 0.5 -0.5
v 0.4 0.6 -0.5
v 0.5 0.1 -0.5
v 0.5 0.2 -0.5
v 0.6 0.1 -0.5
v 0.6 0.2 -0.5
v 0.6 0.5 -0.5
v 0.6 0.6 -0.5
v 1.7 0.1 -0.5
v 1.7 0.6 -0.5
v 1.8 0 -0.5
v 1.8 0.1 -0.5
v 1.8 0.6 -0.5
v 1.8 0.7 -0.5
v 1.9 0 -0.5
v 1.9 0.1 -0.5
v 1.9 0.6 -0.5
v 1.9 0.7 -0.5
v 2 0.1 -0.5
v 2 0.6 -0.5
v 0.4 0.2 -0.6
v 0.4 0.5 -0.6
v 0.6 0.2 -0.6
v 0.6 0.5 -0.6
v 1.8 0 0.3
v 1.9 0 0.3
v 1.7 0 0.2
v 1.8 0 0.2
v 1.9 0 0.2
v 2 0 0.2
v 1.7 0 -0.4
v 1.8 0 -0.4
v 1.9 0 -0.4
v 2 0 -0.4
v 1.8 0 -0.5
v 1.9 0 -0.5
v 0.4 0.1 0.4
v 0.5 0.1 0.4
v 0.6 0.1 0.4
v 1.7 0.1 0.3
v 1.8 0.1 0.3
v 1.9 0.1 0.3
v 2 0.1 0.3
v 1.7 0.1 0.2
v 1.8 0.1 0.2
v 1.9 0.1 0.2
v 2 0.1 0.2
v 0.5 0.1 0.1
v 0.6 0.1 0.1
v 1.7 0.1 0.1
v 0.5 0.1 -0.3
v 0.6 0.1 -0.3
v 1.7 0.1 -0.3
v 1.7 0.1 -0.4
v 1.8 0.1 -0.4
v 1.9 0.1 -0.4
v 2 0.1 -0.4
v 0.4 0.1 -0.5
v 0.5 0.1 -0.5
v 0.6 0.1 -0.5
v 1.7 0.1 -0.5
v 1.8 0.1 -0.5
v 1.9 0.1 -0.5
v 2 0.1 -0.5
v 0.4 0.2 0.5
v 0.6 0.2 0.5
v -1.2 0.2 0.4
v 0.4 0.2 0.4
v 0.5 0.2 0.4
v 0.6 0.2 0.4
v -1.3 0.2 0.3
v -1.2 0.2 0.3
v -1.4 0.2 0.2
v -1.3 0.2 0.2
v -1.5 0.2 0.1
v -1.4 0.2 0.1
v -1.6 0.2 0
v -1.5 0.2 0
v -1.7 0.2 -0.1
v -1.6 0.2 -0.1
v -1.8 0.2 -0.2
v -1.7 0.2 -0.2
v -1.9 0.2 -0.3
v -1.8 0.2 -0.3
v -1.9 0.2 -0.5
v 0.4 0.2 -0.5
v 0.5 0.2 -0.5
v 0.6 0.2 -0.5
v 0.4 0.2 -0.6
v 0.6 0.2 -0.6
v -1.2 0.3 0.5
v 0.4 0.3 0.5
v -1.3 0.3 0.4
v -1.2 0.3 0.4
v 0.4 0.3 0.4
v -1.4 0.3 0.3
v -1.3 0.3 0.3
v -1.2 0.3 0.3
v -1.5 0.3 0.2
v -1.4 0.3 0.2
v -1.3 0.3 0.2
v -1.6 0.3 0.1
v -1.5 0.3 0.1
v -1.4 0.3 0.1
v -1.7 0.3 0
v -1.6 0.3 0
v -1.5 0.3 0
v -1.8 0.3 -0.1
v -1.7 0.3 -0.1
v -1.6 0.3 -0.1
v -1.9 0.3 -0.2
v -1.8 0.3 -0.2
v -1.7 0.3 -0.2
v -2 0.3 -0.3
v -1.9 0.3 -0.3
v -1.8 0.3 -0.3
v -2 0.3 -0.4
v -1.9 0.3 -0.4
v -2 0.3 -0.5
v -1.9 0.3 -0.5
v -1.2 0.4 0.5
v 0.4 0.4 0.5
v -1.3 0.4 0.4
v -1.2 0.4 0.4
v 0.4 0.4 0.4
v -1.4 0.4 0.3
v -1.3 0.4 0.3
v -1.2 0.4 0.3
v -1.5 0.4 0.2
v -1.4 0.4 0.2
v -1.3 0.4 0.2
v -1.6 0.4 0.1
v -1.5 0.4 0.1
v -1.4 0.4 0.1
v -1.7 0.4 0
v -1.6 0.4 0
v -1.5 0.4 0
v -1.8 0.4 -0.1
v -1.7 0.4 -0.1
v -1.6 0.4 -0.1
v -1.9 0.4 -0.2
v -1.8 0.4 -0.2
v -1.7 0.4 -0.2
v -2 0.4 -0.3
v -1.9 0.4 -0.3
v -1.8 0.4 -0.3
v -2 0.4 -0.4
v -1.9 0.4 -0.4
v -2 0.4 -0.5
v -1.9 0.4 -0.5
v 0.4 0.5 0.5
v 0.6 0.5 0.5
v -1.2 0.5 0.4
v 0.4 0.5 0.4
v 0.6 0.5 0.4
v -1.3 0.5 0.3
v -1.2 0.5 0.3
v -1.4 0.5 0.2
v -1.3 0.5 0.2
v -1.5 0.5 0.1
v -1.4 0.5 0.1
v -1.6 0.5 0
v -1.5 0.5 0
v -1.7 0.5 -0.1
v -1.6 0.5 -0.1
v -1.8 0.5 -0.2
v -1.7 0.5 -0.2
v -1.9 0.5 -0.3
v -1.8 0.5 -0.3
v -1.9 0.5 -0.5
v 0.4 0.5 -0.5
v 0.6 0.5 -0.5
v 0.4 0.5 -0.6
v 0.6 0.5 -0.6
v 0.4 0.6 0.4
v 0.6 0.6 0.4
v 1.7 0.6 0.3
v 1.8 0.6 0.3
v 1.9 0.6 0.3
v 2 0.6 0.3
v 1.7 0.6 0.2
v 1.8 0.6 0.2
v 1.9 0.6 0.2
v 2 0.6 0.2
v 0.6 0.6 0.1
v 1.7 0.6 0.1
v 0.6 0.6 -0.3
v 1.7 0.6 -0.3
v 1.7 0.6 -0.4
v 1.8 0.6 -0.4
v 1.9 0.6 -0.4
v 2 0.6 -0.4
v 0.4 0.6 -0.5
v 0.6 0.6 -0.5
v 1.7 0.6 -0.5
v 1.8 0.6 -0.5
v 1.9 0.6 -0.5
v 2 0.6 -0.5
v 1.8 0.7 0.3
v 1.9 0.7 0.3
v 1.7 0.7 0.2
v 1.8 0.7 0.2
v 1.9 0.7 0.2
v 2 0.7 0.2
v 1.7 0.7 -0.4
v 1.8 0.7 -0.4
v 1.9 0.7 -0.4
v 2 0.7 -0.4
v 1.8 0.7 -0.5
v 1.9 0.7 -0.5

# faces
f 4/4/1 2/4/1 1/4/1
f 5/1/1 3/1/1 2/1/1
f 5/4/1 2/4/1 4/4/1
f 6/1/1 3/1/1 5/1/1
f 10/1/1 8/1/1 7/1/1
f 11/1/1 8/1/1 10/1/1
f 12/1/1 8/1/1 11/1/1
f 13/4/1 10/4/1 9/4/1
f 14/4/1 10/4/1 13/4/1
f 17/1/1 16/1/1 15/1/1
f 17/1/1 15/1/1 14/1/1
f 18/1/1 16/1/1 17/1/1
f 22/1/1 20/1/1 19/1/1
f 23/1/1 20/1/1 22/1/1
f 24/4/1 22/4/1 21/4/1
f 25/4/1 22/4/1 24/4/1
f 27/1/1 26/1/1 25/1/1
f 28/1/1 26/1/1 27/1/1
f 32/1/1 30/1/1 29/1/1
f 33/1/1 30/1/1 32/1/1
f 34/4/1 32/4/1 31/4/1
f 35/4/1 32/4/1 34/4/1
f 37/1/1 36/1/1 35/1/1
f 38/1/1 36/1/1 37/1/1
f 42/1/1 40/1/1 39/1/1
f 43/1/1 40/1/1 42/1/1
f 44/4/1 42/4/1 41/4/1
f 45/4/1 42/4/1 44/4/1
f 47/1/1 46/1/1 45/1/1
f 48/1/1 46/1/1 47/1/1
f 52/1/1 50/1/1 49/1/1
f 53/1/1 50/1/1 52/1/1
f 54/4/1 52/4/1 51/4/1
f 55/4/1 52/4/1 54/4/1
f 57/1/1 56/1/1 55/1/1
f 58/1/1 56/1/1 57/1/1
f 62/1/1 60/1/1 59/1/1
f 63/1/1 60/1/1 62/1/1
f 64/4/1 62/4/1 61/4/1
f 65/4/1 62/4/1 64/4/1
f 67/1/1 66/1/1 65/1/1
f 68/1/1 66/1/1 67/1/1
f 72/1/1 70/1/1 69/1/1
f 73/1/1 70/1/1 72/1/1
f 74/4/1 72/4/1 71/4/1
f 75/4/1 72/4/1 74/4/1
f 77/1/1 76/1/1 75/1/1
f 78/1/1 76/1/1 77/1/1
f 82/1/1 80/1/1 79/1/1
f 83/1/1 80/1/1 82/1/1
f 84/4/1 82/4/1 81/4/1
f 85/4/1 82/4/1 84/4/1
f 87/1/1 86/1/1 85/1/1
f 88/1/1 86/1/1 87/1/1
f 92/2/1 90/2/1 89/2/1
f 93/2/1 90/2/1 92/2/1
f 95/3/1 92/3/1 91/3/1
f 96/3/1 92/3/1 95/3/1
f 99/3/1 98/3/1 97/3/1
f 100/3/1 98/3/1 99/3/1
f 101/3/1 94/3/1 93/3/1
f 102/3/1 94/3/1 101/3/1
f 103/3/1 101/3/1 100/3/1
f 104/3/1 101/3/1 103/3/1
f 108/3/1 106/3/1 105/3/1
f 109/3/1 106/3/1 108/3/1
f 110/3/1 106/3/1 109/3/1
f 111/3/1 106/3/1 110/3/1
f 113/3/1 108/3/1 107/3/1
f 113/3/1 109/3/1 108/3/1
f 114/3/1 109/3/1 113/3/1
f 115/3/1 109/3/1 114/3/1
f 116/3/1 112/3/1 111/3/1
f 116/3/1 111/3/1 110/3/1
f 117/3/1 112/3/1 116/3/1
f 118/3/1 112/3/1 117/3/1
f 119/3/1 115/3/1 114/3/1
f 119/3/1 117/3/1 116/3/1
f 119/3/1 116/3/1 115/3/1
f 120/3/1 117/3/1 119/3/1
f 125/3/1 122/3/1 121/3/1
f 126/3/1 122/3/1 125/3/1
f 127/3/1 124/3/1 123/3/1
f 128/3/1 124/3/1 127/3/1
f 133/3/1 130/3/1 129/3/1
f 134/3/1 130/3/1 133/3/1
f 135/3/1 132/3/1 131/3/1
f 136/3/1 132/3/1 135/3/1
f 137/3/2 138/3/2 142/3/2
f 139/3/2 140/3/2 143/3/2
f 141/3/2 142/3/2 145/3/2
f 142/3/2 138/3/2 146/3/2
f 145/3/2 142/3/2 146/3/2
f 143/3/2 144/3/2 147/3/2
f 139/3/2 143/3/2 147/3/2
f 147/3/2 144/3/2 148/3/2
f 146/3/2 138/3/2 149/3/2
f 149/3/2 138/3/2 150/3/2
f 139/3/2 147/3/2 151/3/2
f 151/3/2 147/3/2 152/3/2
f 153/3/2 154/3/2 157/3/2
f 157/3/2 154/3/2 158/3/2
f 155/3/2 156/3/2 159/3/2
f 159/3/2 156/3/2 160/3/2
f 161/3/2 162/3/2 165/3/2
f 165/3/2 162/3/2 166/3/2
f 163/3/2 164/3/2 167/3/2
f 167/3/2 164/3/2 168/3/2
f 169/3/2 170/3/2 172/3/2
f 172/3/2 170/3/2 173/3/2
f 171/3/2 172/3/2 175/3/2
f 173/3/2 174/3/2 175/3/2
f 172/3/2 173/3/2 175/3/2
f 175/3/2 174/3/2 176/3/2
f 176/3/2 174/3/2 177/3/2
f 177/3/2 174/3/2 178/3/2
f 176/3/2 177/3/2 179/3/2
f 179/3/2 177/3/2 180/3/2
f 184/4/3 182/4/3 181/4/3
f 185/4/3 182/4/3 184/4/3
f 187/3/3 184/3/3 183/3/3
f 187/3/3 186/3/3 185/3/3
f 187/3/3 185/3/3 184/3/3
f 188/3/3 186/3/3 187/3/3
f 192/4/3 190/4/3 189/4/3
f 193/4/3 190/4/3 192/4/3
f 196/1/3 192/1/3 191/1/3
f 197/1/3 192/1/3 196/1/3
f 198/1/3 194/1/3 193/1/3
f 199/1/3 194/1/3 198/1/3
f 201/2/3 196/2/3 195/2/3
f 202/2/3 196/2/3 201/2/3
f 203/3/3 202/3/3 201/3/3
f 204/3/3 202/3/3 203/3/3
f 205/3/3 200/3/3 199/3/3
f 206/3/3 200/3/3 205/3/3
f 210/4/3 208/4/3 207/4/3
f 211/4/3 208/4/3 210/4/3
f 213/1/3 210/1/3 209/1/3
f 214/1/3 210/1/3 213/1/3
f 215/1/3 212/1/3 211/1/3
f 216/1/3 212/1/3 215/1/3
f 220/3/3 218/3/3 217/3/3
f 221/3/3 218/3/3 220/3/3
f 223/3/3 220/3/3 219/3/3
f 223/3/3 222/3/3 221/3/3
f 223/3/3 221/3/3 220/3/3
f 224/3/3 222/3/3 223/3/3
f 225/3/3 222/3/3 224/3/3
f 226/3/3 222/3/3 225/3/3
f 227/3/3 225/3/3 224/3/3
f 228/3/3 225/3/3 227/3/3
f 232/4/3 230/4/3 229/4/3
f 233/4/3 230/4/3 232/4/3
f 235/1/3 232/1/3 231/1/3
f 236/1/3 232/1/3 235/1/3
f 237/1/3 234/1/3 233/1/3
f 238/1/3 234/1/3 237/1/3
f 243/3/3 240/3/3 239/3/3
f 244/3/3 240/3/3 243/3/3
f 245/3/3 242/3/3 241/3/3
f 246/3/3 242/3/3 245/3/3
f 251/3/3 248/3/3 247/3/3
f 252/3/3 248/3/3 251/3/3
f 253/3/3 250/3/3 249/3/3
f 254/3/3 250/3/3 253/3/3
f 258/4/3 256/4/3 255/4/3
f 259/4/3 256/4/3 258/4/3
f 261/1/3 258/1/3 257/1/3
f 262/1/3 258/1/3 261/1/3
f 263/1/3 260/1/3 259/1/3
f 264/1/3 260/1/3 263/1/3
f 267/3/3 266/3/3 265/3/3
f 268/3/3 266/3/3 267/3/3
f 272/4/3 270/4/3 269/4/3
f 273/4/3 270/4/3 272/4/3
f 275/1/3 272/1/3 271/1/3
f 276/1/3 272/1/3 275/1/3
f 277/1/3 274/1/3 273/1/3
f 278/1/3 274/1/3 277/1/3
f 282/4/3 280/4/3 279/4/3
f 283/4/3 280/4/3 282/4/3
f 285/1/3 282/1/3 281/1/3
f 286/1/3 282/1/3 285/1/3
f 287/1/3 284/1/3 283/1/3
f 288/1/3 284/1/3 287/1/3
f 292/4/3 290/4/3 289/4/3
f 293/4/3 290/4/3 292/4/3
f 295/1/3 292/1/3 291/1/3
f 296/1/3 292/1/3 295/1/3
f 297/1/3 294/1/3 293/1/3
f 298/1/3 294/1/3 297/1/3
f 302/4/3 300/4/3 299/4/3
f 303/4/3 300/4/3 302/4/3
f 305/1/3 302/1/3 301/1/3
f 306/1/3 302/1/3 305/1/3
f 307/1/3 304/1/3 303/1/3
f 308/1/3 304/1/3 307/1/3
f 309/3/4 310/3/4 311/3/4
f 311/3/4 310/3/4 312/3/4
f 313/3/4 314/3/4 317/3/4
f 317/3/4 314/3/4 318/3/4
f 315/3/4 316/3/4 319/3/4
f 319/3/4 316/3/4 320/3/4
f 321/3/4 322/3/4 325/3/4
f 325/3/4 322/3/4 326/3/4
f 323/3/4 324/3/4 327/3/4
f 327/3/4 324/3/4 328/3/4
f 329/1/4 330/1/4 332/1/4
f 332/1/4 330/1/4 333/1/4
f 331/1/4 332/1/4 336/1/4
f 333/1/4 334/1/4 336/1/4
f 332/1/4 333/1/4 336/1/4
f 336/1/4 334/1/4 337/1/4
f 335/2/4 336/2/4 339/2/4
f 339/2/4 336/2/4 340/2/4
f 339/3/4 340/3/4 341/3/4
f 341/3/4 340/3/4 342/3/4
f 337/3/4 338/3/4 343/3/4
f 343/3/4 338/3/4 344/3/4
f 345/3/4 346/3/4 348/3/4
f 348/3/4 346/3/4 349/3/4
f 348/3/4 349/3/4 351/3/4
f 349/3/4 350/3/4 351/3/4
f 347/3/4 348/3/4 351/3/4
f 351/3/4 350/3/4 352/3/4
f 352/3/4 350/3/4 353/3/4
f 353/3/4 350/3/4 354/3/4
f 352/3/4 353/3/4 355/3/4
f 355/3/4 353/3/4 356/3/4
f 357/3/4 358/3/4 359/3/4
f 359/3/4 358/3/4 360/3/4
f 364/3/5 362/3/5 361/3/5
f 365/3/5 362/3/5 364/3/5
f 367/3/5 364/3/5 363/3/5
f 367/3/5 366/3/5 365/3/5
f 367/3/5 365/3/5 364/3/5
f 368/3/5 366/3/5 367/3/5
f 369/3/5 366/3/5 368/3/5
f 370/3/5 366/3/5 369/3/5
f 371/3/5 369/3/5 368/3/5
f 372/3/5 369/3/5 371/3/5
f 380/3/5 377/3/5 376/3/5
f 381/3/5 377/3/5 380/3/5
f 382/3/5 379/3/5 378/3/5
f 383/3/5 379/3/5 382/3/5
f 384/2/5 374/2/5 373/2/5
f 384/3/5 375/3/5 374/3/5
f 385/3/5 375/3/5 384/3/5
f 387/2/5 384/2/5 373/2/5
f 387/2/5 385/2/5 384/2/5
f 388/3/5 386/3/5 385/3/5
f 388/2/5 385/2/5 387/2/5
f 389/3/5 386/3/5 388/3/5
f 394/2/5 387/2/5 373/2/5
f 395/3/5 388/3/5 387/3/5
f 395/2/5 387/2/5 394/2/5
f 396/3/5 388/3/5 395/3/5
f 397/3/5 391/3/5 390/3/5
f 398/3/5 391/3/5 397/3/5
f 399/3/5 393/3/5 392/3/5
f 400/3/5 393/3/5 399/3/5
f 404/3/5 402/3/5 401/3/5
f 405/3/5 402/3/5 404/3/5
f 406/3/5 402/3/5 405/3/5
f 408/1/5 404/1/5 403/1/5
f 410/1/5 408/1/5 407/1/5
f 412/1/5 410/1/5 409/1/5
f 414/1/5 412/1/5 411/1/5
f 416/1/5 414/1/5 413/1/5
f 418/1/5 416/1/5 415/1/5
f 420/1/5 418/1/5 417/1/5
f 421/1/5 420/1/5 419/1/5
f 422/1/5 404/1/5 408/1/5
f 422/1/5 420/1/5 421/1/5
f 422/1/5 408/1/5 410/1/5
f 422/1/5 418/1/5 420/1/5
f 422/1/5 410/1/5 412/1/5
f 422/1/5 416/1/5 418/1/5
f 422/1/5 412/1/5 414/1/5
f 422/1/5 414/1/5 416/1/5
f 425/3/5 424/3/5 423/3/5
f 425/3/5 423/3/5 422/3/5
f 426/3/5 424/3/5 425/3/5
f 430/4/5 428/4/5 427/4/5
f 431/4/5 428/4/5 430/4/5
f 433/4/5 430/4/5 429/4/5
f 434/4/5 430/4/5 433/4/5
f 436/4/5 433/4/5 432/4/5
f 437/4/5 433/4/5 436/4/5
f 439/4/5 436/4/5 435/4/5
f 440/4/5 436/4/5 439/4/5
f 442/4/5 439/4/5 438/4/5
f 443/4/5 439/4/5 442/4/5
f 445/4/5 442/4/5 441/4/5
f 446/4/5 442/4/5 445/4/5
f 448/4/5 445/4/5 444/4/5
f 449/4/5 445/4/5 448/4/5
f 451/4/5 448/4/5 447/4/5
f 452/4/5 448/4/5 451/4/5
f 453/4/5 451/4/5 450/4/5
f 454/4/5 451/4/5 453/4/5
f 455/1/5 454/1/5 453/1/5
f 456/1/5 454/1/5 455/1/5
f 457/4/6 458/4/6 460/4/6
f 460/4/6 458/4/6 461/4/6
f 459/4/6 460/4/6 463/4/6
f 463/4/6 460/4/6 464/4/6
f 462/4/6 463/4/6 466/4/6
f 466/4/6 463/4/6 467/4/6
f 465/4/6 466/4/6 469/4/6
f 469/4/6 466/4/6 470/4/6
f 468/4/6 469/4/6 472/4/6
f 472/4/6 469/4/6 473/4/6
f 471/4/6 472/4/6 475/4/6
f 475/4/6 472/4/6 476/4/6
f 474/4/6 475/4/6 478/4/6
f 478/4/6 475/4/6 479/4/6
f 477/4/6 478/4/6 481/4/6
f 481/4/6 478/4/6 482/4/6
f 480/4/6 481/4/6 483/4/6
f 483/4/6 481/4/6 484/4/6
f 483/1/6 484/1/6 485/1/6
f 485/1/6 484/1/6 486/1/6
f 487/3/6 488/3/6 490/3/6
f 490/3/6 488/3/6 491/3/6
f 489/1/6 490/1/6 493/1/6
f 492/1/6 493/1/6 495/1/6
f 494/1/6 495/1/6 497/1/6
f 496/1/6 497/1/6 499/1/6
f 498/1/6 499/1/6 501/1/6
f 500/1/6 501/1/6 503/1/6
f 502/1/6 503/1/6 505/1/6
f 504/1/6 505/1/6 506/1/6
f 493/1/6 490/1/6 507/1/6
f 506/1/6 505/1/6 507/1/6
f 495/1/6 493/1/6 507/1/6
f 505/1/6 503/1/6 507/1/6
f 497/1/6 495/1/6 507/1/6
f 503/1/6 501/1/6 507/1/6
f 499/1/6 497/1/6 507/1/6
f 501/1/6 499/1/6 507/1/6
f 507/3/6 508/3/6 509/3/6
f 509/3/6 508/3/6 510/3/6
f 513/3/6 514/3/6 517/3/6
f 517/3/6 514/3/6 518/3/6
f 515/3/6 516/3/6 519/3/6
f 519/3/6 516/3/6 520/3/6
f 511/3/6 512/3/6 521/3/6
f 511/3/6 521/3/6 523/3/6
f 521/3/6 522/3/6 523/3/6
f 523/3/6 522/3/6 524/3/6
f 511/3/6 523/3/6 529/3/6
f 529/3/6 523/3/6 530/3/6
f 525/3/6 526/3/6 531/3/6
f 531/3/6 526/3/6 532/3/6
f 527/3/6 528/3/6 533/3/6
f 533/3/6 528/3/6 534/3/6
f 535/3/6 536/3/6 538/3/6
f 538/3/6 536/3/6 539/3/6
f 537/3/6 538/3/6 541/3/6
f 539/3/6 540/3/6 541/3/6
f 538/3/6 539/3/6 541/3/6
f 541/3/6 540/3/6 542/3/6
f 542/3/6 540/3/6 543/3/6
f 543/3/6 540/3/6 544/3/6
f 542/3/6 543/3/6 545/3/6
f 545/3/6 543/3/6 546/3/6
