# MagicaVoxel @ Ephtracy

# group
o 

# material
mtllib Espejo.mtl
usemtl palette

# normals
vn -1 0 0
vn 1 0 0
vn 0 0 1
vn 0 0 -1
vn 0 -1 0
vn 0 1 0

# texcoords
vt 0.349609 0.5
vt 0.439453 0.5
vt 0.474609 0.5
vt 0.876953 0.5

# verts
v -1.6 0 0.4
v -1.6 0 -0.4
v -1.6 0.4 0.4
v -1.6 0.4 -0.4
v -1.5 0.4 0.3
v -1.5 0.4 -0.3
v -1.5 1.4 0.9
v -1.5 1.4 0.3
v -1.5 1.4 -0.3
v -1.5 1.4 -0.9
v -1.5 1.5 1
v -1.5 1.5 0.9
v -1.5 1.5 -0.9
v -1.5 1.5 -1
v -1.5 1.6 1.1
v -1.5 1.6 1
v -1.5 1.6 -1
v -1.5 1.6 -1.1
v -1.5 1.7 1.2
v -1.5 1.7 1.1
v -1.5 1.7 -1.1
v -1.5 1.7 -1.2
v -1.5 3.7 1.2
v -1.5 3.7 1.1
v -1.5 3.7 -1.1
v -1.5 3.7 -1.2
v -1.5 3.8 1.1
v -1.5 3.8 1
v -1.5 3.8 -1
v -1.5 3.8 -1.1
v -1.5 3.9 1
v -1.5 3.9 0.8
v -1.5 3.9 -0.8
v -1.5 3.9 -1
v -1.5 4 0.8
v -1.5 4 -0.8
v -1 1.7 0.8
v -1 1.7 -0.8
v -1 1.8 0.9
v -1 1.8 0.8
v -1 1.8 -0.8
v -1 1.8 -0.9
v -1 1.9 1
v -1 1.9 0.9
v -1 1.9 -0.9
v -1 1.9 -1
v -1 2.2 0.3
v -1 2.2 0.2
v -1 2.3 0.3
v -1 2.3 0.2
v -1 2.3 0
v -1 2.4 0.2
v -1 2.4 0
v -1 2.4 -0.0999999
v -1 2.6 0
v -1 2.6 -0.0999999
v -1 2.6 -0.2
v -1 2.7 0.6
v -1 2.7 0.5
v -1 2.7 -0.0999999
v -1 2.7 -0.2
v -1 2.7 -0.3
v -1 2.8 0.6
v -1 2.8 0.5
v -1 2.8 0.4
v -1 2.8 -0.2
v -1 2.8 -0.3
v -1 2.8 -0.4
v -1 2.9 0.5
v -1 2.9 0.4
v -1 2.9 0.3
v -1 2.9 -0.3
v -1 2.9 -0.4
v -1 3 0.4
v -1 3 0.3
v -1 3 0.2
v -1 3.1 0.3
v -1 3.1 0.2
v -1 3.1 0.1
v -1 3.2 0.2
v -1 3.2 0.1
v -1 3.2 0
v -1 3.3 0.1
v -1 3.3 0
v -1 3.5 1
v -1 3.5 0.9
v -1 3.5 -0.9
v -1 3.5 -1
v -1 3.6 0.9
v -1 3.6 0.8
v -1 3.6 -0.8
v -1 3.6 -0.9
v -1 3.7 0.8
v -1 3.7 -0.8
v -0.9 0.4 0.3
v -0.9 0.4 -0.3
v -0.9 1.4 0.9
v -0.9 1.4 0.3
v -0.9 1.4 -0.3
v -0.9 1.4 -0.9
v -0.9 1.5 1
v -0.9 1.5 0.9
v -0.9 1.5 -0.9
v -0.9 1.5 -1
v -0.9 1.6 1.1
v -0.9 1.6 1
v -0.9 1.6 -1
v -0.9 1.6 -1.1
v -0.9 1.7 1.2
v -0.9 1.7 1.1
v -0.9 1.7 0.8
v -0.9 1.7 -0.8
v -0.9 1.7 -1.1
v -0.9 1.7 -1.2
v -0.9 1.8 0.9
v -0.9 1.8 0.8
v -0.9 1.8 -0.8
v -0.9 1.8 -0.9
v -0.9 1.9 1
v -0.9 1.9 0.9
v -0.9 1.9 -0.9
v -0.9 1.9 -1
v -0.9 3.5 1
v -0.9 3.5 0.9
v -0.9 3.5 -0.9
v -0.9 3.5 -1
v -0.9 3.6 0.9
v -0.9 3.6 0.8
v -0.9 3.6 -0.8
v -0.9 3.6 -0.9
v -0.9 3.7 1.2
v -0.9 3.7 1.1
v -0.9 3.7 0.8
v -0.9 3.7 -0.8
v -0.9 3.7 -1.1
v -0.9 3.7 -1.2
v -0.9 3.8 1.1
v -0.9 3.8 1
v -0.9 3.8 -1
v -0.9 3.8 -1.1
v -0.9 3.9 1
v -0.9 3.9 0.8
v -0.9 3.9 -0.8
v -0.9 3.9 -1
v -0.9 4 0.8
v -0.9 4 -0.8
v -0.8 0 0.4
v -0.8 0 -0.4
v -0.8 0.4 0.4
v -0.8 0.4 -0.4
v -1.5 1.7 1.2
v -1.5 3.7 1.2
v -0.9 1.7 1.2
v -0.9 3.7 1.2
v -1.5 1.6 1.1
v -1.5 1.7 1.1
v -1.5 3.7 1.1
v -1.5 3.8 1.1
v -0.9 1.6 1.1
v -0.9 1.7 1.1
v -0.9 3.7 1.1
v -0.9 3.8 1.1
v -1.5 1.5 1
v -1.5 1.6 1
v -1.5 3.8 1
v -1.5 3.9 1
v -0.9 1.5 1
v -0.9 1.6 1
v -0.9 3.8 1
v -0.9 3.9 1
v -1.5 1.4 0.9
v -1.5 1.5 0.9
v -0.9 1.4 0.9
v -0.9 1.5 0.9
v -1.5 3.9 0.8
v -1.5 4 0.8
v -0.9 3.9 0.8
v -0.9 4 0.8
v -1.6 0 0.4
v -1.6 0.4 0.4
v -0.8 0 0.4
v -0.8 0.4 0.4
v -1.5 0.4 0.3
v -1.5 1.4 0.3
v -0.9 0.4 0.3
v -0.9 1.4 0.3
v -1 1.7 -0.8
v -1 1.8 -0.8
v -1 3.6 -0.8
v -1 3.7 -0.8
v -0.9 1.7 -0.8
v -0.9 1.8 -0.8
v -0.9 3.6 -0.8
v -0.9 3.7 -0.8
v -1 1.8 -0.9
v -1 1.9 -0.9
v -1 3.5 -0.9
v -1 3.6 -0.9
v -0.9 1.8 -0.9
v -0.9 1.9 -0.9
v -0.9 3.5 -0.9
v -0.9 3.6 -0.9
v -1 1.9 -1
v -1 3.5 -1
v -0.9 1.9 -1
v -0.9 3.5 -1
v -1 1.9 1
v -1 3.5 1
v -0.9 1.9 1
v -0.9 3.5 1
v -1 1.8 0.9
v -1 1.9 0.9
v -1 3.5 0.9
v -1 3.6 0.9
v -0.9 1.8 0.9
v -0.9 1.9 0.9
v -0.9 3.5 0.9
v -0.9 3.6 0.9
v -1 1.7 0.8
v -1 1.8 0.8
v -1 3.6 0.8
v -1 3.7 0.8
v -0.9 1.7 0.8
v -0.9 1.8 0.8
v -0.9 3.6 0.8
v -0.9 3.7 0.8
v -1.5 0.4 -0.3
v -1.5 1.4 -0.3
v -0.9 0.4 -0.3
v -0.9 1.4 -0.3
v -1.6 0 -0.4
v -1.6 0.4 -0.4
v -0.8 0 -0.4
v -0.8 0.4 -0.4
v -1.5 3.9 -0.8
v -1.5 4 -0.8
v -0.9 3.9 -0.8
v -0.9 4 -0.8
v -1.5 1.4 -0.9
v -1.5 1.5 -0.9
v -0.9 1.4 -0.9
v -0.9 1.5 -0.9
v -1.5 1.5 -1
v -1.5 1.6 -1
v -1.5 3.8 -1
v -1.5 3.9 -1
v -0.9 1.5 -1
v -0.9 1.6 -1
v -0.9 3.8 -1
v -0.9 3.9 -1
v -1.5 1.6 -1.1
v -1.5 1.7 -1.1
v -1.5 3.7 -1.1
v -1.5 3.8 -1.1
v -0.9 1.6 -1.1
v -0.9 1.7 -1.1
v -0.9 3.7 -1.1
v -0.9 3.8 -1.1
v -1.5 1.7 -1.2
v -1.5 3.7 -1.2
v -0.9 1.7 -1.2
v -0.9 3.7 -1.2
v -1.6 0 0.4
v -0.8 0 0.4
v -1.6 0 -0.4
v -0.8 0 -0.4
v -1.5 1.4 0.9
v -0.9 1.4 0.9
v -1.5 1.4 0.3
v -0.9 1.4 0.3
v -1.5 1.4 -0.3
v -0.9 1.4 -0.3
v -1.5 1.4 -0.9
v -0.9 1.4 -0.9
v -1.5 1.5 1
v -0.9 1.5 1
v -1.5 1.5 0.9
v -0.9 1.5 0.9
v -1.5 1.5 -0.9
v -0.9 1.5 -0.9
v -1.5 1.5 -1
v -0.9 1.5 -1
v -1.5 1.6 1.1
v -0.9 1.6 1.1
v -1.5 1.6 1
v -0.9 1.6 1
v -1.5 1.6 -1
v -0.9 1.6 -1
v -1.5 1.6 -1.1
v -0.9 1.6 -1.1
v -1.5 1.7 1.2
v -0.9 1.7 1.2
v -1.5 1.7 1.1
v -0.9 1.7 1.1
v -1.5 1.7 -1.1
v -0.9 1.7 -1.1
v -1.5 1.7 -1.2
v -0.9 1.7 -1.2
v -1 3.5 1
v -0.9 3.5 1
v -1 3.5 0.9
v -0.9 3.5 0.9
v -1 3.5 -0.9
v -0.9 3.5 -0.9
v -1 3.5 -1
v -0.9 3.5 -1
v -1 3.6 0.9
v -0.9 3.6 0.9
v -1 3.6 0.8
v -0.9 3.6 0.8
v -1 3.6 -0.8
v -0.9 3.6 -0.8
v -1 3.6 -0.9
v -0.9 3.6 -0.9
v -1 3.7 0.8
v -0.9 3.7 0.8
v -1 3.7 -0.8
v -0.9 3.7 -0.8
v -1.6 0.4 0.4
v -0.8 0.4 0.4
v -1.5 0.4 0.3
v -0.9 0.4 0.3
v -1.5 0.4 -0.3
v -0.9 0.4 -0.3
v -1.6 0.4 -0.4
v -0.8 0.4 -0.4
v -1 1.7 0.8
v -0.9 1.7 0.8
v -1 1.7 -0.8
v -0.9 1.7 -0.8
v -1 1.8 0.9
v -0.9 1.8 0.9
v -1 1.8 0.8
v -0.9 1.8 0.8
v -1 1.8 -0.8
v -0.9 1.8 -0.8
v -1 1.8 -0.9
v -0.9 1.8 -0.9
v -1 1.9 1
v -0.9 1.9 1
v -1 1.9 0.9
v -0.9 1.9 0.9
v -1 1.9 -0.9
v -0.9 1.9 -0.9
v -1 1.9 -1
v -0.9 1.9 -1
v -1.5 3.7 1.2
v -0.9 3.7 1.2
v -1.5 3.7 1.1
v -0.9 3.7 1.1
v -1.5 3.7 -1.1
v -0.9 3.7 -1.1
v -1.5 3.7 -1.2
v -0.9 3.7 -1.2
v -1.5 3.8 1.1
v -0.9 3.8 1.1
v -1.5 3.8 1
v -0.9 3.8 1
v -1.5 3.8 -1
v -0.9 3.8 -1
v -1.5 3.8 -1.1
v -0.9 3.8 -1.1
v -1.5 3.9 1
v -0.9 3.9 1
v -1.5 3.9 0.8
v -0.9 3.9 0.8
v -1.5 3.9 -0.8
v -0.9 3.9 -0.8
v -1.5 3.9 -1
v -0.9 3.9 -1
v -1.5 4 0.8
v -0.9 4 0.8
v -1.5 4 -0.8
v -0.9 4 -0.8

# faces
f 3/1/1 2/1/1 1/1/1
f 4/1/1 2/1/1 3/1/1
f 8/1/1 6/1/1 5/1/1
f 9/1/1 6/1/1 8/1/1
f 12/1/1 8/1/1 7/1/1
f 12/1/1 10/1/1 9/1/1
f 12/1/1 9/1/1 8/1/1
f 13/1/1 10/1/1 12/1/1
f 16/1/1 12/1/1 11/1/1
f 16/1/1 14/1/1 13/1/1
f 16/1/1 13/1/1 12/1/1
f 17/1/1 14/1/1 16/1/1
f 20/1/1 16/1/1 15/1/1
f 20/1/1 18/1/1 17/1/1
f 20/1/1 17/1/1 16/1/1
f 21/1/1 18/1/1 20/1/1
f 23/1/1 20/1/1 19/1/1
f 23/1/1 22/1/1 21/1/1
f 23/1/1 21/1/1 20/1/1
f 24/1/1 22/1/1 23/1/1
f 25/1/1 22/1/1 24/1/1
f 26/1/1 22/1/1 25/1/1
f 27/1/1 25/1/1 24/1/1
f 28/1/1 25/1/1 27/1/1
f 29/1/1 25/1/1 28/1/1
f 30/1/1 25/1/1 29/1/1
f 31/1/1 29/1/1 28/1/1
f 32/1/1 29/1/1 31/1/1
f 33/1/1 29/1/1 32/1/1
f 34/1/1 29/1/1 33/1/1
f 35/1/1 33/1/1 32/1/1
f 36/1/1 33/1/1 35/1/1
f 37/3/2 38/3/2 40/3/2
f 40/3/2 38/3/2 41/3/2
f 39/3/2 40/3/2 44/3/2
f 41/3/2 42/3/2 44/3/2
f 40/3/2 41/3/2 44/3/2
f 44/3/2 42/3/2 45/3/2
f 43/3/2 44/3/2 47/3/2
f 45/3/2 46/3/2 47/3/2
f 44/3/2 45/3/2 47/3/2
f 47/3/2 46/3/2 48/3/2
f 43/3/2 47/3/2 49/3/2
f 47/4/2 48/4/2 49/4/2
f 48/3/2 46/3/2 50/3/2
f 49/4/2 48/4/2 50/4/2
f 50/3/2 46/3/2 51/3/2
f 49/3/2 50/3/2 52/3/2
f 50/4/2 51/4/2 52/4/2
f 51/3/2 46/3/2 53/3/2
f 52/4/2 51/4/2 53/4/2
f 53/3/2 46/3/2 54/3/2
f 52/3/2 53/3/2 55/3/2
f 53/4/2 54/4/2 55/4/2
f 54/3/2 46/3/2 56/3/2
f 55/4/2 54/4/2 56/4/2
f 56/3/2 46/3/2 57/3/2
f 43/3/2 49/3/2 58/3/2
f 49/3/2 52/3/2 58/3/2
f 52/3/2 55/3/2 58/3/2
f 55/3/2 56/3/2 58/3/2
f 58/3/2 56/3/2 59/3/2
f 56/4/2 57/4/2 60/4/2
f 59/3/2 56/3/2 60/3/2
f 57/3/2 46/3/2 61/3/2
f 60/4/2 57/4/2 61/4/2
f 61/3/2 46/3/2 62/3/2
f 58/4/2 59/4/2 63/4/2
f 43/3/2 58/3/2 63/3/2
f 59/3/2 60/3/2 64/3/2
f 63/4/2 59/4/2 64/4/2
f 60/3/2 61/3/2 64/3/2
f 64/3/2 61/3/2 65/3/2
f 61/4/2 62/4/2 66/4/2
f 65/3/2 61/3/2 66/3/2
f 62/3/2 46/3/2 67/3/2
f 66/4/2 62/4/2 67/4/2
f 67/3/2 46/3/2 68/3/2
f 64/4/2 65/4/2 69/4/2
f 63/3/2 64/3/2 69/3/2
f 65/3/2 66/3/2 70/3/2
f 69/4/2 65/4/2 70/4/2
f 66/3/2 67/3/2 70/3/2
f 70/3/2 67/3/2 71/3/2
f 67/4/2 68/4/2 72/4/2
f 71/3/2 67/3/2 72/3/2
f 68/3/2 46/3/2 73/3/2
f 72/4/2 68/4/2 73/4/2
f 70/4/2 71/4/2 74/4/2
f 69/3/2 70/3/2 74/3/2
f 71/3/2 72/3/2 75/3/2
f 74/4/2 71/4/2 75/4/2
f 72/3/2 73/3/2 75/3/2
f 75/3/2 73/3/2 76/3/2
f 74/3/2 75/3/2 77/3/2
f 75/4/2 76/4/2 77/4/2
f 76/3/2 73/3/2 78/3/2
f 77/4/2 76/4/2 78/4/2
f 78/3/2 73/3/2 79/3/2
f 77/3/2 78/3/2 80/3/2
f 78/4/2 79/4/2 80/4/2
f 79/3/2 73/3/2 81/3/2
f 80/4/2 79/4/2 81/4/2
f 81/3/2 73/3/2 82/3/2
f 80/3/2 81/3/2 83/3/2
f 81/4/2 82/4/2 83/4/2
f 82/3/2 73/3/2 84/3/2
f 83/4/2 82/4/2 84/4/2
f 43/3/2 63/3/2 85/3/2
f 63/3/2 69/3/2 85/3/2
f 83/3/2 84/3/2 85/3/2
f 80/3/2 83/3/2 85/3/2
f 77/3/2 80/3/2 85/3/2
f 74/3/2 77/3/2 85/3/2
f 69/3/2 74/3/2 85/3/2
f 85/3/2 84/3/2 86/3/2
f 84/3/2 73/3/2 87/3/2
f 86/3/2 84/3/2 87/3/2
f 73/3/2 46/3/2 87/3/2
f 87/3/2 46/3/2 88/3/2
f 86/3/2 87/3/2 89/3/2
f 89/3/2 87/3/2 90/3/2
f 90/3/2 87/3/2 91/3/2
f 91/3/2 87/3/2 92/3/2
f 90/3/2 91/3/2 93/3/2
f 93/3/2 91/3/2 94/3/2
f 95/1/2 96/1/2 98/1/2
f 98/1/2 96/1/2 99/1/2
f 97/1/2 98/1/2 102/1/2
f 99/1/2 100/1/2 102/1/2
f 98/1/2 99/1/2 102/1/2
f 102/1/2 100/1/2 103/1/2
f 101/1/2 102/1/2 106/1/2
f 103/1/2 104/1/2 106/1/2
f 102/1/2 103/1/2 106/1/2
f 106/1/2 104/1/2 107/1/2
f 105/1/2 106/1/2 110/1/2
f 107/1/2 108/1/2 110/1/2
f 106/1/2 107/1/2 110/1/2
f 110/1/2 108/1/2 111/1/2
f 111/1/2 108/1/2 112/1/2
f 112/1/2 108/1/2 113/1/2
f 109/1/2 110/1/2 115/1/2
f 110/1/2 111/1/2 115/1/2
f 115/1/2 111/1/2 116/1/2
f 113/1/2 114/1/2 117/1/2
f 112/1/2 113/1/2 117/1/2
f 117/1/2 114/1/2 118/1/2
f 109/1/2 115/1/2 119/1/2
f 119/1/2 115/1/2 120/1/2
f 118/1/2 114/1/2 121/1/2
f 121/1/2 114/1/2 122/1/2
f 109/1/2 119/1/2 123/1/2
f 122/1/2 114/1/2 126/1/2
f 123/1/2 124/1/2 127/1/2
f 125/1/2 126/1/2 130/1/2
f 127/1/2 128/1/2 131/1/2
f 109/1/2 123/1/2 131/1/2
f 123/1/2 127/1/2 131/1/2
f 131/1/2 128/1/2 132/1/2
f 132/1/2 128/1/2 133/1/2
f 129/1/2 130/1/2 134/1/2
f 130/1/2 126/1/2 135/1/2
f 126/1/2 114/1/2 135/1/2
f 134/1/2 130/1/2 135/1/2
f 135/1/2 114/1/2 136/1/2
f 132/1/2 133/1/2 137/1/2
f 133/1/2 134/1/2 137/1/2
f 134/1/2 135/1/2 137/1/2
f 137/1/2 135/1/2 138/1/2
f 138/1/2 135/1/2 139/1/2
f 139/1/2 135/1/2 140/1/2
f 138/1/2 139/1/2 141/1/2
f 141/1/2 139/1/2 142/1/2
f 142/1/2 139/1/2 143/1/2
f 143/1/2 139/1/2 144/1/2
f 142/1/2 143/1/2 145/1/2
f 145/1/2 143/1/2 146/1/2
f 147/1/2 148/1/2 149/1/2
f 149/1/2 148/1/2 150/1/2
f 153/1/3 152/1/3 151/1/3
f 154/1/3 152/1/3 153/1/3
f 159/1/3 156/1/3 155/1/3
f 160/1/3 156/1/3 159/1/3
f 161/1/3 158/1/3 157/1/3
f 162/1/3 158/1/3 161/1/3
f 167/1/3 164/1/3 163/1/3
f 168/1/3 164/1/3 167/1/3
f 169/1/3 166/1/3 165/1/3
f 170/1/3 166/1/3 169/1/3
f 173/1/3 172/1/3 171/1/3
f 174/1/3 172/1/3 173/1/3
f 177/1/3 176/1/3 175/1/3
f 178/1/3 176/1/3 177/1/3
f 181/1/3 180/1/3 179/1/3
f 182/1/3 180/1/3 181/1/3
f 185/1/3 184/1/3 183/1/3
f 186/1/3 184/1/3 185/1/3
f 191/1/3 188/1/3 187/1/3
f 192/1/3 188/1/3 191/1/3
f 193/1/3 190/1/3 189/1/3
f 194/1/3 190/1/3 193/1/3
f 199/1/3 196/1/3 195/1/3
f 200/1/3 196/1/3 199/1/3
f 201/1/3 198/1/3 197/1/3
f 202/1/3 198/1/3 201/1/3
f 205/1/3 204/1/3 203/1/3
f 206/1/3 204/1/3 205/1/3
f 207/1/4 208/1/4 209/1/4
f 209/1/4 208/1/4 210/1/4
f 211/1/4 212/1/4 215/1/4
f 215/1/4 212/1/4 216/1/4
f 213/1/4 214/1/4 217/1/4
f 217/1/4 214/1/4 218/1/4
f 219/1/4 220/1/4 223/1/4
f 223/1/4 220/1/4 224/1/4
f 221/1/4 222/1/4 225/1/4
f 225/1/4 222/1/4 226/1/4
f 227/1/4 228/1/4 229/1/4
f 229/1/4 228/1/4 230/1/4
f 231/1/4 232/1/4 233/1/4
f 233/1/4 232/1/4 234/1/4
f 235/1/4 236/1/4 237/1/4
f 237/1/4 236/1/4 238/1/4
f 239/1/4 240/1/4 241/1/4
f 241/1/4 240/1/4 242/1/4
f 243/1/4 244/1/4 247/1/4
f 247/1/4 244/1/4 248/1/4
f 245/1/4 246/1/4 249/1/4
f 249/1/4 246/1/4 250/1/4
f 251/1/4 252/1/4 255/1/4
f 255/1/4 252/1/4 256/1/4
f 253/1/4 254/1/4 257/1/4
f 257/1/4 254/1/4 258/1/4
f 259/1/4 260/1/4 261/1/4
f 261/1/4 260/1/4 262/1/4
f 265/1/5 264/1/5 263/1/5
f 266/1/5 264/1/5 265/1/5
f 269/1/5 268/1/5 267/1/5
f 270/1/5 268/1/5 269/1/5
f 273/1/5 272/1/5 271/1/5
f 274/1/5 272/1/5 273/1/5
f 277/1/5 276/1/5 275/1/5
f 278/1/5 276/1/5 277/1/5
f 281/1/5 280/1/5 279/1/5
f 282/1/5 280/1/5 281/1/5
f 285/1/5 284/1/5 283/1/5
f 286/1/5 284/1/5 285/1/5
f 289/1/5 288/1/5 287/1/5
f 290/1/5 288/1/5 289/1/5
f 293/1/5 292/1/5 291/1/5
f 294/1/5 292/1/5 293/1/5
f 297/1/5 296/1/5 295/1/5
f 298/1/5 296/1/5 297/1/5
f 301/1/5 300/1/5 299/1/5
f 302/1/5 300/1/5 301/1/5
f 305/1/5 304/1/5 303/1/5
f 306/1/5 304/1/5 305/1/5
f 309/1/5 308/1/5 307/1/5
f 310/1/5 308/1/5 309/1/5
f 313/1/5 312/1/5 311/1/5
f 314/1/5 312/1/5 313/1/5
f 317/1/5 316/1/5 315/1/5
f 318/1/5 316/1/5 317/1/5
f 319/1/6 320/1/6 321/1/6
f 321/1/6 320/1/6 322/1/6
f 319/1/6 321/1/6 323/1/6
f 322/1/6 320/1/6 324/1/6
f 319/1/6 323/1/6 325/1/6
f 323/1/6 324/1/6 325/1/6
f 324/1/6 320/1/6 326/1/6
f 325/1/6 324/1/6 326/1/6
f 327/1/6 328/1/6 329/1/6
f 329/1/6 328/1/6 330/1/6
f 331/1/6 332/1/6 333/1/6
f 333/1/6 332/1/6 334/1/6
f 335/1/6 336/1/6 337/1/6
f 337/1/6 336/1/6 338/1/6
f 339/1/6 340/1/6 341/1/6
f 341/1/6 340/1/6 342/1/6
f 343/1/6 344/1/6 345/1/6
f 345/1/6 344/1/6 346/1/6
f 347/1/6 348/1/6 349/1/6
f 349/1/6 348/1/6 350/1/6
f 351/1/6 352/1/6 353/1/6
f 353/1/6 352/1/6 354/1/6
f 355/1/6 356/1/6 357/1/6
f 357/1/6 356/1/6 358/1/6
f 359/1/6 360/1/6 361/1/6
f 361/1/6 360/1/6 362/1/6
f 363/1/6 364/1/6 365/1/6
f 365/1/6 364/1/6 366/1/6
f 367/1/6 368/1/6 369/1/6
f 369/1/6 368/1/6 370/1/6
f 371/1/6 372/1/6 373/1/6
f 373/1/6 372/1/6 374/1/6
