# MagicaVoxel @ Ephtracy

# group
o 

# material
mtllib Foco.mtl
usemtl palette

# normals
vn -1 0 0
vn 1 0 0
vn 0 0 1
vn 0 0 -1
vn 0 -1 0
vn 0 1 0

# texcoords
vt 0.857422 0.5
vt 0.958984 0.5
vt 0.970703 0.5
vt 0.974609 0.5
vt 0.978516 0.5
vt 0.982422 0.5
vt 0.990234 0.5

# verts
v -1 0.4 1.8
v -1 0.4 1
v -1 1.5 1.8
v -1 1.5 1
v -0.9 0.3 1.8
v -0.9 0.3 1
v -0.9 0.4 1.8
v -0.9 0.4 1
v -0.9 1.5 1.8
v -0.9 1.5 1
v -0.9 1.6 1.8
v -0.9 1.6 1
v -0.8 0.2 1.8
v -0.8 0.2 1
v -0.8 0.3 1.8
v -0.8 0.3 1
v -0.8 1.6 1.8
v -0.8 1.6 1
v -0.8 1.7 1.8
v -0.8 1.7 1
v -0.7 0.1 1.8
v -0.7 0.1 1
v -0.7 0.2 1.8
v -0.7 0.2 1
v -0.7 1.7 1.8
v -0.7 1.7 1
v -0.7 1.8 1.8
v -0.7 1.8 1
v -0.6 0 1.8
v -0.6 0 1
v -0.6 0.1 1.8
v -0.6 0.1 1
v -0.6 1.8 1.8
v -0.6 1.8 1
v -0.6 1.9 1.8
v -0.6 1.9 1
v -0.5 0.6 1
v -0.5 0.6 -1.9
v -0.5 1.4 1
v -0.5 1.4 -1.9
v -0.5 1.9 1.8
v -0.5 1.9 1
v -0.5 2 1.8
v -0.5 2 1
v -0.4 0.5 1
v -0.4 0.5 -1.9
v -0.4 0.6 1
v -0.4 0.6 -1.9
v -0.4 1.4 1
v -0.4 1.4 -1.8
v -0.4 1.5 1
v -0.4 1.5 -1.8
v -0.3 1.5 0.9
v -0.3 1.5 1.19209e-007
v -0.3 1.6 0.9
v -0.3 1.6 1.19209e-007
v -0.2 1.6 0.6
v -0.2 1.6 0.1
v -0.2 1.7 0.6
v -0.2 1.7 0.1
v -0.1 0.9 1.8
v -0.1 0.9 1.5
v -0.1 1.1 1.8
v -0.1 1.1 1.5
v -0.1 1.7 0.5
v -0.1 1.7 0.3
v -0.1 1.8 0.5
v -0.1 1.8 0.3
v 0.2 0.6 1.6
v 0.2 0.6 1.5
v 0.2 0.7 1.6
v 0.2 0.7 1.5
v 0.2 1.3 1.6
v 0.2 1.3 1.5
v 0.2 1.4 1.6
v 0.2 1.4 1.5
v 0.3 0.4 1.8
v 0.3 0.4 1.6
v 0.3 0.5 1.8
v 0.3 0.5 1.6
v 0.3 0.7 1.6
v 0.3 0.7 1.5
v 0.3 0.8 1.6
v 0.3 0.8 1.5
v 0.3 1.2 1.6
v 0.3 1.2 1.5
v 0.3 1.3 1.6
v 0.3 1.3 1.5
v 0.3 1.5 1.8
v 0.3 1.5 1.6
v 0.3 1.6 1.8
v 0.3 1.6 1.6
v 0.4 0.5 1.8
v 0.4 0.5 1.6
v 0.4 0.6 1.8
v 0.4 0.6 1.6
v 0.4 0.8 1.6
v 0.4 0.8 1.5
v 0.4 1.2 1.6
v 0.4 1.2 1.5
v 0.4 1.4 1.8
v 0.4 1.4 1.6
v 0.4 1.5 1.8
v 0.4 1.5 1.6
v 0.5 0.6 1.8
v 0.5 0.6 1.6
v 0.5 0.7 1.8
v 0.5 0.7 1.6
v 0.5 1.3 1.8
v 0.5 1.3 1.6
v 0.5 1.4 1.8
v 0.5 1.4 1.6
v 0.6 0.7 1.8
v 0.6 0.7 1.6
v 0.6 1.3 1.8
v 0.6 1.3 1.6
v -0.6 0.7 1.8
v -0.6 0.7 1.6
v -0.6 1.3 1.8
v -0.6 1.3 1.6
v -0.5 0.6 1.8
v -0.5 0.6 1.6
v -0.5 0.7 1.8
v -0.5 0.7 1.6
v -0.5 1.3 1.8
v -0.5 1.3 1.6
v -0.5 1.4 1.8
v -0.5 1.4 1.6
v -0.4 0.5 1.8
v -0.4 0.5 1.6
v -0.4 0.6 1.8
v -0.4 0.6 1.6
v -0.4 0.8 1.6
v -0.4 0.8 1.5
v -0.4 1.2 1.6
v -0.4 1.2 1.5
v -0.4 1.4 1.8
v -0.4 1.4 1.6
v -0.4 1.5 1.8
v -0.4 1.5 1.6
v -0.3 0.4 1.8
v -0.3 0.4 1.6
v -0.3 0.5 1.8
v -0.3 0.5 1.6
v -0.3 0.7 1.6
v -0.3 0.7 1.5
v -0.3 0.8 1.6
v -0.3 0.8 1.5
v -0.3 1.2 1.6
v -0.3 1.2 1.5
v -0.3 1.3 1.6
v -0.3 1.3 1.5
v -0.3 1.5 1.8
v -0.3 1.5 1.6
v -0.3 1.6 1.8
v -0.3 1.6 1.6
v -0.2 0.6 1.6
v -0.2 0.6 1.5
v -0.2 0.7 1.6
v -0.2 0.7 1.5
v -0.2 1.3 1.6
v -0.2 1.3 1.5
v -0.2 1.4 1.6
v -0.2 1.4 1.5
v 0.1 0.9 1.8
v 0.1 0.9 1.5
v 0.1 1.1 1.8
v 0.1 1.1 1.5
v 0.1 1.7 0.5
v 0.1 1.7 0.3
v 0.1 1.8 0.5
v 0.1 1.8 0.3
v 0.2 1.6 0.6
v 0.2 1.6 0.1
v 0.2 1.7 0.6
v 0.2 1.7 0.1
v 0.3 1.5 0.9
v 0.3 1.5 1.19209e-007
v 0.3 1.6 0.9
v 0.3 1.6 1.19209e-007
v 0.4 0.5 1
v 0.4 0.5 -1.9
v 0.4 0.6 1
v 0.4 0.6 -1.9
v 0.4 1.4 1
v 0.4 1.4 -1.8
v 0.4 1.5 1
v 0.4 1.5 -1.8
v 0.5 0 1.8
v 0.5 0 1
v 0.5 0.1 1.8
v 0.5 0.1 1
v 0.5 0.6 1
v 0.5 0.6 -1.9
v 0.5 1.4 1
v 0.5 1.4 -1.9
v 0.5 1.9 1.8
v 0.5 1.9 1
v 0.5 2 1.8
v 0.5 2 1
v 0.6 0.1 1.8
v 0.6 0.1 1
v 0.6 0.2 1.8
v 0.6 0.2 1
v 0.6 1.8 1.8
v 0.6 1.8 1
v 0.6 1.9 1.8
v 0.6 1.9 1
v 0.7 0.2 1.8
v 0.7 0.2 1
v 0.7 0.3 1.8
v 0.7 0.3 1
v 0.7 1.7 1.8
v 0.7 1.7 1
v 0.7 1.8 1.8
v 0.7 1.8 1
v 0.8 0.3 1.8
v 0.8 0.3 1
v 0.8 0.4 1.8
v 0.8 0.4 1
v 0.8 1.6 1.8
v 0.8 1.6 1
v 0.8 1.7 1.8
v 0.8 1.7 1
v 0.9 0.4 1.8
v 0.9 0.4 1
v 0.9 0.5 1.8
v 0.9 0.5 1
v 0.9 1.5 1.8
v 0.9 1.5 1
v 0.9 1.6 1.8
v 0.9 1.6 1
v 1 0.5 1.8
v 1 0.5 1
v 1 1.5 1.8
v 1 1.5 1
v -1 0.4 1.8
v -1 1.5 1.8
v -0.9 0.3 1.8
v -0.9 0.4 1.8
v -0.9 1.5 1.8
v -0.9 1.6 1.8
v -0.8 0.2 1.8
v -0.8 0.3 1.8
v -0.8 1.6 1.8
v -0.8 1.7 1.8
v -0.7 0.1 1.8
v -0.7 0.2 1.8
v -0.7 1.7 1.8
v -0.7 1.8 1.8
v -0.6 0 1.8
v -0.6 0.1 1.8
v -0.6 0.7 1.8
v -0.6 1.3 1.8
v -0.6 1.8 1.8
v -0.6 1.9 1.8
v -0.5 0.6 1.8
v -0.5 0.7 1.8
v -0.5 1.3 1.8
v -0.5 1.4 1.8
v -0.5 1.9 1.8
v -0.5 2 1.8
v -0.4 0.5 1.8
v -0.4 0.6 1.8
v -0.4 1.4 1.8
v -0.4 1.5 1.8
v -0.3 0.4 1.8
v -0.3 0.5 1.8
v -0.3 1.5 1.8
v -0.3 1.6 1.8
v -0.1 0.9 1.8
v -0.1 1.1 1.8
v 0.1 0.9 1.8
v 0.1 1.1 1.8
v 0.3 0.4 1.8
v 0.3 0.5 1.8
v 0.3 1.5 1.8
v 0.3 1.6 1.8
v 0.4 0.5 1.8
v 0.4 0.6 1.8
v 0.4 1.4 1.8
v 0.4 1.5 1.8
v 0.5 0 1.8
v 0.5 0.1 1.8
v 0.5 0.6 1.8
v 0.5 0.7 1.8
v 0.5 1.3 1.8
v 0.5 1.4 1.8
v 0.5 1.9 1.8
v 0.5 2 1.8
v 0.6 0.1 1.8
v 0.6 0.2 1.8
v 0.6 0.7 1.8
v 0.6 1.3 1.8
v 0.6 1.8 1.8
v 0.6 1.9 1.8
v 0.7 0.2 1.8
v 0.7 0.3 1.8
v 0.7 1.7 1.8
v 0.7 1.8 1.8
v 0.8 0.3 1.8
v 0.8 0.4 1.8
v 0.8 1.6 1.8
v 0.8 1.7 1.8
v 0.9 0.4 1.8
v 0.9 0.5 1.8
v 0.9 1.5 1.8
v 0.9 1.6 1.8
v 1 0.5 1.8
v 1 1.5 1.8
v -0.6 0.7 1.6
v -0.6 1.3 1.6
v -0.5 0.6 1.6
v -0.5 0.7 1.6
v -0.5 1.3 1.6
v -0.5 1.4 1.6
v -0.4 0.5 1.6
v -0.4 0.6 1.6
v -0.4 0.8 1.6
v -0.4 1.2 1.6
v -0.4 1.4 1.6
v -0.4 1.5 1.6
v -0.3 0.4 1.6
v -0.3 0.5 1.6
v -0.3 0.7 1.6
v -0.3 0.8 1.6
v -0.3 1.2 1.6
v -0.3 1.3 1.6
v -0.3 1.5 1.6
v -0.3 1.6 1.6
v -0.2 0.6 1.6
v -0.2 0.7 1.6
v -0.2 1.3 1.6
v -0.2 1.4 1.6
v 0.2 0.6 1.6
v 0.2 0.7 1.6
v 0.2 1.3 1.6
v 0.2 1.4 1.6
v 0.3 0.4 1.6
v 0.3 0.5 1.6
v 0.3 0.7 1.6
v 0.3 0.8 1.6
v 0.3 1.2 1.6
v 0.3 1.3 1.6
v 0.3 1.5 1.6
v 0.3 1.6 1.6
v 0.4 0.5 1.6
v 0.4 0.6 1.6
v 0.4 0.8 1.6
v 0.4 1.2 1.6
v 0.4 1.4 1.6
v 0.4 1.5 1.6
v 0.5 0.6 1.6
v 0.5 0.7 1.6
v 0.5 1.3 1.6
v 0.5 1.4 1.6
v 0.6 0.7 1.6
v 0.6 1.3 1.6
v -0.4 0.8 1.5
v -0.4 1.2 1.5
v -0.3 0.7 1.5
v -0.3 0.8 1.5
v -0.3 1.2 1.5
v -0.3 1.3 1.5
v -0.2 0.6 1.5
v -0.2 0.7 1.5
v -0.2 1.3 1.5
v -0.2 1.4 1.5
v -0.1 0.9 1.5
v -0.1 1.1 1.5
v 0.1 0.9 1.5
v 0.1 1.1 1.5
v 0.2 0.6 1.5
v 0.2 0.7 1.5
v 0.2 1.3 1.5
v 0.2 1.4 1.5
v 0.3 0.7 1.5
v 0.3 0.8 1.5
v 0.3 1.2 1.5
v 0.3 1.3 1.5
v 0.4 0.8 1.5
v 0.4 1.2 1.5
v -0.3 1.5 0.9
v -0.3 1.6 0.9
v 0.3 1.5 0.9
v 0.3 1.6 0.9
v -0.2 1.6 0.6
v -0.2 1.7 0.6
v 0.2 1.6 0.6
v 0.2 1.7 0.6
v -0.1 1.7 0.5
v -0.1 1.8 0.5
v 0.1 1.7 0.5
v 0.1 1.8 0.5
v -1 0.4 1
v -1 1.5 1
v -0.9 0.3 1
v -0.9 0.4 1
v -0.9 1.5 1
v -0.9 1.6 1
v -0.8 0.2 1
v -0.8 0.3 1
v -0.8 1.6 1
v -0.8 1.7 1
v -0.7 0.1 1
v -0.7 0.2 1
v -0.7 1.7 1
v -0.7 1.8 1
v -0.6 0 1
v -0.6 0.1 1
v -0.6 1.8 1
v -0.6 1.9 1
v -0.5 0.6 1
v -0.5 1.4 1
v -0.5 1.9 1
v -0.5 2 1
v -0.4 0.5 1
v -0.4 0.6 1
v -0.4 1.4 1
v -0.4 1.5 1
v 0.4 0.5 1
v 0.4 0.6 1
v 0.4 1.4 1
v 0.4 1.5 1
v 0.5 0 1
v 0.5 0.1 1
v 0.5 0.6 1
v 0.5 1.4 1
v 0.5 1.9 1
v 0.5 2 1
v 0.6 0.1 1
v 0.6 0.2 1
v 0.6 1.8 1
v 0.6 1.9 1
v 0.7 0.2 1
v 0.7 0.3 1
v 0.7 1.7 1
v 0.7 1.8 1
v 0.8 0.3 1
v 0.8 0.4 1
v 0.8 1.6 1
v 0.8 1.7 1
v 0.9 0.4 1
v 0.9 0.5 1
v 0.9 1.5 1
v 0.9 1.6 1
v 1 0.5 1
v 1 1.5 1
v -0.1 1.7 0.3
v -0.1 1.8 0.3
v 0.1 1.7 0.3
v 0.1 1.8 0.3
v -0.2 1.6 0.1
v -0.2 1.7 0.1
v 0.2 1.6 0.1
v 0.2 1.7 0.1
v -0.3 1.5 1.19209e-007
v -0.3 1.6 1.19209e-007
v 0.3 1.5 1.19209e-007
v 0.3 1.6 1.19209e-007
v -0.4 1.4 -1.8
v -0.4 1.5 -1.8
v 0.4 1.4 -1.8
v 0.4 1.5 -1.8
v -0.5 0.6 -1.9
v -0.5 1.4 -1.9
v -0.4 0.5 -1.9
v -0.4 0.6 -1.9
v 0.4 0.5 -1.9
v 0.4 0.6 -1.9
v 0.5 0.6 -1.9
v 0.5 1.4 -1.9
v -0.6 0 1.8
v 0.5 0 1.8
v -0.6 0 1
v 0.5 0 1
v -0.7 0.1 1.8
v -0.6 0.1 1.8
v 0.5 0.1 1.8
v 0.6 0.1 1.8
v -0.7 0.1 1
v -0.6 0.1 1
v 0.5 0.1 1
v 0.6 0.1 1
v -0.8 0.2 1.8
v -0.7 0.2 1.8
v 0.6 0.2 1.8
v 0.7 0.2 1.8
v -0.8 0.2 1
v -0.7 0.2 1
v 0.6 0.2 1
v 0.7 0.2 1
v -0.9 0.3 1.8
v -0.8 0.3 1.8
v 0.7 0.3 1.8
v 0.8 0.3 1.8
v -0.9 0.3 1
v -0.8 0.3 1
v 0.7 0.3 1
v 0.8 0.3 1
v -1 0.4 1.8
v -0.9 0.4 1.8
v 0.8 0.4 1.8
v 0.9 0.4 1.8
v -1 0.4 1
v -0.9 0.4 1
v 0.8 0.4 1
v 0.9 0.4 1
v 0.9 0.5 1.8
v 1 0.5 1.8
v -0.4 0.5 1
v 0.4 0.5 1
v 0.9 0.5 1
v 1 0.5 1
v -0.4 0.5 -1.9
v 0.4 0.5 -1.9
v -0.5 0.6 1
v -0.4 0.6 1
v 0.4 0.6 1
v 0.5 0.6 1
v -0.5 0.6 -1.9
v -0.4 0.6 -1.9
v 0.4 0.6 -1.9
v 0.5 0.6 -1.9
v -0.1 0.9 1.8
v 0.1 0.9 1.8
v -0.1 0.9 1.5
v 0.1 0.9 1.5
v -0.4 1.2 1.6
v -0.3 1.2 1.6
v 0.3 1.2 1.6
v 0.4 1.2 1.6
v -0.4 1.2 1.5
v -0.3 1.2 1.5
v 0.3 1.2 1.5
v 0.4 1.2 1.5
v -0.6 1.3 1.8
v -0.5 1.3 1.8
v 0.5 1.3 1.8
v 0.6 1.3 1.8
v -0.6 1.3 1.6
v -0.5 1.3 1.6
v -0.3 1.3 1.6
v -0.2 1.3 1.6
v 0.2 1.3 1.6
v 0.3 1.3 1.6
v 0.5 1.3 1.6
v 0.6 1.3 1.6
v -0.3 1.3 1.5
v -0.2 1.3 1.5
v 0.2 1.3 1.5
v 0.3 1.3 1.5
v -0.5 1.4 1.8
v -0.4 1.4 1.8
v 0.4 1.4 1.8
v 0.5 1.4 1.8
v -0.5 1.4 1.6
v -0.4 1.4 1.6
v -0.2 1.4 1.6
v 0.2 1.4 1.6
v 0.4 1.4 1.6
v 0.5 1.4 1.6
v -0.2 1.4 1.5
v 0.2 1.4 1.5
v -0.4 1.5 1.8
v -0.3 1.5 1.8
v 0.3 1.5 1.8
v 0.4 1.5 1.8
v -0.4 1.5 1.6
v -0.3 1.5 1.6
v 0.3 1.5 1.6
v 0.4 1.5 1.6
v -0.3 1.6 1.8
v 0.3 1.6 1.8
v -0.3 1.6 1.6
v 0.3 1.6 1.6
v -0.3 0.4 1.8
v 0.3 0.4 1.8
v -0.3 0.4 1.6
v 0.3 0.4 1.6
v -0.4 0.5 1.8
v -0.3 0.5 1.8
v 0.3 0.5 1.8
v 0.4 0.5 1.8
v -0.4 0.5 1.6
v -0.3 0.5 1.6
v 0.3 0.5 1.6
v 0.4 0.5 1.6
v -0.5 0.6 1.8
v -0.4 0.6 1.8
v 0.4 0.6 1.8
v 0.5 0.6 1.8
v -0.5 0.6 1.6
v -0.4 0.6 1.6
v -0.2 0.6 1.6
v 0.2 0.6 1.6
v 0.4 0.6 1.6
v 0.5 0.6 1.6
v -0.2 0.6 1.5
v 0.2 0.6 1.5
v -0.6 0.7 1.8
v -0.5 0.7 1.8
v 0.5 0.7 1.8
v 0.6 0.7 1.8
v -0.6 0.7 1.6
v -0.5 0.7 1.6
v -0.3 0.7 1.6
v -0.2 0.7 1.6
v 0.2 0.7 1.6
v 0.3 0.7 1.6
v 0.5 0.7 1.6
v 0.6 0.7 1.6
v -0.3 0.7 1.5
v -0.2 0.7 1.5
v 0.2 0.7 1.5
v 0.3 0.7 1.5
v -0.4 0.8 1.6
v -0.3 0.8 1.6
v 0.3 0.8 1.6
v 0.4 0.8 1.6
v -0.4 0.8 1.5
v -0.3 0.8 1.5
v 0.3 0.8 1.5
v 0.4 0.8 1.5
v -0.1 1.1 1.8
v 0.1 1.1 1.8
v -0.1 1.1 1.5
v 0.1 1.1 1.5
v -0.5 1.4 1
v -0.4 1.4 1
v 0.4 1.4 1
v 0.5 1.4 1
v -0.4 1.4 -1.8
v 0.4 1.4 -1.8
v -0.5 1.4 -1.9
v 0.5 1.4 -1.9
v -1 1.5 1.8
v -0.9 1.5 1.8
v 0.9 1.5 1.8
v 1 1.5 1.8
v -1 1.5 1
v -0.9 1.5 1
v -0.4 1.5 1
v 0.4 1.5 1
v 0.9 1.5 1
v 1 1.5 1
v -0.3 1.5 0.9
v 0.3 1.5 0.9
v -0.3 1.5 1.19209e-007
v 0.3 1.5 1.19209e-007
v -0.4 1.5 -1.8
v 0.4 1.5 -1.8
v -0.9 1.6 1.8
v -0.8 1.6 1.8
v 0.8 1.6 1.8
v 0.9 1.6 1.8
v -0.9 1.6 1
v -0.8 1.6 1
v 0.8 1.6 1
v 0.9 1.6 1
v -0.3 1.6 0.9
v 0.3 1.6 0.9
v -0.2 1.6 0.6
v 0.2 1.6 0.6
v -0.2 1.6 0.1
v 0.2 1.6 0.1
v -0.3 1.6 1.19209e-007
v 0.3 1.6 1.19209e-007
v -0.8 1.7 1.8
v -0.7 1.7 1.8
v 0.7 1.7 1.8
v 0.8 1.7 1.8
v -0.8 1.7 1
v -0.7 1.7 1
v 0.7 1.7 1
v 0.8 1.7 1
v -0.2 1.7 0.6
v 0.2 1.7 0.6
v -0.1 1.7 0.5
v 0.1 1.7 0.5
v -0.1 1.7 0.3
v 0.1 1.7 0.3
v -0.2 1.7 0.1
v 0.2 1.7 0.1
v -0.7 1.8 1.8
v -0.6 1.8 1.8
v 0.6 1.8 1.8
v 0.7 1.8 1.8
v -0.7 1.8 1
v -0.6 1.8 1
v 0.6 1.8 1
v 0.7 1.8 1
v -0.1 1.8 0.5
v 0.1 1.8 0.5
v -0.1 1.8 0.3
v 0.1 1.8 0.3
v -0.6 1.9 1.8
v -0.5 1.9 1.8
v 0.5 1.9 1.8
v 0.6 1.9 1.8
v -0.6 1.9 1
v -0.5 1.9 1
v 0.5 1.9 1
v 0.6 1.9 1
v -0.5 2 1.8
v 0.5 2 1.8
v -0.5 2 1
v 0.5 2 1

# faces
f 3/4/1 2/4/1 1/4/1
f 4/4/1 2/4/1 3/4/1
f 7/4/1 6/4/1 5/4/1
f 8/4/1 6/4/1 7/4/1
f 11/4/1 10/4/1 9/4/1
f 12/4/1 10/4/1 11/4/1
f 15/4/1 14/4/1 13/4/1
f 16/4/1 14/4/1 15/4/1
f 19/4/1 18/4/1 17/4/1
f 20/4/1 18/4/1 19/4/1
f 23/4/1 22/4/1 21/4/1
f 24/4/1 22/4/1 23/4/1
f 27/4/1 26/4/1 25/4/1
f 28/4/1 26/4/1 27/4/1
f 31/4/1 30/4/1 29/4/1
f 32/4/1 30/4/1 31/4/1
f 35/4/1 34/4/1 33/4/1
f 36/4/1 34/4/1 35/4/1
f 39/4/1 38/4/1 37/4/1
f 40/4/1 38/4/1 39/4/1
f 43/4/1 42/4/1 41/4/1
f 44/4/1 42/4/1 43/4/1
f 47/4/1 46/4/1 45/4/1
f 48/4/1 46/4/1 47/4/1
f 51/4/1 50/4/1 49/4/1
f 52/4/1 50/4/1 51/4/1
f 55/7/1 54/7/1 53/7/1
f 56/7/1 54/7/1 55/7/1
f 59/6/1 58/6/1 57/6/1
f 60/6/1 58/6/1 59/6/1
f 63/3/1 62/3/1 61/3/1
f 64/3/1 62/3/1 63/3/1
f 67/5/1 66/5/1 65/5/1
f 68/5/1 66/5/1 67/5/1
f 71/1/1 70/1/1 69/1/1
f 72/1/1 70/1/1 71/1/1
f 75/1/1 74/1/1 73/1/1
f 76/1/1 74/1/1 75/1/1
f 79/4/1 78/4/1 77/4/1
f 80/4/1 78/4/1 79/4/1
f 83/1/1 82/1/1 81/1/1
f 84/1/1 82/1/1 83/1/1
f 87/1/1 86/1/1 85/1/1
f 88/1/1 86/1/1 87/1/1
f 91/4/1 90/4/1 89/4/1
f 92/4/1 90/4/1 91/4/1
f 95/4/1 94/4/1 93/4/1
f 96/4/1 94/4/1 95/4/1
f 99/1/1 98/1/1 97/1/1
f 100/1/1 98/1/1 99/1/1
f 103/4/1 102/4/1 101/4/1
f 104/4/1 102/4/1 103/4/1
f 107/4/1 106/4/1 105/4/1
f 108/4/1 106/4/1 107/4/1
f 111/4/1 110/4/1 109/4/1
f 112/4/1 110/4/1 111/4/1
f 115/4/1 114/4/1 113/4/1
f 116/4/1 114/4/1 115/4/1
f 117/4/2 118/4/2 119/4/2
f 119/4/2 118/4/2 120/4/2
f 121/4/2 122/4/2 123/4/2
f 123/4/2 122/4/2 124/4/2
f 125/4/2 126/4/2 127/4/2
f 127/4/2 126/4/2 128/4/2
f 129/4/2 130/4/2 131/4/2
f 131/4/2 130/4/2 132/4/2
f 133/1/2 134/1/2 135/1/2
f 135/1/2 134/1/2 136/1/2
f 137/4/2 138/4/2 139/4/2
f 139/4/2 138/4/2 140/4/2
f 141/4/2 142/4/2 143/4/2
f 143/4/2 142/4/2 144/4/2
f 145/1/2 146/1/2 147/1/2
f 147/1/2 146/1/2 148/1/2
f 149/1/2 150/1/2 151/1/2
f 151/1/2 150/1/2 152/1/2
f 153/4/2 154/4/2 155/4/2
f 155/4/2 154/4/2 156/4/2
f 157/1/2 158/1/2 159/1/2
f 159/1/2 158/1/2 160/1/2
f 161/1/2 162/1/2 163/1/2
f 163/1/2 162/1/2 164/1/2
f 165/3/2 166/3/2 167/3/2
f 167/3/2 166/3/2 168/3/2
f 169/5/2 170/5/2 171/5/2
f 171/5/2 170/5/2 172/5/2
f 173/6/2 174/6/2 175/6/2
f 175/6/2 174/6/2 176/6/2
f 177/7/2 178/7/2 179/7/2
f 179/7/2 178/7/2 180/7/2
f 181/4/2 182/4/2 183/4/2
f 183/4/2 182/4/2 184/4/2
f 185/4/2 186/4/2 187/4/2
f 187/4/2 186/4/2 188/4/2
f 189/4/2 190/4/2 191/4/2
f 191/4/2 190/4/2 192/4/2
f 193/4/2 194/4/2 195/4/2
f 195/4/2 194/4/2 196/4/2
f 197/4/2 198/4/2 199/4/2
f 199/4/2 198/4/2 200/4/2
f 201/4/2 202/4/2 203/4/2
f 203/4/2 202/4/2 204/4/2
f 205/4/2 206/4/2 207/4/2
f 207/4/2 206/4/2 208/4/2
f 209/4/2 210/4/2 211/4/2
f 211/4/2 210/4/2 212/4/2
f 213/4/2 214/4/2 215/4/2
f 215/4/2 214/4/2 216/4/2
f 217/4/2 218/4/2 219/4/2
f 219/4/2 218/4/2 220/4/2
f 221/4/2 222/4/2 223/4/2
f 223/4/2 222/4/2 224/4/2
f 225/4/2 226/4/2 227/4/2
f 227/4/2 226/4/2 228/4/2
f 229/4/2 230/4/2 231/4/2
f 231/4/2 230/4/2 232/4/2
f 233/4/2 234/4/2 235/4/2
f 235/4/2 234/4/2 236/4/2
f 240/4/3 238/4/3 237/4/3
f 241/4/3 238/4/3 240/4/3
f 244/4/3 240/4/3 239/4/3
f 244/4/3 242/4/3 241/4/3
f 244/4/3 241/4/3 240/4/3
f 245/4/3 242/4/3 244/4/3
f 248/4/3 244/4/3 243/4/3
f 248/4/3 246/4/3 245/4/3
f 248/4/3 245/4/3 244/4/3
f 249/4/3 246/4/3 248/4/3
f 252/4/3 248/4/3 247/4/3
f 252/4/3 250/4/3 249/4/3
f 252/4/3 249/4/3 248/4/3
f 253/4/3 250/4/3 252/4/3
f 254/4/3 250/4/3 253/4/3
f 255/4/3 250/4/3 254/4/3
f 257/4/3 252/4/3 251/4/3
f 257/4/3 253/4/3 252/4/3
f 258/4/3 253/4/3 257/4/3
f 259/4/3 256/4/3 255/4/3
f 259/4/3 255/4/3 254/4/3
f 260/4/3 256/4/3 259/4/3
f 261/4/3 256/4/3 260/4/3
f 263/4/3 257/4/3 251/4/3
f 264/4/3 257/4/3 263/4/3
f 265/4/3 262/4/3 261/4/3
f 265/4/3 261/4/3 260/4/3
f 266/4/3 262/4/3 265/4/3
f 267/4/3 263/4/3 251/4/3
f 268/4/3 263/4/3 267/4/3
f 269/4/3 262/4/3 266/4/3
f 270/4/3 262/4/3 269/4/3
f 273/3/3 272/3/3 271/3/3
f 274/3/3 272/3/3 273/3/3
f 275/4/3 267/4/3 251/4/3
f 278/4/3 262/4/3 270/4/3
f 279/4/3 276/4/3 275/4/3
f 282/4/3 278/4/3 277/4/3
f 283/4/3 275/4/3 251/4/3
f 283/4/3 280/4/3 279/4/3
f 283/4/3 279/4/3 275/4/3
f 284/4/3 280/4/3 283/4/3
f 285/4/3 280/4/3 284/4/3
f 288/4/3 282/4/3 281/4/3
f 289/4/3 278/4/3 282/4/3
f 289/4/3 262/4/3 278/4/3
f 289/4/3 282/4/3 288/4/3
f 290/4/3 262/4/3 289/4/3
f 291/4/3 286/4/3 285/4/3
f 291/4/3 285/4/3 284/4/3
f 292/4/3 286/4/3 291/4/3
f 293/4/3 286/4/3 292/4/3
f 294/4/3 288/4/3 287/4/3
f 294/4/3 289/4/3 288/4/3
f 295/4/3 289/4/3 294/4/3
f 296/4/3 289/4/3 295/4/3
f 297/4/3 293/4/3 292/4/3
f 297/4/3 295/4/3 294/4/3
f 297/4/3 294/4/3 293/4/3
f 298/4/3 295/4/3 297/4/3
f 299/4/3 295/4/3 298/4/3
f 300/4/3 295/4/3 299/4/3
f 301/4/3 299/4/3 298/4/3
f 302/4/3 299/4/3 301/4/3
f 303/4/3 299/4/3 302/4/3
f 304/4/3 299/4/3 303/4/3
f 305/4/3 303/4/3 302/4/3
f 306/4/3 303/4/3 305/4/3
f 307/4/3 303/4/3 306/4/3
f 308/4/3 303/4/3 307/4/3
f 309/4/3 307/4/3 306/4/3
f 310/4/3 307/4/3 309/4/3
f 314/1/3 312/1/3 311/1/3
f 315/1/3 312/1/3 314/1/3
f 318/1/3 314/1/3 313/1/3
f 318/1/3 316/1/3 315/1/3
f 318/1/3 315/1/3 314/1/3
f 319/1/3 316/1/3 318/1/3
f 320/1/3 316/1/3 319/1/3
f 321/1/3 316/1/3 320/1/3
f 324/1/3 318/1/3 317/1/3
f 324/1/3 319/1/3 318/1/3
f 325/1/3 319/1/3 324/1/3
f 326/1/3 319/1/3 325/1/3
f 327/1/3 321/1/3 320/1/3
f 327/1/3 322/1/3 321/1/3
f 328/1/3 322/1/3 327/1/3
f 329/1/3 322/1/3 328/1/3
f 331/1/3 325/1/3 324/1/3
f 331/1/3 324/1/3 323/1/3
f 332/1/3 325/1/3 331/1/3
f 333/1/3 330/1/3 329/1/3
f 333/1/3 329/1/3 328/1/3
f 334/1/3 330/1/3 333/1/3
f 335/1/3 331/1/3 323/1/3
f 338/1/3 330/1/3 334/1/3
f 339/1/3 336/1/3 335/1/3
f 339/1/3 335/1/3 323/1/3
f 340/1/3 336/1/3 339/1/3
f 341/1/3 336/1/3 340/1/3
f 344/1/3 338/1/3 337/1/3
f 345/1/3 330/1/3 338/1/3
f 345/1/3 338/1/3 344/1/3
f 346/1/3 330/1/3 345/1/3
f 347/1/3 342/1/3 341/1/3
f 347/1/3 341/1/3 340/1/3
f 348/1/3 342/1/3 347/1/3
f 349/1/3 342/1/3 348/1/3
f 350/1/3 344/1/3 343/1/3
f 350/1/3 345/1/3 344/1/3
f 351/1/3 345/1/3 350/1/3
f 352/1/3 345/1/3 351/1/3
f 353/1/3 349/1/3 348/1/3
f 353/1/3 351/1/3 350/1/3
f 353/1/3 350/1/3 349/1/3
f 354/1/3 351/1/3 353/1/3
f 355/1/3 351/1/3 354/1/3
f 356/1/3 351/1/3 355/1/3
f 357/1/3 355/1/3 354/1/3
f 358/1/3 355/1/3 357/1/3
f 362/1/3 360/1/3 359/1/3
f 363/1/3 360/1/3 362/1/3
f 366/1/3 362/1/3 361/1/3
f 366/1/3 364/1/3 363/1/3
f 366/1/3 363/1/3 362/1/3
f 367/1/3 364/1/3 366/1/3
f 369/1/3 366/1/3 365/1/3
f 369/1/3 368/1/3 367/1/3
f 369/1/3 367/1/3 366/1/3
f 370/1/3 368/1/3 369/1/3
f 371/1/3 369/1/3 365/1/3
f 372/1/3 368/1/3 370/1/3
f 373/1/3 371/1/3 365/1/3
f 373/1/3 372/1/3 371/1/3
f 374/1/3 372/1/3 373/1/3
f 375/1/3 368/1/3 372/1/3
f 375/1/3 372/1/3 374/1/3
f 376/1/3 368/1/3 375/1/3
f 377/1/3 375/1/3 374/1/3
f 378/1/3 375/1/3 377/1/3
f 379/1/3 375/1/3 378/1/3
f 380/1/3 375/1/3 379/1/3
f 381/1/3 379/1/3 378/1/3
f 382/1/3 379/1/3 381/1/3
f 385/7/3 384/7/3 383/7/3
f 386/7/3 384/7/3 385/7/3
f 389/6/3 388/6/3 387/6/3
f 390/6/3 388/6/3 389/6/3
f 393/5/3 392/5/3 391/5/3
f 394/5/3 392/5/3 393/5/3
f 395/4/4 396/4/4 398/4/4
f 398/4/4 396/4/4 399/4/4
f 397/4/4 398/4/4 402/4/4
f 399/4/4 400/4/4 402/4/4
f 398/4/4 399/4/4 402/4/4
f 402/4/4 400/4/4 403/4/4
f 401/4/4 402/4/4 406/4/4
f 403/4/4 404/4/4 406/4/4
f 402/4/4 403/4/4 406/4/4
f 406/4/4 404/4/4 407/4/4
f 405/4/4 406/4/4 410/4/4
f 407/4/4 408/4/4 410/4/4
f 406/4/4 407/4/4 410/4/4
f 410/4/4 408/4/4 411/4/4
f 409/4/4 410/4/4 413/4/4
f 411/4/4 412/4/4 413/4/4
f 410/4/4 411/4/4 413/4/4
f 413/4/4 412/4/4 414/4/4
f 414/4/4 412/4/4 415/4/4
f 409/4/4 413/4/4 417/4/4
f 417/4/4 413/4/4 418/4/4
f 415/4/4 416/4/4 419/4/4
f 414/4/4 415/4/4 419/4/4
f 419/4/4 416/4/4 420/4/4
f 409/4/4 417/4/4 421/4/4
f 420/4/4 416/4/4 424/4/4
f 421/4/4 422/4/4 425/4/4
f 409/4/4 421/4/4 425/4/4
f 425/4/4 422/4/4 426/4/4
f 426/4/4 422/4/4 427/4/4
f 423/4/4 424/4/4 428/4/4
f 424/4/4 416/4/4 429/4/4
f 428/4/4 424/4/4 429/4/4
f 429/4/4 416/4/4 430/4/4
f 426/4/4 427/4/4 431/4/4
f 427/4/4 428/4/4 431/4/4
f 428/4/4 429/4/4 431/4/4
f 431/4/4 429/4/4 432/4/4
f 432/4/4 429/4/4 433/4/4
f 433/4/4 429/4/4 434/4/4
f 432/4/4 433/4/4 435/4/4
f 435/4/4 433/4/4 436/4/4
f 436/4/4 433/4/4 437/4/4
f 437/4/4 433/4/4 438/4/4
f 436/4/4 437/4/4 439/4/4
f 439/4/4 437/4/4 440/4/4
f 440/4/4 437/4/4 441/4/4
f 441/4/4 437/4/4 442/4/4
f 440/4/4 441/4/4 443/4/4
f 443/4/4 441/4/4 444/4/4
f 444/4/4 441/4/4 445/4/4
f 445/4/4 441/4/4 446/4/4
f 444/4/4 445/4/4 447/4/4
f 447/4/4 445/4/4 448/4/4
f 449/5/4 450/5/4 451/5/4
f 451/5/4 450/5/4 452/5/4
f 453/6/4 454/6/4 455/6/4
f 455/6/4 454/6/4 456/6/4
f 457/7/4 458/7/4 459/7/4
f 459/7/4 458/7/4 460/7/4
f 461/4/4 462/4/4 463/4/4
f 463/4/4 462/4/4 464/4/4
f 465/4/4 466/4/4 468/4/4
f 467/4/4 468/4/4 469/4/4
f 468/4/4 466/4/4 470/4/4
f 469/4/4 468/4/4 470/4/4
f 470/4/4 466/4/4 471/4/4
f 471/4/4 466/4/4 472/4/4
f 475/4/5 474/4/5 473/4/5
f 476/4/5 474/4/5 475/4/5
f 481/4/5 478/4/5 477/4/5
f 482/4/5 478/4/5 481/4/5
f 483/4/5 480/4/5 479/4/5
f 484/4/5 480/4/5 483/4/5
f 489/4/5 486/4/5 485/4/5
f 490/4/5 486/4/5 489/4/5
f 491/4/5 488/4/5 487/4/5
f 492/4/5 488/4/5 491/4/5
f 497/4/5 494/4/5 493/4/5
f 498/4/5 494/4/5 497/4/5
f 499/4/5 496/4/5 495/4/5
f 500/4/5 496/4/5 499/4/5
f 505/4/5 502/4/5 501/4/5
f 506/4/5 502/4/5 505/4/5
f 507/4/5 504/4/5 503/4/5
f 508/4/5 504/4/5 507/4/5
f 513/4/5 510/4/5 509/4/5
f 514/4/5 510/4/5 513/4/5
f 515/4/5 512/4/5 511/4/5
f 516/4/5 512/4/5 515/4/5
f 521/4/5 518/4/5 517/4/5
f 522/4/5 518/4/5 521/4/5
f 523/4/5 520/4/5 519/4/5
f 524/4/5 520/4/5 523/4/5
f 527/3/5 526/3/5 525/3/5
f 528/3/5 526/3/5 527/3/5
f 533/1/5 530/1/5 529/1/5
f 534/1/5 530/1/5 533/1/5
f 535/1/5 532/1/5 531/1/5
f 536/1/5 532/1/5 535/1/5
f 541/4/5 538/4/5 537/4/5
f 542/4/5 538/4/5 541/4/5
f 547/4/5 540/4/5 539/4/5
f 548/4/5 540/4/5 547/4/5
f 549/1/5 544/1/5 543/1/5
f 550/1/5 544/1/5 549/1/5
f 551/1/5 546/1/5 545/1/5
f 552/1/5 546/1/5 551/1/5
f 557/4/5 554/4/5 553/4/5
f 558/4/5 554/4/5 557/4/5
f 561/4/5 556/4/5 555/4/5
f 562/4/5 556/4/5 561/4/5
f 563/1/5 560/1/5 559/1/5
f 564/1/5 560/1/5 563/1/5
f 569/4/5 566/4/5 565/4/5
f 570/4/5 566/4/5 569/4/5
f 571/4/5 568/4/5 567/4/5
f 572/4/5 568/4/5 571/4/5
f 575/4/5 574/4/5 573/4/5
f 576/4/5 574/4/5 575/4/5
f 577/4/6 578/4/6 579/4/6
f 579/4/6 578/4/6 580/4/6
f 581/4/6 582/4/6 585/4/6
f 585/4/6 582/4/6 586/4/6
f 583/4/6 584/4/6 587/4/6
f 587/4/6 584/4/6 588/4/6
f 589/4/6 590/4/6 593/4/6
f 593/4/6 590/4/6 594/4/6
f 591/4/6 592/4/6 597/4/6
f 597/4/6 592/4/6 598/4/6
f 595/1/6 596/1/6 599/1/6
f 599/1/6 596/1/6 600/1/6
f 601/4/6 602/4/6 605/4/6
f 605/4/6 602/4/6 606/4/6
f 603/4/6 604/4/6 611/4/6
f 611/4/6 604/4/6 612/4/6
f 607/1/6 608/1/6 613/1/6
f 613/1/6 608/1/6 614/1/6
f 609/1/6 610/1/6 615/1/6
f 615/1/6 610/1/6 616/1/6
f 617/1/6 618/1/6 621/1/6
f 621/1/6 618/1/6 622/1/6
f 619/1/6 620/1/6 623/1/6
f 623/1/6 620/1/6 624/1/6
f 625/3/6 626/3/6 627/3/6
f 627/3/6 626/3/6 628/3/6
f 629/4/6 630/4/6 633/4/6
f 631/4/6 632/4/6 634/4/6
f 629/4/6 633/4/6 635/4/6
f 633/4/6 634/4/6 635/4/6
f 634/4/6 632/4/6 636/4/6
f 635/4/6 634/4/6 636/4/6
f 637/4/6 638/4/6 641/4/6
f 641/4/6 638/4/6 642/4/6
f 639/4/6 640/4/6 645/4/6
f 645/4/6 640/4/6 646/4/6
f 643/4/6 644/4/6 647/4/6
f 647/4/6 644/4/6 648/4/6
f 643/4/6 647/4/6 649/4/6
f 648/4/6 644/4/6 650/4/6
f 643/4/6 649/4/6 651/4/6
f 649/4/6 650/4/6 651/4/6
f 650/4/6 644/4/6 652/4/6
f 651/4/6 650/4/6 652/4/6
f 653/4/6 654/4/6 657/4/6
f 657/4/6 654/4/6 658/4/6
f 655/4/6 656/4/6 659/4/6
f 659/4/6 656/4/6 660/4/6
f 661/7/6 662/7/6 663/7/6
f 663/7/6 662/7/6 664/7/6
f 661/7/6 663/7/6 665/7/6
f 664/7/6 662/7/6 666/7/6
f 661/7/6 665/7/6 667/7/6
f 665/7/6 666/7/6 667/7/6
f 666/7/6 662/7/6 668/7/6
f 667/7/6 666/7/6 668/7/6
f 669/4/6 670/4/6 673/4/6
f 673/4/6 670/4/6 674/4/6
f 671/4/6 672/4/6 675/4/6
f 675/4/6 672/4/6 676/4/6
f 677/6/6 678/6/6 679/6/6
f 679/6/6 678/6/6 680/6/6
f 677/6/6 679/6/6 681/6/6
f 680/6/6 678/6/6 682/6/6
f 677/6/6 681/6/6 683/6/6
f 681/6/6 682/6/6 683/6/6
f 682/6/6 678/6/6 684/6/6
f 683/6/6 682/6/6 684/6/6
f 685/4/6 686/4/6 689/4/6
f 689/4/6 686/4/6 690/4/6
f 687/4/6 688/4/6 691/4/6
f 691/4/6 688/4/6 692/4/6
f 693/5/6 694/5/6 695/5/6
f 695/5/6 694/5/6 696/5/6
f 697/4/6 698/4/6 701/4/6
f 701/4/6 698/4/6 702/4/6
f 699/4/6 700/4/6 703/4/6
f 703/4/6 700/4/6 704/4/6
f 705/4/6 706/4/6 707/4/6
f 707/4/6 706/4/6 708/4/6
