# MagicaVoxel @ Ephtracy

# group
o 

# material
mtllib Nueve.mtl
usemtl palette

# normals
vn -1 0 0
vn 1 0 0
vn 0 0 1
vn 0 0 -1
vn 0 -1 0
vn 0 1 0

# texcoords
vt 0.181641 0.5
vt 0.185547 0.5
vt 0.439453 0.5
vt 0.626953 0.5
vt 0.958984 0.5
vt 0.994141 0.5

# verts
v -3.9 2.8 1.5
v -3.9 2.8 0.1
v -3.9 6.6 1.5
v -3.9 6.6 0.1
v -1.8 6.4 1.6
v -1.8 6.4 1.5
v -1.8 6.6 1.5
v -1.8 6.6 1.4
v -1.8 7.5 1.6
v -1.8 7.5 1.5
v -1.8 7.6 1.6
v -1.8 7.6 1.5
v -1.8 7.6 1.4
v -0.6 0 1.5
v -0.6 0 0.1
v -0.6 2.8 1.5
v -0.6 2.8 0.1
v -0.6 3.9 1.5
v -0.6 3.9 0.1
v -0.6 5.4 1.5
v -0.6 5.4 0.1
v -0.5 6.4 1.6
v -0.5 6.4 1.5
v -0.5 6.6 1.5
v -0.5 6.6 1.4
v -0.5 7.6 1.6
v -0.5 7.6 1.4
v -2.4 3.9 1.5
v -2.4 3.9 0.1
v -2.4 5.4 1.5
v -2.4 5.4 0.1
v -0.7 6.4 1.6
v -0.7 6.4 1.5
v -0.7 6.6 1.5
v -0.7 6.6 1.4
v -0.7 7.5 1.6
v -0.7 7.5 1.5
v -0.7 7.6 1.6
v -0.7 7.6 1.5
v -0.7 7.6 1.4
v 0.7 6.4 1.6
v 0.7 6.4 1.5
v 0.7 6.6 1.5
v 0.7 6.6 1.4
v 0.7 7.6 1.6
v 0.7 7.6 1.4
v 1 0 1.5
v 1 0 0.1
v 1 6.6 1.5
v 1 6.6 0.1
v -1.8 6.4 1.6
v -1.8 7.5 1.6
v -1.8 7.6 1.6
v -1.7 6.6 1.6
v -1.7 7.5 1.6
v -1.4 6.6 1.6
v -1.4 7.1 1.6
v -1.4 7.2 1.6
v -1.4 7.3 1.6
v -1.3 7.1 1.6
v -1.3 7.2 1.6
v -0.8 6.6 1.6
v -0.8 7.3 1.6
v -0.8 7.5 1.6
v -0.7 6.4 1.6
v -0.7 7.5 1.6
v -0.7 7.6 1.6
v -0.5 6.4 1.6
v -0.5 7.6 1.6
v -0.4 6.6 1.6
v -0.4 7.5 1.6
v 0 6.6 1.6
v 0 7.1 1.6
v 0 7.2 1.6
v 0 7.3 1.6
v 0.0999999 7.1 1.6
v 0.0999999 7.2 1.6
v 0.6 6.6 1.6
v 0.6 7.3 1.6
v 0.6 7.5 1.6
v 0.7 6.4 1.6
v 0.7 7.6 1.6
v -3.9 2.8 1.5
v -3.9 6.6 1.5
v -2.4 3.9 1.5
v -2.4 5.4 1.5
v -1.8 6.4 1.5
v -1.8 6.6 1.5
v -0.7 6.4 1.5
v -0.7 6.6 1.5
v -0.6 0 1.5
v -0.6 2.8 1.5
v -0.6 3.9 1.5
v -0.6 5.4 1.5
v -0.5 6.4 1.5
v -0.5 6.6 1.5
v 0.7 6.4 1.5
v 0.7 6.6 1.5
v 1 0 1.5
v 1 6.6 1.5
v -1.8 6.6 1.4
v -1.8 7.6 1.4
v -0.7 6.6 1.4
v -0.7 7.6 1.4
v -0.5 6.6 1.4
v -0.5 7.6 1.4
v 0.7 6.6 1.4
v 0.7 7.6 1.4
v -3.9 2.8 0.1
v -3.9 6.6 0.1
v -2.4 3.9 0.1
v -2.4 5.4 0.1
v -0.6 0 0.1
v -0.6 2.8 0.1
v -0.6 3.9 0.1
v -0.6 5.4 0.1
v 1 0 0.1
v 1 6.6 0.1
v -0.6 0 1.5
v 1 0 1.5
v -0.6 0 0.1
v 1 0 0.1
v -3.9 2.8 1.5
v -0.6 2.8 1.5
v -3.9 2.8 0.1
v -0.6 2.8 0.1
v -2.4 5.4 1.5
v -0.6 5.4 1.5
v -2.4 5.4 0.1
v -0.6 5.4 0.1
v -1.8 6.4 1.6
v -0.7 6.4 1.6
v -0.5 6.4 1.6
v 0.7 6.4 1.6
v -1.8 6.4 1.5
v -0.7 6.4 1.5
v -0.5 6.4 1.5
v 0.7 6.4 1.5
v -2.4 3.9 1.5
v -0.6 3.9 1.5
v -2.4 3.9 0.1
v -0.6 3.9 0.1
v -3.9 6.6 1.5
v -1.8 6.6 1.5
v -0.7 6.6 1.5
v -0.5 6.6 1.5
v 0.7 6.6 1.5
v 1 6.6 1.5
v -1.8 6.6 1.4
v -0.7 6.6 1.4
v -0.5 6.6 1.4
v 0.7 6.6 1.4
v -3.9 6.6 0.1
v 1 6.6 0.1
v -1.8 7.6 1.6
v -0.7 7.6 1.6
v -0.5 7.6 1.6
v 0.7 7.6 1.6
v -1.8 7.6 1.5
v -0.7 7.6 1.5
v -1.8 7.6 1.4
v -0.7 7.6 1.4
v -0.5 7.6 1.4
v 0.7 7.6 1.4

# faces
f 3/3/1 2/3/1 1/3/1
f 4/3/1 2/3/1 3/3/1
f 7/2/1 6/2/1 5/2/1
f 9/2/1 7/2/1 5/2/1
f 9/2/1 8/2/1 7/2/1
f 10/2/1 8/2/1 9/2/1
f 11/1/1 10/1/1 9/1/1
f 12/2/1 8/2/1 10/2/1
f 12/1/1 10/1/1 11/1/1
f 13/2/1 8/2/1 12/2/1
f 16/3/1 15/3/1 14/3/1
f 17/3/1 15/3/1 16/3/1
f 20/3/1 19/3/1 18/3/1
f 21/3/1 19/3/1 20/3/1
f 24/1/1 23/1/1 22/1/1
f 26/1/1 24/1/1 22/1/1
f 26/1/1 25/1/1 24/1/1
f 27/1/1 25/1/1 26/1/1
f 28/3/2 29/3/2 30/3/2
f 30/3/2 29/3/2 31/3/2
f 32/2/2 33/2/2 34/2/2
f 32/2/2 34/2/2 36/2/2
f 34/2/2 35/2/2 36/2/2
f 36/2/2 35/2/2 37/2/2
f 36/1/2 37/1/2 38/1/2
f 37/2/2 35/2/2 39/2/2
f 38/1/2 37/1/2 39/1/2
f 39/2/2 35/2/2 40/2/2
f 41/1/2 42/1/2 43/1/2
f 41/1/2 43/1/2 45/1/2
f 43/1/2 44/1/2 45/1/2
f 45/1/2 44/1/2 46/1/2
f 47/3/2 48/3/2 49/3/2
f 49/3/2 48/3/2 50/3/2
f 54/2/3 52/2/3 51/2/3
f 55/1/3 53/1/3 52/1/3
f 55/2/3 52/2/3 54/2/3
f 56/2/3 54/2/3 51/2/3
f 56/5/3 55/5/3 54/5/3
f 57/5/3 55/5/3 56/5/3
f 58/5/3 55/5/3 57/5/3
f 59/5/3 55/5/3 58/5/3
f 60/6/3 57/6/3 56/6/3
f 60/5/3 58/5/3 57/5/3
f 61/6/3 59/6/3 58/6/3
f 61/5/3 58/5/3 60/5/3
f 62/2/3 56/2/3 51/2/3
f 62/6/3 60/6/3 56/6/3
f 62/6/3 61/6/3 60/6/3
f 63/6/3 59/6/3 61/6/3
f 63/6/3 61/6/3 62/6/3
f 63/5/3 55/5/3 59/5/3
f 64/1/3 53/1/3 55/1/3
f 64/5/3 55/5/3 63/5/3
f 65/2/3 63/2/3 62/2/3
f 65/2/3 62/2/3 51/2/3
f 65/2/3 64/2/3 63/2/3
f 66/1/3 53/1/3 64/1/3
f 66/2/3 64/2/3 65/2/3
f 67/1/3 53/1/3 66/1/3
f 70/1/3 69/1/3 68/1/3
f 71/1/3 69/1/3 70/1/3
f 72/1/3 70/1/3 68/1/3
f 72/5/3 71/5/3 70/5/3
f 73/5/3 71/5/3 72/5/3
f 74/5/3 71/5/3 73/5/3
f 75/5/3 71/5/3 74/5/3
f 76/6/3 73/6/3 72/6/3
f 76/5/3 74/5/3 73/5/3
f 77/6/3 75/6/3 74/6/3
f 77/5/3 74/5/3 76/5/3
f 78/1/3 72/1/3 68/1/3
f 78/6/3 76/6/3 72/6/3
f 78/6/3 77/6/3 76/6/3
f 79/6/3 75/6/3 77/6/3
f 79/6/3 77/6/3 78/6/3
f 79/5/3 71/5/3 75/5/3
f 80/1/3 69/1/3 71/1/3
f 80/5/3 71/5/3 79/5/3
f 81/1/3 79/1/3 78/1/3
f 81/1/3 78/1/3 68/1/3
f 81/1/3 80/1/3 79/1/3
f 82/1/3 69/1/3 80/1/3
f 82/1/3 80/1/3 81/1/3
f 85/3/3 84/3/3 83/3/3
f 86/3/3 84/3/3 85/3/3
f 87/3/3 84/3/3 86/3/3
f 88/3/3 84/3/3 87/3/3
f 89/3/3 87/3/3 86/3/3
f 92/3/3 85/3/3 83/3/3
f 93/3/3 85/3/3 92/3/3
f 94/3/3 90/3/3 89/3/3
f 94/3/3 89/3/3 86/3/3
f 95/3/3 93/3/3 92/3/3
f 95/3/3 94/3/3 93/3/3
f 95/3/3 90/3/3 94/3/3
f 95/3/3 92/3/3 91/3/3
f 96/3/3 90/3/3 95/3/3
f 97/3/3 95/3/3 91/3/3
f 99/3/3 97/3/3 91/3/3
f 99/3/3 98/3/3 97/3/3
f 100/3/3 98/3/3 99/3/3
f 101/2/4 102/2/4 103/2/4
f 103/2/4 102/2/4 104/2/4
f 105/1/4 106/1/4 107/1/4
f 107/1/4 106/1/4 108/1/4
f 109/3/4 110/3/4 111/3/4
f 111/3/4 110/3/4 112/3/4
f 109/3/4 111/3/4 114/3/4
f 114/3/4 111/3/4 115/3/4
f 112/3/4 110/3/4 116/3/4
f 114/3/4 115/3/4 117/3/4
f 115/3/4 116/3/4 117/3/4
f 113/3/4 114/3/4 117/3/4
f 116/3/4 110/3/4 118/3/4
f 117/3/4 116/3/4 118/3/4
f 121/3/5 120/3/5 119/3/5
f 122/3/5 120/3/5 121/3/5
f 125/3/5 124/3/5 123/3/5
f 126/3/5 124/3/5 125/3/5
f 129/3/5 128/3/5 127/3/5
f 130/3/5 128/3/5 129/3/5
f 135/2/5 132/2/5 131/2/5
f 136/2/5 132/2/5 135/2/5
f 137/1/5 134/1/5 133/1/5
f 138/1/5 134/1/5 137/1/5
f 139/3/6 140/3/6 141/3/6
f 141/3/6 140/3/6 142/3/6
f 143/3/6 144/3/6 149/3/6
f 145/3/6 146/3/6 150/3/6
f 150/3/6 146/3/6 151/3/6
f 147/3/6 148/3/6 152/3/6
f 150/3/6 151/3/6 153/3/6
f 151/3/6 152/3/6 153/3/6
f 143/3/6 149/3/6 153/3/6
f 149/3/6 150/3/6 153/3/6
f 152/3/6 148/3/6 154/3/6
f 153/3/6 152/3/6 154/3/6
f 155/1/6 156/1/6 159/1/6
f 159/1/6 156/1/6 160/1/6
f 159/2/6 160/2/6 161/2/6
f 161/2/6 160/2/6 162/2/6
f 157/1/6 158/1/6 163/1/6
f 163/1/6 158/1/6 164/1/6
