# MagicaVoxel @ Ephtracy

# group
o 

# material
mtllib Ocho.mtl
usemtl palette

# normals
vn -1 0 0
vn 1 0 0
vn 0 0 1
vn 0 0 -1
vn 0 -1 0
vn 0 1 0

# texcoords
vt 0.322266 0.5
vt 0.474609 0.5
vt 0.482422 0.5
vt 0.751953 0.5
vt 0.791016 0.5
vt 0.908203 0.5

# verts
v -1.4 0 0.9
v -1.4 0 -0.9
v -1.4 0.1 1
v -1.4 0.1 0.9
v -1.4 0.1 -0.9
v -1.4 0.1 -1
v -1.4 0.5 0.5
v -1.4 0.5 -0.5
v -1.4 1.3 0.5
v -1.4 1.3 -0.5
v -1.4 1.8 0.5
v -1.4 1.8 -0.5
v -1.4 2.6 0.5
v -1.4 2.6 -0.5
v -1.4 3 1
v -1.4 3 0.9
v -1.4 3 -0.9
v -1.4 3 -1
v -1.4 3.1 0.9
v -1.4 3.1 -0.9
v -0.5 0 0.9
v -0.5 0 -0.9
v -0.5 0.1 1
v -0.5 0.1 0.9
v -0.5 0.1 -0.9
v -0.5 0.1 -1
v -0.5 0.5 0.5
v -0.5 0.5 -0.5
v -0.5 1.3 0.5
v -0.5 1.3 -0.5
v -0.5 1.4 0.4
v -0.5 1.4 -0.4
v -0.5 1.5 0.4
v -0.5 1.5 -0.4
v -0.5 1.7 0.4
v -0.5 1.7 -0.4
v -0.5 1.8 0.5
v -0.5 1.8 -0.5
v -0.5 2.6 0.7
v -0.5 2.6 0.6
v -0.5 2.6 0.5
v -0.5 2.6 0.3
v -0.5 2.6 -0.3
v -0.5 2.6 -0.5
v -0.5 2.6 -0.7
v -0.5 2.8 0.3
v -0.5 2.8 -0.7
v -0.5 2.9 0.3
v -0.5 2.9 -0.7
v -0.5 3 1
v -0.5 3 0.9
v -0.5 3 0.7
v -0.5 3 0.3
v -0.5 3 -0.3
v -0.5 3 -0.7
v -0.5 3 -0.9
v -0.5 3 -1
v -0.5 3.1 0.9
v -0.5 3.1 -0.9
v -0.4 1.4 0.4
v -0.4 1.4 -0.4
v -0.4 1.5 0.4
v -0.4 1.5 0.2
v -0.4 1.5 -0.2
v -0.4 1.5 -0.4
v -0.4 1.6 0.2
v -0.4 1.6 -0.2
v -0.4 1.7 0.4
v -0.4 1.7 -0.4
v -0.4 2.6 0.7
v -0.4 2.6 0.6
v -0.4 2.6 0.5
v -0.4 2.6 0.3
v -0.4 2.6 -0.3
v -0.4 2.6 -0.4
v -0.4 2.6 -0.5
v -0.4 2.6 -0.7
v -0.4 2.8 0.5
v -0.4 2.8 0.3
v -0.4 2.8 -0.5
v -0.4 2.8 -0.7
v -0.4 2.9 0.6
v -0.4 2.9 0.3
v -0.4 2.9 -0.4
v -0.4 2.9 -0.7
v -0.4 3 0.7
v -0.4 3 0.3
v -0.4 3 -0.3
v -0.4 3 -0.7
v -1.4 0.1 1
v -1.4 3 1
v -0.5 0.1 1
v -0.5 3 1
v -1.4 0 0.9
v -1.4 0.1 0.9
v -1.4 3 0.9
v -1.4 3.1 0.9
v -0.5 0 0.9
v -0.5 0.1 0.9
v -0.5 3 0.9
v -0.5 3.1 0.9
v -0.5 2.6 0.7
v -0.5 3 0.7
v -0.4 2.6 0.7
v -0.4 3 0.7
v -0.5 1.4 0.4
v -0.5 1.5 0.4
v -0.5 1.7 0.4
v -0.4 1.4 0.4
v -0.4 1.5 0.4
v -0.4 1.7 0.4
v -0.5 2.6 -0.3
v -0.5 3 -0.3
v -0.4 2.6 -0.3
v -0.4 3 -0.3
v -1.4 0.5 -0.5
v -1.4 1.3 -0.5
v -1.4 1.8 -0.5
v -1.4 2.6 -0.5
v -0.5 0.5 -0.5
v -0.5 1.3 -0.5
v -0.5 1.8 -0.5
v -0.5 2.6 -0.5
v -1.4 0.5 0.5
v -1.4 1.3 0.5
v -1.4 1.8 0.5
v -1.4 2.6 0.5
v -0.5 0.5 0.5
v -0.5 1.3 0.5
v -0.5 1.8 0.5
v -0.5 2.6 0.5
v -0.5 2.6 0.3
v -0.5 2.8 0.3
v -0.5 2.9 0.3
v -0.5 3 0.3
v -0.4 2.6 0.3
v -0.4 2.8 0.3
v -0.4 2.9 0.3
v -0.4 3 0.3
v -0.5 1.4 -0.4
v -0.5 1.5 -0.4
v -0.5 1.7 -0.4
v -0.4 1.4 -0.4
v -0.4 1.5 -0.4
v -0.4 1.7 -0.4
v -0.5 2.6 -0.7
v -0.5 2.8 -0.7
v -0.5 2.9 -0.7
v -0.5 3 -0.7
v -0.4 2.6 -0.7
v -0.4 2.8 -0.7
v -0.4 2.9 -0.7
v -0.4 3 -0.7
v -1.4 0 -0.9
v -1.4 0.1 -0.9
v -1.4 3 -0.9
v -1.4 3.1 -0.9
v -0.5 0 -0.9
v -0.5 0.1 -0.9
v -0.5 3 -0.9
v -0.5 3.1 -0.9
v -1.4 0.1 -1
v -1.4 3 -1
v -0.5 0.1 -1
v -0.5 3 -1
v -1.4 0 0.9
v -0.5 0 0.9
v -1.4 0 -0.9
v -0.5 0 -0.9
v -1.4 0.1 1
v -0.5 0.1 1
v -1.4 0.1 0.9
v -0.5 0.1 0.9
v -1.4 0.1 -0.9
v -0.5 0.1 -0.9
v -1.4 0.1 -1
v -0.5 0.1 -1
v -1.4 1.3 0.5
v -0.5 1.3 0.5
v -1.4 1.3 -0.5
v -0.5 1.3 -0.5
v -0.5 1.4 0.4
v -0.4 1.4 0.4
v -0.5 1.4 -0.4
v -0.4 1.4 -0.4
v -0.5 2.6 0.7
v -0.4 2.6 0.7
v -0.5 2.6 0.6
v -0.4 2.6 0.6
v -1.4 2.6 0.5
v -0.5 2.6 0.5
v -0.4 2.6 0.5
v -0.5 2.6 0.3
v -0.4 2.6 0.3
v -0.5 2.6 -0.3
v -0.4 2.6 -0.3
v -0.5 2.6 -0.4
v -0.4 2.6 -0.4
v -1.4 2.6 -0.5
v -0.5 2.6 -0.5
v -0.4 2.6 -0.5
v -0.5 2.6 -0.7
v -0.4 2.6 -0.7
v -1.4 0.5 0.5
v -0.5 0.5 0.5
v -1.4 0.5 -0.5
v -0.5 0.5 -0.5
v -0.5 1.7 0.4
v -0.4 1.7 0.4
v -0.5 1.7 -0.4
v -0.4 1.7 -0.4
v -1.4 1.8 0.5
v -0.5 1.8 0.5
v -1.4 1.8 -0.5
v -0.5 1.8 -0.5
v -1.4 3 1
v -0.5 3 1
v -1.4 3 0.9
v -0.5 3 0.9
v -0.5 3 0.7
v -0.4 3 0.7
v -0.5 3 0.3
v -0.4 3 0.3
v -0.5 3 -0.3
v -0.4 3 -0.3
v -0.5 3 -0.7
v -0.4 3 -0.7
v -1.4 3 -0.9
v -0.5 3 -0.9
v -1.4 3 -1
v -0.5 3 -1
v -1.4 3.1 0.9
v -0.5 3.1 0.9
v -1.4 3.1 -0.9
v -0.5 3.1 -0.9

# faces
f 4/2/1 2/2/1 1/2/1
f 5/2/1 2/2/1 4/2/1
f 7/2/1 4/2/1 3/2/1
f 7/2/1 6/2/1 5/2/1
f 7/2/1 5/2/1 4/2/1
f 8/2/1 6/2/1 7/2/1
f 9/2/1 7/2/1 3/2/1
f 10/2/1 6/2/1 8/2/1
f 11/2/1 9/2/1 3/2/1
f 11/2/1 10/2/1 9/2/1
f 12/2/1 6/2/1 10/2/1
f 12/2/1 10/2/1 11/2/1
f 13/2/1 11/2/1 3/2/1
f 14/2/1 6/2/1 12/2/1
f 15/2/1 13/2/1 3/2/1
f 15/2/1 14/2/1 13/2/1
f 16/2/1 14/2/1 15/2/1
f 17/2/1 6/2/1 14/2/1
f 17/2/1 14/2/1 16/2/1
f 18/2/1 6/2/1 17/2/1
f 19/2/1 17/2/1 16/2/1
f 20/2/1 17/2/1 19/2/1
f 21/2/2 22/2/2 24/2/2
f 24/2/2 22/2/2 25/2/2
f 23/2/2 24/2/2 27/2/2
f 25/2/2 26/2/2 27/2/2
f 24/2/2 25/2/2 27/2/2
f 27/2/2 26/2/2 28/2/2
f 23/2/2 27/2/2 29/2/2
f 28/2/2 26/2/2 30/2/2
f 29/2/2 30/2/2 31/2/2
f 31/2/2 30/2/2 32/2/2
f 29/2/2 31/2/2 33/2/2
f 32/2/2 30/2/2 34/2/2
f 29/2/2 33/2/2 35/2/2
f 34/2/2 30/2/2 36/2/2
f 23/2/2 29/2/2 37/2/2
f 35/2/2 36/2/2 37/2/2
f 29/2/2 35/2/2 37/2/2
f 36/2/2 30/2/2 38/2/2
f 37/2/2 36/2/2 38/2/2
f 30/2/2 26/2/2 38/2/2
f 23/2/2 37/2/2 39/2/2
f 39/2/2 37/2/2 40/2/2
f 40/2/2 37/2/2 41/2/2
f 38/2/2 26/2/2 44/2/2
f 44/2/2 26/2/2 45/2/2
f 42/2/2 43/2/2 46/2/2
f 45/2/2 26/2/2 47/2/2
f 46/2/2 43/2/2 48/2/2
f 47/2/2 26/2/2 49/2/2
f 23/2/2 39/2/2 50/2/2
f 50/2/2 39/2/2 51/2/2
f 51/2/2 39/2/2 52/2/2
f 48/2/2 43/2/2 53/2/2
f 53/2/2 43/2/2 54/2/2
f 49/2/2 26/2/2 55/2/2
f 55/2/2 26/2/2 56/2/2
f 56/2/2 26/2/2 57/2/2
f 51/2/2 52/2/2 58/2/2
f 53/2/2 54/2/2 58/2/2
f 55/2/2 56/2/2 58/2/2
f 54/2/2 55/2/2 58/2/2
f 52/2/2 53/2/2 58/2/2
f 58/2/2 56/2/2 59/2/2
f 60/6/2 61/6/2 62/6/2
f 62/6/2 61/6/2 63/6/2
f 63/6/2 61/6/2 64/6/2
f 64/6/2 61/6/2 65/6/2
f 62/3/2 63/3/2 66/3/2
f 63/6/2 64/6/2 66/6/2
f 64/3/2 65/3/2 67/3/2
f 66/6/2 64/6/2 67/6/2
f 62/3/2 66/3/2 68/3/2
f 66/3/2 67/3/2 68/3/2
f 67/3/2 65/3/2 69/3/2
f 68/3/2 67/3/2 69/3/2
f 72/5/2 73/5/2 78/5/2
f 71/4/2 72/4/2 78/4/2
f 78/5/2 73/5/2 79/5/2
f 76/5/2 77/5/2 80/5/2
f 75/4/2 76/4/2 80/4/2
f 80/5/2 77/5/2 81/5/2
f 78/4/2 79/4/2 82/4/2
f 70/1/2 71/1/2 82/1/2
f 71/4/2 78/4/2 82/4/2
f 82/4/2 79/4/2 83/4/2
f 74/1/2 75/1/2 84/1/2
f 80/4/2 81/4/2 84/4/2
f 75/4/2 80/4/2 84/4/2
f 84/4/2 81/4/2 85/4/2
f 82/1/2 83/1/2 86/1/2
f 70/1/2 82/1/2 86/1/2
f 86/1/2 83/1/2 87/1/2
f 84/1/2 85/1/2 88/1/2
f 74/1/2 84/1/2 88/1/2
f 88/1/2 85/1/2 89/1/2
f 92/2/3 91/2/3 90/2/3
f 93/2/3 91/2/3 92/2/3
f 98/2/3 95/2/3 94/2/3
f 99/2/3 95/2/3 98/2/3
f 100/2/3 97/2/3 96/2/3
f 101/2/3 97/2/3 100/2/3
f 104/1/3 103/1/3 102/1/3
f 105/1/3 103/1/3 104/1/3
f 109/6/3 107/6/3 106/6/3
f 110/3/3 108/3/3 107/3/3
f 110/6/3 107/6/3 109/6/3
f 111/3/3 108/3/3 110/3/3
f 114/1/3 113/1/3 112/1/3
f 115/1/3 113/1/3 114/1/3
f 120/2/3 117/2/3 116/2/3
f 121/2/3 117/2/3 120/2/3
f 122/2/3 119/2/3 118/2/3
f 123/2/3 119/2/3 122/2/3
f 124/2/4 125/2/4 128/2/4
f 128/2/4 125/2/4 129/2/4
f 126/2/4 127/2/4 130/2/4
f 130/2/4 127/2/4 131/2/4
f 132/5/4 133/5/4 136/5/4
f 133/4/4 134/4/4 137/4/4
f 136/5/4 133/5/4 137/5/4
f 134/1/4 135/1/4 138/1/4
f 137/4/4 134/4/4 138/4/4
f 138/1/4 135/1/4 139/1/4
f 140/6/4 141/6/4 143/6/4
f 141/3/4 142/3/4 144/3/4
f 143/6/4 141/6/4 144/6/4
f 144/3/4 142/3/4 145/3/4
f 146/5/4 147/5/4 150/5/4
f 147/4/4 148/4/4 151/4/4
f 150/5/4 147/5/4 151/5/4
f 148/1/4 149/1/4 152/1/4
f 151/4/4 148/4/4 152/4/4
f 152/1/4 149/1/4 153/1/4
f 154/2/4 155/2/4 158/2/4
f 158/2/4 155/2/4 159/2/4
f 156/2/4 157/2/4 160/2/4
f 160/2/4 157/2/4 161/2/4
f 162/2/4 163/2/4 164/2/4
f 164/2/4 163/2/4 165/2/4
f 168/2/5 167/2/5 166/2/5
f 169/2/5 167/2/5 168/2/5
f 172/2/5 171/2/5 170/2/5
f 173/2/5 171/2/5 172/2/5
f 176/2/5 175/2/5 174/2/5
f 177/2/5 175/2/5 176/2/5
f 180/2/5 179/2/5 178/2/5
f 181/2/5 179/2/5 180/2/5
f 184/6/5 183/6/5 182/6/5
f 185/6/5 183/6/5 184/6/5
f 188/1/5 187/1/5 186/1/5
f 189/1/5 187/1/5 188/1/5
f 191/4/5 189/4/5 188/4/5
f 192/4/5 189/4/5 191/4/5
f 193/2/5 191/2/5 190/2/5
f 193/5/5 192/5/5 191/5/5
f 194/5/5 192/5/5 193/5/5
f 195/2/5 193/2/5 190/2/5
f 197/2/5 195/2/5 190/2/5
f 197/1/5 196/1/5 195/1/5
f 198/1/5 196/1/5 197/1/5
f 199/2/5 197/2/5 190/2/5
f 200/4/5 198/4/5 197/4/5
f 200/2/5 197/2/5 199/2/5
f 201/4/5 198/4/5 200/4/5
f 202/5/5 201/5/5 200/5/5
f 203/5/5 201/5/5 202/5/5
f 204/2/6 205/2/6 206/2/6
f 206/2/6 205/2/6 207/2/6
f 208/3/6 209/3/6 210/3/6
f 210/3/6 209/3/6 211/3/6
f 212/2/6 213/2/6 214/2/6
f 214/2/6 213/2/6 215/2/6
f 216/2/6 217/2/6 218/2/6
f 218/2/6 217/2/6 219/2/6
f 220/1/6 221/1/6 222/1/6
f 222/1/6 221/1/6 223/1/6
f 224/1/6 225/1/6 226/1/6
f 226/1/6 225/1/6 227/1/6
f 228/2/6 229/2/6 230/2/6
f 230/2/6 229/2/6 231/2/6
f 232/2/6 233/2/6 234/2/6
f 234/2/6 233/2/6 235/2/6
