# MagicaVoxel @ Ephtracy

# group
o 

# material
mtllib Paloma.mtl
usemtl palette

# normals
vn -1 0 0
vn 1 0 0
vn 0 0 1
vn 0 0 -1
vn 0 -1 0
vn 0 1 0

# texcoords
vt 0.814453 0.5
vt 0.876953 0.5
vt 0.939453 0.5
vt 0.970703 0.5
vt 0.974609 0.5
vt 0.978516 0.5

# verts
v -1.2 1 0.4
v -1.2 1 0
v -1.2 1 -0.1
v -1.2 1 -0.2
v -1.2 1 -0.6
v -1.2 1.5 0.4
v -1.2 1.5 0
v -1.2 1.5 -0.1
v -1.2 1.5 -0.2
v -1.2 1.5 -0.6
v -1.1 0 -0.1
v -1.1 0 -0.8
v -1.1 0.1 -0.1
v -1.1 0.1 -0.8
v -1.1 0.6 -0.1
v -1.1 0.6 -0.6
v -1.1 1 -0.1
v -1.1 1 -0.2
v -1.1 1 -0.6
v -1.1 1.9 -0.6
v -1.1 1.9 -0.9
v -1.1 2 -0.7
v -1.1 2 -0.8
v -1.1 2.1 -0.7
v -1.1 2.1 -0.8
v -1.1 2.2 -0.6
v -1.1 2.2 -0.9
v -1 0.1 -0.2
v -1 0.1 -0.5
v -1 0.6 0.6
v -1 0.6 0
v -1 0.6 -0.1
v -1 0.6 -0.2
v -1 0.6 -0.5
v -1 0.6 -0.6
v -1 0.6 -1
v -1 0.9 0.9
v -1 0.9 0.6
v -1 1 0.4
v -1 1 0
v -1 1 -0.1
v -1 1 -0.6
v -1 1.3 0.9
v -1 1.3 0.6
v -1 1.3 0.4
v -1 1.5 0
v -1 1.5 -0.1
v -1 1.5 -0.2
v -1 1.5 -0.6
v -1 1.7 0
v -1 1.7 -1
v -1 1.9 -0.6
v -1 1.9 -0.9
v -1 2.2 -0.6
v -1 2.2 -0.9
v -1 2.4 0
v -1 2.4 -1
v -0.8 0 -0.8
v -0.8 0 -1
v -0.8 0.1 -0.8
v -0.8 0.1 -1
v -0.7 1.7 -1
v -0.7 1.7 -1.4
v -0.7 2 -1
v -0.7 2 -1.4
v -0.3 0 -0.1
v -0.3 0 -1
v -0.3 0.1 -0.1
v -0.3 0.1 -0.2
v -0.3 0.1 -0.5
v -0.3 0.1 -1
v -0.3 0.6 -0.2
v -0.3 0.6 -0.5
v 0 1.3 0.4
v 0 1.3 0
v 0 1.5 0.4
v 0 1.5 0
v -1 1.3 0.4
v -1 1.3 0
v -1 1.5 0.4
v -1 1.5 0
v -0.7 0 -0.1
v -0.7 0 -1
v -0.7 0.1 -0.1
v -0.7 0.1 -0.2
v -0.7 0.1 -0.5
v -0.7 0.1 -1
v -0.7 0.6 -0.2
v -0.7 0.6 -0.5
v -0.3 1.7 -1
v -0.3 1.7 -1.4
v -0.3 2 -1
v -0.3 2 -1.4
v -0.2 0 -0.8
v -0.2 0 -1
v -0.2 0.1 -0.8
v -0.2 0.1 -1
v 0 0.1 -0.2
v 0 0.1 -0.5
v 0 0.6 0.6
v 0 0.6 0
v 0 0.6 -0.1
v 0 0.6 -0.2
v 0 0.6 -0.5
v 0 0.6 -0.6
v 0 0.6 -1
v 0 0.9 0.9
v 0 0.9 0.6
v 0 1 0.4
v 0 1 0
v 0 1 -0.1
v 0 1 -0.6
v 0 1.3 0.9
v 0 1.3 0.6
v 0 1.3 0.4
v 0 1.5 0
v 0 1.5 -0.1
v 0 1.5 -0.2
v 0 1.5 -0.6
v 0 1.7 0
v 0 1.7 -1
v 0 1.9 -0.6
v 0 1.9 -0.9
v 0 2.2 -0.6
v 0 2.2 -0.9
v 0 2.4 0
v 0 2.4 -1
v 0.0999999 0 -0.1
v 0.0999999 0 -0.8
v 0.0999999 0.1 -0.1
v 0.0999999 0.1 -0.8
v 0.0999999 0.6 -0.1
v 0.0999999 0.6 -0.6
v 0.0999999 1 -0.1
v 0.0999999 1 -0.2
v 0.0999999 1 -0.6
v 0.0999999 1.9 -0.6
v 0.0999999 1.9 -0.9
v 0.0999999 2 -0.7
v 0.0999999 2 -0.8
v 0.0999999 2.1 -0.7
v 0.0999999 2.1 -0.8
v 0.0999999 2.2 -0.6
v 0.0999999 2.2 -0.9
v 0.2 1 0.4
v 0.2 1 0
v 0.2 1 -0.1
v 0.2 1 -0.2
v 0.2 1 -0.6
v 0.2 1.5 0.4
v 0.2 1.5 0
v 0.2 1.5 -0.1
v 0.2 1.5 -0.2
v 0.2 1.5 -0.6
v -1 0.9 0.9
v -1 1.3 0.9
v 0 0.9 0.9
v 0 1.3 0.9
v -1 0.6 0.6
v -1 0.9 0.6
v 0 0.6 0.6
v 0 0.9 0.6
v -1.2 1 0.4
v -1.2 1.5 0.4
v -1 1 0.4
v -1 1.3 0.4
v -1 1.5 0.4
v 0 1 0.4
v 0 1.3 0.4
v 0 1.5 0.4
v 0.2 1 0.4
v 0.2 1.5 0.4
v -1 1.3 0
v -1 1.5 0
v -1 1.7 0
v -1 2.4 0
v 0 1.3 0
v 0 1.5 0
v 0 1.7 0
v 0 2.4 0
v -1.1 0 -0.1
v -1.1 0.1 -0.1
v -1.1 0.6 -0.1
v -1.1 1 -0.1
v -1 0.6 -0.1
v -1 1 -0.1
v -0.7 0 -0.1
v -0.7 0.1 -0.1
v -0.3 0 -0.1
v -0.3 0.1 -0.1
v 0 0.6 -0.1
v 0 1 -0.1
v 0.0999999 0 -0.1
v 0.0999999 0.1 -0.1
v 0.0999999 0.6 -0.1
v 0.0999999 1 -0.1
v -1 0.1 -0.2
v -1 0.6 -0.2
v -0.7 0.1 -0.2
v -0.7 0.6 -0.2
v -0.3 0.1 -0.2
v -0.3 0.6 -0.2
v 0 0.1 -0.2
v 0 0.6 -0.2
v -1.1 1.9 -0.6
v -1.1 2.2 -0.6
v -1 1.9 -0.6
v -1 2.2 -0.6
v 0 1.9 -0.6
v 0 2.2 -0.6
v 0.0999999 1.9 -0.6
v 0.0999999 2.2 -0.6
v -1 0.1 -0.5
v -1 0.6 -0.5
v -0.7 0.1 -0.5
v -0.7 0.6 -0.5
v -0.3 0.1 -0.5
v -0.3 0.6 -0.5
v 0 0.1 -0.5
v 0 0.6 -0.5
v -1.2 1 -0.6
v -1.2 1.5 -0.6
v -1.1 0.6 -0.6
v -1.1 1 -0.6
v -1 0.6 -0.6
v -1 1 -0.6
v -1 1.5 -0.6
v 0 0.6 -0.6
v 0 1 -0.6
v 0 1.5 -0.6
v 0.0999999 0.6 -0.6
v 0.0999999 1 -0.6
v 0.2 1 -0.6
v 0.2 1.5 -0.6
v -1.1 0 -0.8
v -1.1 0.1 -0.8
v -0.8 0 -0.8
v -0.8 0.1 -0.8
v -0.2 0 -0.8
v -0.2 0.1 -0.8
v 0.0999999 0 -0.8
v 0.0999999 0.1 -0.8
v -1.1 1.9 -0.9
v -1.1 2.2 -0.9
v -1 1.9 -0.9
v -1 2.2 -0.9
v 0 1.9 -0.9
v 0 2.2 -0.9
v 0.0999999 1.9 -0.9
v 0.0999999 2.2 -0.9
v -1 0.6 -1
v -1 1.7 -1
v -1 2.4 -1
v -0.8 0 -1
v -0.8 0.1 -1
v -0.7 0 -1
v -0.7 0.1 -1
v -0.7 1.7 -1
v -0.7 2 -1
v -0.3 0 -1
v -0.3 0.1 -1
v -0.3 1.7 -1
v -0.3 2 -1
v -0.2 0 -1
v -0.2 0.1 -1
v 0 0.6 -1
v 0 1.7 -1
v 0 2.4 -1
v -0.7 1.7 -1.4
v -0.7 2 -1.4
v -0.3 1.7 -1.4
v -0.3 2 -1.4
v -1.1 0 -0.1
v -0.7 0 -0.1
v -0.3 0 -0.1
v 0.0999999 0 -0.1
v -1.1 0 -0.8
v -0.8 0 -0.8
v -0.2 0 -0.8
v 0.0999999 0 -0.8
v -0.8 0 -1
v -0.7 0 -1
v -0.3 0 -1
v -0.2 0 -1
v -1 0.6 0.6
v 0 0.6 0.6
v -1 0.6 0
v 0 0.6 0
v -1.1 0.6 -0.1
v -1 0.6 -0.1
v 0 0.6 -0.1
v 0.0999999 0.6 -0.1
v -1 0.6 -0.2
v -0.7 0.6 -0.2
v -0.3 0.6 -0.2
v 0 0.6 -0.2
v -1 0.6 -0.5
v -0.7 0.6 -0.5
v -0.3 0.6 -0.5
v 0 0.6 -0.5
v -1.1 0.6 -0.6
v -1 0.6 -0.6
v 0 0.6 -0.6
v 0.0999999 0.6 -0.6
v -1 0.6 -1
v 0 0.6 -1
v -1 0.9 0.9
v 0 0.9 0.9
v -1 0.9 0.6
v 0 0.9 0.6
v -1.2 1 0.4
v -1 1 0.4
v 0 1 0.4
v 0.2 1 0.4
v -1.2 1 0
v -1 1 0
v 0 1 0
v 0.0999999 1 0
v 0.2 1 0
v -1.2 1 -0.1
v -1.1 1 -0.1
v -1 1 -0.1
v 0 1 -0.1
v 0.0999999 1 -0.1
v 0.2 1 -0.1
v -1.2 1 -0.2
v -1.1 1 -0.2
v 0.0999999 1 -0.2
v 0.2 1 -0.2
v -1.2 1 -0.6
v -1.1 1 -0.6
v 0.0999999 1 -0.6
v 0.2 1 -0.6
v -0.7 1.7 -1
v -0.3 1.7 -1
v -0.7 1.7 -1.4
v -0.3 1.7 -1.4
v -1.1 1.9 -0.6
v -1 1.9 -0.6
v 0 1.9 -0.6
v 0.0999999 1.9 -0.6
v -1.1 1.9 -0.9
v -1 1.9 -0.9
v 0 1.9 -0.9
v 0.0999999 1.9 -0.9
v -1.1 0.1 -0.1
v -0.7 0.1 -0.1
v -0.3 0.1 -0.1
v 0.0999999 0.1 -0.1
v -1 0.1 -0.2
v -0.7 0.1 -0.2
v -0.3 0.1 -0.2
v 0 0.1 -0.2
v -1 0.1 -0.5
v -0.7 0.1 -0.5
v -0.3 0.1 -0.5
v 0 0.1 -0.5
v -1.1 0.1 -0.8
v -0.8 0.1 -0.8
v -0.2 0.1 -0.8
v 0.0999999 0.1 -0.8
v -0.8 0.1 -1
v -0.7 0.1 -1
v -0.3 0.1 -1
v -0.2 0.1 -1
v -1 1.3 0.9
v 0 1.3 0.9
v -1 1.3 0.6
v 0 1.3 0.6
v -1 1.3 0.4
v 0 1.3 0.4
v -1 1.3 0
v 0 1.3 0
v -1.2 1.5 0.4
v -1 1.5 0.4
v 0 1.5 0.4
v 0.2 1.5 0.4
v -1.2 1.5 0
v -1 1.5 0
v 0 1.5 0
v 0.2 1.5 0
v -1.2 1.5 -0.1
v -1 1.5 -0.1
v 0 1.5 -0.1
v 0.2 1.5 -0.1
v -1.2 1.5 -0.2
v -1 1.5 -0.2
v 0 1.5 -0.2
v 0.2 1.5 -0.2
v -1.2 1.5 -0.6
v -1 1.5 -0.6
v 0 1.5 -0.6
v 0.2 1.5 -0.6
v -0.7 2 -1
v -0.3 2 -1
v -0.7 2 -1.4
v -0.3 2 -1.4
v -1.1 2.2 -0.6
v -1 2.2 -0.6
v 0 2.2 -0.6
v 0.0999999 2.2 -0.6
v -1.1 2.2 -0.9
v -1 2.2 -0.9
v 0 2.2 -0.9
v 0.0999999 2.2 -0.9
v -1 2.4 0
v 0 2.4 0
v -1 2.4 -1
v 0 2.4 -1

# faces
f 6/5/1 2/5/1 1/5/1
f 7/4/1 3/4/1 2/4/1
f 7/5/1 2/5/1 6/5/1
f 8/5/1 4/5/1 3/5/1
f 8/4/1 3/4/1 7/4/1
f 9/4/1 5/4/1 4/4/1
f 9/5/1 4/5/1 8/5/1
f 10/4/1 5/4/1 9/4/1
f 13/6/1 12/6/1 11/6/1
f 14/6/1 12/6/1 13/6/1
f 17/1/1 16/1/1 15/1/1
f 18/1/1 16/1/1 17/1/1
f 19/1/1 16/1/1 18/1/1
f 22/3/1 21/3/1 20/3/1
f 23/3/1 21/3/1 22/3/1
f 24/3/1 22/3/1 20/3/1
f 24/2/1 23/2/1 22/2/1
f 25/3/1 21/3/1 23/3/1
f 25/2/1 23/2/1 24/2/1
f 26/3/1 24/3/1 20/3/1
f 26/3/1 25/3/1 24/3/1
f 27/3/1 21/3/1 25/3/1
f 27/3/1 25/3/1 26/3/1
f 33/6/1 29/6/1 28/6/1
f 34/6/1 29/6/1 33/6/1
f 38/4/1 31/4/1 30/4/1
f 39/4/1 31/4/1 38/4/1
f 40/1/1 32/1/1 31/1/1
f 40/4/1 31/4/1 39/4/1
f 41/1/1 32/1/1 40/1/1
f 42/1/1 36/1/1 35/1/1
f 43/5/1 38/5/1 37/5/1
f 44/4/1 39/4/1 38/4/1
f 44/5/1 38/5/1 43/5/1
f 45/4/1 39/4/1 44/4/1
f 49/1/1 36/1/1 42/1/1
f 50/1/1 48/1/1 47/1/1
f 50/1/1 49/1/1 48/1/1
f 50/1/1 47/1/1 46/1/1
f 51/1/1 36/1/1 49/1/1
f 51/1/1 49/1/1 50/1/1
f 52/4/1 51/4/1 50/4/1
f 53/4/1 51/4/1 52/4/1
f 54/4/1 52/4/1 50/4/1
f 55/4/1 51/4/1 53/4/1
f 56/4/1 54/4/1 50/4/1
f 56/4/1 55/4/1 54/4/1
f 57/4/1 51/4/1 55/4/1
f 57/4/1 55/4/1 56/4/1
f 60/6/1 59/6/1 58/6/1
f 61/6/1 59/6/1 60/6/1
f 64/5/1 63/5/1 62/5/1
f 65/5/1 63/5/1 64/5/1
f 68/6/1 67/6/1 66/6/1
f 69/6/1 67/6/1 68/6/1
f 70/6/1 67/6/1 69/6/1
f 71/6/1 67/6/1 70/6/1
f 72/6/1 70/6/1 69/6/1
f 73/6/1 70/6/1 72/6/1
f 76/5/1 75/5/1 74/5/1
f 77/5/1 75/5/1 76/5/1
f 78/5/2 79/5/2 80/5/2
f 80/5/2 79/5/2 81/5/2
f 82/6/2 83/6/2 84/6/2
f 84/6/2 83/6/2 85/6/2
f 85/6/2 83/6/2 86/6/2
f 86/6/2 83/6/2 87/6/2
f 85/6/2 86/6/2 88/6/2
f 88/6/2 86/6/2 89/6/2
f 90/5/2 91/5/2 92/5/2
f 92/5/2 91/5/2 93/5/2
f 94/6/2 95/6/2 96/6/2
f 96/6/2 95/6/2 97/6/2
f 98/6/2 99/6/2 103/6/2
f 103/6/2 99/6/2 104/6/2
f 100/4/2 101/4/2 108/4/2
f 108/4/2 101/4/2 109/4/2
f 101/1/2 102/1/2 110/1/2
f 109/4/2 101/4/2 110/4/2
f 110/1/2 102/1/2 111/1/2
f 105/1/2 106/1/2 112/1/2
f 107/5/2 108/5/2 113/5/2
f 108/4/2 109/4/2 114/4/2
f 113/5/2 108/5/2 114/5/2
f 114/4/2 109/4/2 115/4/2
f 112/1/2 106/1/2 119/1/2
f 117/1/2 118/1/2 120/1/2
f 118/1/2 119/1/2 120/1/2
f 116/1/2 117/1/2 120/1/2
f 119/1/2 106/1/2 121/1/2
f 120/1/2 119/1/2 121/1/2
f 120/4/2 121/4/2 122/4/2
f 122/4/2 121/4/2 123/4/2
f 120/4/2 122/4/2 124/4/2
f 123/4/2 121/4/2 125/4/2
f 120/4/2 124/4/2 126/4/2
f 124/4/2 125/4/2 126/4/2
f 125/4/2 121/4/2 127/4/2
f 126/4/2 125/4/2 127/4/2
f 128/6/2 129/6/2 130/6/2
f 130/6/2 129/6/2 131/6/2
f 132/1/2 133/1/2 134/1/2
f 134/1/2 133/1/2 135/1/2
f 135/1/2 133/1/2 136/1/2
f 137/3/2 138/3/2 139/3/2
f 139/3/2 138/3/2 140/3/2
f 137/3/2 139/3/2 141/3/2
f 139/2/2 140/2/2 141/2/2
f 140/3/2 138/3/2 142/3/2
f 141/2/2 140/2/2 142/2/2
f 137/3/2 141/3/2 143/3/2
f 141/3/2 142/3/2 143/3/2
f 142/3/2 138/3/2 144/3/2
f 143/3/2 142/3/2 144/3/2
f 145/5/2 146/5/2 150/5/2
f 146/4/2 147/4/2 151/4/2
f 150/5/2 146/5/2 151/5/2
f 147/5/2 148/5/2 152/5/2
f 151/4/2 147/4/2 152/4/2
f 148/4/2 149/4/2 153/4/2
f 152/5/2 148/5/2 153/5/2
f 153/4/2 149/4/2 154/4/2
f 157/5/3 156/5/3 155/5/3
f 158/5/3 156/5/3 157/5/3
f 161/4/3 160/4/3 159/4/3
f 162/4/3 160/4/3 161/4/3
f 165/5/3 164/5/3 163/5/3
f 166/5/3 164/5/3 165/5/3
f 167/5/3 164/5/3 166/5/3
f 171/5/3 169/5/3 168/5/3
f 171/5/3 170/5/3 169/5/3
f 172/5/3 170/5/3 171/5/3
f 177/1/3 174/1/3 173/1/3
f 177/1/3 175/1/3 174/1/3
f 178/1/3 175/1/3 177/1/3
f 179/4/3 176/4/3 175/4/3
f 179/1/3 175/1/3 178/1/3
f 180/4/3 176/4/3 179/4/3
f 185/1/3 184/1/3 183/1/3
f 186/1/3 184/1/3 185/1/3
f 187/6/3 182/6/3 181/6/3
f 188/6/3 182/6/3 187/6/3
f 193/6/3 190/6/3 189/6/3
f 194/6/3 190/6/3 193/6/3
f 195/1/3 192/1/3 191/1/3
f 196/1/3 192/1/3 195/1/3
f 199/6/3 198/6/3 197/6/3
f 200/6/3 198/6/3 199/6/3
f 203/6/3 202/6/3 201/6/3
f 204/6/3 202/6/3 203/6/3
f 207/3/3 206/3/3 205/3/3
f 208/3/3 206/3/3 207/3/3
f 211/3/3 210/3/3 209/3/3
f 212/3/3 210/3/3 211/3/3
f 213/6/4 214/6/4 215/6/4
f 215/6/4 214/6/4 216/6/4
f 217/6/4 218/6/4 219/6/4
f 219/6/4 218/6/4 220/6/4
f 221/4/4 222/4/4 224/4/4
f 223/1/4 224/1/4 225/1/4
f 224/4/4 222/4/4 226/4/4
f 225/1/4 224/1/4 226/1/4
f 226/4/4 222/4/4 227/4/4
f 228/1/4 229/1/4 231/1/4
f 229/4/4 230/4/4 232/4/4
f 231/1/4 229/1/4 232/1/4
f 232/4/4 230/4/4 233/4/4
f 233/4/4 230/4/4 234/4/4
f 235/6/4 236/6/4 237/6/4
f 237/6/4 236/6/4 238/6/4
f 239/6/4 240/6/4 241/6/4
f 241/6/4 240/6/4 242/6/4
f 243/3/4 244/3/4 245/3/4
f 245/3/4 244/3/4 246/3/4
f 247/3/4 248/3/4 249/3/4
f 249/3/4 248/3/4 250/3/4
f 254/6/4 255/6/4 256/6/4
f 256/6/4 255/6/4 257/6/4
f 251/1/4 252/1/4 258/1/4
f 252/4/4 253/4/4 258/4/4
f 258/4/4 253/4/4 259/4/4
f 251/1/4 258/1/4 262/1/4
f 259/4/4 253/4/4 263/4/4
f 260/6/4 261/6/4 264/6/4
f 264/6/4 261/6/4 265/6/4
f 251/1/4 262/1/4 266/1/4
f 262/4/4 263/4/4 267/4/4
f 266/1/4 262/1/4 267/1/4
f 263/4/4 253/4/4 268/4/4
f 267/4/4 263/4/4 268/4/4
f 269/5/4 270/5/4 271/5/4
f 271/5/4 270/5/4 272/5/4
f 277/6/5 274/6/5 273/6/5
f 278/6/5 274/6/5 277/6/5
f 279/6/5 276/6/5 275/6/5
f 280/6/5 276/6/5 279/6/5
f 281/6/5 274/6/5 278/6/5
f 282/6/5 274/6/5 281/6/5
f 283/6/5 279/6/5 275/6/5
f 284/6/5 279/6/5 283/6/5
f 287/4/5 286/4/5 285/4/5
f 288/4/5 286/4/5 287/4/5
f 290/1/5 288/1/5 287/1/5
f 291/1/5 288/1/5 290/1/5
f 293/1/5 291/1/5 290/1/5
f 293/1/5 292/1/5 291/1/5
f 293/1/5 290/1/5 289/1/5
f 294/1/5 292/1/5 293/1/5
f 295/1/5 292/1/5 294/1/5
f 296/1/5 292/1/5 295/1/5
f 297/1/5 293/1/5 289/1/5
f 298/1/5 295/1/5 294/1/5
f 299/1/5 295/1/5 298/1/5
f 300/1/5 292/1/5 296/1/5
f 301/1/5 299/1/5 298/1/5
f 301/1/5 300/1/5 299/1/5
f 301/1/5 297/1/5 289/1/5
f 301/1/5 298/1/5 297/1/5
f 302/1/5 300/1/5 301/1/5
f 303/1/5 292/1/5 300/1/5
f 303/1/5 300/1/5 302/1/5
f 304/1/5 292/1/5 303/1/5
f 305/1/5 303/1/5 302/1/5
f 306/1/5 303/1/5 305/1/5
f 309/5/5 308/5/5 307/5/5
f 310/5/5 308/5/5 309/5/5
f 315/5/5 312/5/5 311/5/5
f 316/5/5 312/5/5 315/5/5
f 317/5/5 314/5/5 313/5/5
f 318/5/5 314/5/5 317/5/5
f 319/5/5 314/5/5 318/5/5
f 320/4/5 316/4/5 315/4/5
f 321/4/5 316/4/5 320/4/5
f 322/4/5 316/4/5 321/4/5
f 323/1/5 318/1/5 317/1/5
f 324/4/5 319/4/5 318/4/5
f 324/1/5 318/1/5 323/1/5
f 325/4/5 319/4/5 324/4/5
f 326/5/5 321/5/5 320/5/5
f 327/5/5 321/5/5 326/5/5
f 328/5/5 325/5/5 324/5/5
f 329/5/5 325/5/5 328/5/5
f 330/4/5 327/4/5 326/4/5
f 331/4/5 327/4/5 330/4/5
f 332/4/5 329/4/5 328/4/5
f 333/4/5 329/4/5 332/4/5
f 336/5/5 335/5/5 334/5/5
f 337/5/5 335/5/5 336/5/5
f 342/3/5 339/3/5 338/3/5
f 343/3/5 339/3/5 342/3/5
f 344/3/5 341/3/5 340/3/5
f 345/3/5 341/3/5 344/3/5
f 346/6/6 347/6/6 350/6/6
f 350/6/6 347/6/6 351/6/6
f 348/6/6 349/6/6 352/6/6
f 352/6/6 349/6/6 353/6/6
f 346/6/6 350/6/6 354/6/6
f 353/6/6 349/6/6 357/6/6
f 354/6/6 355/6/6 358/6/6
f 346/6/6 354/6/6 358/6/6
f 358/6/6 355/6/6 359/6/6
f 356/6/6 357/6/6 360/6/6
f 357/6/6 349/6/6 361/6/6
f 360/6/6 357/6/6 361/6/6
f 359/6/6 355/6/6 362/6/6
f 362/6/6 355/6/6 363/6/6
f 356/6/6 360/6/6 364/6/6
f 364/6/6 360/6/6 365/6/6
f 366/5/6 367/5/6 368/5/6
f 368/5/6 367/5/6 369/5/6
f 368/4/6 369/4/6 370/4/6
f 370/4/6 369/4/6 371/4/6
f 370/4/6 371/4/6 372/4/6
f 372/4/6 371/4/6 373/4/6
f 374/5/6 375/5/6 378/5/6
f 378/5/6 375/5/6 379/5/6
f 376/5/6 377/5/6 380/5/6
f 380/5/6 377/5/6 381/5/6
f 378/4/6 379/4/6 382/4/6
f 382/4/6 379/4/6 383/4/6
f 380/4/6 381/4/6 384/4/6
f 384/4/6 381/4/6 385/4/6
f 382/5/6 383/5/6 386/5/6
f 386/5/6 383/5/6 387/5/6
f 384/5/6 385/5/6 388/5/6
f 388/5/6 385/5/6 389/5/6
f 386/4/6 387/4/6 390/4/6
f 390/4/6 387/4/6 391/4/6
f 388/4/6 389/4/6 392/4/6
f 392/4/6 389/4/6 393/4/6
f 394/5/6 395/5/6 396/5/6
f 396/5/6 395/5/6 397/5/6
f 398/3/6 399/3/6 402/3/6
f 402/3/6 399/3/6 403/3/6
f 400/3/6 401/3/6 404/3/6
f 404/3/6 401/3/6 405/3/6
f 406/4/6 407/4/6 408/4/6
f 408/4/6 407/4/6 409/4/6
