# MagicaVoxel @ Ephtracy

# group
o 

# material
mtllib Pollito.mtl
usemtl palette

# normals
vn -1 0 0
vn 1 0 0
vn 0 0 1
vn 0 0 -1
vn 0 -1 0
vn 0 1 0

# texcoords
vt 0.365234 0.5
vt 0.513672 0.5
vt 0.787109 0.5
vt 0.841797 0.5
vt 0.845703 0.5
vt 0.876953 0.5
vt 0.958984 0.5

# verts
v -3.9 1.8 2.7
v -3.9 1.8 0.4
v -3.9 3.7 2.7
v -3.9 3.7 0.4
v -3.3 0 3
v -3.3 0 1.9
v -3.3 0.2 3
v -3.3 0.2 1.9
v -3.3 1.2 2.9
v -3.3 1.2 0.4
v -3.3 1.3 3
v -3.3 1.3 2.9
v -3.3 1.3 0.4
v -3.3 1.3 0.3
v -3.3 1.4 3.1
v -3.3 1.4 3
v -3.3 1.4 0.3
v -3.3 1.4 0.2
v -3.3 1.8 2.7
v -3.3 1.8 0.4
v -3.3 3.7 2.7
v -3.3 3.7 0.4
v -3.3 5.6 3.1
v -3.3 5.6 0.2
v -3.2 1.2 3
v -3.2 1.2 2.9
v -3.2 1.3 3.1
v -3.2 1.3 3
v -3.2 1.3 2.9
v -3.2 1.4 3.1
v -3.2 1.4 3
v -3.1 0.2 2.4
v -3.1 0.2 2
v -3.1 1.2 3.1
v -3.1 1.2 3
v -3.1 1.2 2.4
v -3.1 1.2 2
v -3.1 1.3 3.1
v -3.1 1.3 3
v -3.1 1.4 0.2
v -3.1 1.4 -1
v -3.1 3.4 0.2
v -3.1 3.4 -1
v -3 3.9 3.2
v -3 3.9 3.1
v -3 4.9 3.2
v -3 4.9 3.1
v -2.4 2.8 4
v -2.4 2.8 3.1
v -2.4 3.7 4
v -2.4 3.7 3.1
v -2.2 2.3 3.6
v -2.2 2.3 3.1
v -2.2 2.8 3.6
v -2.2 2.8 3.1
v -2.2 5.6 2.9
v -2.2 5.6 1.4
v -2.2 6 2.9
v -2.2 6 2.4
v -2.2 6 1.7
v -2.2 6 1.4
v -2.2 6.1 2.4
v -2.2 6.1 2.1
v -2.2 6.2 2.1
v -2.2 6.2 1.7
v -1.5 3.9 3.2
v -1.5 3.9 3.1
v -1.5 4.9 3.2
v -1.5 4.9 3.1
v -1.1 0 3
v -1.1 0 1.9
v -1.1 0.2 3
v -1.1 0.2 2.4
v -1.1 0.2 2.3
v -1.1 0.2 2.1
v -1.1 0.2 2
v -1.1 0.2 1.9
v -1.1 1.2 2.4
v -1.1 1.2 2.3
v -1.1 1.2 2.1
v -1.1 1.2 2
v -0.4 2.6 1.2
v -0.4 2.6 1.1
v -0.4 2.7 1.2
v -0.4 2.7 1.1
v 0.2 1.9 2.5
v 0.2 1.9 0.6
v 0.2 2.5 2.5
v 0.2 2.5 0.6
v -3.2 2.6 1.2
v -3.2 2.6 1.1
v -3.2 2.7 1.2
v -3.2 2.7 1.1
v -2.5 0 3
v -2.5 0 1.9
v -2.5 0.2 3
v -2.5 0.2 2.4
v -2.5 0.2 2
v -2.5 0.2 1.9
v -2.5 1.2 2.4
v -2.5 1.2 2
v -2.1 3.9 3.2
v -2.1 3.9 3.1
v -2.1 4.9 3.2
v -2.1 4.9 3.1
v -1.4 5.6 2.9
v -1.4 5.6 1.4
v -1.4 6 2.9
v -1.4 6 2.4
v -1.4 6 1.7
v -1.4 6 1.4
v -1.4 6.1 2.4
v -1.4 6.1 2.1
v -1.4 6.2 2.1
v -1.4 6.2 1.7
v -1.3 2.3 3.6
v -1.3 2.3 3.1
v -1.3 2.8 3.6
v -1.3 2.8 3.1
v -1.2 2.8 4
v -1.2 2.8 3.1
v -1.2 3.7 4
v -1.2 3.7 3.1
v -0.6 3.9 3.2
v -0.6 3.9 3.1
v -0.6 4.9 3.2
v -0.6 4.9 3.1
v -0.5 0.2 2.4
v -0.5 0.2 2
v -0.5 1.2 3.1
v -0.5 1.2 3
v -0.5 1.2 2.4
v -0.5 1.2 2
v -0.5 1.3 3.1
v -0.5 1.3 3
v -0.5 1.4 0.2
v -0.5 1.4 -1
v -0.5 3.4 0.2
v -0.5 3.4 -1
v -0.4 1.2 3
v -0.4 1.2 2.9
v -0.4 1.3 3.1
v -0.4 1.3 3
v -0.4 1.3 2.9
v -0.4 1.4 3.1
v -0.4 1.4 3
v -0.3 0 3
v -0.3 0 1.9
v -0.3 0.2 3
v -0.3 0.2 1.9
v -0.3 1.2 2.9
v -0.3 1.2 0.4
v -0.3 1.3 3
v -0.3 1.3 2.9
v -0.3 1.3 0.4
v -0.3 1.3 0.3
v -0.3 1.4 3.1
v -0.3 1.4 3
v -0.3 1.4 0.3
v -0.3 1.4 0.2
v -0.3 1.8 2.7
v -0.3 1.8 0.4
v -0.3 3.7 2.7
v -0.3 3.7 0.4
v -0.3 5.6 3.1
v -0.3 5.6 0.2
v -0.2 1.9 2.5
v -0.2 1.9 0.6
v -0.2 2.5 2.5
v -0.2 2.5 0.6
v 0.3 1.8 2.7
v 0.3 1.8 0.4
v 0.3 3.7 2.7
v 0.3 3.7 0.4
v -2.4 2.8 4
v -2.4 3.7 4
v -1.2 2.8 4
v -1.2 3.7 4
v -2.2 2.3 3.6
v -2.2 2.8 3.6
v -1.3 2.3 3.6
v -1.3 2.8 3.6
v -3 3.9 3.2
v -3 4.9 3.2
v -2.8 4.2 3.2
v -2.8 4.7 3.2
v -2.3 4.2 3.2
v -2.3 4.7 3.2
v -2.1 3.9 3.2
v -2.1 4.9 3.2
v -1.5 3.9 3.2
v -1.5 4.9 3.2
v -1.3 4.2 3.2
v -1.3 4.7 3.2
v -0.8 4.2 3.2
v -0.8 4.7 3.2
v -0.6 3.9 3.2
v -0.6 4.9 3.2
v -3.3 1.4 3.1
v -3.3 5.6 3.1
v -3.2 1.3 3.1
v -3.2 1.4 3.1
v -3.1 1.2 3.1
v -3.1 1.3 3.1
v -3 3.9 3.1
v -3 4.9 3.1
v -2.4 2.8 3.1
v -2.4 3.7 3.1
v -2.2 2.3 3.1
v -2.2 2.8 3.1
v -2.2 3.7 3.1
v -2.1 3.9 3.1
v -2.1 4.9 3.1
v -1.5 3.9 3.1
v -1.5 4.9 3.1
v -1.3 2.3 3.1
v -1.3 2.8 3.1
v -1.3 3.7 3.1
v -1.2 2.8 3.1
v -1.2 3.7 3.1
v -0.6 3.9 3.1
v -0.6 4.9 3.1
v -0.5 1.2 3.1
v -0.5 1.3 3.1
v -0.4 1.3 3.1
v -0.4 1.4 3.1
v -0.3 1.4 3.1
v -0.3 5.6 3.1
v -3.3 0 3
v -3.3 0.2 3
v -3.3 1.3 3
v -3.3 1.4 3
v -3.2 1.2 3
v -3.2 1.3 3
v -3.2 1.4 3
v -3.1 1.2 3
v -3.1 1.3 3
v -2.5 0 3
v -2.5 0.2 3
v -1.1 0 3
v -1.1 0.2 3
v -0.5 1.2 3
v -0.5 1.3 3
v -0.4 1.2 3
v -0.4 1.3 3
v -0.4 1.4 3
v -0.3 0 3
v -0.3 0.2 3
v -0.3 1.3 3
v -0.3 1.4 3
v -3.3 1.2 2.9
v -3.3 1.3 2.9
v -3.2 1.2 2.9
v -3.2 1.3 2.9
v -2.2 5.6 2.9
v -2.2 6 2.9
v -1.4 5.6 2.9
v -1.4 6 2.9
v -0.4 1.2 2.9
v -0.4 1.3 2.9
v -0.3 1.2 2.9
v -0.3 1.3 2.9
v -3.9 1.8 2.7
v -3.9 3.7 2.7
v -3.3 1.8 2.7
v -3.3 3.7 2.7
v -0.3 1.8 2.7
v -0.3 3.7 2.7
v 0.3 1.8 2.7
v 0.3 3.7 2.7
v -3.1 0.2 2.4
v -3.1 1.2 2.4
v -2.5 0.2 2.4
v -2.5 1.2 2.4
v -2.2 6 2.4
v -2.2 6.1 2.4
v -1.4 6 2.4
v -1.4 6.1 2.4
v -1.1 0.2 2.4
v -1.1 1.2 2.4
v -0.5 0.2 2.4
v -0.5 1.2 2.4
v -2.2 6.1 2.1
v -2.2 6.2 2.1
v -1.4 6.1 2.1
v -1.4 6.2 2.1
v -3.2 2.6 1.1
v -3.2 2.7 1.1
v -0.4 2.6 1.1
v -0.4 2.7 1.1
v -0.2 1.9 0.6
v -0.2 2.5 0.6
v 0.2 1.9 0.6
v 0.2 2.5 0.6
v -0.2 1.9 2.5
v -0.2 2.5 2.5
v 0.2 1.9 2.5
v 0.2 2.5 2.5
v -3.1 0.2 2
v -3.1 1.2 2
v -2.5 0.2 2
v -2.5 1.2 2
v -1.1 0.2 2
v -1.1 1.2 2
v -0.5 0.2 2
v -0.5 1.2 2
v -3.3 0 1.9
v -3.3 0.2 1.9
v -2.5 0 1.9
v -2.5 0.2 1.9
v -1.1 0 1.9
v -1.1 0.2 1.9
v -0.3 0 1.9
v -0.3 0.2 1.9
v -2.2 6 1.7
v -2.2 6.2 1.7
v -1.4 6 1.7
v -1.4 6.2 1.7
v -2.2 5.6 1.4
v -2.2 6 1.4
v -1.4 5.6 1.4
v -1.4 6 1.4
v -3.2 2.6 1.2
v -3.2 2.7 1.2
v -0.4 2.6 1.2
v -0.4 2.7 1.2
v -3.9 1.8 0.4
v -3.9 3.7 0.4
v -3.3 1.2 0.4
v -3.3 1.3 0.4
v -3.3 1.8 0.4
v -3.3 3.7 0.4
v -0.3 1.2 0.4
v -0.3 1.3 0.4
v -0.3 1.8 0.4
v -0.3 3.7 0.4
v 0.3 1.8 0.4
v 0.3 3.7 0.4
v -3.3 1.3 0.3
v -3.3 1.4 0.3
v -0.3 1.3 0.3
v -0.3 1.4 0.3
v -3.3 1.4 0.2
v -3.3 5.6 0.2
v -3.1 1.4 0.2
v -3.1 3.4 0.2
v -0.5 1.4 0.2
v -0.5 3.4 0.2
v -0.3 1.4 0.2
v -0.3 5.6 0.2
v -3.1 1.4 -1
v -3.1 3.4 -1
v -0.5 1.4 -1
v -0.5 3.4 -1
v -3.3 0 3
v -2.5 0 3
v -1.1 0 3
v -0.3 0 3
v -3.1 0 2.9
v -3 0 2.9
v -2.8 0 2.9
v -2.7 0 2.9
v -0.9 0 2.9
v -0.8 0 2.9
v -0.6 0 2.9
v -0.5 0 2.9
v -3.1 0 2.4
v -3 0 2.4
v -2.8 0 2.4
v -2.7 0 2.4
v -0.9 0 2.4
v -0.8 0 2.4
v -0.6 0 2.4
v -0.5 0 2.4
v -3.3 0 1.9
v -2.5 0 1.9
v -1.1 0 1.9
v -0.3 0 1.9
v -3.1 1.2 3.1
v -0.5 1.2 3.1
v -3.2 1.2 3
v -3.1 1.2 3
v -0.5 1.2 3
v -0.4 1.2 3
v -3.3 1.2 2.9
v -3.2 1.2 2.9
v -0.4 1.2 2.9
v -0.3 1.2 2.9
v -3.1 1.2 2.4
v -2.5 1.2 2.4
v -1.1 1.2 2.4
v -0.5 1.2 2.4
v -1.1 1.2 2.3
v -1.1 1.2 2.1
v -3.1 1.2 2
v -2.5 1.2 2
v -1.1 1.2 2
v -0.5 1.2 2
v -3.3 1.2 0.4
v -0.3 1.2 0.4
v -3.2 1.3 3.1
v -3.1 1.3 3.1
v -0.5 1.3 3.1
v -0.4 1.3 3.1
v -3.3 1.3 3
v -3.2 1.3 3
v -3.1 1.3 3
v -0.5 1.3 3
v -0.4 1.3 3
v -0.3 1.3 3
v -3.3 1.3 2.9
v -3.2 1.3 2.9
v -0.4 1.3 2.9
v -0.3 1.3 2.9
v -3.3 1.3 0.4
v -0.3 1.3 0.4
v -3.3 1.3 0.3
v -0.3 1.3 0.3
v -3.3 1.4 3.1
v -3.2 1.4 3.1
v -0.4 1.4 3.1
v -0.3 1.4 3.1
v -3.3 1.4 3
v -3.2 1.4 3
v -0.4 1.4 3
v -0.3 1.4 3
v -3.3 1.4 0.3
v -0.3 1.4 0.3
v -3.3 1.4 0.2
v -3.1 1.4 0.2
v -0.5 1.4 0.2
v -0.3 1.4 0.2
v -3.1 1.4 -1
v -0.5 1.4 -1
v -3.9 1.8 2.7
v -3.3 1.8 2.7
v -0.3 1.8 2.7
v 0.3 1.8 2.7
v -3.9 1.8 0.4
v -3.3 1.8 0.4
v -0.3 1.8 0.4
v 0.3 1.8 0.4
v -2.2 2.3 3.6
v -1.3 2.3 3.6
v -2.2 2.3 3.1
v -1.3 2.3 3.1
v -0.2 2.5 2.5
v 0.2 2.5 2.5
v -0.2 2.5 0.6
v 0.2 2.5 0.6
v -3.2 2.7 1.2
v -0.4 2.7 1.2
v -3.2 2.7 1.1
v -0.4 2.7 1.1
v -2.4 2.8 4
v -1.2 2.8 4
v -2.2 2.8 3.6
v -1.3 2.8 3.6
v -2.4 2.8 3.1
v -2.2 2.8 3.1
v -1.3 2.8 3.1
v -1.2 2.8 3.1
v -3 3.9 3.2
v -2.1 3.9 3.2
v -1.5 3.9 3.2
v -0.6 3.9 3.2
v -3 3.9 3.1
v -2.1 3.9 3.1
v -1.5 3.9 3.1
v -0.6 3.9 3.1
v -3.3 0.2 3
v -2.5 0.2 3
v -1.1 0.2 3
v -0.3 0.2 3
v -3.1 0.2 2.4
v -2.5 0.2 2.4
v -1.1 0.2 2.4
v -0.5 0.2 2.4
v -3.1 0.2 2
v -2.5 0.2 2
v -1.1 0.2 2
v -0.5 0.2 2
v -3.3 0.2 1.9
v -2.5 0.2 1.9
v -1.1 0.2 1.9
v -0.3 0.2 1.9
v -0.2 1.9 2.5
v 0.2 1.9 2.5
v -0.2 1.9 0.6
v 0.2 1.9 0.6
v -3.2 2.6 1.2
v -0.4 2.6 1.2
v -3.2 2.6 1.1
v -0.4 2.6 1.1
v -3.1 3.4 0.2
v -0.5 3.4 0.2
v -3.1 3.4 -1
v -0.5 3.4 -1
v -2.4 3.7 4
v -1.2 3.7 4
v -2.2 3.7 3.2
v -1.3 3.7 3.2
v -2.4 3.7 3.1
v -2.2 3.7 3.1
v -1.3 3.7 3.1
v -1.2 3.7 3.1
v -3.9 3.7 2.7
v -3.3 3.7 2.7
v -0.3 3.7 2.7
v 0.3 3.7 2.7
v -3.9 3.7 0.4
v -3.3 3.7 0.4
v -0.3 3.7 0.4
v 0.3 3.7 0.4
v -3 4.9 3.2
v -2.1 4.9 3.2
v -1.5 4.9 3.2
v -0.6 4.9 3.2
v -3 4.9 3.1
v -2.1 4.9 3.1
v -1.5 4.9 3.1
v -0.6 4.9 3.1
v -3.3 5.6 3.1
v -0.3 5.6 3.1
v -2.2 5.6 2.9
v -1.4 5.6 2.9
v -2.2 5.6 1.4
v -1.4 5.6 1.4
v -3.3 5.6 0.2
v -0.3 5.6 0.2
v -2.2 6 2.9
v -1.4 6 2.9
v -2.2 6 2.4
v -1.4 6 2.4
v -2.2 6 1.7
v -1.4 6 1.7
v -2.2 6 1.4
v -1.4 6 1.4
v -2.2 6.1 2.4
v -1.4 6.1 2.4
v -2.2 6.1 2.1
v -1.4 6.1 2.1
v -2.2 6.2 2.1
v -1.4 6.2 2.1
v -2.2 6.2 1.7
v -1.4 6.2 1.7

# faces
f 3/7/1 2/7/1 1/7/1
f 4/7/1 2/7/1 3/7/1
f 7/2/1 6/2/1 5/2/1
f 8/2/1 6/2/1 7/2/1
f 12/7/1 10/7/1 9/7/1
f 13/7/1 10/7/1 12/7/1
f 16/7/1 12/7/1 11/7/1
f 16/7/1 14/7/1 13/7/1
f 16/7/1 13/7/1 12/7/1
f 17/7/1 14/7/1 16/7/1
f 19/7/1 16/7/1 15/7/1
f 19/7/1 18/7/1 17/7/1
f 19/7/1 17/7/1 16/7/1
f 20/7/1 18/7/1 19/7/1
f 21/7/1 19/7/1 15/7/1
f 22/7/1 18/7/1 20/7/1
f 23/7/1 21/7/1 15/7/1
f 23/7/1 22/7/1 21/7/1
f 24/7/1 18/7/1 22/7/1
f 24/7/1 22/7/1 23/7/1
f 28/7/1 26/7/1 25/7/1
f 29/7/1 26/7/1 28/7/1
f 30/7/1 28/7/1 27/7/1
f 31/7/1 28/7/1 30/7/1
f 36/2/1 33/2/1 32/2/1
f 37/2/1 33/2/1 36/2/1
f 38/7/1 35/7/1 34/7/1
f 39/7/1 35/7/1 38/7/1
f 42/7/1 41/7/1 40/7/1
f 43/7/1 41/7/1 42/7/1
f 46/7/1 45/7/1 44/7/1
f 47/7/1 45/7/1 46/7/1
f 50/4/1 49/4/1 48/4/1
f 51/4/1 49/4/1 50/4/1
f 54/1/1 53/1/1 52/1/1
f 55/1/1 53/1/1 54/1/1
f 58/1/1 57/1/1 56/1/1
f 59/1/1 57/1/1 58/1/1
f 60/1/1 57/1/1 59/1/1
f 61/1/1 57/1/1 60/1/1
f 62/1/1 60/1/1 59/1/1
f 63/1/1 60/1/1 62/1/1
f 64/1/1 60/1/1 63/1/1
f 65/1/1 60/1/1 64/1/1
f 68/7/1 67/7/1 66/7/1
f 69/7/1 67/7/1 68/7/1
f 72/2/1 71/2/1 70/2/1
f 73/2/1 71/2/1 72/2/1
f 74/2/1 71/2/1 73/2/1
f 75/2/1 71/2/1 74/2/1
f 76/2/1 71/2/1 75/2/1
f 77/2/1 71/2/1 76/2/1
f 78/2/1 74/2/1 73/2/1
f 79/7/1 75/7/1 74/7/1
f 79/2/1 74/2/1 78/2/1
f 80/2/1 76/2/1 75/2/1
f 80/7/1 75/7/1 79/7/1
f 81/2/1 76/2/1 80/2/1
f 84/7/1 83/7/1 82/7/1
f 85/7/1 83/7/1 84/7/1
f 88/7/1 87/7/1 86/7/1
f 89/7/1 87/7/1 88/7/1
f 90/7/2 91/7/2 92/7/2
f 92/7/2 91/7/2 93/7/2
f 94/2/2 95/2/2 96/2/2
f 96/2/2 95/2/2 97/2/2
f 97/2/2 95/2/2 98/2/2
f 98/2/2 95/2/2 99/2/2
f 97/2/2 98/2/2 100/2/2
f 100/2/2 98/2/2 101/2/2
f 102/7/2 103/7/2 104/7/2
f 104/7/2 103/7/2 105/7/2
f 106/1/2 107/1/2 108/1/2
f 108/1/2 107/1/2 109/1/2
f 109/1/2 107/1/2 110/1/2
f 110/1/2 107/1/2 111/1/2
f 109/1/2 110/1/2 112/1/2
f 112/1/2 110/1/2 113/1/2
f 113/1/2 110/1/2 114/1/2
f 114/1/2 110/1/2 115/1/2
f 116/1/2 117/1/2 118/1/2
f 118/1/2 117/1/2 119/1/2
f 120/4/2 121/4/2 122/4/2
f 122/4/2 121/4/2 123/4/2
f 124/7/2 125/7/2 126/7/2
f 126/7/2 125/7/2 127/7/2
f 128/2/2 129/2/2 132/2/2
f 132/2/2 129/2/2 133/2/2
f 130/7/2 131/7/2 134/7/2
f 134/7/2 131/7/2 135/7/2
f 136/7/2 137/7/2 138/7/2
f 138/7/2 137/7/2 139/7/2
f 140/7/2 141/7/2 143/7/2
f 143/7/2 141/7/2 144/7/2
f 142/7/2 143/7/2 145/7/2
f 145/7/2 143/7/2 146/7/2
f 147/2/2 148/2/2 149/2/2
f 149/2/2 148/2/2 150/2/2
f 151/7/2 152/7/2 154/7/2
f 154/7/2 152/7/2 155/7/2
f 153/7/2 154/7/2 158/7/2
f 155/7/2 156/7/2 158/7/2
f 154/7/2 155/7/2 158/7/2
f 158/7/2 156/7/2 159/7/2
f 157/7/2 158/7/2 161/7/2
f 159/7/2 160/7/2 161/7/2
f 158/7/2 159/7/2 161/7/2
f 161/7/2 160/7/2 162/7/2
f 157/7/2 161/7/2 163/7/2
f 162/7/2 160/7/2 164/7/2
f 157/7/2 163/7/2 165/7/2
f 163/7/2 164/7/2 165/7/2
f 164/7/2 160/7/2 166/7/2
f 165/7/2 164/7/2 166/7/2
f 167/7/2 168/7/2 169/7/2
f 169/7/2 168/7/2 170/7/2
f 171/7/2 172/7/2 173/7/2
f 173/7/2 172/7/2 174/7/2
f 177/4/3 176/4/3 175/4/3
f 178/4/3 176/4/3 177/4/3
f 181/1/3 180/1/3 179/1/3
f 182/1/3 180/1/3 181/1/3
f 185/7/3 184/7/3 183/7/3
f 186/7/3 184/7/3 185/7/3
f 187/7/3 185/7/3 183/7/3
f 187/6/3 186/6/3 185/6/3
f 188/7/3 184/7/3 186/7/3
f 188/6/3 186/6/3 187/6/3
f 189/7/3 187/7/3 183/7/3
f 189/7/3 188/7/3 187/7/3
f 190/7/3 184/7/3 188/7/3
f 190/7/3 188/7/3 189/7/3
f 193/7/3 192/7/3 191/7/3
f 194/7/3 192/7/3 193/7/3
f 195/7/3 193/7/3 191/7/3
f 195/6/3 194/6/3 193/6/3
f 196/7/3 192/7/3 194/7/3
f 196/6/3 194/6/3 195/6/3
f 197/7/3 195/7/3 191/7/3
f 197/7/3 196/7/3 195/7/3
f 198/7/3 192/7/3 196/7/3
f 198/7/3 196/7/3 197/7/3
f 202/7/3 200/7/3 199/7/3
f 204/7/3 202/7/3 201/7/3
f 205/7/3 200/7/3 202/7/3
f 205/7/3 204/7/3 203/7/3
f 205/7/3 202/7/3 204/7/3
f 206/7/3 200/7/3 205/7/3
f 207/7/3 205/7/3 203/7/3
f 208/7/3 205/7/3 207/7/3
f 209/7/3 207/7/3 203/7/3
f 210/7/3 207/7/3 209/7/3
f 211/7/3 205/7/3 208/7/3
f 212/7/3 205/7/3 211/7/3
f 213/7/3 200/7/3 206/7/3
f 214/7/3 212/7/3 211/7/3
f 214/7/3 213/7/3 212/7/3
f 215/7/3 200/7/3 213/7/3
f 215/7/3 213/7/3 214/7/3
f 216/7/3 209/7/3 203/7/3
f 218/7/3 214/7/3 211/7/3
f 219/7/3 217/7/3 216/7/3
f 220/7/3 214/7/3 218/7/3
f 221/7/3 214/7/3 220/7/3
f 221/7/3 220/7/3 219/7/3
f 222/7/3 200/7/3 215/7/3
f 223/7/3 219/7/3 216/7/3
f 223/7/3 222/7/3 221/7/3
f 223/7/3 221/7/3 219/7/3
f 223/7/3 216/7/3 203/7/3
f 224/7/3 222/7/3 223/7/3
f 225/7/3 222/7/3 224/7/3
f 226/7/3 222/7/3 225/7/3
f 227/7/3 222/7/3 226/7/3
f 228/7/3 200/7/3 222/7/3
f 228/7/3 222/7/3 227/7/3
f 234/7/3 232/7/3 231/7/3
f 235/7/3 232/7/3 234/7/3
f 236/7/3 234/7/3 233/7/3
f 237/7/3 234/7/3 236/7/3
f 238/2/3 230/2/3 229/2/3
f 239/2/3 230/2/3 238/2/3
f 244/7/3 243/7/3 242/7/3
f 245/7/3 243/7/3 244/7/3
f 247/2/3 241/2/3 240/2/3
f 248/2/3 241/2/3 247/2/3
f 249/7/3 246/7/3 245/7/3
f 250/7/3 246/7/3 249/7/3
f 253/7/3 252/7/3 251/7/3
f 254/7/3 252/7/3 253/7/3
f 257/1/3 256/1/3 255/1/3
f 258/1/3 256/1/3 257/1/3
f 261/7/3 260/7/3 259/7/3
f 262/7/3 260/7/3 261/7/3
f 265/7/3 264/7/3 263/7/3
f 266/7/3 264/7/3 265/7/3
f 269/7/3 268/7/3 267/7/3
f 270/7/3 268/7/3 269/7/3
f 273/2/3 272/2/3 271/2/3
f 274/2/3 272/2/3 273/2/3
f 277/1/3 276/1/3 275/1/3
f 278/1/3 276/1/3 277/1/3
f 281/2/3 280/2/3 279/2/3
f 282/2/3 280/2/3 281/2/3
f 285/1/3 284/1/3 283/1/3
f 286/1/3 284/1/3 285/1/3
f 289/7/3 288/7/3 287/7/3
f 290/7/3 288/7/3 289/7/3
f 293/7/3 292/7/3 291/7/3
f 294/7/3 292/7/3 293/7/3
f 295/7/4 296/7/4 297/7/4
f 297/7/4 296/7/4 298/7/4
f 299/2/4 300/2/4 301/2/4
f 301/2/4 300/2/4 302/2/4
f 303/2/4 304/2/4 305/2/4
f 305/2/4 304/2/4 306/2/4
f 307/2/4 308/2/4 309/2/4
f 309/2/4 308/2/4 310/2/4
f 311/2/4 312/2/4 313/2/4
f 313/2/4 312/2/4 314/2/4
f 315/1/4 316/1/4 317/1/4
f 317/1/4 316/1/4 318/1/4
f 319/1/4 320/1/4 321/1/4
f 321/1/4 320/1/4 322/1/4
f 323/7/4 324/7/4 325/7/4
f 325/7/4 324/7/4 326/7/4
f 327/7/4 328/7/4 331/7/4
f 331/7/4 328/7/4 332/7/4
f 329/7/4 330/7/4 333/7/4
f 333/7/4 330/7/4 334/7/4
f 335/7/4 336/7/4 337/7/4
f 337/7/4 336/7/4 338/7/4
f 339/7/4 340/7/4 341/7/4
f 341/7/4 340/7/4 342/7/4
f 343/7/4 344/7/4 345/7/4
f 345/7/4 344/7/4 346/7/4
f 346/7/4 344/7/4 348/7/4
f 347/7/4 348/7/4 349/7/4
f 348/7/4 344/7/4 350/7/4
f 349/7/4 348/7/4 350/7/4
f 351/7/4 352/7/4 353/7/4
f 353/7/4 352/7/4 354/7/4
f 359/2/5 356/2/5 355/2/5
f 360/2/5 356/2/5 359/2/5
f 361/2/5 356/2/5 360/2/5
f 362/2/5 356/2/5 361/2/5
f 363/2/5 358/2/5 357/2/5
f 364/2/5 358/2/5 363/2/5
f 365/2/5 358/2/5 364/2/5
f 366/2/5 358/2/5 365/2/5
f 367/2/5 359/2/5 355/2/5
f 367/7/5 360/7/5 359/7/5
f 368/2/5 361/2/5 360/2/5
f 368/7/5 360/7/5 367/7/5
f 369/7/5 362/7/5 361/7/5
f 369/2/5 361/2/5 368/2/5
f 370/2/5 356/2/5 362/2/5
f 370/7/5 362/7/5 369/7/5
f 371/2/5 363/2/5 357/2/5
f 371/7/5 364/7/5 363/7/5
f 372/2/5 365/2/5 364/2/5
f 372/7/5 364/7/5 371/7/5
f 373/7/5 366/7/5 365/7/5
f 373/2/5 365/2/5 372/2/5
f 374/2/5 358/2/5 366/2/5
f 374/7/5 366/7/5 373/7/5
f 375/2/5 369/2/5 368/2/5
f 375/2/5 367/2/5 355/2/5
f 375/2/5 368/2/5 367/2/5
f 375/2/5 370/2/5 369/2/5
f 376/2/5 356/2/5 370/2/5
f 376/2/5 370/2/5 375/2/5
f 377/2/5 373/2/5 372/2/5
f 377/2/5 372/2/5 371/2/5
f 377/2/5 374/2/5 373/2/5
f 377/2/5 371/2/5 357/2/5
f 378/2/5 358/2/5 374/2/5
f 378/2/5 374/2/5 377/2/5
f 382/7/5 380/7/5 379/7/5
f 383/7/5 380/7/5 382/7/5
f 386/7/5 382/7/5 381/7/5
f 386/7/5 384/7/5 383/7/5
f 386/7/5 383/7/5 382/7/5
f 387/7/5 384/7/5 386/7/5
f 389/7/5 386/7/5 385/7/5
f 389/7/5 388/7/5 387/7/5
f 389/7/5 387/7/5 386/7/5
f 390/7/5 388/7/5 389/7/5
f 391/7/5 388/7/5 390/7/5
f 392/7/5 388/7/5 391/7/5
f 393/7/5 391/7/5 390/7/5
f 394/7/5 393/7/5 390/7/5
f 395/7/5 389/7/5 385/7/5
f 396/7/5 394/7/5 390/7/5
f 397/7/5 394/7/5 396/7/5
f 398/7/5 388/7/5 392/7/5
f 399/7/5 397/7/5 396/7/5
f 399/7/5 398/7/5 397/7/5
f 399/7/5 396/7/5 395/7/5
f 399/7/5 395/7/5 385/7/5
f 400/7/5 388/7/5 398/7/5
f 400/7/5 398/7/5 399/7/5
f 406/7/5 402/7/5 401/7/5
f 407/7/5 402/7/5 406/7/5
f 408/7/5 404/7/5 403/7/5
f 409/7/5 404/7/5 408/7/5
f 411/7/5 406/7/5 405/7/5
f 412/7/5 406/7/5 411/7/5
f 413/7/5 410/7/5 409/7/5
f 414/7/5 410/7/5 413/7/5
f 417/7/5 416/7/5 415/7/5
f 418/7/5 416/7/5 417/7/5
f 423/7/5 420/7/5 419/7/5
f 424/7/5 420/7/5 423/7/5
f 425/7/5 422/7/5 421/7/5
f 426/7/5 422/7/5 425/7/5
f 429/7/5 428/7/5 427/7/5
f 430/7/5 428/7/5 429/7/5
f 431/7/5 428/7/5 430/7/5
f 432/7/5 428/7/5 431/7/5
f 433/7/5 431/7/5 430/7/5
f 434/7/5 431/7/5 433/7/5
f 439/7/5 436/7/5 435/7/5
f 440/7/5 436/7/5 439/7/5
f 441/7/5 438/7/5 437/7/5
f 442/7/5 438/7/5 441/7/5
f 445/1/5 444/1/5 443/1/5
f 446/1/5 444/1/5 445/1/5
f 449/7/5 448/7/5 447/7/5
f 450/7/5 448/7/5 449/7/5
f 453/7/5 452/7/5 451/7/5
f 454/7/5 452/7/5 453/7/5
f 457/4/5 456/4/5 455/4/5
f 458/4/5 456/4/5 457/4/5
f 459/4/5 457/4/5 455/4/5
f 460/4/5 457/4/5 459/4/5
f 461/4/5 456/4/5 458/4/5
f 462/4/5 456/4/5 461/4/5
f 467/7/5 464/7/5 463/7/5
f 468/7/5 464/7/5 467/7/5
f 469/7/5 466/7/5 465/7/5
f 470/7/5 466/7/5 469/7/5
f 471/2/6 472/2/6 475/2/6
f 475/2/6 472/2/6 476/2/6
f 473/2/6 474/2/6 477/2/6
f 477/2/6 474/2/6 478/2/6
f 471/2/6 475/2/6 479/2/6
f 478/2/6 474/2/6 482/2/6
f 479/2/6 480/2/6 483/2/6
f 471/2/6 479/2/6 483/2/6
f 483/2/6 480/2/6 484/2/6
f 481/2/6 482/2/6 485/2/6
f 482/2/6 474/2/6 486/2/6
f 485/2/6 482/2/6 486/2/6
f 487/7/6 488/7/6 489/7/6
f 489/7/6 488/7/6 490/7/6
f 491/7/6 492/7/6 493/7/6
f 493/7/6 492/7/6 494/7/6
f 495/7/6 496/7/6 497/7/6
f 497/7/6 496/7/6 498/7/6
f 499/4/6 500/4/6 501/4/6
f 501/4/6 500/4/6 502/4/6
f 499/4/6 501/4/6 503/4/6
f 501/5/6 502/5/6 504/5/6
f 503/4/6 501/4/6 504/4/6
f 502/4/6 500/4/6 505/4/6
f 504/5/6 502/5/6 505/5/6
f 505/4/6 500/4/6 506/4/6
f 507/7/6 508/7/6 511/7/6
f 511/7/6 508/7/6 512/7/6
f 509/7/6 510/7/6 513/7/6
f 513/7/6 510/7/6 514/7/6
f 515/7/6 516/7/6 519/7/6
f 519/7/6 516/7/6 520/7/6
f 517/7/6 518/7/6 521/7/6
f 521/7/6 518/7/6 522/7/6
f 523/7/6 524/7/6 525/7/6
f 525/7/6 524/7/6 526/7/6
f 523/7/6 525/7/6 527/7/6
f 526/7/6 524/7/6 528/7/6
f 523/7/6 527/7/6 529/7/6
f 527/7/6 528/7/6 529/7/6
f 528/7/6 524/7/6 530/7/6
f 529/7/6 528/7/6 530/7/6
f 531/1/6 532/1/6 533/1/6
f 533/1/6 532/1/6 534/1/6
f 535/1/6 536/1/6 537/1/6
f 537/1/6 536/1/6 538/1/6
f 539/1/6 540/1/6 541/1/6
f 541/1/6 540/1/6 542/1/6
f 543/1/6 544/1/6 545/1/6
f 545/1/6 544/1/6 546/1/6
