# MagicaVoxel @ Ephtracy

# group
o 

# material
mtllib Puerta.mtl
usemtl palette

# normals
vn -1 0 0
vn 1 0 0
vn 0 0 1
vn 0 0 -1
vn 0 -1 0
vn 0 1 0

# texcoords
vt 0.115234 0.5
vt 0.197266 0.5
vt 0.447266 0.5
vt 0.634766 0.5

# verts
v -2 0 1.3
v -2 0 -1.1
v -2 3.1 1.1
v -2 3.1 0.2
v -2 3.1 1.19209e-007
v -2 3.1 -0.9
v -2 3.8 1.1
v -2 3.8 0.2
v -2 3.8 1.19209e-007
v -2 3.8 -0.9
v -2 4 1.3
v -2 4 -1.1
v -1.9 3.1 1.1
v -1.9 3.1 0.2
v -1.9 3.1 1.19209e-007
v -1.9 3.1 -0.9
v -1.9 3.8 1.1
v -1.9 3.8 0.2
v -1.9 3.8 1.19209e-007
v -1.9 3.8 -0.9
v -1.8 3.1 1.1
v -1.8 3.1 0.2
v -1.8 3.1 1.19209e-007
v -1.8 3.1 -0.9
v -1.8 3.8 1.1
v -1.8 3.8 0.2
v -1.8 3.8 1.19209e-007
v -1.8 3.8 -0.9
v -1.7 0 1.3
v -1.7 0 -1.1
v -1.7 1.8 -0.6
v -1.7 1.8 -0.9
v -1.7 2.1 -0.6
v -1.7 2.1 -0.9
v -1.7 3.1 1.1
v -1.7 3.1 0.2
v -1.7 3.1 1.19209e-007
v -1.7 3.1 -0.9
v -1.7 3.8 1.1
v -1.7 3.8 0.2
v -1.7 3.8 1.19209e-007
v -1.7 3.8 -0.9
v -1.7 4 1.3
v -1.7 4 -1.1
v -1.6 1.8 -0.6
v -1.6 1.8 -0.9
v -1.6 1.9 -0.7
v -1.6 1.9 -0.8
v -1.6 2 -0.7
v -1.6 2 -0.8
v -1.6 2.1 -0.6
v -1.6 2.1 -0.9
v -1.5 1.9 -0.7
v -1.5 1.9 -0.8
v -1.5 2 -0.7
v -1.5 2 -0.8
v -2 0 1.3
v -2 4 1.3
v -1.7 0 1.3
v -1.7 4 1.3
v -2 3.1 0.2
v -2 3.8 0.2
v -1.9 3.1 0.2
v -1.9 3.8 0.2
v -1.8 3.1 0.2
v -1.8 3.8 0.2
v -1.7 3.1 0.2
v -1.7 3.8 0.2
v -1.7 1.8 -0.6
v -1.7 2.1 -0.6
v -1.6 1.8 -0.6
v -1.6 2.1 -0.6
v -1.6 1.9 -0.7
v -1.6 2 -0.7
v -1.5 1.9 -0.7
v -1.5 2 -0.7
v -2 3.1 -0.9
v -2 3.8 -0.9
v -1.9 3.1 -0.9
v -1.9 3.8 -0.9
v -1.8 3.1 -0.9
v -1.8 3.8 -0.9
v -1.7 3.1 -0.9
v -1.7 3.8 -0.9
v -2 3.1 1.1
v -2 3.8 1.1
v -1.9 3.1 1.1
v -1.9 3.8 1.1
v -1.8 3.1 1.1
v -1.8 3.8 1.1
v -1.7 3.1 1.1
v -1.7 3.8 1.1
v -2 3.1 1.19209e-007
v -2 3.8 1.19209e-007
v -1.9 3.1 1.19209e-007
v -1.9 3.8 1.19209e-007
v -1.8 3.1 1.19209e-007
v -1.8 3.8 1.19209e-007
v -1.7 3.1 1.19209e-007
v -1.7 3.8 1.19209e-007
v -1.6 1.9 -0.8
v -1.6 2 -0.8
v -1.5 1.9 -0.8
v -1.5 2 -0.8
v -1.7 1.8 -0.9
v -1.7 2.1 -0.9
v -1.6 1.8 -0.9
v -1.6 2.1 -0.9
v -2 0 -1.1
v -2 4 -1.1
v -1.7 0 -1.1
v -1.7 4 -1.1
v -2 0 1.3
v -1.7 0 1.3
v -1.9 0 1.2
v -1.8 0 1.2
v -1.9 0 -1
v -1.8 0 -1
v -2 0 -1.1
v -1.7 0 -1.1
v -1.7 1.8 -0.6
v -1.6 1.8 -0.6
v -1.7 1.8 -0.9
v -1.6 1.8 -0.9
v -1.6 1.9 -0.7
v -1.5 1.9 -0.7
v -1.6 1.9 -0.8
v -1.5 1.9 -0.8
v -2 3.8 1.1
v -1.9 3.8 1.1
v -1.8 3.8 1.1
v -1.7 3.8 1.1
v -2 3.8 0.2
v -1.9 3.8 0.2
v -1.8 3.8 0.2
v -1.7 3.8 0.2
v -2 3.8 1.19209e-007
v -1.9 3.8 1.19209e-007
v -1.8 3.8 1.19209e-007
v -1.7 3.8 1.19209e-007
v -2 3.8 -0.9
v -1.9 3.8 -0.9
v -1.8 3.8 -0.9
v -1.7 3.8 -0.9
v -1.6 2 -0.7
v -1.5 2 -0.7
v -1.6 2 -0.8
v -1.5 2 -0.8
v -1.7 2.1 -0.6
v -1.6 2.1 -0.6
v -1.7 2.1 -0.9
v -1.6 2.1 -0.9
v -2 3.1 1.1
v -1.9 3.1 1.1
v -1.8 3.1 1.1
v -1.7 3.1 1.1
v -2 3.1 0.2
v -1.9 3.1 0.2
v -1.8 3.1 0.2
v -1.7 3.1 0.2
v -2 3.1 1.19209e-007
v -1.9 3.1 1.19209e-007
v -1.8 3.1 1.19209e-007
v -1.7 3.1 1.19209e-007
v -2 3.1 -0.9
v -1.9 3.1 -0.9
v -1.8 3.1 -0.9
v -1.7 3.1 -0.9
v -2 4 1.3
v -1.7 4 1.3
v -2 4 -1.1
v -1.7 4 -1.1

# faces
f 3/2/1 2/2/1 1/2/1
f 4/2/1 2/2/1 3/2/1
f 5/2/1 2/2/1 4/2/1
f 6/2/1 2/2/1 5/2/1
f 7/2/1 3/2/1 1/2/1
f 8/2/1 5/2/1 4/2/1
f 9/2/1 5/2/1 8/2/1
f 10/2/1 2/2/1 6/2/1
f 11/2/1 9/2/1 8/2/1
f 11/2/1 10/2/1 9/2/1
f 11/2/1 7/2/1 1/2/1
f 11/2/1 8/2/1 7/2/1
f 12/2/1 2/2/1 10/2/1
f 12/2/1 10/2/1 11/2/1
f 17/4/1 14/4/1 13/4/1
f 18/4/1 14/4/1 17/4/1
f 19/4/1 16/4/1 15/4/1
f 20/4/1 16/4/1 19/4/1
f 21/4/2 22/4/2 25/4/2
f 25/4/2 22/4/2 26/4/2
f 23/4/2 24/4/2 27/4/2
f 27/4/2 24/4/2 28/4/2
f 29/2/2 30/2/2 31/2/2
f 31/2/2 30/2/2 32/2/2
f 29/2/2 31/2/2 33/2/2
f 32/2/2 30/2/2 34/2/2
f 29/2/2 33/2/2 35/2/2
f 33/2/2 34/2/2 35/2/2
f 35/2/2 34/2/2 36/2/2
f 36/2/2 34/2/2 37/2/2
f 34/2/2 30/2/2 38/2/2
f 37/2/2 34/2/2 38/2/2
f 29/2/2 35/2/2 39/2/2
f 36/2/2 37/2/2 40/2/2
f 40/2/2 37/2/2 41/2/2
f 38/2/2 30/2/2 42/2/2
f 29/2/2 39/2/2 43/2/2
f 41/2/2 42/2/2 43/2/2
f 40/2/2 41/2/2 43/2/2
f 39/2/2 40/2/2 43/2/2
f 42/2/2 30/2/2 44/2/2
f 43/2/2 42/2/2 44/2/2
f 45/1/2 46/1/2 47/1/2
f 47/1/2 46/1/2 48/1/2
f 45/1/2 47/1/2 49/1/2
f 48/1/2 46/1/2 50/1/2
f 45/1/2 49/1/2 51/1/2
f 49/1/2 50/1/2 51/1/2
f 50/1/2 46/1/2 52/1/2
f 51/1/2 50/1/2 52/1/2
f 53/1/2 54/1/2 55/1/2
f 55/1/2 54/1/2 56/1/2
f 59/2/3 58/2/3 57/2/3
f 60/2/3 58/2/3 59/2/3
f 63/2/3 62/2/3 61/2/3
f 64/2/3 62/2/3 63/2/3
f 67/2/3 66/2/3 65/2/3
f 68/2/3 66/2/3 67/2/3
f 71/1/3 70/1/3 69/1/3
f 72/1/3 70/1/3 71/1/3
f 75/1/3 74/1/3 73/1/3
f 76/1/3 74/1/3 75/1/3
f 79/2/3 78/2/3 77/2/3
f 80/2/3 78/2/3 79/2/3
f 83/2/3 82/2/3 81/2/3
f 84/2/3 82/2/3 83/2/3
f 85/2/4 86/2/4 87/2/4
f 87/2/4 86/2/4 88/2/4
f 89/2/4 90/2/4 91/2/4
f 91/2/4 90/2/4 92/2/4
f 93/2/4 94/2/4 95/2/4
f 95/2/4 94/2/4 96/2/4
f 97/2/4 98/2/4 99/2/4
f 99/2/4 98/2/4 100/2/4
f 101/1/4 102/1/4 103/1/4
f 103/1/4 102/1/4 104/1/4
f 105/1/4 106/1/4 107/1/4
f 107/1/4 106/1/4 108/1/4
f 109/2/4 110/2/4 111/2/4
f 111/2/4 110/2/4 112/2/4
f 115/2/5 114/2/5 113/2/5
f 116/2/5 114/2/5 115/2/5
f 117/2/5 115/2/5 113/2/5
f 117/3/5 116/3/5 115/3/5
f 118/2/5 114/2/5 116/2/5
f 118/3/5 116/3/5 117/3/5
f 119/2/5 117/2/5 113/2/5
f 119/2/5 118/2/5 117/2/5
f 120/2/5 114/2/5 118/2/5
f 120/2/5 118/2/5 119/2/5
f 123/1/5 122/1/5 121/1/5
f 124/1/5 122/1/5 123/1/5
f 127/1/5 126/1/5 125/1/5
f 128/1/5 126/1/5 127/1/5
f 133/2/5 130/2/5 129/2/5
f 134/2/5 130/2/5 133/2/5
f 135/2/5 132/2/5 131/2/5
f 136/2/5 132/2/5 135/2/5
f 141/2/5 138/2/5 137/2/5
f 142/2/5 138/2/5 141/2/5
f 143/2/5 140/2/5 139/2/5
f 144/2/5 140/2/5 143/2/5
f 145/1/6 146/1/6 147/1/6
f 147/1/6 146/1/6 148/1/6
f 149/1/6 150/1/6 151/1/6
f 151/1/6 150/1/6 152/1/6
f 153/2/6 154/2/6 157/2/6
f 157/2/6 154/2/6 158/2/6
f 155/2/6 156/2/6 159/2/6
f 159/2/6 156/2/6 160/2/6
f 161/2/6 162/2/6 165/2/6
f 165/2/6 162/2/6 166/2/6
f 163/2/6 164/2/6 167/2/6
f 167/2/6 164/2/6 168/2/6
f 169/2/6 170/2/6 171/2/6
f 171/2/6 170/2/6 172/2/6
