# MagicaVoxel @ Ephtracy

# group
o 

# material
mtllib Siete.mtl
usemtl palette

# normals
vn -1 0 0
vn 1 0 0
vn 0 0 1
vn 0 0 -1
vn 0 -1 0
vn 0 1 0

# texcoords
vt 0.322266 0.5
vt 0.474609 0.5
vt 0.482422 0.5
vt 0.751953 0.5
vt 0.791016 0.5
vt 0.908203 0.5

# verts
v -1.4 0 -0.5
v -1.4 0 -0.9
v -1.4 0.1 -0.9
v -1.4 0.1 -1
v -1.4 1.3 1
v -1.4 1.3 -0.5
v -1.4 1.8 1
v -1.4 1.8 -0.5
v -1.4 2.6 1
v -1.4 2.6 -0.5
v -1.4 3 1
v -1.4 3 0.9
v -1.4 3 -0.9
v -1.4 3 -1
v -1.4 3.1 0.9
v -1.4 3.1 -0.9
v -0.5 0 -0.5
v -0.5 0 -0.9
v -0.5 0.1 -0.9
v -0.5 0.1 -1
v -0.5 1.3 1
v -0.5 1.3 -0.5
v -0.5 1.4 0.4
v -0.5 1.4 -0.4
v -0.5 1.5 0.4
v -0.5 1.5 -0.4
v -0.5 1.7 0.4
v -0.5 1.7 -0.4
v -0.5 1.8 1
v -0.5 1.8 -0.5
v -0.5 2.6 1
v -0.5 2.6 0.7
v -0.5 2.6 0.3
v -0.5 2.6 -0.3
v -0.5 2.6 -0.5
v -0.5 2.6 -0.7
v -0.5 2.8 0.3
v -0.5 2.8 -0.7
v -0.5 2.9 0.3
v -0.5 2.9 -0.7
v -0.5 3 1
v -0.5 3 0.9
v -0.5 3 0.7
v -0.5 3 0.3
v -0.5 3 -0.3
v -0.5 3 -0.7
v -0.5 3 -0.9
v -0.5 3 -1
v -0.5 3.1 0.9
v -0.5 3.1 -0.9
v -0.4 1.4 0.4
v -0.4 1.4 -0.4
v -0.4 1.5 0.4
v -0.4 1.5 0.2
v -0.4 1.5 -0.2
v -0.4 1.5 -0.4
v -0.4 1.6 0.2
v -0.4 1.6 -0.2
v -0.4 1.7 0.4
v -0.4 1.7 -0.4
v -0.4 2.6 0.7
v -0.4 2.6 0.6
v -0.4 2.6 0.5
v -0.4 2.6 0.3
v -0.4 2.6 -0.3
v -0.4 2.6 -0.4
v -0.4 2.6 -0.5
v -0.4 2.6 -0.7
v -0.4 2.8 0.5
v -0.4 2.8 0.3
v -0.4 2.8 -0.5
v -0.4 2.8 -0.7
v -0.4 2.9 0.6
v -0.4 2.9 0.3
v -0.4 2.9 -0.4
v -0.4 2.9 -0.7
v -0.4 3 0.7
v -0.4 3 0.3
v -0.4 3 -0.3
v -0.4 3 -0.7
v -1.4 1.3 1
v -1.4 1.8 1
v -1.4 2.6 1
v -1.4 3 1
v -0.5 1.3 1
v -0.5 1.8 1
v -0.5 2.6 1
v -0.5 3 1
v -1.4 3 0.9
v -1.4 3.1 0.9
v -0.5 3 0.9
v -0.5 3.1 0.9
v -0.5 2.6 0.7
v -0.5 3 0.7
v -0.4 2.6 0.7
v -0.4 3 0.7
v -0.5 1.4 0.4
v -0.5 1.5 0.4
v -0.5 1.7 0.4
v -0.4 1.4 0.4
v -0.4 1.5 0.4
v -0.4 1.7 0.4
v -0.5 2.6 -0.3
v -0.5 3 -0.3
v -0.4 2.6 -0.3
v -0.4 3 -0.3
v -1.4 0 -0.5
v -1.4 1.3 -0.5
v -1.4 1.8 -0.5
v -1.4 2.6 -0.5
v -0.5 0 -0.5
v -0.5 1.3 -0.5
v -0.5 1.8 -0.5
v -0.5 2.6 -0.5
v -0.5 2.6 0.3
v -0.5 2.8 0.3
v -0.5 2.9 0.3
v -0.5 3 0.3
v -0.4 2.6 0.3
v -0.4 2.8 0.3
v -0.4 2.9 0.3
v -0.4 3 0.3
v -0.5 1.4 -0.4
v -0.5 1.5 -0.4
v -0.5 1.7 -0.4
v -0.4 1.4 -0.4
v -0.4 1.5 -0.4
v -0.4 1.7 -0.4
v -0.5 2.6 -0.7
v -0.5 2.8 -0.7
v -0.5 2.9 -0.7
v -0.5 3 -0.7
v -0.4 2.6 -0.7
v -0.4 2.8 -0.7
v -0.4 2.9 -0.7
v -0.4 3 -0.7
v -1.4 0 -0.9
v -1.4 0.1 -0.9
v -1.4 3 -0.9
v -1.4 3.1 -0.9
v -0.5 0 -0.9
v -0.5 0.1 -0.9
v -0.5 3 -0.9
v -0.5 3.1 -0.9
v -1.4 0.1 -1
v -1.4 3 -1
v -0.5 0.1 -1
v -0.5 3 -1
v -1.4 0 -0.5
v -0.5 0 -0.5
v -1.4 0 -0.9
v -0.5 0 -0.9
v -1.4 0.1 -0.9
v -0.5 0.1 -0.9
v -1.4 0.1 -1
v -0.5 0.1 -1
v -1.4 1.3 1
v -0.5 1.3 1
v -1.4 1.3 -0.5
v -0.5 1.3 -0.5
v -0.5 1.4 0.4
v -0.4 1.4 0.4
v -0.5 1.4 -0.4
v -0.4 1.4 -0.4
v -1.4 2.6 1
v -0.5 2.6 1
v -0.5 2.6 0.7
v -0.4 2.6 0.7
v -0.5 2.6 0.6
v -0.4 2.6 0.6
v -0.5 2.6 0.5
v -0.4 2.6 0.5
v -0.5 2.6 0.3
v -0.4 2.6 0.3
v -0.5 2.6 -0.3
v -0.4 2.6 -0.3
v -0.5 2.6 -0.4
v -0.4 2.6 -0.4
v -1.4 2.6 -0.5
v -0.5 2.6 -0.5
v -0.4 2.6 -0.5
v -0.5 2.6 -0.7
v -0.4 2.6 -0.7
v -0.5 1.7 0.4
v -0.4 1.7 0.4
v -0.5 1.7 -0.4
v -0.4 1.7 -0.4
v -1.4 1.8 1
v -0.5 1.8 1
v -1.4 1.8 -0.5
v -0.5 1.8 -0.5
v -1.4 3 1
v -0.5 3 1
v -1.4 3 0.9
v -0.5 3 0.9
v -0.5 3 0.7
v -0.4 3 0.7
v -0.5 3 0.3
v -0.4 3 0.3
v -0.5 3 -0.3
v -0.4 3 -0.3
v -0.5 3 -0.7
v -0.4 3 -0.7
v -1.4 3 -0.9
v -0.5 3 -0.9
v -1.4 3 -1
v -0.5 3 -1
v -1.4 3.1 0.9
v -0.5 3.1 0.9
v -1.4 3.1 -0.9
v -0.5 3.1 -0.9

# faces
f 3/2/1 2/2/1 1/2/1
f 6/2/1 3/2/1 1/2/1
f 6/2/1 4/2/1 3/2/1
f 7/2/1 6/2/1 5/2/1
f 8/2/1 4/2/1 6/2/1
f 8/2/1 6/2/1 7/2/1
f 10/2/1 4/2/1 8/2/1
f 11/2/1 10/2/1 9/2/1
f 12/2/1 10/2/1 11/2/1
f 13/2/1 4/2/1 10/2/1
f 13/2/1 10/2/1 12/2/1
f 14/2/1 4/2/1 13/2/1
f 15/2/1 13/2/1 12/2/1
f 16/2/1 13/2/1 15/2/1
f 17/2/2 18/2/2 19/2/2
f 17/2/2 19/2/2 22/2/2
f 19/2/2 20/2/2 22/2/2
f 21/2/2 22/2/2 23/2/2
f 23/2/2 22/2/2 24/2/2
f 21/2/2 23/2/2 25/2/2
f 24/2/2 22/2/2 26/2/2
f 21/2/2 25/2/2 27/2/2
f 26/2/2 22/2/2 28/2/2
f 21/2/2 27/2/2 29/2/2
f 27/2/2 28/2/2 29/2/2
f 22/2/2 20/2/2 30/2/2
f 29/2/2 28/2/2 30/2/2
f 28/2/2 22/2/2 30/2/2
f 30/2/2 20/2/2 35/2/2
f 35/2/2 20/2/2 36/2/2
f 33/2/2 34/2/2 37/2/2
f 36/2/2 20/2/2 38/2/2
f 37/2/2 34/2/2 39/2/2
f 38/2/2 20/2/2 40/2/2
f 31/2/2 32/2/2 41/2/2
f 41/2/2 32/2/2 42/2/2
f 42/2/2 32/2/2 43/2/2
f 39/2/2 34/2/2 44/2/2
f 44/2/2 34/2/2 45/2/2
f 40/2/2 20/2/2 46/2/2
f 46/2/2 20/2/2 47/2/2
f 47/2/2 20/2/2 48/2/2
f 42/2/2 43/2/2 49/2/2
f 44/2/2 45/2/2 49/2/2
f 46/2/2 47/2/2 49/2/2
f 45/2/2 46/2/2 49/2/2
f 43/2/2 44/2/2 49/2/2
f 49/2/2 47/2/2 50/2/2
f 51/6/2 52/6/2 53/6/2
f 53/6/2 52/6/2 54/6/2
f 54/6/2 52/6/2 55/6/2
f 55/6/2 52/6/2 56/6/2
f 53/3/2 54/3/2 57/3/2
f 54/6/2 55/6/2 57/6/2
f 55/3/2 56/3/2 58/3/2
f 57/6/2 55/6/2 58/6/2
f 53/3/2 57/3/2 59/3/2
f 57/3/2 58/3/2 59/3/2
f 58/3/2 56/3/2 60/3/2
f 59/3/2 58/3/2 60/3/2
f 63/5/2 64/5/2 69/5/2
f 62/4/2 63/4/2 69/4/2
f 69/5/2 64/5/2 70/5/2
f 67/5/2 68/5/2 71/5/2
f 66/4/2 67/4/2 71/4/2
f 71/5/2 68/5/2 72/5/2
f 69/4/2 70/4/2 73/4/2
f 61/1/2 62/1/2 73/1/2
f 62/4/2 69/4/2 73/4/2
f 73/4/2 70/4/2 74/4/2
f 65/1/2 66/1/2 75/1/2
f 71/4/2 72/4/2 75/4/2
f 66/4/2 71/4/2 75/4/2
f 75/4/2 72/4/2 76/4/2
f 73/1/2 74/1/2 77/1/2
f 61/1/2 73/1/2 77/1/2
f 77/1/2 74/1/2 78/1/2
f 75/1/2 76/1/2 79/1/2
f 65/1/2 75/1/2 79/1/2
f 79/1/2 76/1/2 80/1/2
f 85/2/3 82/2/3 81/2/3
f 86/2/3 82/2/3 85/2/3
f 87/2/3 84/2/3 83/2/3
f 88/2/3 84/2/3 87/2/3
f 91/2/3 90/2/3 89/2/3
f 92/2/3 90/2/3 91/2/3
f 95/1/3 94/1/3 93/1/3
f 96/1/3 94/1/3 95/1/3
f 100/6/3 98/6/3 97/6/3
f 101/3/3 99/3/3 98/3/3
f 101/6/3 98/6/3 100/6/3
f 102/3/3 99/3/3 101/3/3
f 105/1/3 104/1/3 103/1/3
f 106/1/3 104/1/3 105/1/3
f 111/2/3 108/2/3 107/2/3
f 112/2/3 108/2/3 111/2/3
f 113/2/3 110/2/3 109/2/3
f 114/2/3 110/2/3 113/2/3
f 115/5/4 116/5/4 119/5/4
f 116/4/4 117/4/4 120/4/4
f 119/5/4 116/5/4 120/5/4
f 117/1/4 118/1/4 121/1/4
f 120/4/4 117/4/4 121/4/4
f 121/1/4 118/1/4 122/1/4
f 123/6/4 124/6/4 126/6/4
f 124/3/4 125/3/4 127/3/4
f 126/6/4 124/6/4 127/6/4
f 127/3/4 125/3/4 128/3/4
f 129/5/4 130/5/4 133/5/4
f 130/4/4 131/4/4 134/4/4
f 133/5/4 130/5/4 134/5/4
f 131/1/4 132/1/4 135/1/4
f 134/4/4 131/4/4 135/4/4
f 135/1/4 132/1/4 136/1/4
f 137/2/4 138/2/4 141/2/4
f 141/2/4 138/2/4 142/2/4
f 139/2/4 140/2/4 143/2/4
f 143/2/4 140/2/4 144/2/4
f 145/2/4 146/2/4 147/2/4
f 147/2/4 146/2/4 148/2/4
f 151/2/5 150/2/5 149/2/5
f 152/2/5 150/2/5 151/2/5
f 155/2/5 154/2/5 153/2/5
f 156/2/5 154/2/5 155/2/5
f 159/2/5 158/2/5 157/2/5
f 160/2/5 158/2/5 159/2/5
f 163/6/5 162/6/5 161/6/5
f 164/6/5 162/6/5 163/6/5
f 167/2/5 166/2/5 165/2/5
f 169/2/5 167/2/5 165/2/5
f 169/1/5 168/1/5 167/1/5
f 170/1/5 168/1/5 169/1/5
f 171/2/5 169/2/5 165/2/5
f 171/4/5 170/4/5 169/4/5
f 172/4/5 170/4/5 171/4/5
f 173/2/5 171/2/5 165/2/5
f 173/5/5 172/5/5 171/5/5
f 174/5/5 172/5/5 173/5/5
f 175/2/5 173/2/5 165/2/5
f 177/2/5 175/2/5 165/2/5
f 177/1/5 176/1/5 175/1/5
f 178/1/5 176/1/5 177/1/5
f 179/2/5 177/2/5 165/2/5
f 180/4/5 178/4/5 177/4/5
f 180/2/5 177/2/5 179/2/5
f 181/4/5 178/4/5 180/4/5
f 182/5/5 181/5/5 180/5/5
f 183/5/5 181/5/5 182/5/5
f 184/3/6 185/3/6 186/3/6
f 186/3/6 185/3/6 187/3/6
f 188/2/6 189/2/6 190/2/6
f 190/2/6 189/2/6 191/2/6
f 192/2/6 193/2/6 194/2/6
f 194/2/6 193/2/6 195/2/6
f 196/1/6 197/1/6 198/1/6
f 198/1/6 197/1/6 199/1/6
f 200/1/6 201/1/6 202/1/6
f 202/1/6 201/1/6 203/1/6
f 204/2/6 205/2/6 206/2/6
f 206/2/6 205/2/6 207/2/6
f 208/2/6 209/2/6 210/2/6
f 210/2/6 209/2/6 211/2/6
