# MagicaVoxel @ Ephtracy

# group
o 

# material
mtllib Tumba.mtl
usemtl palette

# normals
vn -1 0 0
vn 1 0 0
vn 0 0 1
vn 0 0 -1
vn 0 -1 0
vn 0 1 0

# texcoords
vt 0.970703 0.5
vt 0.974609 0.5
vt 0.978516 0.5

# verts
v -1 0 1.5
v -1 0 1.4
v -1 0 -2
v -1 0.2 1.4
v -1 0.2 -1.5
v -1 0.3 1.5
v -1 0.3 -1.5
v -1 2.1 -1.5
v -1 2.1 -2
v -0.9 0.3 1.4
v -0.9 0.3 -1.5
v -0.9 0.5 1.4
v -0.9 0.5 -1.5
v -0.9 2.1 -1.5
v -0.9 2.1 -1.6
v -0.9 2.1 -2
v -0.9 2.2 -1.5
v -0.9 2.2 -1.6
v -0.9 2.2 -2
v -0.3 2.8 -1.7
v -0.3 2.8 -1.9
v -0.3 2.9 -1.7
v -0.3 2.9 -1.9
v -0.1 2.2 -1.7
v -0.1 2.2 -1.9
v -0.1 2.8 -1.7
v -0.1 2.8 -1.9
v -0.1 2.9 -1.7
v -0.1 2.9 -1.9
v -0.1 3.1 -1.7
v -0.1 3.1 -1.9
v 0.1 2.2 -1.7
v 0.1 2.2 -1.9
v 0.1 2.8 -1.7
v 0.1 2.8 -1.9
v 0.1 2.9 -1.7
v 0.1 2.9 -1.9
v 0.1 3.1 -1.7
v 0.1 3.1 -1.9
v 0.3 2.8 -1.7
v 0.3 2.8 -1.9
v 0.3 2.9 -1.7
v 0.3 2.9 -1.9
v 0.9 0.3 1.4
v 0.9 0.3 -1.5
v 0.9 0.5 1.4
v 0.9 0.5 -1.5
v 0.9 2.1 -1.5
v 0.9 2.1 -1.6
v 0.9 2.1 -2
v 0.9 2.2 -1.5
v 0.9 2.2 -1.6
v 0.9 2.2 -2
v 1 0 1.5
v 1 0 -2
v 1 0.3 1.5
v 1 0.3 -1.5
v 1 0.3 -1.6
v 1 2.1 -1.5
v 1 2.1 -1.6
v 1 2.1 -2
v -1 0 1.5
v -1 0.3 1.5
v 1 0 1.5
v 1 0.3 1.5
v -0.9 0.3 1.4
v -0.9 0.5 1.4
v 0.9 0.3 1.4
v 0.9 0.5 1.4
v -1 0.3 -1.5
v -1 2.1 -1.5
v -0.9 0.3 -1.5
v -0.9 0.5 -1.5
v -0.9 2.1 -1.5
v -0.9 2.2 -1.5
v 0.9 0.3 -1.5
v 0.9 0.5 -1.5
v 0.9 2.1 -1.5
v 0.9 2.2 -1.5
v 1 0.3 -1.5
v 1 2.1 -1.5
v -0.3 2.8 -1.7
v -0.3 2.9 -1.7
v -0.1 2.2 -1.7
v -0.1 2.8 -1.7
v -0.1 2.9 -1.7
v -0.1 3.1 -1.7
v 0.1 2.2 -1.7
v 0.1 2.8 -1.7
v 0.1 2.9 -1.7
v 0.1 3.1 -1.7
v 0.3 2.8 -1.7
v 0.3 2.9 -1.7
v -0.3 2.8 -1.9
v -0.3 2.9 -1.9
v -0.1 2.2 -1.9
v -0.1 2.8 -1.9
v -0.1 2.9 -1.9
v -0.1 3.1 -1.9
v 0.1 2.2 -1.9
v 0.1 2.8 -1.9
v 0.1 2.9 -1.9
v 0.1 3.1 -1.9
v 0.3 2.8 -1.9
v 0.3 2.9 -1.9
v -1 0 -2
v -1 2.1 -2
v -0.9 2.1 -2
v -0.9 2.2 -2
v 0.9 0 -2
v 0.9 2.1 -2
v 0.9 2.2 -2
v 1 0 -2
v 1 2.1 -2
v -1 0 1.5
v 1 0 1.5
v -1 0 1.4
v 0.9 0 1.4
v -1 0 -2
v 0.9 0 -2
v 1 0 -2
v -0.3 2.8 -1.7
v -0.1 2.8 -1.7
v 0.1 2.8 -1.7
v 0.3 2.8 -1.7
v -0.3 2.8 -1.9
v -0.1 2.8 -1.9
v 0.1 2.8 -1.9
v 0.3 2.8 -1.9
v -1 0.3 1.5
v 1 0.3 1.5
v -0.9 0.3 1.4
v 0.9 0.3 1.4
v -1 0.3 -1.5
v -0.9 0.3 -1.5
v 0.9 0.3 -1.5
v 1 0.3 -1.5
v -0.9 0.5 1.4
v 0.9 0.5 1.4
v -0.9 0.5 -1.5
v 0.9 0.5 -1.5
v -1 2.1 -1.5
v -0.9 2.1 -1.5
v 0.9 2.1 -1.5
v 1 2.1 -1.5
v -0.9 2.1 -1.6
v 0.9 2.1 -1.6
v 1 2.1 -1.6
v -1 2.1 -2
v -0.9 2.1 -2
v 0.9 2.1 -2
v 1 2.1 -2
v -0.9 2.2 -1.5
v 0.9 2.2 -1.5
v -0.9 2.2 -1.6
v 0.9 2.2 -1.6
v -0.1 2.2 -1.7
v 0.1 2.2 -1.7
v -0.1 2.2 -1.9
v 0.1 2.2 -1.9
v -0.9 2.2 -2
v 0.9 2.2 -2
v -0.3 2.9 -1.7
v -0.1 2.9 -1.7
v 0.1 2.9 -1.7
v 0.3 2.9 -1.7
v -0.3 2.9 -1.9
v -0.1 2.9 -1.9
v 0.1 2.9 -1.9
v 0.3 2.9 -1.9
v -0.1 3.1 -1.7
v 0.1 3.1 -1.7
v -0.1 3.1 -1.9
v 0.1 3.1 -1.9

# faces
f 4/2/1 2/2/1 1/2/1
f 4/1/1 3/1/1 2/1/1
f 5/1/1 3/1/1 4/1/1
f 6/2/1 4/2/1 1/2/1
f 6/2/1 5/2/1 4/2/1
f 7/1/1 3/1/1 5/1/1
f 7/2/1 5/2/1 6/2/1
f 8/1/1 3/1/1 7/1/1
f 9/1/1 3/1/1 8/1/1
f 12/2/1 11/2/1 10/2/1
f 13/2/1 11/2/1 12/2/1
f 17/1/1 15/1/1 14/1/1
f 18/2/1 16/2/1 15/2/1
f 18/1/1 15/1/1 17/1/1
f 19/2/1 16/2/1 18/2/1
f 22/3/1 21/3/1 20/3/1
f 23/3/1 21/3/1 22/3/1
f 26/3/1 25/3/1 24/3/1
f 27/3/1 25/3/1 26/3/1
f 30/3/1 29/3/1 28/3/1
f 31/3/1 29/3/1 30/3/1
f 32/3/2 33/3/2 34/3/2
f 34/3/2 33/3/2 35/3/2
f 36/3/2 37/3/2 38/3/2
f 38/3/2 37/3/2 39/3/2
f 40/3/2 41/3/2 42/3/2
f 42/3/2 41/3/2 43/3/2
f 44/2/2 45/2/2 46/2/2
f 46/2/2 45/2/2 47/2/2
f 48/1/2 49/1/2 51/1/2
f 49/2/2 50/2/2 52/2/2
f 51/1/2 49/1/2 52/1/2
f 52/2/2 50/2/2 53/2/2
f 54/2/2 55/2/2 56/2/2
f 56/2/2 55/2/2 57/2/2
f 57/2/2 55/2/2 58/2/2
f 57/1/2 58/1/2 59/1/2
f 58/2/2 55/2/2 60/2/2
f 59/1/2 58/1/2 60/1/2
f 60/2/2 55/2/2 61/2/2
f 64/2/3 63/2/3 62/2/3
f 65/2/3 63/2/3 64/2/3
f 68/2/3 67/2/3 66/2/3
f 69/2/3 67/2/3 68/2/3
f 72/1/3 71/1/3 70/1/3
f 73/1/3 71/1/3 72/1/3
f 74/1/3 71/1/3 73/1/3
f 77/1/3 75/1/3 74/1/3
f 77/1/3 74/1/3 73/1/3
f 78/1/3 75/1/3 77/1/3
f 79/1/3 75/1/3 78/1/3
f 80/1/3 77/1/3 76/1/3
f 80/1/3 78/1/3 77/1/3
f 81/1/3 78/1/3 80/1/3
f 85/3/3 83/3/3 82/3/3
f 86/3/3 83/3/3 85/3/3
f 88/3/3 85/3/3 84/3/3
f 88/3/3 87/3/3 86/3/3
f 88/3/3 86/3/3 85/3/3
f 89/3/3 87/3/3 88/3/3
f 90/3/3 87/3/3 89/3/3
f 91/3/3 87/3/3 90/3/3
f 92/3/3 90/3/3 89/3/3
f 93/3/3 90/3/3 92/3/3
f 94/3/4 95/3/4 97/3/4
f 97/3/4 95/3/4 98/3/4
f 96/3/4 97/3/4 100/3/4
f 98/3/4 99/3/4 100/3/4
f 97/3/4 98/3/4 100/3/4
f 100/3/4 99/3/4 101/3/4
f 101/3/4 99/3/4 102/3/4
f 102/3/4 99/3/4 103/3/4
f 101/3/4 102/3/4 104/3/4
f 104/3/4 102/3/4 105/3/4
f 106/1/4 107/1/4 108/1/4
f 106/1/4 108/1/4 110/1/4
f 108/2/4 109/2/4 111/2/4
f 110/1/4 108/1/4 111/1/4
f 111/2/4 109/2/4 112/2/4
f 110/2/4 111/2/4 113/2/4
f 113/2/4 111/2/4 114/2/4
f 117/2/5 116/2/5 115/2/5
f 118/2/5 116/2/5 117/2/5
f 119/1/5 118/1/5 117/1/5
f 120/2/5 116/2/5 118/2/5
f 120/1/5 118/1/5 119/1/5
f 121/2/5 116/2/5 120/2/5
f 126/3/5 123/3/5 122/3/5
f 127/3/5 123/3/5 126/3/5
f 128/3/5 125/3/5 124/3/5
f 129/3/5 125/3/5 128/3/5
f 130/2/6 131/2/6 132/2/6
f 132/2/6 131/2/6 133/2/6
f 130/2/6 132/2/6 134/2/6
f 134/2/6 132/2/6 135/2/6
f 133/2/6 131/2/6 136/2/6
f 136/2/6 131/2/6 137/2/6
f 138/2/6 139/2/6 140/2/6
f 140/2/6 139/2/6 141/2/6
f 142/1/6 143/1/6 146/1/6
f 144/1/6 145/1/6 147/1/6
f 147/1/6 145/1/6 148/1/6
f 142/1/6 146/1/6 149/1/6
f 149/1/6 146/1/6 150/1/6
f 147/2/6 148/2/6 151/2/6
f 151/2/6 148/2/6 152/2/6
f 153/1/6 154/1/6 155/1/6
f 155/1/6 154/1/6 156/1/6
f 155/2/6 156/2/6 157/2/6
f 157/2/6 156/2/6 158/2/6
f 155/2/6 157/2/6 159/2/6
f 158/2/6 156/2/6 160/2/6
f 155/2/6 159/2/6 161/2/6
f 159/2/6 160/2/6 161/2/6
f 160/2/6 156/2/6 162/2/6
f 161/2/6 160/2/6 162/2/6
f 163/3/6 164/3/6 167/3/6
f 167/3/6 164/3/6 168/3/6
f 165/3/6 166/3/6 169/3/6
f 169/3/6 166/3/6 170/3/6
f 171/3/6 172/3/6 173/3/6
f 173/3/6 172/3/6 174/3/6
