# MagicaVoxel @ Ephtracy

# group
o 

# material
mtllib Cuatro.mtl
usemtl palette

# normals
vn -1 0 0
vn 1 0 0
vn 0 0 1
vn 0 0 -1
vn 0 -1 0
vn 0 1 0

# texcoords
vt 0.474609 0.5
vt 0.751953 0.5
vt 0.791016 0.5
vt 0.908203 0.5

# verts
v -2 0 -0.5
v -2 0 -1
v -2 1.5 1
v -2 1.5 -0.5
v -2 2 0.5
v -2 2 -0.5
v -2 3 1
v -2 3 0.5
v -2 3 -0.5
v -2 3 -1
v -0.5 0 -0.5
v -0.5 0 -1
v -0.5 1.5 1
v -0.5 1.5 -0.5
v -0.5 1.6 0.2
v -0.5 1.6 -0.2
v -0.5 1.7 0.4
v -0.5 1.7 0.2
v -0.5 1.7 -0.2
v -0.5 1.7 -0.4
v -0.5 1.9 0.4
v -0.5 1.9 -0.4
v -0.5 2 0.5
v -0.5 2 -0.5
v -0.5 2.4 0.9
v -0.5 2.4 0.8
v -0.5 2.4 0.5
v -0.5 2.4 -0.6
v -0.5 2.4 -0.7
v -0.5 2.4 -1
v -0.5 2.8 0.9
v -0.5 2.8 0.5
v -0.5 2.8 -0.6
v -0.5 2.8 -1
v -0.5 3 1
v -0.5 3 0.5
v -0.5 3 -0.5
v -0.5 3 -1
v -0.4 1.6 0.2
v -0.4 1.6 -0.2
v -0.4 1.7 0.4
v -0.4 1.7 0.2
v -0.4 1.7 -0.2
v -0.4 1.7 -0.4
v -0.4 1.9 0.4
v -0.4 1.9 -0.4
v -0.4 2.4 0.9
v -0.4 2.4 0.8
v -0.4 2.4 0.5
v -0.4 2.4 -0.6
v -0.4 2.4 -0.7
v -0.4 2.4 -1
v -0.4 2.7 0.8
v -0.4 2.7 0.5
v -0.4 2.7 -0.7
v -0.4 2.7 -1
v -0.4 2.8 0.9
v -0.4 2.8 0.5
v -0.4 2.8 -0.6
v -0.4 2.8 -1
v -2 1.5 1
v -2 3 1
v -0.5 1.5 1
v -0.5 3 1
v -0.5 2.4 0.9
v -0.5 2.8 0.9
v -0.4 2.4 0.9
v -0.4 2.8 0.9
v -0.5 1.7 0.4
v -0.5 1.9 0.4
v -0.4 1.7 0.4
v -0.4 1.9 0.4
v -0.5 1.6 0.2
v -0.5 1.7 0.2
v -0.4 1.6 0.2
v -0.4 1.7 0.2
v -2 0 -0.5
v -2 1.5 -0.5
v -2 2 -0.5
v -2 3 -0.5
v -0.5 0 -0.5
v -0.5 1.5 -0.5
v -0.5 2 -0.5
v -0.5 3 -0.5
v -0.5 2.4 -0.6
v -0.5 2.8 -0.6
v -0.4 2.4 -0.6
v -0.4 2.8 -0.6
v -2 2 0.5
v -2 3 0.5
v -0.5 2 0.5
v -0.5 2.4 0.5
v -0.5 2.7 0.5
v -0.5 2.8 0.5
v -0.5 3 0.5
v -0.4 2.4 0.5
v -0.4 2.7 0.5
v -0.4 2.8 0.5
v -0.5 1.6 -0.2
v -0.5 1.7 -0.2
v -0.4 1.6 -0.2
v -0.4 1.7 -0.2
v -0.5 1.7 -0.4
v -0.5 1.9 -0.4
v -0.4 1.7 -0.4
v -0.4 1.9 -0.4
v -2 0 -1
v -2 3 -1
v -0.5 0 -1
v -0.5 2.4 -1
v -0.5 2.7 -1
v -0.5 2.8 -1
v -0.5 3 -1
v -0.4 2.4 -1
v -0.4 2.7 -1
v -0.4 2.8 -1
v -2 0 -0.5
v -0.5 0 -0.5
v -2 0 -1
v -0.5 0 -1
v -2 1.5 1
v -0.5 1.5 1
v -2 1.5 -0.5
v -0.5 1.5 -0.5
v -0.5 1.6 0.2
v -0.4 1.6 0.2
v -0.5 1.6 -0.2
v -0.4 1.6 -0.2
v -0.5 1.7 0.4
v -0.4 1.7 0.4
v -0.5 1.7 0.2
v -0.4 1.7 0.2
v -0.5 1.7 -0.2
v -0.4 1.7 -0.2
v -0.5 1.7 -0.4
v -0.4 1.7 -0.4
v -0.5 2.4 0.9
v -0.4 2.4 0.9
v -0.5 2.4 0.8
v -0.4 2.4 0.8
v -0.5 2.4 0.5
v -0.4 2.4 0.5
v -0.5 2.4 -0.6
v -0.4 2.4 -0.6
v -0.5 2.4 -0.7
v -0.4 2.4 -0.7
v -0.5 2.4 -1
v -0.4 2.4 -1
v -0.5 1.9 0.4
v -0.4 1.9 0.4
v -0.5 1.9 -0.4
v -0.4 1.9 -0.4
v -2 2 0.5
v -0.5 2 0.5
v -2 2 -0.5
v -0.5 2 -0.5
v -0.5 2.8 0.9
v -0.4 2.8 0.9
v -0.5 2.8 0.5
v -0.4 2.8 0.5
v -0.5 2.8 -0.6
v -0.4 2.8 -0.6
v -0.5 2.8 -1
v -0.4 2.8 -1
v -2 3 1
v -0.5 3 1
v -2 3 0.5
v -0.5 3 0.5
v -2 3 -0.5
v -0.5 3 -0.5
v -2 3 -1
v -0.5 3 -1

# faces
f 4/1/1 2/1/1 1/1/1
f 5/1/1 4/1/1 3/1/1
f 6/1/1 2/1/1 4/1/1
f 6/1/1 4/1/1 5/1/1
f 7/1/1 5/1/1 3/1/1
f 8/1/1 5/1/1 7/1/1
f 9/1/1 2/1/1 6/1/1
f 10/1/1 2/1/1 9/1/1
f 11/1/2 12/1/2 14/1/2
f 13/1/2 14/1/2 15/1/2
f 15/1/2 14/1/2 16/1/2
f 13/1/2 15/1/2 17/1/2
f 17/1/2 15/1/2 18/1/2
f 16/1/2 14/1/2 19/1/2
f 19/1/2 14/1/2 20/1/2
f 13/1/2 17/1/2 21/1/2
f 20/1/2 14/1/2 22/1/2
f 13/1/2 21/1/2 23/1/2
f 21/1/2 22/1/2 23/1/2
f 14/1/2 12/1/2 24/1/2
f 23/1/2 22/1/2 24/1/2
f 22/1/2 14/1/2 24/1/2
f 13/1/2 23/1/2 25/1/2
f 25/1/2 23/1/2 26/1/2
f 26/1/2 23/1/2 27/1/2
f 24/1/2 12/1/2 28/1/2
f 28/1/2 12/1/2 29/1/2
f 29/1/2 12/1/2 30/1/2
f 13/1/2 25/1/2 31/1/2
f 24/1/2 28/1/2 33/1/2
f 31/1/2 32/1/2 35/1/2
f 13/1/2 31/1/2 35/1/2
f 35/1/2 32/1/2 36/1/2
f 33/1/2 34/1/2 37/1/2
f 24/1/2 33/1/2 37/1/2
f 37/1/2 34/1/2 38/1/2
f 39/2/2 40/2/2 42/2/2
f 42/2/2 40/2/2 43/2/2
f 41/4/2 42/4/2 45/4/2
f 43/4/2 44/4/2 45/4/2
f 42/4/2 43/4/2 45/4/2
f 45/4/2 44/4/2 46/4/2
f 48/3/2 49/3/2 53/3/2
f 47/2/2 48/2/2 53/2/2
f 53/3/2 49/3/2 54/3/2
f 51/3/2 52/3/2 55/3/2
f 50/2/2 51/2/2 55/2/2
f 55/3/2 52/3/2 56/3/2
f 53/2/2 54/2/2 57/2/2
f 47/2/2 53/2/2 57/2/2
f 57/2/2 54/2/2 58/2/2
f 55/2/2 56/2/2 59/2/2
f 50/2/2 55/2/2 59/2/2
f 59/2/2 56/2/2 60/2/2
f 63/1/3 62/1/3 61/1/3
f 64/1/3 62/1/3 63/1/3
f 67/2/3 66/2/3 65/2/3
f 68/2/3 66/2/3 67/2/3
f 71/4/3 70/4/3 69/4/3
f 72/4/3 70/4/3 71/4/3
f 75/2/3 74/2/3 73/2/3
f 76/2/3 74/2/3 75/2/3
f 81/1/3 78/1/3 77/1/3
f 82/1/3 78/1/3 81/1/3
f 83/1/3 80/1/3 79/1/3
f 84/1/3 80/1/3 83/1/3
f 87/2/3 86/2/3 85/2/3
f 88/2/3 86/2/3 87/2/3
f 89/1/4 90/1/4 91/1/4
f 91/1/4 90/1/4 92/1/4
f 92/1/4 90/1/4 93/1/4
f 93/1/4 90/1/4 94/1/4
f 94/1/4 90/1/4 95/1/4
f 92/3/4 93/3/4 96/3/4
f 93/2/4 94/2/4 97/2/4
f 96/3/4 93/3/4 97/3/4
f 97/2/4 94/2/4 98/2/4
f 99/2/4 100/2/4 101/2/4
f 101/2/4 100/2/4 102/2/4
f 103/4/4 104/4/4 105/4/4
f 105/4/4 104/4/4 106/4/4
f 107/1/4 108/1/4 109/1/4
f 109/1/4 108/1/4 110/1/4
f 110/1/4 108/1/4 111/1/4
f 111/1/4 108/1/4 112/1/4
f 112/1/4 108/1/4 113/1/4
f 110/3/4 111/3/4 114/3/4
f 111/2/4 112/2/4 115/2/4
f 114/3/4 111/3/4 115/3/4
f 115/2/4 112/2/4 116/2/4
f 119/1/5 118/1/5 117/1/5
f 120/1/5 118/1/5 119/1/5
f 123/1/5 122/1/5 121/1/5
f 124/1/5 122/1/5 123/1/5
f 127/2/5 126/2/5 125/2/5
f 128/2/5 126/2/5 127/2/5
f 131/4/5 130/4/5 129/4/5
f 132/4/5 130/4/5 131/4/5
f 135/4/5 134/4/5 133/4/5
f 136/4/5 134/4/5 135/4/5
f 139/2/5 138/2/5 137/2/5
f 140/2/5 138/2/5 139/2/5
f 141/3/5 140/3/5 139/3/5
f 142/3/5 140/3/5 141/3/5
f 145/2/5 144/2/5 143/2/5
f 146/2/5 144/2/5 145/2/5
f 147/3/5 146/3/5 145/3/5
f 148/3/5 146/3/5 147/3/5
f 149/4/6 150/4/6 151/4/6
f 151/4/6 150/4/6 152/4/6
f 153/1/6 154/1/6 155/1/6
f 155/1/6 154/1/6 156/1/6
f 157/2/6 158/2/6 159/2/6
f 159/2/6 158/2/6 160/2/6
f 161/2/6 162/2/6 163/2/6
f 163/2/6 162/2/6 164/2/6
f 165/1/6 166/1/6 167/1/6
f 167/1/6 166/1/6 168/1/6
f 169/1/6 170/1/6 171/1/6
f 171/1/6 170/1/6 172/1/6
