# MagicaVoxel @ Ephtracy

# group
o 

# material
mtllib dieciocho.mtl
usemtl palette

# normals
vn -1 0 0
vn 1 0 0
vn 0 0 1
vn 0 0 -1
vn 0 -1 0
vn 0 1 0

# texcoords
vt 0.0917969 0.5
vt 0.119141 0.5
vt 0.181641 0.5
vt 0.185547 0.5
vt 0.626953 0.5
vt 0.958984 0.5
vt 0.994141 0.5

# verts
v -4.7 0 1.5
v -4.7 0 0.0999999
v -4.7 0.9 1.5
v -4.7 0.9 0.0999999
v -4.1 5.3 1.5
v -4.1 5.3 0.0999999
v -4.1 6.7 1.5
v -4.1 6.7 0.0999999
v -3.6 0.9 1.5
v -3.6 0.9 0.0999999
v -3.6 5.3 1.5
v -3.6 5.3 0.0999999
v -3.6 7.1 1.9
v -3.6 7.1 1.5
v -3.6 7.2 1.9
v -3.6 7.2 1.5
v -3.5 6.3 1.9
v -3.5 6.3 1.5
v -3.5 6.5 1.9
v -3.5 6.5 1.8
v -3.5 6.5 1.7
v -3.5 6.7 1.5
v -3.5 6.9 1.9
v -3.5 6.9 1.8
v -3.5 6.9 1.7
v -3.5 7.1 1.9
v -3.5 7.1 1.5
v -3.4 6.5 1.9
v -3.4 6.5 1.8
v -3.4 6.9 1.9
v -3.4 6.9 1.8
v -0.6 0 1.5
v -0.6 0 0.0999999
v -0.6 6.6 1.5
v -0.6 6.6 0.0999999
v 1.4 7.5 1.9
v 1.4 7.5 1.4
v 1.4 7.7 1.9
v 1.4 7.7 1.4
v 1.5 6.4 2
v 1.5 6.4 1.5
v 1.5 6.6 1.5
v 1.5 6.6 1.4
v 1.5 6.7 2
v 1.5 6.7 1.7
v 1.5 7.3 1.9
v 1.5 7.3 1.7
v 1.5 7.5 1.9
v 1.5 7.5 1.4
v 2.5 6.6 1.7
v 2.5 6.6 1.6
v 2.5 6.7 1.7
v 2.5 7.3 1.7
v 2.5 7.3 1.6
v 2.7 1.1 1.5
v 2.7 1.1 0.0999999
v 2.7 2.9 1.5
v 2.7 2.9 0.0999999
v 2.7 3.9 1.5
v 2.7 3.9 0.0999999
v 2.7 5.4 1.5
v 2.7 5.4 0.0999999
v 2.7 7.4 1.5
v 2.7 7.4 1.4
v 2.7 7.5 2
v 2.7 7.5 1.5
v 2.7 7.7 2
v 2.7 7.7 1.4
v 2.8 6.4 2
v 2.8 6.4 1.5
v 2.8 6.6 1.5
v 2.8 6.6 1.4
v 2.8 6.7 2
v 2.8 6.7 1.7
v 2.8 7.3 1.9
v 2.8 7.3 1.7
v 2.8 7.4 1.5
v 2.8 7.4 1.4
v 2.8 7.5 1.9
v 2.8 7.5 1.5
v 3.9 6.7 1.7
v 3.9 6.7 1.6
v 3.9 7.3 1.7
v 3.9 7.3 1.6
v -3.1 6.5 1.9
v -3.1 6.5 1.8
v -3.1 6.9 1.9
v -3.1 6.9 1.8
v -2.7 6.3 1.9
v -2.7 6.3 1.5
v -2.7 6.5 1.9
v -2.7 6.5 1.8
v -2.7 6.5 1.7
v -2.7 6.7 1.5
v -2.7 6.9 1.9
v -2.7 6.9 1.8
v -2.7 6.9 1.7
v -2.7 7.1 1.9
v -2.7 7.1 1.5
v -2.6 7.1 1.9
v -2.6 7.1 1.5
v -2.6 7.2 1.9
v -2.6 7.2 1.5
v -1.9 0.9 1.5
v -1.9 0.9 0.0999999
v -1.9 6.7 1.5
v -1.9 6.7 0.0999999
v -0.8 0 1.5
v -0.8 0 0.0999999
v -0.8 0.9 1.5
v -0.8 0.9 0.0999999
v 0.9 1.1 1.5
v 0.9 1.1 0.0999999
v 0.9 2.9 1.5
v 0.9 2.9 0.0999999
v 0.9 3.9 1.5
v 0.9 3.9 0.0999999
v 0.9 5.4 1.5
v 0.9 5.4 0.0999999
v 1.6 6.6 1.7
v 1.6 6.6 1.6
v 1.6 6.7 1.7
v 1.6 7.3 1.7
v 1.6 7.3 1.6
v 2.6 6.4 2
v 2.6 6.4 1.5
v 2.6 6.6 1.5
v 2.6 6.6 1.4
v 2.6 6.7 2
v 2.6 6.7 1.7
v 2.6 7.3 1.9
v 2.6 7.3 1.7
v 2.6 7.5 1.9
v 2.6 7.5 1.5
v 2.6 7.6 1.5
v 2.6 7.6 1.4
v 2.6 7.7 1.9
v 2.6 7.7 1.4
v 2.9 6.7 1.7
v 2.9 6.7 1.6
v 2.9 7.3 1.7
v 2.9 7.3 1.6
v 4 6.4 2
v 4 6.4 1.5
v 4 6.6 1.5
v 4 6.6 1.4
v 4 6.7 2
v 4 6.7 1.7
v 4 7.3 1.9
v 4 7.3 1.7
v 4 7.5 1.9
v 4 7.5 1.5
v 4 7.6 1.5
v 4 7.6 1.4
v 4.1 7.5 2
v 4.1 7.5 1.5
v 4.1 7.6 1.5
v 4.1 7.6 1.4
v 4.1 7.7 2
v 4.1 7.7 1.4
v 4.3 0 1.5
v 4.3 0 0.0999999
v 4.3 6.6 1.5
v 4.3 6.6 0.0999999
v 1.5 6.4 2
v 1.5 6.7 2
v 2.6 6.4 2
v 2.6 6.7 2
v 2.7 7.5 2
v 2.7 7.7 2
v 2.8 6.4 2
v 2.8 6.7 2
v 4 6.4 2
v 4 6.7 2
v 4.1 7.5 2
v 4.1 7.7 2
v -3.6 7.1 1.9
v -3.6 7.2 1.9
v -3.5 6.3 1.9
v -3.5 6.5 1.9
v -3.5 6.9 1.9
v -3.5 7.1 1.9
v -3.4 6.5 1.9
v -3.4 6.9 1.9
v -3.1 6.5 1.9
v -3.1 6.9 1.9
v -2.7 6.3 1.9
v -2.7 6.5 1.9
v -2.7 6.9 1.9
v -2.7 7.1 1.9
v -2.6 7.1 1.9
v -2.6 7.2 1.9
v 1.4 7.5 1.9
v 1.4 7.7 1.9
v 1.5 7.3 1.9
v 1.5 7.5 1.9
v 2.6 7.3 1.9
v 2.6 7.5 1.9
v 2.6 7.7 1.9
v 2.8 7.3 1.9
v 2.8 7.5 1.9
v 4 7.3 1.9
v 4 7.5 1.9
v -3.5 6.5 1.8
v -3.5 6.9 1.8
v -3.4 6.5 1.8
v -3.4 6.9 1.8
v -3.1 6.5 1.8
v -3.1 6.9 1.8
v -2.7 6.5 1.8
v -2.7 6.9 1.8
v 1.5 6.7 1.7
v 1.5 7.3 1.7
v 1.6 6.7 1.7
v 1.6 7.3 1.7
v 2.5 6.7 1.7
v 2.5 7.3 1.7
v 2.6 6.7 1.7
v 2.6 7.3 1.7
v 2.8 6.7 1.7
v 2.8 7.3 1.7
v 2.9 6.7 1.7
v 2.9 7.3 1.7
v 3.9 6.7 1.7
v 3.9 7.3 1.7
v 4 6.7 1.7
v 4 7.3 1.7
v 1.6 6.6 1.6
v 1.6 7.3 1.6
v 2 6.6 1.6
v 2 7.3 1.6
v 2.2 7 1.6
v 2.2 7.2 1.6
v 2.3 7 1.6
v 2.3 7.2 1.6
v 2.4 6.6 1.6
v 2.4 7.3 1.6
v 2.5 6.6 1.6
v 2.5 7.3 1.6
v 2.9 6.7 1.6
v 2.9 7.3 1.6
v 3.3 6.7 1.6
v 3.3 7.3 1.6
v 3.5 7 1.6
v 3.5 7.2 1.6
v 3.6 7 1.6
v 3.6 7.2 1.6
v 3.8 6.7 1.6
v 3.8 7.3 1.6
v 3.9 6.7 1.6
v 3.9 7.3 1.6
v -4.7 0 1.5
v -4.7 0.9 1.5
v -4.1 5.3 1.5
v -4.1 6.7 1.5
v -3.6 0.9 1.5
v -3.6 5.3 1.5
v -3.5 6.3 1.5
v -3.5 6.7 1.5
v -2.7 6.3 1.5
v -2.7 6.7 1.5
v -1.9 0.9 1.5
v -1.9 6.7 1.5
v -0.8 0 1.5
v -0.8 0.9 1.5
v -0.6 0 1.5
v -0.6 6.6 1.5
v 0.9 1.1 1.5
v 0.9 2.9 1.5
v 0.9 3.9 1.5
v 0.9 5.4 1.5
v 1.5 6.4 1.5
v 1.5 6.6 1.5
v 2.6 6.4 1.5
v 2.6 6.6 1.5
v 2.7 1.1 1.5
v 2.7 2.9 1.5
v 2.7 3.9 1.5
v 2.7 5.4 1.5
v 2.7 7.4 1.5
v 2.7 7.5 1.5
v 2.8 6.4 1.5
v 2.8 6.6 1.5
v 2.8 7.4 1.5
v 2.8 7.5 1.5
v 4 6.4 1.5
v 4 6.6 1.5
v 4.3 0 1.5
v 4.3 6.6 1.5
v 1.6 6.6 1.7
v 1.6 6.7 1.7
v 2.5 6.6 1.7
v 2.5 6.7 1.7
v -3.6 7.1 1.5
v -3.6 7.2 1.5
v -3.5 6.7 1.5
v -3.5 7.1 1.5
v -2.7 6.7 1.5
v -2.7 7.1 1.5
v -2.6 7.1 1.5
v -2.6 7.2 1.5
v 4 7.5 1.5
v 4 7.6 1.5
v 4.1 7.5 1.5
v 4.1 7.6 1.5
v 1.4 7.5 1.4
v 1.4 7.7 1.4
v 1.5 6.6 1.4
v 1.5 7.5 1.4
v 1.5 7.6 1.4
v 2.6 6.6 1.4
v 2.6 7.6 1.4
v 2.6 7.7 1.4
v 2.7 7.4 1.4
v 2.7 7.7 1.4
v 2.8 6.6 1.4
v 2.8 7.4 1.4
v 2.8 7.6 1.4
v 4 6.6 1.4
v 4 7.6 1.4
v 4.1 7.6 1.4
v 4.1 7.7 1.4
v -4.7 0 0.0999999
v -4.7 0.9 0.0999999
v -4.1 5.3 0.0999999
v -4.1 6.7 0.0999999
v -3.6 0.9 0.0999999
v -3.6 5.3 0.0999999
v -1.9 0.9 0.0999999
v -1.9 6.7 0.0999999
v -0.8 0 0.0999999
v -0.8 0.9 0.0999999
v -0.6 0 0.0999999
v -0.6 6.6 0.0999999
v 0.9 1.1 0.0999999
v 0.9 2.9 0.0999999
v 0.9 3.9 0.0999999
v 0.9 5.4 0.0999999
v 2.7 1.1 0.0999999
v 2.7 2.9 0.0999999
v 2.7 3.9 0.0999999
v 2.7 5.4 0.0999999
v 4.3 0 0.0999999
v 4.3 6.6 0.0999999
v -4.7 0 1.5
v -0.8 0 1.5
v -0.6 0 1.5
v 4.3 0 1.5
v -4.7 0 0.0999999
v -0.8 0 0.0999999
v -0.6 0 0.0999999
v 4.3 0 0.0999999
v 0.9 2.9 1.5
v 2.7 2.9 1.5
v 0.9 2.9 0.0999999
v 2.7 2.9 0.0999999
v -4.1 5.3 1.5
v -3.6 5.3 1.5
v -4.1 5.3 0.0999999
v -3.6 5.3 0.0999999
v 0.9 5.4 1.5
v 2.7 5.4 1.5
v 0.9 5.4 0.0999999
v 2.7 5.4 0.0999999
v -3.5 6.3 1.9
v -2.7 6.3 1.9
v -3.5 6.3 1.5
v -2.7 6.3 1.5
v 1.5 6.4 2
v 2.6 6.4 2
v 2.8 6.4 2
v 4 6.4 2
v 1.5 6.4 1.5
v 2.6 6.4 1.5
v 2.8 6.4 1.5
v 4 6.4 1.5
v -3.5 6.9 1.9
v -3.4 6.9 1.9
v -3.1 6.9 1.9
v -2.7 6.9 1.9
v -3.5 6.9 1.8
v -3.4 6.9 1.8
v -3.1 6.9 1.8
v -2.7 6.9 1.8
v -3.6 7.1 1.9
v -3.5 7.1 1.9
v -2.7 7.1 1.9
v -2.6 7.1 1.9
v -3.6 7.1 1.5
v -3.5 7.1 1.5
v -2.7 7.1 1.5
v -2.6 7.1 1.5
v 1.5 7.3 1.9
v 2.6 7.3 1.9
v 2.8 7.3 1.9
v 4 7.3 1.9
v 1.5 7.3 1.7
v 1.6 7.3 1.7
v 2.5 7.3 1.7
v 2.6 7.3 1.7
v 2.8 7.3 1.7
v 2.9 7.3 1.7
v 3.9 7.3 1.7
v 4 7.3 1.7
v 1.6 7.3 1.6
v 2 7.3 1.6
v 2.4 7.3 1.6
v 2.5 7.3 1.6
v 2.9 7.3 1.6
v 3.3 7.3 1.6
v 3.8 7.3 1.6
v 3.9 7.3 1.6
v 2.7 7.4 1.5
v 2.8 7.4 1.5
v 2.7 7.4 1.4
v 2.8 7.4 1.4
v 2.7 7.5 2
v 4.1 7.5 2
v 1.4 7.5 1.9
v 1.5 7.5 1.9
v 2.8 7.5 1.9
v 4 7.5 1.9
v 2.7 7.5 1.5
v 2.8 7.5 1.5
v 4 7.5 1.5
v 4.1 7.5 1.5
v 1.4 7.5 1.4
v 1.5 7.5 1.4
v 4 7.6 1.5
v 4.1 7.6 1.5
v 4 7.6 1.4
v 4.1 7.6 1.4
v -4.7 0.9 1.5
v -3.6 0.9 1.5
v -1.9 0.9 1.5
v -0.8 0.9 1.5
v -4.7 0.9 0.0999999
v -3.6 0.9 0.0999999
v -1.9 0.9 0.0999999
v -0.8 0.9 0.0999999
v 0.9 1.1 1.5
v 2.7 1.1 1.5
v 0.9 1.1 0.0999999
v 2.7 1.1 0.0999999
v 0.9 3.9 1.5
v 2.7 3.9 1.5
v 0.9 3.9 0.0999999
v 2.7 3.9 0.0999999
v -3.5 6.5 1.9
v -3.4 6.5 1.9
v -3.1 6.5 1.9
v -2.7 6.5 1.9
v -3.5 6.5 1.8
v -3.4 6.5 1.8
v -3.1 6.5 1.8
v -2.7 6.5 1.8
v 1.6 6.6 1.7
v 2.5 6.6 1.7
v 1.6 6.6 1.6
v 2 6.6 1.6
v 2.4 6.6 1.6
v 2.5 6.6 1.6
v -0.6 6.6 1.5
v 1.5 6.6 1.5
v 2.6 6.6 1.5
v 2.8 6.6 1.5
v 4 6.6 1.5
v 4.3 6.6 1.5
v 1.5 6.6 1.4
v 2.6 6.6 1.4
v 2.8 6.6 1.4
v 4 6.6 1.4
v -0.6 6.6 0.0999999
v 4.3 6.6 0.0999999
v 1.5 6.7 2
v 2.6 6.7 2
v 2.8 6.7 2
v 4 6.7 2
v 1.5 6.7 1.7
v 1.6 6.7 1.7
v 2.5 6.7 1.7
v 2.6 6.7 1.7
v 2.8 6.7 1.7
v 2.9 6.7 1.7
v 3.9 6.7 1.7
v 4 6.7 1.7
v 2.9 6.7 1.6
v 3.3 6.7 1.6
v 3.8 6.7 1.6
v 3.9 6.7 1.6
v -4.1 6.7 1.5
v -3.5 6.7 1.5
v -2.7 6.7 1.5
v -1.9 6.7 1.5
v -4.1 6.7 0.0999999
v -1.9 6.7 0.0999999
v -3.6 7.2 1.9
v -2.6 7.2 1.9
v -3.6 7.2 1.5
v -2.6 7.2 1.5
v 2.7 7.7 2
v 4.1 7.7 2
v 1.4 7.7 1.9
v 2.6 7.7 1.9
v 1.4 7.7 1.4
v 2.6 7.7 1.4
v 2.7 7.7 1.4
v 4.1 7.7 1.4

# faces
f 3/1/1 2/1/1 1/1/1
f 4/1/1 2/1/1 3/1/1
f 7/1/1 6/1/1 5/1/1
f 8/1/1 6/1/1 7/1/1
f 11/1/1 10/1/1 9/1/1
f 12/1/1 10/1/1 11/1/1
f 15/7/1 14/7/1 13/7/1
f 16/7/1 14/7/1 15/7/1
f 19/4/1 18/4/1 17/4/1
f 20/4/1 18/4/1 19/4/1
f 21/4/1 18/4/1 20/4/1
f 22/4/1 18/4/1 21/4/1
f 24/6/1 21/6/1 20/6/1
f 25/4/1 22/4/1 21/4/1
f 25/6/1 21/6/1 24/6/1
f 26/4/1 24/4/1 23/4/1
f 26/4/1 25/4/1 24/4/1
f 27/4/1 22/4/1 25/4/1
f 27/4/1 25/4/1 26/4/1
f 30/7/1 29/7/1 28/7/1
f 31/7/1 29/7/1 30/7/1
f 34/1/1 33/1/1 32/1/1
f 35/1/1 33/1/1 34/1/1
f 38/7/1 37/7/1 36/7/1
f 39/7/1 37/7/1 38/7/1
f 42/4/1 41/4/1 40/4/1
f 44/4/1 42/4/1 40/4/1
f 44/4/1 43/4/1 42/4/1
f 45/4/1 43/4/1 44/4/1
f 47/4/1 43/4/1 45/4/1
f 48/4/1 47/4/1 46/4/1
f 49/4/1 43/4/1 47/4/1
f 49/4/1 47/4/1 48/4/1
f 52/4/1 51/4/1 50/4/1
f 53/4/1 51/4/1 52/4/1
f 54/4/1 51/4/1 53/4/1
f 57/1/1 56/1/1 55/1/1
f 58/1/1 56/1/1 57/1/1
f 61/1/1 60/1/1 59/1/1
f 62/1/1 60/1/1 61/1/1
f 66/7/1 64/7/1 63/7/1
f 67/7/1 66/7/1 65/7/1
f 68/7/1 64/7/1 66/7/1
f 68/7/1 66/7/1 67/7/1
f 71/3/1 70/3/1 69/3/1
f 73/3/1 71/3/1 69/3/1
f 73/3/1 72/3/1 71/3/1
f 74/3/1 72/3/1 73/3/1
f 76/3/1 72/3/1 74/3/1
f 77/3/1 72/3/1 76/3/1
f 77/3/1 76/3/1 75/3/1
f 78/3/1 72/3/1 77/3/1
f 79/3/1 77/3/1 75/3/1
f 80/3/1 77/3/1 79/3/1
f 83/3/1 82/3/1 81/3/1
f 84/3/1 82/3/1 83/3/1
f 85/7/2 86/7/2 87/7/2
f 87/7/2 86/7/2 88/7/2
f 89/4/2 90/4/2 91/4/2
f 91/4/2 90/4/2 92/4/2
f 92/4/2 90/4/2 93/4/2
f 93/4/2 90/4/2 94/4/2
f 92/6/2 93/6/2 96/6/2
f 93/4/2 94/4/2 97/4/2
f 96/6/2 93/6/2 97/6/2
f 95/4/2 96/4/2 98/4/2
f 96/4/2 97/4/2 98/4/2
f 97/4/2 94/4/2 99/4/2
f 98/4/2 97/4/2 99/4/2
f 100/7/2 101/7/2 102/7/2
f 102/7/2 101/7/2 103/7/2
f 104/1/2 105/1/2 106/1/2
f 106/1/2 105/1/2 107/1/2
f 108/1/2 109/1/2 110/1/2
f 110/1/2 109/1/2 111/1/2
f 112/1/2 113/1/2 114/1/2
f 114/1/2 113/1/2 115/1/2
f 116/1/2 117/1/2 118/1/2
f 118/1/2 117/1/2 119/1/2
f 120/4/2 121/4/2 122/4/2
f 122/4/2 121/4/2 123/4/2
f 123/4/2 121/4/2 124/4/2
f 125/4/2 126/4/2 127/4/2
f 125/4/2 127/4/2 129/4/2
f 127/4/2 128/4/2 129/4/2
f 129/4/2 128/4/2 130/4/2
f 130/4/2 128/4/2 132/4/2
f 131/4/2 132/4/2 133/4/2
f 132/4/2 128/4/2 134/4/2
f 133/4/2 132/4/2 134/4/2
f 133/7/2 134/7/2 135/7/2
f 134/4/2 128/4/2 135/4/2
f 135/4/2 128/4/2 136/4/2
f 133/7/2 135/7/2 137/7/2
f 135/7/2 136/7/2 137/7/2
f 137/7/2 136/7/2 138/7/2
f 139/3/2 140/3/2 141/3/2
f 141/3/2 140/3/2 142/3/2
f 143/3/2 144/3/2 145/3/2
f 143/3/2 145/3/2 147/3/2
f 145/3/2 146/3/2 147/3/2
f 147/3/2 146/3/2 148/3/2
f 148/3/2 146/3/2 150/3/2
f 149/3/2 150/3/2 151/3/2
f 150/3/2 146/3/2 152/3/2
f 151/3/2 150/3/2 152/3/2
f 152/3/2 146/3/2 153/3/2
f 153/3/2 146/3/2 154/3/2
f 155/7/2 156/7/2 157/7/2
f 155/7/2 157/7/2 159/7/2
f 157/7/2 158/7/2 159/7/2
f 159/7/2 158/7/2 160/7/2
f 161/1/2 162/1/2 163/1/2
f 163/1/2 162/1/2 164/1/2
f 167/4/3 166/4/3 165/4/3
f 168/4/3 166/4/3 167/4/3
f 173/3/3 172/3/3 171/3/3
f 174/3/3 172/3/3 173/3/3
f 175/7/3 170/7/3 169/7/3
f 176/7/3 170/7/3 175/7/3
f 182/7/3 178/7/3 177/7/3
f 183/4/3 180/4/3 179/4/3
f 184/4/3 182/4/3 181/4/3
f 185/4/3 183/4/3 179/4/3
f 185/7/3 184/7/3 183/7/3
f 186/4/3 182/4/3 184/4/3
f 186/7/3 184/7/3 185/7/3
f 187/4/3 185/4/3 179/4/3
f 188/4/3 185/4/3 187/4/3
f 189/4/3 182/4/3 186/4/3
f 190/7/3 178/7/3 182/7/3
f 190/4/3 182/4/3 189/4/3
f 191/7/3 178/7/3 190/7/3
f 192/7/3 178/7/3 191/7/3
f 196/7/3 194/7/3 193/7/3
f 197/4/3 196/4/3 195/4/3
f 198/7/3 194/7/3 196/7/3
f 198/4/3 196/4/3 197/4/3
f 199/7/3 194/7/3 198/7/3
f 202/3/3 201/3/3 200/3/3
f 203/3/3 201/3/3 202/3/3
f 206/6/3 205/6/3 204/6/3
f 207/6/3 205/6/3 206/6/3
f 210/6/3 209/6/3 208/6/3
f 211/6/3 209/6/3 210/6/3
f 214/4/3 213/4/3 212/4/3
f 215/4/3 213/4/3 214/4/3
f 218/4/3 217/4/3 216/4/3
f 219/4/3 217/4/3 218/4/3
f 222/3/3 221/3/3 220/3/3
f 223/3/3 221/3/3 222/3/3
f 226/3/3 225/3/3 224/3/3
f 227/3/3 225/3/3 226/3/3
f 230/6/3 229/6/3 228/6/3
f 231/6/3 229/6/3 230/6/3
f 232/7/3 231/7/3 230/7/3
f 233/7/3 231/7/3 232/7/3
f 234/7/3 232/7/3 230/7/3
f 234/6/3 233/6/3 232/6/3
f 235/7/3 231/7/3 233/7/3
f 235/6/3 233/6/3 234/6/3
f 236/7/3 234/7/3 230/7/3
f 236/7/3 235/7/3 234/7/3
f 237/7/3 231/7/3 235/7/3
f 237/7/3 235/7/3 236/7/3
f 238/6/3 237/6/3 236/6/3
f 239/6/3 237/6/3 238/6/3
f 242/6/3 241/6/3 240/6/3
f 243/6/3 241/6/3 242/6/3
f 244/7/3 243/7/3 242/7/3
f 245/7/3 243/7/3 244/7/3
f 246/7/3 244/7/3 242/7/3
f 246/6/3 245/6/3 244/6/3
f 247/7/3 243/7/3 245/7/3
f 247/6/3 245/6/3 246/6/3
f 248/7/3 246/7/3 242/7/3
f 248/7/3 247/7/3 246/7/3
f 249/7/3 243/7/3 247/7/3
f 249/7/3 247/7/3 248/7/3
f 250/6/3 249/6/3 248/6/3
f 251/6/3 249/6/3 250/6/3
f 256/1/3 253/1/3 252/1/3
f 257/1/3 255/1/3 254/1/3
f 258/1/3 255/1/3 257/1/3
f 258/1/3 257/1/3 256/1/3
f 259/1/3 255/1/3 258/1/3
f 260/1/3 258/1/3 256/1/3
f 262/1/3 256/1/3 252/1/3
f 262/1/3 261/1/3 260/1/3
f 262/1/3 260/1/3 256/1/3
f 263/1/3 261/1/3 262/1/3
f 264/1/3 262/1/3 252/1/3
f 265/1/3 262/1/3 264/1/3
f 268/1/3 267/1/3 266/1/3
f 269/1/3 267/1/3 268/1/3
f 270/1/3 267/1/3 269/1/3
f 271/1/3 267/1/3 270/1/3
f 272/1/3 267/1/3 271/1/3
f 273/1/3 267/1/3 272/1/3
f 274/1/3 272/1/3 271/1/3
f 276/1/3 268/1/3 266/1/3
f 277/1/3 270/1/3 269/1/3
f 278/1/3 270/1/3 277/1/3
f 279/1/3 275/1/3 274/1/3
f 279/1/3 274/1/3 271/1/3
f 282/1/3 279/1/3 278/1/3
f 282/1/3 275/1/3 279/1/3
f 282/1/3 278/1/3 277/1/3
f 282/1/3 277/1/3 276/1/3
f 283/1/3 275/1/3 282/1/3
f 284/7/3 281/7/3 280/7/3
f 285/7/3 281/7/3 284/7/3
f 286/1/3 282/1/3 276/1/3
f 288/1/3 276/1/3 266/1/3
f 288/1/3 287/1/3 286/1/3
f 288/1/3 286/1/3 276/1/3
f 289/1/3 287/1/3 288/1/3
f 290/4/4 291/4/4 292/4/4
f 292/4/4 291/4/4 293/4/4
f 294/7/4 295/7/4 297/7/4
f 296/4/4 297/4/4 298/4/4
f 297/7/4 295/7/4 299/7/4
f 298/4/4 297/4/4 299/4/4
f 299/7/4 295/7/4 300/7/4
f 300/7/4 295/7/4 301/7/4
f 302/7/4 303/7/4 304/7/4
f 304/7/4 303/7/4 305/7/4
f 306/7/4 307/7/4 309/7/4
f 309/7/4 307/7/4 310/7/4
f 308/4/4 309/4/4 311/4/4
f 309/4/4 310/4/4 311/4/4
f 310/7/4 307/7/4 312/7/4
f 311/4/4 310/4/4 312/4/4
f 312/7/4 307/7/4 313/7/4
f 314/7/4 315/7/4 317/7/4
f 317/7/4 315/7/4 318/7/4
f 316/3/4 317/3/4 319/3/4
f 317/3/4 318/3/4 319/3/4
f 318/7/4 315/7/4 320/7/4
f 319/3/4 318/3/4 320/3/4
f 320/7/4 315/7/4 321/7/4
f 321/7/4 315/7/4 322/7/4
f 323/1/4 324/1/4 327/1/4
f 325/1/4 326/1/4 328/1/4
f 323/1/4 327/1/4 329/1/4
f 327/1/4 328/1/4 329/1/4
f 328/1/4 326/1/4 330/1/4
f 329/1/4 328/1/4 330/1/4
f 323/1/4 329/1/4 331/1/4
f 331/1/4 329/1/4 332/1/4
f 333/1/4 334/1/4 335/1/4
f 335/1/4 334/1/4 336/1/4
f 336/1/4 334/1/4 337/1/4
f 337/1/4 334/1/4 338/1/4
f 333/1/4 335/1/4 339/1/4
f 336/1/4 337/1/4 340/1/4
f 340/1/4 337/1/4 341/1/4
f 338/1/4 334/1/4 342/1/4
f 340/1/4 341/1/4 343/1/4
f 341/1/4 342/1/4 343/1/4
f 333/1/4 339/1/4 343/1/4
f 339/1/4 340/1/4 343/1/4
f 342/1/4 334/1/4 344/1/4
f 343/1/4 342/1/4 344/1/4
f 349/1/5 346/1/5 345/1/5
f 350/1/5 346/1/5 349/1/5
f 351/1/5 348/1/5 347/1/5
f 352/1/5 348/1/5 351/1/5
f 355/1/5 354/1/5 353/1/5
f 356/1/5 354/1/5 355/1/5
f 359/1/5 358/1/5 357/1/5
f 360/1/5 358/1/5 359/1/5
f 363/1/5 362/1/5 361/1/5
f 364/1/5 362/1/5 363/1/5
f 367/4/5 366/4/5 365/4/5
f 368/4/5 366/4/5 367/4/5
f 373/4/5 370/4/5 369/4/5
f 374/4/5 370/4/5 373/4/5
f 375/3/5 372/3/5 371/3/5
f 376/3/5 372/3/5 375/3/5
f 381/4/5 378/4/5 377/4/5
f 382/4/5 378/4/5 381/4/5
f 383/4/5 380/4/5 379/4/5
f 384/4/5 380/4/5 383/4/5
f 389/7/5 386/7/5 385/7/5
f 390/7/5 386/7/5 389/7/5
f 391/7/5 388/7/5 387/7/5
f 392/7/5 388/7/5 391/7/5
f 397/4/5 394/4/5 393/4/5
f 398/4/5 394/4/5 397/4/5
f 399/4/5 394/4/5 398/4/5
f 400/4/5 394/4/5 399/4/5
f 401/3/5 396/3/5 395/3/5
f 402/3/5 396/3/5 401/3/5
f 403/3/5 396/3/5 402/3/5
f 404/3/5 396/3/5 403/3/5
f 405/4/5 399/4/5 398/4/5
f 406/4/5 399/4/5 405/4/5
f 407/4/5 399/4/5 406/4/5
f 408/4/5 399/4/5 407/4/5
f 409/3/5 403/3/5 402/3/5
f 410/3/5 403/3/5 409/3/5
f 411/3/5 403/3/5 410/3/5
f 412/3/5 403/3/5 411/3/5
f 415/7/5 414/7/5 413/7/5
f 416/7/5 414/7/5 415/7/5
f 421/7/5 418/7/5 417/7/5
f 422/7/5 418/7/5 421/7/5
f 423/7/5 421/7/5 417/7/5
f 424/7/5 421/7/5 423/7/5
f 425/7/5 418/7/5 422/7/5
f 426/7/5 418/7/5 425/7/5
f 427/7/5 420/7/5 419/7/5
f 428/7/5 420/7/5 427/7/5
f 431/7/5 430/7/5 429/7/5
f 432/7/5 430/7/5 431/7/5
f 433/1/6 434/1/6 437/1/6
f 437/1/6 434/1/6 438/1/6
f 435/1/6 436/1/6 439/1/6
f 439/1/6 436/1/6 440/1/6
f 441/1/6 442/1/6 443/1/6
f 443/1/6 442/1/6 444/1/6
f 445/1/6 446/1/6 447/1/6
f 447/1/6 446/1/6 448/1/6
f 449/4/6 450/4/6 453/4/6
f 453/4/6 450/4/6 454/4/6
f 451/4/6 452/4/6 455/4/6
f 455/4/6 452/4/6 456/4/6
f 457/4/6 458/4/6 459/4/6
f 459/4/6 458/4/6 460/4/6
f 460/4/6 458/4/6 461/4/6
f 461/4/6 458/4/6 462/4/6
f 463/1/6 464/1/6 469/1/6
f 465/1/6 466/1/6 470/1/6
f 470/1/6 466/1/6 471/1/6
f 467/1/6 468/1/6 472/1/6
f 470/1/6 471/1/6 473/1/6
f 471/1/6 472/1/6 473/1/6
f 463/1/6 469/1/6 473/1/6
f 469/1/6 470/1/6 473/1/6
f 472/1/6 468/1/6 474/1/6
f 473/1/6 472/1/6 474/1/6
f 475/4/6 476/4/6 479/4/6
f 479/4/6 476/4/6 480/4/6
f 480/4/6 476/4/6 481/4/6
f 481/4/6 476/4/6 482/4/6
f 477/3/6 478/3/6 483/3/6
f 483/3/6 478/3/6 484/3/6
f 484/3/6 478/3/6 485/3/6
f 485/3/6 478/3/6 486/3/6
f 484/3/6 485/3/6 487/3/6
f 487/3/6 485/3/6 488/3/6
f 488/3/6 485/3/6 489/3/6
f 489/3/6 485/3/6 490/3/6
f 491/1/6 492/1/6 495/1/6
f 493/1/6 494/1/6 495/1/6
f 492/1/6 493/1/6 495/1/6
f 495/1/6 494/1/6 496/1/6
f 497/7/6 498/7/6 499/7/6
f 499/7/6 498/7/6 500/7/6
f 503/7/6 504/7/6 505/7/6
f 505/7/6 504/7/6 506/7/6
f 501/7/6 502/7/6 507/7/6
f 507/7/6 502/7/6 508/7/6
